<svg width="166" height="156" viewBox="0 0 166 156" fill="none" xmlns="http://www.w3.org/2000/svg">
<path d="M0 0H161C161 0 166.752 20.9706 165.5 34.5C164.231 48.2112 155.129 54.2446 154.5 68C153.769 83.996 165.663 91.4881 165.5 107.5C165.343 122.948 165.5 139 154.5 145.5C143.5 152 129.62 137.276 113.5 139C96.7711 140.789 90.2874 153.886 73.5 155C57.4797 156.063 49.5541 145.713 33.5 145.5C20.4361 145.326 0 151 0 151V0Z" fill="#933FA1"/>
<path d="M85.3438 96.875H88.6562V100.188H85.3438V96.875Z" fill="white"/>
<path d="M85.3438 106.812H88.6562V110.125H85.3438V106.812Z" fill="white"/>
<path d="M85.3438 116.75H88.6562V120.062H85.3438V116.75Z" fill="white"/>
<path d="M126.75 100.493V100.071C126.738 96.3652 125.602 92.7501 123.491 89.7041C121.38 86.6581 118.394 84.3245 114.928 83.0121L102.315 78.2827C104.903 75.3516 106.47 71.6601 106.78 67.7625L110.959 62.5386C112.601 60.4813 113.497 57.928 113.5 55.2958V45.1626C113.51 41.6314 112.262 38.2122 109.979 35.5177C107.697 32.8233 104.53 31.0297 101.045 30.4585L92.3691 29.0126L87 27.2236L81.6309 29.0125L72.955 30.4584C69.4704 31.0296 66.303 32.8232 64.0207 35.5177C61.7384 38.2122 60.4902 41.6314 60.5 45.1626V55.2958C60.5032 57.928 61.399 60.4813 63.041 62.5386L67.2199 67.7625C67.5303 71.66 69.097 75.3516 71.6846 78.2826L59.0718 83.0121C55.606 84.3245 52.6202 86.6581 50.5093 89.7041C48.3985 92.7501 47.2619 96.3652 47.25 100.071V126.688H130.062V105.156C130.059 104.132 129.739 103.134 129.146 102.299C128.553 101.464 127.716 100.833 126.75 100.493ZM75.5623 81.6227L80.7753 84.9402C81.6785 85.5121 82.657 85.9553 83.6826 86.2569L78.6435 91.2966L68.9763 82.8365L74.4243 80.7937C74.7993 81.0747 75.1624 81.3682 75.5623 81.6227ZM98.4377 81.6227C98.8376 81.3681 99.2007 81.0747 99.5757 80.7937L105.024 82.8365L95.3565 91.2966L90.3173 86.2568C91.3429 85.9552 92.3215 85.512 93.2247 84.94L98.4377 81.6227ZM100.015 62.0938C99.6497 60.6753 98.8244 59.4179 97.6681 58.5188C96.5117 57.6196 95.0898 57.1294 93.625 57.1251H92.2372C91.2263 57.124 90.2285 57.3546 89.3206 57.7993C88.4127 58.244 87.6189 58.8909 87 59.6903C86.3811 58.8909 85.5873 58.244 84.6794 57.7993C83.7715 57.3546 82.7737 57.124 81.7628 57.1251H80.375C78.9102 57.1294 77.4883 57.6196 76.3319 58.5188C75.1756 59.4179 74.3503 60.6753 73.9852 62.0938H70.4375V55.1809C70.4357 54.7673 70.5896 54.3682 70.8686 54.0628C71.1475 53.7574 71.5312 53.5682 71.9433 53.5328L101.756 50.822C101.808 50.8171 101.86 50.8139 101.911 50.8139C102.35 50.8153 102.77 50.9906 103.08 51.3014C103.389 51.6122 103.563 52.0331 103.562 52.4717V62.0938H100.015ZM96.9375 63.7501C96.9365 64.6283 96.5872 65.4703 95.9662 66.0913C95.3452 66.7123 94.5032 67.0616 93.625 67.0626H92.2372C91.5418 67.0632 90.8638 66.8446 90.2998 66.4378C89.7357 66.031 89.3143 65.4567 89.0953 64.7966L88.746 63.7501L89.0954 62.7036C89.3143 62.0435 89.7358 61.4692 90.2998 61.0624C90.8639 60.6556 91.5418 60.437 92.2372 60.4376H93.625C94.5032 60.4386 95.3452 60.7879 95.9662 61.4089C96.5872 62.0299 96.9365 62.8719 96.9375 63.7501ZM85.254 63.7501L84.9046 64.7966C84.6857 65.4567 84.2642 66.0309 83.7002 66.4378C83.1361 66.8446 82.4582 67.0632 81.7628 67.0626H80.375C79.4965 67.0626 78.6539 66.7136 78.0327 66.0924C77.4115 65.4712 77.0625 64.6286 77.0625 63.7501C77.0625 62.8716 77.4115 62.029 78.0327 61.4078C78.6539 60.7866 79.4965 60.4376 80.375 60.4376H81.7628C82.4582 60.437 83.1362 60.6556 83.7002 61.0624C84.2643 61.4692 84.6857 62.0435 84.9047 62.7036L85.254 63.7501ZM63.8125 55.2958V45.1626C63.8049 42.416 64.7757 39.7565 66.5509 37.6608C68.3261 35.565 70.7897 34.17 73.5001 33.7257L82.3038 32.2587L87 30.714L91.4447 32.1956L100.5 33.7257C103.21 34.17 105.674 35.565 107.449 37.6608C109.224 39.7565 110.195 42.416 110.188 45.1626V55.2958C110.185 57.1756 109.545 58.999 108.373 60.4683L106.875 62.3406V52.4717C106.875 51.7813 106.731 51.0983 106.453 50.4665C106.174 49.8347 105.767 49.2679 105.257 48.8022C104.747 48.3365 104.146 47.9822 103.492 47.7619C102.837 47.5415 102.144 47.46 101.457 47.5224L71.6433 50.2332C70.4066 50.3402 69.2554 50.9085 68.4183 51.8251C67.5813 52.7417 67.1196 53.9396 67.125 55.1809V62.3406L65.6273 60.4683C64.4546 58.9991 63.8148 57.1756 63.8125 55.2958ZM70.4375 65.4063H73.9852C74.3503 66.8249 75.1756 68.0823 76.3319 68.9814C77.4883 69.8806 78.9102 70.3708 80.375 70.3751H81.7628C82.7737 70.3762 83.7715 70.1455 84.6794 69.7009C85.5873 69.2562 86.3811 68.6092 87 67.8098C87.6189 68.6092 88.4127 69.2562 89.3206 69.7009C90.2285 70.1455 91.2263 70.3762 92.2372 70.3751H93.625C95.0898 70.3708 96.5117 69.8806 97.6681 68.9814C98.8244 68.0823 99.6497 66.8249 100.015 65.4063H103.562V66.2523C103.569 68.7612 102.939 71.2308 101.732 73.43C100.524 75.6293 98.7788 77.4865 96.6585 78.8278L91.4455 82.1452C90.116 82.9882 88.5742 83.4359 87 83.4359C85.4258 83.4359 83.884 82.9882 82.5545 82.1452L77.3415 78.8278C75.2212 77.4865 73.4758 75.6293 72.2684 73.43C71.0609 71.2308 70.431 68.7612 70.4375 66.2523V65.4063ZM68.7812 123.375V106.813H65.4688V123.375H50.5625V100.071C50.5721 97.0391 51.5019 94.0813 53.229 91.5892C54.9561 89.097 57.3991 87.1879 60.2347 86.1143L65.4538 84.1573L78.7939 95.8286L87 87.6233L95.206 95.8286L108.546 84.1573L113.765 86.1143C116.601 87.1879 119.044 89.097 120.771 91.5892C122.498 94.0813 123.428 97.0391 123.438 100.071V100.188H98.5938C97.2764 100.189 96.0134 100.713 95.0819 101.645C94.1504 102.576 93.6264 103.839 93.625 105.156V123.375H68.7812ZM126.75 123.375H96.9375V105.156C96.9379 104.717 97.1126 104.296 97.4231 103.986C97.7336 103.675 98.1546 103.501 98.5938 103.5H125.094C125.533 103.501 125.954 103.675 126.264 103.986C126.575 104.296 126.75 104.717 126.75 105.156V123.375Z" fill="white"/>
<path d="M111.844 108.469C110.861 108.469 109.9 108.76 109.083 109.306C108.266 109.852 107.629 110.628 107.253 111.536C106.877 112.444 106.779 113.443 106.97 114.407C107.162 115.371 107.635 116.256 108.33 116.951C109.025 117.646 109.911 118.119 110.874 118.311C111.838 118.502 112.837 118.404 113.745 118.028C114.653 117.652 115.429 117.015 115.975 116.198C116.521 115.381 116.813 114.42 116.813 113.437C116.811 112.12 116.287 110.857 115.356 109.926C114.424 108.994 113.161 108.47 111.844 108.469ZM111.844 115.094C111.516 115.094 111.196 114.997 110.924 114.815C110.651 114.633 110.439 114.374 110.314 114.071C110.188 113.769 110.155 113.436 110.219 113.114C110.283 112.793 110.441 112.498 110.673 112.266C110.904 112.035 111.199 111.877 111.521 111.813C111.842 111.749 112.175 111.782 112.478 111.907C112.78 112.033 113.039 112.245 113.221 112.517C113.403 112.79 113.5 113.11 113.5 113.437C113.5 113.877 113.325 114.298 113.014 114.608C112.704 114.919 112.283 115.093 111.844 115.094Z" fill="white"/>
</svg>
