<svg width="179" height="165" viewBox="0 0 179 165" fill="none" xmlns="http://www.w3.org/2000/svg">
<path d="M0 0H168C168 0 177.074 23.2918 178.5 39C179.953 55.0039 175 63.9303 175 80C175 96.0697 180.445 105.048 178.5 121C176.818 134.794 178.507 145.905 168 155C155.008 166.246 141.113 156.55 124 155C109.006 153.642 100.995 149.851 86 148.5C69.0807 146.976 59.225 145.524 42.5 148.5C25.0398 151.607 0 164.5 0 164.5V0Z" fill="#933FA1"/>
<path d="M120.906 106.556H123.925V109.607H120.906V106.556Z" fill="white"/>
<path d="M132.981 80.6246V83.6754H129.962V82.15C129.962 79.6266 127.931 77.5739 125.434 77.5739V74.5231C125.434 72.8406 124.081 71.4724 122.416 71.4724H113.36C111.695 71.4724 110.341 72.8406 110.341 74.5231V77.5739H95.4553C96.7141 76.6719 97.7267 75.4169 98.3324 73.8915L100.496 68.4217H98.2669C94.938 68.4217 92.2296 65.6852 92.2296 62.3202V47.0665C92.2296 36.1327 83.428 27.2367 72.6085 27.2367C61.7898 27.2367 52.9875 36.1327 52.9875 47.0665V62.3202C52.9875 65.6852 50.2798 68.4217 46.9502 68.4217H44.7216L46.8854 73.89C47.5273 75.5085 48.6246 76.8276 49.9917 77.7355C47.9002 79.1894 46.3437 81.3642 45.7099 83.9271L42 98.929H90.7203V103.505H93.7389V98.929H96.7575V92.8276H99.7762V86.7261H114.869V106.556H89.211C86.7149 106.556 84.683 108.609 84.683 111.132V121.81H129.962V92.8276H132.981V95.8783H136V80.6246H132.981ZM113.36 74.5231H122.416V77.5739H113.36V74.5231ZM49.0786 71.2177C53.0479 70.2472 56.0061 66.6259 56.0061 62.3202V47.0665C56.0061 37.8152 63.4546 30.2874 72.6085 30.2874C81.7632 30.2874 89.211 37.8152 89.211 47.0665V62.3202C89.211 66.6259 92.1699 70.2472 96.1392 71.2177L95.529 72.7594C94.809 74.5827 93.1715 75.8042 91.2745 76.0068L81.6644 73.3575V69.4726C84.4362 66.9574 86.1924 63.3205 86.1924 59.2694V50.1172C86.1924 47.5938 84.1613 45.5411 81.6644 45.5411H63.5527C61.0565 45.5411 59.0247 47.5938 59.0247 50.1172V59.2694C59.0247 63.3205 60.7817 66.9574 63.5527 69.4726V73.3575L53.9448 76.0053C52.0478 75.8027 50.4096 74.579 49.6903 72.7565L49.0786 71.2177ZM78.6458 74.2282C78.3186 74.9574 76.8439 77.5739 72.6085 77.5739C68.4056 77.5739 66.9155 74.976 66.5713 74.2237V71.5484C68.3931 72.4667 70.4382 72.9978 72.6085 72.9978C74.7789 72.9978 76.8247 72.4682 78.6458 71.5484V74.2282ZM72.6085 69.947C66.7843 69.947 62.0433 65.1572 62.0433 59.2694V50.1172C62.0433 49.2763 62.7199 48.5919 63.5527 48.5919H81.6644C82.4979 48.5919 83.1737 49.2763 83.1737 50.1172V59.2694C83.1737 65.1572 78.4335 69.947 72.6085 69.947ZM45.8639 95.8783L48.6364 84.6682C49.2975 81.9958 51.3426 79.8843 53.9721 79.1603L54.2602 79.0806C54.3398 79.0836 54.4172 79.0992 54.4968 79.0992V79.0166L64.2756 76.3211C65.2904 77.9843 67.6753 80.6246 72.6085 80.6246C77.5425 80.6246 79.9274 77.9843 80.9414 76.3211L87.2307 78.0543C85.7295 78.7998 84.683 80.3468 84.683 82.15V92.8276H87.7017V95.8783H45.8639ZM93.7389 95.8783H90.7203V92.8276H93.7389V95.8783ZM96.7575 83.6754V89.7768H87.7017V82.15C87.7017 81.3091 88.3782 80.6246 89.211 80.6246H125.434C126.268 80.6246 126.944 81.3091 126.944 82.15V100.454H117.888V83.6754H96.7575ZM87.7017 118.759V115.708H90.7203V112.657H87.7017V111.132C87.7017 110.291 88.3782 109.607 89.211 109.607H117.888V103.505H126.944V112.657H93.7389V115.708H126.944V118.759H87.7017ZM129.962 89.7768V86.7261H132.981V89.7768H129.962Z" fill="white"/>
</svg>
