<svg width="175" height="159" viewBox="0 0 175 159" fill="none" xmlns="http://www.w3.org/2000/svg">
<path d="M0 0H151C151 0 161.288 21.3006 164 36C167.011 52.3219 161.368 62.1128 164 78.5C166.165 91.9802 175.867 98.4753 174 112C171.895 127.245 164.208 136.101 151 144C138.933 151.216 129.341 147.526 115.5 150C98.0835 153.113 88.6481 159.753 71 158.5C58.1023 157.584 51.8028 151.81 39 150C23.9196 147.867 0 150 0 150V0Z" fill="#933FA1"/>
<path d="M69.8126 53.125H72.9376V50H69.8126C69.8126 48.7568 69.3188 47.5645 68.4397 46.6854C67.5606 45.8064 66.3683 45.3125 65.1251 45.3125C63.8819 45.3125 62.6896 45.8064 61.8106 46.6854C60.9315 47.5645 60.4376 48.7568 60.4376 50V56.25H59.2542C57.0824 56.2524 55.0003 57.1163 53.4646 58.652C51.9289 60.1876 51.0651 62.2698 51.0626 64.4416V77.964L43.2829 115.306C43.2611 115.411 43.2501 115.518 43.2501 115.625V120.312C43.2501 120.518 43.2905 120.721 43.369 120.91C43.4476 121.1 43.5627 121.272 43.7078 121.417C43.8528 121.562 44.0251 121.678 44.2147 121.756C44.4042 121.835 44.6074 121.875 44.8126 121.875H57.3126C57.5178 121.875 57.721 121.835 57.9106 121.756C58.1001 121.678 58.2724 121.562 58.4175 121.417C58.5626 121.272 58.6777 121.1 58.7562 120.91C58.8347 120.721 58.8751 120.518 58.8751 120.312V118.75C58.8751 118.545 58.8347 118.342 58.7562 118.152C58.6777 117.962 58.5626 117.79 58.4175 117.645L54.4263 113.654L61.2011 94.4584L63.5626 115.712V120.312C63.5626 120.518 63.603 120.721 63.6815 120.91C63.7601 121.1 63.8752 121.272 64.0203 121.417C64.1653 121.562 64.3376 121.678 64.5272 121.756C64.7167 121.835 64.9199 121.875 65.1251 121.875H77.6251C77.8303 121.875 78.0335 121.835 78.2231 121.756C78.4126 121.678 78.5849 121.562 78.73 121.417C78.8751 121.272 78.9902 121.1 79.0687 120.91C79.1472 120.721 79.1876 120.518 79.1876 120.312V118.75C79.1876 118.507 79.1311 118.268 79.0227 118.051C78.9142 117.834 78.7567 117.646 78.5626 117.5L72.9376 113.281V88.1835L76.8499 90.4191C77.086 90.554 77.3532 90.625 77.6251 90.625H89.478L95.2703 96.4173C95.4154 96.5624 95.5876 96.6775 95.7772 96.7561C95.9668 96.8346 96.1699 96.875 96.3751 96.875H108.875V104.688H101.063C100.793 104.688 100.528 104.757 100.293 104.89C100.058 105.023 99.8616 105.215 99.7228 105.446L95.4905 112.5H85.4376C85.2324 112.5 85.0292 112.54 84.8397 112.619C84.6501 112.697 84.4779 112.813 84.3328 112.958C84.1877 113.103 84.0726 113.275 83.9941 113.465C83.9155 113.654 83.8751 113.857 83.8751 114.062V120.312C83.8751 120.518 83.9155 120.721 83.9941 120.91C84.0726 121.1 84.1877 121.272 84.3328 121.417C84.4779 121.562 84.6501 121.678 84.8397 121.756C85.0292 121.835 85.2324 121.875 85.4376 121.875H129.188C129.393 121.875 129.596 121.835 129.786 121.756C129.975 121.678 130.147 121.562 130.292 121.417C130.438 121.272 130.553 121.1 130.631 120.91C130.71 120.721 130.75 120.518 130.75 120.312V84.375C130.75 84.0202 130.629 83.676 130.408 83.3989L124.5 76.0144V40.625C124.5 40.4198 124.46 40.2166 124.381 40.0271C124.303 39.8375 124.188 39.6652 124.042 39.5201C123.897 39.375 123.725 39.2599 123.536 39.1814C123.346 39.1029 123.143 39.0625 122.938 39.0625H107.313V29.6875C107.313 29.4823 107.272 29.2791 107.194 29.0896C107.115 28.9 107 28.7277 106.855 28.5826C106.71 28.4375 106.538 28.3224 106.348 28.2439C106.159 28.1654 105.955 28.125 105.75 28.125H79.1876C78.9824 28.125 78.7792 28.1654 78.5897 28.2439C78.4001 28.3224 78.2279 28.4375 78.0828 28.5826C77.9377 28.7277 77.8226 28.9 77.7441 29.0896C77.6655 29.2791 77.6251 29.4823 77.6251 29.6875V40.625C77.6251 40.6297 77.6258 40.6342 77.6258 40.6388C77.626 40.6587 77.6279 40.6786 77.6288 40.6986C77.6306 40.736 77.6327 40.7732 77.637 40.8098C77.6393 40.8288 77.6427 40.8476 77.6457 40.8665C77.6517 40.905 77.6586 40.943 77.6673 40.9804C77.6691 40.9882 77.6698 40.9962 77.6718 41.004L79.1876 47.0675V54.6875C79.1876 54.9301 79.2441 55.1693 79.3526 55.3863L80.9151 58.5113C81.0449 58.7708 81.2443 58.9891 81.4912 59.1417C81.738 59.2942 82.0224 59.375 82.3126 59.375H85.4376V67.1875H88.5626V59.375H91.6876C91.9778 59.375 92.2622 59.2942 92.5091 59.1417C92.7559 58.9891 92.9554 58.7708 93.0851 58.5113L94.6476 55.3863C94.7562 55.1693 94.8126 54.9301 94.8126 54.6875V47.0675L95.3041 45.1017L98.1026 50.6988C98.2324 50.9583 98.4318 51.1766 98.6787 51.3292C98.9255 51.4817 99.2099 51.5625 99.5001 51.5625H108.875V68.75H105.75C105.48 68.75 105.215 68.8199 104.98 68.9528C104.746 69.0857 104.549 69.2772 104.41 69.5086L100.178 76.5625H97.9376C97.9358 74.9055 97.2767 73.3168 96.105 72.1451C94.9333 70.9734 93.3447 70.3144 91.6876 70.3125H86.2018L77.6102 59.2661C76.8823 58.3242 75.9476 57.5622 74.8783 57.0392C73.809 56.5162 72.6337 56.2462 71.4433 56.25H69.8126V53.125ZM65.1251 48.4375C65.5394 48.438 65.9365 48.6027 66.2295 48.8957C66.5224 49.1886 66.6871 49.5857 66.6876 50H63.5626C63.5631 49.5857 63.7279 49.1886 64.0208 48.8957C64.3137 48.6027 64.7109 48.438 65.1251 48.4375ZM67.1453 72.9798C67.2904 73.1249 67.4626 73.24 67.6522 73.3186C67.8418 73.3971 68.0449 73.4375 68.2501 73.4375H74.5001C75.3286 73.4384 76.1229 73.768 76.7088 74.3538C77.2946 74.9397 77.6242 75.734 77.6251 76.5625H66.1515C65.5357 76.5642 64.9256 76.4437 64.3567 76.208C63.7877 75.9724 63.2712 75.6262 62.8369 75.1896L61.866 74.2188L65.1251 70.9597L67.1453 72.9798ZM59.7905 76.5625H54.1876V70.9597L59.7905 76.5625ZM55.1029 118.75H46.3751V116.906L52.1116 115.759L55.1029 118.75ZM75.0209 118.75H66.6876V116.845L71.0326 115.759L75.0209 118.75ZM69.8126 112.843L66.4806 113.675L63.5531 87.3275C63.514 86.9758 63.3567 86.6478 63.107 86.3972C62.8573 86.1465 62.5299 85.9881 62.1784 85.9477C61.8269 85.9073 61.4721 85.9875 61.172 86.175C60.872 86.3625 60.6445 86.6463 60.5267 86.98L51.4474 112.705L46.8245 113.629L53.8957 79.6875H65.1251V82.8125C65.1251 83.088 65.1979 83.3585 65.3362 83.5968C65.4744 83.835 65.6732 84.0324 65.9124 84.1691L69.8126 86.3978V112.843ZM97.0224 93.75L93.8973 90.625H108.875V93.75H97.0224ZM112 50.7812L121.375 43.75V75H112V50.7812ZM101.947 107.812H117.365L120.178 112.5H99.1347L101.947 107.812ZM127.625 118.75H87.0001V115.625H127.625V118.75ZM127.625 112.5H123.822L119.59 105.446C119.451 105.215 119.255 105.023 119.02 104.89C118.785 104.757 118.52 104.688 118.25 104.688H112V78.125H122.187L127.625 84.9231V112.5ZM80.7501 31.25H104.188V39.0625H80.7501V31.25ZM92.0302 45.3125H81.9701L81.1888 42.1875H92.8114L92.0302 45.3125ZM91.6876 54.3186L90.7219 56.25H83.2783L82.3126 54.3186V48.4375H91.6876V54.3186ZM100.466 48.4375L97.3408 42.1875H118.25L109.917 48.4375H100.466ZM106.635 71.875H108.875V76.5625H103.822L106.635 71.875ZM108.875 79.6875V87.5H78.0401L68.2501 81.9057V79.6875H108.875ZM85.4376 73.4375H91.6876C92.5161 73.4384 93.3104 73.768 93.8963 74.3538C94.4821 74.9397 94.8117 75.734 94.8126 76.5625H83.0313L78.8778 71.7167L81.6929 69.6054L84.2042 72.8343C84.3503 73.0221 84.5374 73.1741 84.7511 73.2786C84.9649 73.3832 85.1997 73.4375 85.4376 73.4375H85.4376ZM71.4433 59.375C72.1575 59.3727 72.8627 59.5347 73.5043 59.8485C74.1459 60.1623 74.7067 60.6195 75.1434 61.1847L79.774 67.1384L76.8398 69.339L74.124 66.1706C73.9162 65.9282 73.6392 65.7553 73.3302 65.6751C73.0211 65.5949 72.695 65.6113 72.3955 65.7221C72.0961 65.8328 71.8378 66.0327 71.6554 66.2947C71.4729 66.5567 71.3751 66.8682 71.3751 67.1875V70.3125H68.8973L63.105 64.5202L60.8953 66.7298L62.9155 68.75L59.6564 72.0091L55.6715 68.0243C54.963 67.3157 54.4804 66.4129 54.285 65.4301C54.0895 64.4472 54.1898 63.4285 54.5733 62.5027C54.9568 61.5769 55.6062 60.7856 56.4394 60.2289C57.2726 59.6722 58.2521 59.375 59.2542 59.375H60.874L61.5862 61.5118C61.8338 62.2546 62.3088 62.9006 62.944 63.3584C63.5791 63.8162 64.3422 64.0625 65.1251 64.0625C65.908 64.0625 66.6711 63.8162 67.3063 63.3584C67.9414 62.9006 68.4164 62.2546 68.664 61.5118L69.3763 59.375H71.4433ZM64.1324 59.2682C64.7866 59.4106 65.4637 59.4106 66.1179 59.2682L65.6994 60.5236C65.6592 60.6441 65.5822 60.749 65.4791 60.8232C65.376 60.8975 65.2522 60.9375 65.1251 60.9375C64.9981 60.9375 64.8742 60.8975 64.7712 60.8232C64.6681 60.749 64.591 60.6441 64.5508 60.5236L64.1324 59.2682ZM65.1251 56.25C64.7109 56.2495 64.3137 56.0848 64.0208 55.7918C63.7279 55.4989 63.5631 55.1018 63.5626 54.6875V53.125H66.6876V54.6875C66.6871 55.1018 66.5224 55.4989 66.2295 55.7918C65.9365 56.0848 65.5394 56.2495 65.1251 56.25Z" fill="white"/>
</svg>
