<svg width="160" height="146" viewBox="0 0 160 146" fill="none" xmlns="http://www.w3.org/2000/svg">
<path d="M0 0H153C153 0 155.164 17.8835 153 29C150.956 39.4996 144.434 43.8999 143 54.5C140.79 70.832 150.959 79.146 153 95.5C155.2 113.132 166.664 129.641 153 141C140.973 150.998 128.505 141.056 113 139C98.1557 137.032 90.3913 132.574 75.5 131C60.5481 129.42 51.8987 128.979 37 131C22.3548 132.987 0 141 0 141V0Z" fill="#933FA1"/>
<g clip-path="url(#clip0)">
<path d="M69.4219 55.2656C69.4219 54.184 68.9922 53.1468 68.2274 52.382C67.4626 51.6172 66.4253 51.1875 65.3438 51.1875C64.2622 51.1875 63.2249 51.6172 62.4601 52.382C61.6953 53.1468 61.2656 54.184 61.2656 55.2656H63.9844C63.9844 54.9051 64.1276 54.5593 64.3825 54.3044C64.6375 54.0495 64.9832 53.9062 65.3438 53.9062C65.7043 53.9062 66.05 54.0495 66.305 54.3044C66.5599 54.5593 66.7031 54.9051 66.7031 55.2656H69.4219Z" fill="white"/>
<path d="M81.6562 53.9062C82.0168 53.9062 82.3625 54.0495 82.6175 54.3044C82.8724 54.5593 83.0156 54.9051 83.0156 55.2656H85.7344C85.7344 54.184 85.3047 53.1468 84.5399 52.382C83.7751 51.6172 82.7378 51.1875 81.6562 51.1875C80.5747 51.1875 79.5374 51.6172 78.7726 52.382C78.0078 53.1468 77.5781 54.184 77.5781 55.2656H80.2969C80.2969 54.9051 80.4401 54.5593 80.695 54.3044C80.95 54.0495 81.2957 53.9062 81.6562 53.9062Z" fill="white"/>
<path d="M97.0036 83.0784L80.2969 78.6876V74.2968C83.1005 73.1204 85.5539 71.2417 87.4206 68.8417C89.2872 66.4417 90.5043 63.6013 90.9544 60.5943C92.4201 60.348 93.7642 59.6266 94.7796 58.5412C95.795 57.4559 96.4254 56.0668 96.5738 54.588C96.7221 53.1091 96.3802 51.6225 95.6006 50.3571C94.8209 49.0917 93.6469 48.1177 92.2594 47.5851L96.3103 42.5146C96.5193 42.2542 96.6251 41.926 96.6075 41.5925C96.59 41.2591 96.4503 40.9437 96.2152 40.7067L95.6442 40.1357L97.7377 36.982C97.8778 36.7805 97.9586 36.5436 97.9706 36.2985C97.9826 36.0533 97.9254 35.8097 97.8056 35.5954C97.6919 35.3768 97.5201 35.1938 97.309 35.0667C97.0979 34.9396 96.8558 34.8732 96.6094 34.875H94.4208L95.182 32.5912C95.2921 32.245 95.2628 31.8695 95.1005 31.5445L93.7411 28.8257C93.6311 28.5992 93.4589 28.4087 93.2447 28.2763C93.0305 28.1439 92.783 28.0752 92.5312 28.0781H85.2178L84.2255 26.107C84.0788 25.8149 83.8318 25.5854 83.5297 25.4605C83.2277 25.3357 82.8907 25.3239 82.5806 25.4273L79.3045 26.5284L77.1839 24.3942C76.9272 24.1395 76.5803 23.9966 76.2188 23.9966C75.8572 23.9966 75.5103 24.1395 75.2536 24.3942L73.5 26.1614L71.7464 24.3942C71.4897 24.1395 71.1428 23.9966 70.7812 23.9966C70.4197 23.9966 70.0728 24.1395 69.8161 24.3942L67.6955 26.5284L64.4194 25.4273C64.1093 25.3239 63.7723 25.3357 63.4703 25.4605C63.1682 25.5854 62.9212 25.8149 62.7745 26.107L61.7822 28.0781H54.4688C54.217 28.0752 53.9695 28.1439 53.7553 28.2763C53.5411 28.4087 53.3689 28.5992 53.2589 28.8257L51.8995 31.5445C51.7372 31.8695 51.7079 32.245 51.818 32.5912L52.5792 34.875H50.3906C50.1442 34.8732 49.9021 34.9396 49.691 35.0667C49.4799 35.1938 49.3081 35.3768 49.1944 35.5954C49.0746 35.8097 49.0174 36.0533 49.0294 36.2985C49.0414 36.5436 49.1222 36.7805 49.2623 36.982L51.3558 40.1357L50.7848 40.7067C50.5497 40.9437 50.41 41.2591 50.3925 41.5925C50.3749 41.926 50.4807 42.2542 50.6897 42.5146L54.7406 47.5851C53.6845 47.9904 52.7466 48.6536 52.0124 49.5142C51.2782 50.3748 50.7711 51.4055 50.5373 52.5123C50.3035 53.6191 50.3505 54.7668 50.6739 55.8508C50.9973 56.9348 51.5869 57.9206 52.3889 58.7184C53.3878 59.7023 54.6638 60.3569 56.0456 60.5943C56.4976 63.6006 57.7154 66.4401 59.5818 68.8398C61.4482 71.2395 63.9006 73.1187 66.7031 74.2968V78.6876L49.9828 83.0784C47.3737 83.7752 45.0671 85.313 43.4206 87.4536C41.774 89.5941 40.8793 92.218 40.875 94.9185V106.922C40.875 107.282 41.0182 107.628 41.2732 107.883C41.5281 108.138 41.8738 108.281 42.2344 108.281H104.766C105.126 108.281 105.472 108.138 105.727 107.883C105.982 107.628 106.125 107.282 106.125 106.922V94.9185C106.12 92.2161 105.224 89.5906 103.575 87.4498C101.925 85.3089 99.6155 83.7723 97.0036 83.0784ZM93.8906 53.9062C93.8933 54.9855 93.468 56.0218 92.708 56.7881C92.2736 57.2131 91.7483 57.5338 91.1719 57.7261V50.0728C91.964 50.3549 92.65 50.8743 93.1365 51.5602C93.623 52.2461 93.8863 53.0653 93.8906 53.9062ZM55.8281 57.7396C55.2608 57.5366 54.7422 57.2171 54.3056 56.8017C53.8184 56.3147 53.4625 55.7122 53.271 55.0504C53.0796 54.3887 53.059 53.6892 53.211 53.0173C53.363 52.3454 53.6828 51.723 54.1404 51.2081C54.5981 50.6932 55.1787 50.3026 55.8281 50.0728V57.7396ZM53.5716 41.767L54.0745 41.2776C54.2951 41.0547 54.4318 40.7625 54.4616 40.4503C54.4913 40.1381 54.4122 39.8253 54.2377 39.5648L52.9327 37.5937H54.4688C54.6848 37.5946 54.8978 37.5432 55.0896 37.4437C55.2813 37.3443 55.4461 37.1998 55.5698 37.0228C55.6962 36.8485 55.7793 36.6467 55.8124 36.434C55.8455 36.2213 55.8276 36.0038 55.7602 35.7993L54.5775 32.265L55.3116 30.7968H62.625C62.8768 30.7997 63.1242 30.731 63.3384 30.5986C63.5526 30.4662 63.7248 30.2757 63.8348 30.0492L64.6777 28.3771L67.6275 29.3695C67.8685 29.4471 68.1261 29.4577 68.3727 29.4002C68.6194 29.3428 68.8457 29.2194 69.0277 29.0432L70.7812 27.2761L72.5348 29.0432C72.7915 29.2979 73.1384 29.4408 73.5 29.4408C73.8616 29.4408 74.2085 29.2979 74.4652 29.0432L76.2188 27.2761L77.9723 29.0432C78.1525 29.2221 78.3789 29.3474 78.6261 29.405C78.8734 29.4626 79.1318 29.4503 79.3725 29.3695L82.3223 28.3771L83.1652 30.0492C83.2752 30.2757 83.4474 30.4662 83.6616 30.5986C83.8758 30.731 84.1232 30.7997 84.375 30.7968H91.6884L92.4225 32.265L91.2398 35.7993C91.1724 36.0038 91.1545 36.2213 91.1876 36.434C91.2207 36.6467 91.3038 36.8485 91.4302 37.0228C91.5539 37.1998 91.7187 37.3443 91.9104 37.4437C92.1022 37.5432 92.3152 37.5946 92.5312 37.5937H94.0673L92.7623 39.5648C92.5878 39.8253 92.5087 40.1381 92.5384 40.4503C92.5682 40.7625 92.7049 41.0547 92.9255 41.2776L93.4284 41.767L89.2552 47.0006L73.7175 44.4042C73.5728 44.3906 73.4272 44.3906 73.2825 44.4042L57.7448 47.0006L53.5716 41.767ZM58.5469 57.9843V49.6242L73.5 47.1229L88.4531 49.6242V57.9843C88.4531 61.9501 86.8777 65.7535 84.0735 68.5578C81.2692 71.362 77.4658 72.9375 73.5 72.9375C69.5342 72.9375 65.7308 71.362 62.9265 68.5578C60.1223 65.7535 58.5469 61.9501 58.5469 57.9843ZM68.4023 81.0529C68.6929 80.9746 68.9499 80.8033 69.134 80.5652C69.3181 80.3271 69.4192 80.0353 69.4219 79.7343V75.1668C72.1015 75.8193 74.8985 75.8193 77.5781 75.1668V79.7343C77.5808 80.0353 77.6819 80.3271 77.866 80.5652C78.0501 80.8033 78.3071 80.9746 78.5977 81.0529L81.6019 81.8414C81.1533 85.2398 77.7005 87.8906 73.5 87.8906C69.2995 87.8906 65.8467 85.2398 65.3981 81.8414L68.4023 81.0529ZM58.5469 105.562H43.5938V94.9185C43.5973 92.8191 44.2932 90.7794 45.5737 89.1156C46.8541 87.4517 48.6475 86.2567 50.6761 85.7156L58.5469 83.6493V105.562ZM85.7344 105.562H61.2656V82.9289L62.7609 82.5346C63.563 87.1021 68.0625 90.6093 73.5 90.6093C78.9375 90.6093 83.437 87.1021 84.2391 82.5346L85.7344 82.9289V105.562ZM103.406 105.562H88.4531V83.6493L96.3103 85.7156C98.3416 86.2537 100.138 87.4476 101.422 89.1117C102.705 90.7759 103.402 92.8172 103.406 94.9185V105.562Z" fill="white"/>
<path d="M80.2969 63.4219H77.5781C77.5781 63.7604 76.1318 64.7812 73.5 64.7812C70.8682 64.7812 69.4219 63.7604 69.4219 63.4219H66.7031C66.7031 65.7464 69.6244 67.5 73.5 67.5C77.3756 67.5 80.2969 65.7464 80.2969 63.4219Z" fill="white"/>
</g>
<defs>
<clipPath id="clip0">
<rect width="87" height="87" fill="white" transform="translate(30 24)"/>
</clipPath>
</defs>
</svg>
