<svg width="163" height="168" viewBox="0 0 163 168" fill="none" xmlns="http://www.w3.org/2000/svg">
<path d="M0 0H156C156 0 163.55 23.2882 162.5 38.5C161.411 54.2703 150.175 61.1932 150 77C149.819 93.365 163.012 100.642 162.5 117C162.034 131.875 161.822 143.96 150 153C136.971 162.963 124.276 155.026 108 153C94.8852 151.368 88.117 147.115 75 145.5C59.1084 143.544 49.3284 140.873 34 145.5C18.7573 150.101 0 168 0 168V0Z" fill="#933FA1"/>
<path d="M116.969 84.4064H108.906V80.3751C108.906 78.1526 107.098 76.3439 104.875 76.3439H91.4375C90.2792 76.3439 89.2405 76.8424 88.5041 77.6272L73.9688 75.2057V71.8383C77.9785 69.5109 80.6875 65.18 80.6875 60.2189H82.0312C84.2538 60.2189 86.0625 58.4102 86.0625 56.1876C86.0625 53.9651 84.2538 52.1564 82.0312 52.1564H81.3862L82.1226 50.4485C83.504 47.249 83.2567 43.5537 81.4642 40.5652C80.3274 38.6705 78.6652 37.1857 76.6549 36.2719L72.9045 34.564C68.4768 32.5484 63.0494 33.1383 59.1566 36.0556L57.0375 37.6439L57.0402 37.6479C54.9439 38.1948 53.0936 39.5439 51.9568 41.4386C50.4773 43.9058 50.3617 46.9144 51.6477 49.4877L52.9821 52.1564H52.4688C50.2462 52.1564 48.4375 53.9651 48.4375 56.1876C48.4375 58.4102 50.2462 60.2189 52.4688 60.2189H53.8125C53.8125 65.18 56.5215 69.5109 60.5312 71.8383V75.2057L44.2033 77.9268C39.6494 78.686 36.3438 82.5869 36.3438 87.2054V115.313C36.3438 116.056 36.9457 116.656 37.6875 116.656H79.3438H80.6875H116.969C118.451 116.656 119.656 115.451 119.656 113.969V87.0939C119.656 85.6117 118.451 84.4064 116.969 84.4064ZM106.219 80.3751V84.4064H97.7101C96.9899 82.1072 95.4177 80.1964 93.3577 79.0314H104.875C105.615 79.0314 106.219 79.6334 106.219 80.3751ZM90.0938 80.6372C92.2102 81.0712 93.9557 82.4929 94.8372 84.4064H90.0938V80.6372ZM83.375 56.1876C83.375 56.928 82.7717 57.5314 82.0312 57.5314H80.6875V54.8439H82.0312C82.7717 54.8439 83.375 55.4472 83.375 56.1876ZM54.2613 42.8213C55.2826 41.1202 57.1504 40.0626 59.1337 40.0626C61.2407 40.0626 63.1959 41.1094 64.3663 42.8617L64.7882 43.4946L67.0243 42.0043L66.6023 41.3714C65.3902 39.5547 63.5829 38.2781 61.5337 37.7111C64.5759 35.8244 68.5172 35.5181 71.7905 37.0083L75.5409 38.7162C77.0527 39.4042 78.3037 40.5208 79.1597 41.9466C80.5088 44.1947 80.6942 46.9749 79.6555 49.3829L79.5655 49.5925L77.8589 46.1794C77.6802 45.8233 77.3537 45.5639 76.9653 45.4726C76.5783 45.3798 76.1698 45.4672 75.85 45.705L73.7 47.3175C71.851 48.7056 69.5599 49.4689 67.25 49.4689C64.9401 49.4689 62.649 48.7056 60.8 47.3189L58.65 45.7064C58.3302 45.4658 57.9203 45.3798 57.5347 45.4739C57.1463 45.5653 56.8198 45.8246 56.6411 46.1807L54.8203 49.8236L54.0517 48.2864C53.1783 46.5395 53.2562 44.4957 54.2613 42.8213ZM52.4688 57.5314C51.7283 57.5314 51.125 56.928 51.125 56.1876C51.125 55.4472 51.7283 54.8439 52.4688 54.8439H53.8125V57.5314H52.4688ZM56.5 60.2189V52.4735L58.3248 48.8225L59.1875 49.4689C61.4988 51.2023 64.3623 52.1564 67.25 52.1564C70.1377 52.1564 73.0013 51.2023 75.3125 49.4689L76.1752 48.8225L78 52.4735V60.2189C78 66.1462 73.1773 70.9689 67.25 70.9689C61.3227 70.9689 56.5 66.1462 56.5 60.2189ZM67.25 73.6564C68.6542 73.6564 70.0074 73.4387 71.2812 73.0369V75.7876L67.25 79.8188L63.2188 75.7876V73.0369C64.4926 73.4387 65.8458 73.6564 67.25 73.6564ZM66.816 88.4376H67.684L69.877 93.9201L67.25 105.306L64.623 93.9201L66.816 88.4376ZM69.7977 82.8651L67.8748 85.7501H66.6252L64.7009 82.8651L65.1497 81.52L66.3 82.6703C66.562 82.9309 66.906 83.0626 67.25 83.0626C67.594 83.0626 67.938 82.9309 68.2 82.6689L69.3503 81.5187L69.7977 82.8651ZM52.4688 113.969V91.1251H49.7812V113.969H39.0312V87.2054C39.0312 83.9078 41.3922 81.1196 44.6454 80.5767L61.4141 77.783L63.0253 79.3942L61.9435 82.638C61.8118 83.0317 61.8696 83.4631 62.1007 83.8084L64.3959 87.2511L61.9704 93.3141C61.8683 93.5681 61.8481 93.8476 61.9086 94.115L65.9398 111.584C66.0809 112.194 66.6238 112.625 67.25 112.625C67.8762 112.625 68.4191 112.194 68.5602 111.584L72.5914 94.115C72.6519 93.8489 72.6317 93.5694 72.5296 93.3141L70.1041 87.2511L72.3993 83.8084C72.629 83.4631 72.6868 83.0317 72.5565 82.638L71.4748 79.3942L73.0859 77.783L87.4264 80.1722C87.4237 80.2408 87.4062 80.3053 87.4062 80.3751V84.4064H79.3438C77.8616 84.4064 76.6562 85.6117 76.6562 87.0939V113.969H52.4688ZM80.6875 113.969H79.3438V111.281H116.97V113.969H80.6875ZM116.97 108.594H79.3438V97.6947C81.053 99.4429 83.4314 100.531 86.0625 100.531H94.125V101.875C94.125 104.098 95.9337 105.906 98.1562 105.906C100.379 105.906 102.188 104.098 102.188 101.875V100.531H110.25C112.881 100.531 115.261 99.4416 116.97 97.6947V108.594ZM96.8125 101.875V95.1564H99.5V101.875C99.5 102.617 98.8967 103.219 98.1562 103.219C97.4158 103.219 96.8125 102.617 96.8125 101.875ZM116.969 91.1251C116.969 94.8298 113.955 97.8439 110.25 97.8439H102.188V93.8126C102.188 93.0695 101.586 92.4689 100.844 92.4689H95.4688C94.727 92.4689 94.125 93.0695 94.125 93.8126V97.8439H86.0625C82.3578 97.8439 79.3438 94.8298 79.3438 91.1251V87.0939H116.969V91.1251Z" fill="white"/>
</svg>
