<svg width="186" height="167" viewBox="0 0 186 167" fill="none" xmlns="http://www.w3.org/2000/svg">
<path d="M0 0H172C172 0 170.08 25.1041 172 41C174.079 58.2082 181.046 66.7772 183 84C184.607 98.1633 187.329 106.919 183 120.5C178.904 133.349 175.266 142.41 163.5 149C150.553 156.252 140.274 147.607 125.5 149C108.229 150.629 99.2688 156.348 82 158C66.8387 159.45 58.1588 156.525 43 158C25.9242 159.662 0 167 0 167V0Z" fill="#933FA1"/>
<path d="M103.079 93.4987L88.6525 87.5967C87.0592 86.9456 86.0312 85.4128 86.0312 83.6916V82.6819C90.3583 79.6922 93.663 75.4734 95.5361 70.5938H95.875C99.752 70.5938 102.906 67.4395 102.906 63.5625C102.906 62.685 102.725 61.8525 102.43 61.0763L103.029 60.4969C104.355 59.2467 105.2 57.6267 105.402 57.2175C107.19 54.3909 107.61 50.9752 106.554 47.828C105.584 44.9297 103.462 42.5644 100.669 41.2284C100.215 38.2345 98.5497 35.55 96.0142 33.7655C93.4787 31.9795 90.333 31.275 87.2673 31.7967C85.0961 29.6325 82.1289 28.4062 79 28.4062C75.8711 28.4062 72.9039 29.6325 70.7313 31.7967C67.6684 31.2806 64.5212 31.9809 61.9858 33.7655C59.4489 35.55 57.7853 38.2345 57.3297 41.2284C54.5383 42.5644 52.4162 44.9311 51.4445 47.8266C50.3884 50.9738 50.8103 54.3909 52.5962 57.2175C52.7945 57.6197 53.6116 59.1877 54.8955 60.4266L55.607 60.9511C55.2836 61.7611 55.0938 62.6386 55.0938 63.5625C55.0938 67.4395 58.248 70.5938 62.125 70.5938H62.4639C64.337 75.4748 67.6417 79.6922 71.9688 82.6819V83.6916C71.9688 85.4128 70.9408 86.9442 69.3475 87.5953L54.9208 93.4973C46.4833 96.9497 41.0312 105.072 41.0312 114.188V115.594H116.969V114.188C116.969 105.072 111.517 96.9497 103.079 93.4987ZM91.5353 98.1056L85.8189 102.393L89.6073 91.0266L90.4075 91.3542L91.5353 98.1056ZM67.5911 91.3542L68.3912 91.0266L72.1797 102.393L66.4633 98.1056L67.5911 91.3542ZM72.3245 102.828L75.6433 112.781H75.3634L69.5598 106.978L72.3245 102.828ZM70.9844 89.9156C71.298 89.7525 71.5961 89.5697 71.8773 89.3658L79 96.4884L86.1227 89.3658C86.4039 89.5697 86.7006 89.7525 87.0156 89.9156L79.3937 112.781H78.6063L70.9844 89.9156ZM85.6755 102.828L88.4402 106.978L82.6366 112.781H82.3567L85.6755 102.828ZM94.1973 64.7578C94.0961 65.4202 93.9625 66.0867 93.7881 66.7898C93.2509 67.4227 92.4859 67.7812 91.6562 67.7812H85.8259C84.753 67.7812 83.7897 67.185 83.3102 66.2273L82.6816 64.9688H75.3184L74.6898 66.2273C74.2103 67.185 73.2456 67.7812 72.1741 67.7812H66.3438C65.5141 67.7812 64.7491 67.4227 64.2119 66.7898C64.0375 66.0867 63.9039 65.4188 63.8027 64.7578H63.7998C63.6255 63.6075 63.5312 62.4333 63.5312 61.2436V57.9375H94.4688V61.2436C94.4688 62.4347 94.3745 63.6075 94.1987 64.7578H94.1973ZM94.4688 55.125H85.2072L89.0617 51.2705L94.4688 54.5147V55.125ZM63.5312 55.125V54.5147L68.9383 51.2691L72.7928 55.125H63.5312ZM73.8433 55.125L79 51.2578L84.1567 55.125H73.8433ZM96.4572 67.7222C96.5402 67.3988 96.6105 67.0697 96.6808 66.742C96.7328 66.5016 96.7806 66.2625 96.8242 66.0248C97.1139 64.4667 97.2812 62.872 97.2812 61.2436V59.6039C98.9139 60.1861 100.094 61.733 100.094 63.5639C100.094 65.6902 98.5061 67.4353 96.4572 67.7222ZM56.7841 58.3383C55.7561 57.3145 55.1106 55.9519 55.105 55.9406L55.0122 55.7705C53.6495 53.6527 53.3219 51.0834 54.1136 48.7209C54.9081 46.3472 56.7447 44.4445 59.1508 43.5009L59.9762 43.1789L60.0395 42.2944C60.2209 39.8039 61.5203 37.5328 63.6058 36.0647C65.7053 34.5867 68.3645 34.0861 70.893 34.6978L71.7255 34.8975L72.2852 34.252C73.9558 32.3241 76.4027 31.2188 79 31.2188C81.5973 31.2188 84.0442 32.3241 85.7148 34.252L86.2745 34.8975L87.107 34.6978C89.6341 34.0847 92.2933 34.5867 94.3956 36.0647C96.4797 37.5328 97.7791 39.8025 97.9605 42.2944L98.0238 43.1789L98.8492 43.5009C101.255 44.4445 103.092 46.3472 103.886 48.7223C104.678 51.0834 104.35 53.6527 102.988 55.7705L102.895 55.9406C102.888 55.9547 102.19 57.4242 101.087 58.4648L100.893 58.6519C99.9278 57.6661 98.6819 56.9587 97.2798 56.6733V52.9228L88.6244 47.7309L84.4928 51.8625L79 47.7422L73.5072 51.8625L69.3756 47.7309L60.7188 52.9228V56.6733C59.3392 56.9545 58.1059 57.6408 57.1469 58.6027L56.7841 58.3383ZM57.9062 63.5625C57.9062 61.7316 59.0861 60.1847 60.7188 59.6025V61.2422C60.7188 62.8692 60.8861 64.4653 61.1744 66.022C61.2194 66.2597 61.2658 66.5002 61.3192 66.742C61.3895 67.0697 61.4598 67.3973 61.5428 67.7208C59.4939 67.4353 57.9062 65.6902 57.9062 63.5625ZM65.4662 70.515C65.7545 70.5614 66.047 70.5938 66.3438 70.5938H72.1741C74.2061 70.5938 76.0441 69.5236 77.0467 67.7812H80.9547C81.9573 69.5236 83.7953 70.5938 85.8273 70.5938H91.6562C91.953 70.5938 92.2455 70.5614 92.5338 70.515C90.018 76.3088 85.2044 80.9634 79 83.1684C72.7956 80.9634 67.9806 76.3088 65.4662 70.515ZM78.5556 85.9894L79 86.1384L79.4444 85.9908C80.7761 85.5464 82.053 85.0036 83.268 84.3708C83.3692 85.4227 83.6983 86.4127 84.2214 87.2902L79 92.5116L73.7772 87.2888C74.3003 86.4113 74.6294 85.4213 74.7306 84.3694C75.9456 85.0022 77.2239 85.5464 78.5556 85.9894ZM55.9867 96.1031L64.5311 92.6072L63.4103 99.3319L68.6542 103.265L65.9387 107.336L71.3866 112.781H57.9062V104.344H55.0938V112.781H43.893C44.4175 105.391 49.0469 98.9409 55.9867 96.1031ZM102.906 112.781V104.344H100.094V112.781H86.6134L92.0598 107.335L89.3444 103.264L94.5883 99.3305L93.4675 92.6058L102.012 96.1017C108.952 98.9409 113.581 105.39 114.106 112.78H102.906V112.781Z" fill="white"/>
<path d="M84.625 72H81.8125C81.8125 73.5511 80.5511 74.8125 79 74.8125C77.4489 74.8125 76.1875 73.5511 76.1875 72H73.375C73.375 75.1022 75.8978 77.625 79 77.625C82.1022 77.625 84.625 75.1022 84.625 72Z" fill="white"/>
</svg>
