<svg width="180" height="165" xmlns="http://www.w3.org/2000/svg">
 <defs>
  <clipPath id="clip0">
   <rect id="svg_1" x="39.055901" y="32.9995" fill="white" height="85" width="85"/>
  </clipPath>
 </defs>
 <g>
  <title>background</title>
  <rect fill="none" id="canvas_background" height="402" width="582" y="-1" x="-1"/>
 </g>
 <g>
  <title>Layer 1</title>
  <path stroke="null" id="svg_2" fill="#933FA1" d="m-0.316671,-0.533334c0,0 88.669171,0.501245 151.046911,0.501125c30.848786,-0.00006 32.934286,37.823861 24.827385,62.402956c-8.105888,24.579095 10.232936,38.129456 0,58.688699c-6.377091,12.813285 -12.237367,20.110798 -24.827385,27.087277c-23.300247,12.913608 -41.211432,-9.049157 -67.894892,-8.02586c-33.138479,1.271096 -72.00499,31.90179 -80.618552,23.374314c-8.613532,-8.527476 -2.533467,-164.02851 -2.533467,-164.02851z"/>
  <g id="svg_3" clip-path="url(#clip0)">
   <path id="svg_4" fill="white" d="m101.874,87.7505l-10.7209,-2.3829l0,-3.3877c4.0004,-2.8872 6.649,-7.5197 6.826,-12.7774c3.5489,-3.7456 5.5129,-8.6152 5.5129,-13.7974l0,-5.9539c0,-3.4726 -2.596,-6.3502 -5.949,-6.7959c-2.8749,-5.8925 -8.8537,-9.6558 -15.4604,-9.6558l-2.3073,0c-4.4597,0 -8.8537,1.508 -12.3742,4.246c-4.9454,3.8455 -7.7805,9.6447 -7.7805,15.9085l0,2.2526c0,5.1807 1.9633,10.0518 5.5126,13.7973c0.1782,5.2578 2.8256,9.8902 6.826,12.7775l0,3.3877l-10.7208,2.3814c-8.2176,1.8261 -13.9565,8.9783 -13.9565,17.3975l0,12.852l28.6709,0l11.2062,0l28.671,0l0,-12.852c0,-8.4192 -5.739,-15.5714 -13.956,-17.3975zm-9.5189,0.6922l-2.0922,9.4129l-6.4654,-4.6174l6.3448,-5.2878l2.2128,0.4923zm-10.7991,3.0943l-6.8549,-5.7128l0,-2.243c2.0895,0.9624 4.4064,1.515 6.8549,1.515c2.4485,0 4.7655,-0.5526 6.8549,-1.515l0,2.243l-6.8549,5.7128zm-16.4516,-35.2309l0,8.4493c-1.7783,-2.7666 -2.7419,-5.9816 -2.7419,-9.3501l0,-2.2513c0,-5.4112 2.4499,-10.4207 6.7218,-13.7438c3.0408,-2.3663 6.8384,-3.6688 10.6908,-3.6688l2.3073,0c5.7938,0 11.0115,3.441 13.2942,8.7659l0.3566,0.8309l0.9034,0c2.2676,0 4.1134,1.8454 4.1134,4.113l0,5.9541c0,3.3685 -0.9643,6.5835 -2.7423,9.3501l0,-11.1912l-1.9125,0c-2.6363,0 -5.0821,-1.3094 -6.5437,-3.5027l-0.4072,-0.6101l-2.8818,0l-0.399,0.6648c-2.2896,3.8181 -6.4793,6.1899 -10.9306,6.1899l-9.8285,0zm2.7421,12.3384l0,-9.5968l7.0866,0c5.122,0 9.9588,-2.5842 12.8214,-6.7971c1.833,2.3374 4.5503,3.7934 7.5115,4.0239l0,12.3703c0,7.5594 -6.1501,13.7097 -13.7097,13.7097c-7.5597,0 -13.7098,-6.1503 -13.7098,-13.71zm5.1218,19.3073l6.3448,5.2879l-6.4655,4.6174l-2.0921,-9.4129l2.2128,-0.4924zm3.2135,27.3052l-12.4483,0l0,-5.483l-2.7419,0l0,5.483l-10.9678,0l0,-10.109c0,-7.1224 4.856,-13.1765 11.8081,-14.7203l6.2476,-1.3888l2.9914,13.4591l4.7395,-3.3866l1.5848,1.5846l-1.2134,14.561zm7.9969,0l-5.2454,0l1.2998,-15.5999l-2.162,-2.162l3.4849,-2.4882l3.485,2.4897l-2.162,2.1619l1.2997,15.5985zm28.9093,0l-10.967,0l0,-5.483l-2.7422,0l0,5.483l-12.4485,0l-1.2134,-14.561l1.5848,-1.5846l4.7395,3.3866l2.9914,-13.4591l6.2474,1.3888c6.952,1.5438 11.808,7.5979 11.808,14.7203l0,10.109z"/>
  </g>
 </g>
</svg>