<svg width="176" height="149" viewBox="0 0 176 149" fill="none" xmlns="http://www.w3.org/2000/svg">
<path d="M144.97 132.544C123.738 149.792 75.3906 147.898 75.3906 147.898C75.3906 147.898 31.0273 145.498 22.4338 125.541C17.6641 114.464 25.6328 106.497 22.5804 94.8822C19.0134 81.3092 6.56831 77.7709 3.29568 64.1306C-2.18281 41.2963 2.16412 19.5643 22.9998 7.18401C34.8529 0.141081 44.1916 0.700856 58.1564 0.935049C71.2625 1.15484 91.0096 7.50927 91.0096 7.50927C91.0096 7.50927 110.26 13.9253 123.109 15.5059C135.556 17.0371 143.611 11.1636 155.245 15.6596C180.64 25.4734 175.84 54.732 172.124 80.6242C168.902 103.077 163.054 117.855 144.97 132.544Z" fill="#933FA1"/>
<path d="M139.205 114.536L127.045 102.376C127.044 102.375 127.043 102.374 127.042 102.373L122.775 98.1059C122.774 98.1049 122.773 98.1043 122.772 98.1033L119.005 94.3363C118.492 93.8234 117.81 93.5407 117.085 93.5407C116.359 93.5407 115.677 93.8232 115.164 94.3362L114.951 94.5496L109.576 89.1729C114.44 83.0923 117.599 75.5737 118.316 67.319H118.806C120.385 67.319 121.763 66.2503 122.159 64.7204C122.386 63.8439 122.682 62.6081 122.811 61.6974C122.829 61.5697 122.909 61.4534 123.026 61.3858L125.55 59.9325C125.668 59.8647 125.81 59.8529 125.929 59.9014C126.787 60.2472 128.012 60.6095 128.888 60.8525C130.408 61.2744 132.022 60.6157 132.812 59.2516L134.176 56.8955C134.968 55.5271 134.731 53.7982 133.6 52.6912C132.952 52.0571 132.027 51.1822 131.299 50.6147C131.198 50.536 131.138 50.4087 131.138 50.2741V47.3712C131.138 47.2366 131.198 47.109 131.299 47.0306C132.027 46.4631 132.952 45.5882 133.6 44.9541C134.731 43.847 134.968 42.1182 134.176 40.7498L132.812 38.3939C132.022 37.0295 130.409 36.3717 128.888 36.7927C128.012 37.0358 126.787 37.3981 125.93 37.7439C125.81 37.7922 125.668 37.7805 125.55 37.7127L123.027 36.2592C122.91 36.1918 122.829 36.0754 122.811 35.948C122.682 35.0373 122.386 33.8013 122.159 32.9248C121.764 31.3949 120.385 30.3263 118.806 30.3263H116.075C114.497 30.3263 113.118 31.3947 112.722 32.9248C112.496 33.8005 112.199 35.0359 112.07 35.9478C112.052 36.0754 111.972 36.1918 111.854 36.2594L109.331 37.7127C109.266 37.7499 109.195 37.7684 109.123 37.7712C106.796 34.9619 104.11 32.4736 101.125 30.3776C100.443 29.8984 99.5026 30.0635 99.0236 30.7453C98.5446 31.4273 98.7092 32.3682 99.3912 32.8472C101.08 34.0331 102.663 35.3566 104.134 36.7974C103.285 37.035 102.534 37.591 102.069 38.3941L101.837 38.7944C95.3876 32.5699 86.7161 29.0352 77.7374 29.0352C58.6026 29.0352 43.0353 44.6024 43.0353 63.7373C43.0353 82.8722 58.6026 98.4395 77.7374 98.4395C96.8723 98.4395 112.44 82.8722 112.44 63.7373C112.44 63.6806 112.438 63.624 112.438 63.5673C112.534 63.9795 112.633 64.378 112.722 64.721C113.051 65.9918 114.058 66.942 115.295 67.228C113.528 86.5399 97.3135 101.457 77.7374 101.457C56.9387 101.457 40.0177 84.5361 40.0177 63.7373C40.0177 42.9385 56.9387 26.0176 77.7374 26.0176C83.4531 26.0176 88.9427 27.2626 94.0539 29.7185C94.8048 30.0792 95.7065 29.7632 96.0672 29.012C96.4281 28.261 96.1119 27.3596 95.3607 26.9987C89.8385 24.3454 83.9092 23 77.7374 23C55.2748 23 37.0001 41.2747 37.0001 63.7373C37.0001 75.3461 41.8818 85.8358 49.6991 93.2633L47.6574 94.4406C47.5379 94.5092 47.3985 94.5202 47.2782 94.4719C46.6045 94.1996 45.6099 93.8795 44.3182 93.5192C42.7985 93.0991 41.1859 93.7576 40.3957 95.1207L39.0312 97.4774C38.2393 98.847 38.4767 100.577 39.6093 101.684C40.5629 102.615 41.337 103.313 41.9065 103.756C42.0101 103.837 42.0697 103.962 42.0697 104.099V107.002C42.0697 107.137 42.0099 107.264 41.9071 107.343C41.1756 107.915 40.2529 108.788 39.6083 109.419C38.4773 110.525 38.2399 112.254 39.0318 113.624L40.3959 115.98C41.1859 117.343 42.7983 118.001 44.3216 117.58C45.6099 117.221 46.6047 116.9 47.2758 116.629C47.3989 116.58 47.5381 116.591 47.657 116.659L50.1827 118.115C50.3004 118.183 50.3787 118.297 50.397 118.427C50.5243 119.324 50.8206 120.564 51.0478 121.449C51.4437 122.979 52.8227 124.047 54.4015 124.047H57.1334C58.7112 124.047 60.0892 122.979 60.4851 121.449C60.7116 120.574 61.0086 119.339 61.1381 118.423C61.1558 118.297 61.2359 118.181 61.3526 118.114L63.8773 116.659C63.9946 116.592 64.1356 116.58 64.2545 116.628C65.0982 116.969 66.3296 117.334 67.2155 117.58C68.7356 118.001 70.3482 117.343 71.139 115.979L72.5035 113.622C73.2948 112.254 73.0574 110.525 71.9272 109.42C71.2818 108.788 70.359 107.914 69.6252 107.341C69.525 107.263 69.4652 107.136 69.4652 107.001V104.098C69.4652 103.962 69.5248 103.837 69.6228 103.76C69.6541 103.736 69.6893 103.706 69.7215 103.681C72.314 104.2 74.9942 104.475 77.7374 104.475C87.3369 104.475 96.1871 101.151 103.17 95.5722L108.55 100.951L108.336 101.164C107.823 101.677 107.541 102.359 107.541 103.085C107.541 103.81 107.823 104.492 108.336 105.005L112.106 108.775L116.373 113.042L116.374 113.043L119.566 116.235C120.156 116.825 121.111 116.825 121.7 116.235C122.29 115.646 122.29 114.691 121.7 114.102L119.574 111.975L125.975 105.574L136.857 116.456L130.456 122.857L126.246 118.648C125.657 118.059 124.702 118.059 124.113 118.648C123.523 119.237 123.523 120.192 124.113 120.781L128.536 125.204C129.049 125.717 129.73 126 130.456 126C131.181 126 131.863 125.718 132.377 125.205L139.204 118.377C139.717 117.864 140 117.182 140 116.456C140 115.731 139.718 115.049 139.205 114.536ZM67.77 109.721C68.2548 110.1 68.9812 110.759 69.8165 111.576C69.9611 111.718 69.9917 111.938 69.8917 112.111L68.528 114.467C68.4264 114.642 68.2196 114.727 68.0228 114.673C66.8786 114.354 65.9419 114.055 65.3849 113.83C64.3977 113.432 63.2993 113.51 62.3713 114.045L59.8466 115.499C58.9293 116.027 58.295 116.965 58.1501 118.003C58.0646 118.607 57.8564 119.562 57.5639 120.693C57.5128 120.891 57.3358 121.029 57.1334 121.029H54.4015C54.1981 121.029 54.0201 120.891 53.9698 120.697C53.6767 119.553 53.4689 118.597 53.3844 118.001C53.2333 116.944 52.6135 116.031 51.6869 115.499L49.1636 114.045C48.2366 113.511 47.1382 113.432 46.1472 113.831C45.5861 114.058 44.6746 114.349 43.5145 114.672C43.3177 114.727 43.1089 114.642 43.0073 114.467L41.644 112.113C41.5434 111.938 41.574 111.718 41.7194 111.576C42.5537 110.759 43.2803 110.1 43.7625 109.724C44.5921 109.078 45.0874 108.061 45.0874 107.002V104.099C45.0874 103.028 44.6056 102.036 43.7627 101.377C43.2926 101.011 42.5663 100.354 41.7184 99.5258C41.5734 99.384 41.5428 99.1629 41.6434 98.9889L43.0071 96.6337C43.1087 96.4583 43.3175 96.3734 43.5113 96.4273C44.6746 96.7516 45.5861 97.0431 46.1498 97.271C47.1384 97.6684 48.2364 97.5901 49.1642 97.0556L51.6833 95.6031C51.8182 95.5257 51.9446 95.4374 52.0665 95.344C52.9508 96.0636 53.8654 96.7474 54.8089 97.3922C50.7192 97.8675 47.5341 101.344 47.5341 105.551C47.5341 106.384 48.2094 107.06 49.0429 107.06C49.8763 107.06 50.5517 106.384 50.5517 105.551C50.5517 102.684 52.8911 100.352 55.7668 100.352C58.6424 100.352 60.982 102.684 60.982 105.551C60.982 108.417 58.6424 110.749 55.7668 110.749C54.631 110.749 53.5517 110.392 52.6461 109.716C51.9782 109.218 51.0327 109.356 50.5346 110.023C50.0361 110.691 50.1737 111.637 50.8414 112.135C52.2723 113.203 53.9756 113.767 55.7666 113.767C60.3061 113.767 63.9994 110.081 63.9994 105.551C63.9994 104.175 63.657 102.878 63.0551 101.737C64.2267 102.191 65.4237 102.594 66.6446 102.94C66.5155 103.306 66.4475 103.697 66.4475 104.099V107.002C66.4477 108.06 66.9429 109.078 67.77 109.721ZM77.7374 95.4219C60.2665 95.4219 46.0529 81.2083 46.0529 63.7373C46.0529 46.2663 60.2665 32.0527 77.7374 32.0527C86.2253 32.0527 94.4136 35.5135 100.361 41.5786C100.039 42.7647 100.369 44.0615 101.281 44.9541C101.929 45.5888 102.855 46.4643 103.582 47.0304C103.683 47.109 103.743 47.2364 103.743 47.3712V50.2741C103.743 50.4087 103.683 50.536 103.582 50.6147C102.855 51.181 101.929 52.0565 101.281 52.6912C100.15 53.7982 99.913 55.5273 100.705 56.8955L102.069 59.2514C102.858 60.6159 104.472 61.2742 105.993 60.8525C106.869 60.6095 108.093 60.2474 108.951 59.9014C109.024 59.872 109.105 59.8674 109.184 59.8816C109.339 61.1518 109.422 62.4446 109.422 63.7371C109.422 81.2083 95.2084 95.4219 77.7374 95.4219ZM113.36 58.7712L110.837 57.3177C110.3 57.0085 109.706 56.852 109.109 56.852C108.675 56.852 108.239 56.9353 107.823 57.1031C107.255 57.3318 106.319 57.6307 105.186 57.945C104.989 57.9993 104.782 57.9152 104.68 57.7402L103.317 55.384C103.216 55.21 103.247 54.9895 103.391 54.8477C104.23 54.0273 104.956 53.3693 105.436 52.9951C106.278 52.3395 106.76 51.3477 106.76 50.2743V47.3714C106.76 46.2981 106.278 45.3063 105.436 44.6505C104.956 44.2761 104.23 43.6183 103.391 42.7979C103.247 42.6561 103.216 42.4356 103.317 42.2614L103.439 42.0508C103.45 42.0327 103.46 42.0144 103.471 41.9961L104.681 39.9053C104.782 39.7303 104.989 39.646 105.187 39.7005C106.319 40.0145 107.256 40.3135 107.823 40.5422C108.81 40.9403 109.908 40.8621 110.837 40.3273L113.36 38.8741C114.29 38.3383 114.909 37.4254 115.058 36.3689C115.143 35.7662 115.351 34.811 115.643 33.6798C115.694 33.4817 115.872 33.3435 116.075 33.3435H118.806C119.009 33.3435 119.186 33.4817 119.237 33.6794C119.53 34.812 119.738 35.7672 119.823 36.3691C119.972 37.4254 120.59 38.3386 121.52 38.8739L124.044 40.3271C124.972 40.862 126.071 40.9403 127.058 40.5422C127.625 40.3135 128.561 40.0145 129.694 39.7003C129.891 39.6458 130.099 39.7301 130.2 39.9053L131.564 42.2612C131.665 42.4352 131.634 42.6557 131.489 42.7977C130.652 43.6171 129.926 44.2751 129.444 44.6503C128.603 45.3061 128.12 46.2977 128.12 47.3712V50.2741C128.12 51.3475 128.603 52.3393 129.444 52.9949C129.926 53.3701 130.652 54.0281 131.489 54.8475C131.634 54.9893 131.665 55.21 131.564 55.384L130.2 57.7402C130.099 57.9152 129.891 57.9997 129.694 57.945C128.561 57.6309 127.625 57.332 127.058 57.1033C126.07 56.7049 124.972 56.7834 124.044 57.3181L121.52 58.7714C120.59 59.3069 119.972 60.22 119.823 61.2764V61.2766C119.738 61.8783 119.53 62.8332 119.237 63.966C119.186 64.1638 119.009 64.302 118.806 64.302H116.075C115.872 64.302 115.694 64.1636 115.643 63.966C115.351 62.8344 115.143 61.8793 115.058 61.2764C114.909 60.2198 114.29 59.3067 113.36 58.7712ZM107.598 91.4632L112.817 96.683L110.683 98.8164L105.462 93.5968C106.2 92.9121 106.913 92.2007 107.598 91.4632ZM117.085 96.6834L119.574 99.1727L113.173 105.574L110.684 103.085L117.085 96.6834ZM117.441 109.841L115.307 107.708L121.708 101.307L123.842 103.44L117.441 109.841Z" fill="white"/>
<path d="M125.673 48.8227C125.673 44.2923 121.98 40.6064 117.44 40.6064C114.815 40.6064 112.474 41.8406 110.966 43.7568C110.908 43.8204 110.856 43.8876 110.81 43.959C109.804 45.3217 109.208 47.0037 109.208 48.8227C109.208 53.3531 112.901 57.0388 117.44 57.0388C121.98 57.0388 125.673 53.3531 125.673 48.8227ZM122.655 48.8227C122.655 51.6892 120.316 54.0212 117.44 54.0212C117.395 54.0212 117.351 54.019 117.306 54.0178C116.54 50.8861 115.402 47.8601 113.915 44.9956C114.844 44.1447 116.082 43.624 117.44 43.624C120.316 43.624 122.655 45.9562 122.655 48.8227ZM112.239 48.4678C112.821 49.7811 113.327 51.1259 113.754 52.4967C112.81 51.5554 112.225 50.2559 112.225 48.8227C112.225 48.7032 112.231 48.5853 112.239 48.4678Z" fill="white"/>
<path d="M97.539 69.9118H88.7888L83.783 57.1157C83.5567 56.5369 82.9989 56.1565 82.3783 56.1565C82.3738 56.1565 82.3692 56.1565 82.3648 56.1565C81.7387 56.1619 81.1811 56.5536 80.9634 57.1406L73.6597 76.8356L68.3705 61.8438C68.1733 61.2846 67.6668 60.8927 67.0757 60.8424C66.4843 60.7921 65.9194 61.0924 65.6301 61.6103L60.9953 69.9118H56.3623C55.5288 69.9118 54.8535 70.5874 54.8535 71.4206C54.8535 72.2539 55.5288 72.9294 56.3623 72.9294H61.8811C62.4278 72.9294 62.932 72.6335 63.1985 72.1561L66.6364 65.9984L72.2016 81.7723C72.4128 82.3716 72.9769 82.7739 73.6124 82.7792H73.6245C74.2549 82.7792 74.8196 82.3869 75.0391 81.795L82.4159 61.9032L86.354 71.9704C86.5803 72.5488 87.1378 72.9296 87.759 72.9296H97.539C98.3724 72.9296 99.0478 72.2541 99.0478 71.4208C99.0478 70.5876 98.3722 69.9118 97.539 69.9118Z" fill="white"/>
</svg>
