<svg width="200" height="200" viewBox="0 0 200 200" fill="none" xmlns="http://www.w3.org/2000/svg">
<path d="M181.958 88.4579C183.582 115.764 153.841 153.929 153.841 153.929C153.841 153.929 126.014 188.563 104.792 183.902C93.0125 181.315 91.1896 170.195 79.9749 165.899C66.8696 160.879 56.7362 168.924 43.748 163.625C22.0053 154.756 6.88919 138.548 8.98725 114.403C10.1808 100.667 16.0829 93.4081 24.4191 82.2019C32.2426 71.6848 48.9228 59.352 48.9228 59.352C48.9228 59.352 63.1033 44.7073 74.1419 37.9444C90.5802 27.8732 101.142 44.7713 111.58 37.9443C134.365 23.0421 163.094 27.7522 181.958 45.8735C198.315 61.5879 180.575 65.2009 181.958 88.4579Z" fill="#933FA1"/>
<g clip-path="url(#clip0)">
<path d="M135.627 139.655H130.549V118.203C130.549 117.125 129.675 116.25 128.596 116.25C127.517 116.25 126.643 117.125 126.643 118.203V139.655H116.487V79.1729H126.643V100.624C126.643 101.703 127.517 102.578 128.596 102.578C129.675 102.578 130.549 101.703 130.549 100.624V77.2197C130.549 76.1409 129.675 75.2666 128.596 75.2666H114.533C113.455 75.2666 112.58 76.1409 112.58 77.2197V139.655H107.893V91.9338C107.893 90.855 107.018 89.9807 105.94 89.9807H91.8772C90.7984 89.9807 89.9241 90.855 89.9241 91.9338V139.655H85.1717V115.241C85.1717 114.162 84.2974 113.288 83.2186 113.288H69.1561C68.0773 113.288 67.203 114.162 67.203 115.241V139.655H62.5803V127.546C62.5803 126.467 61.706 125.592 60.6272 125.592H46.5647C45.4859 125.592 44.6116 126.467 44.6116 127.546V139.655H39.5334C38.4547 139.655 37.5803 140.529 37.5803 141.608V149.421C37.5803 150.499 38.4547 151.374 39.5334 151.374H135.627C136.706 151.374 137.58 150.499 137.58 149.421V141.608C137.58 140.529 136.706 139.655 135.627 139.655ZM93.8303 93.8869H103.987V139.655H93.8303V93.8869ZM71.1092 117.194H81.2655V139.655H71.1092V117.194ZM48.5178 129.499H58.6741V139.655H48.5178V129.499ZM133.674 147.467H41.4866V143.561H133.674V147.467Z" fill="white"/>
<path d="M46.5647 86.5611H54.9769C62.7596 86.5611 70.5538 85.686 78.1428 83.9602C96.4319 79.8014 113.175 70.8445 126.765 57.9867V59.096C126.765 60.1748 127.639 61.0491 128.718 61.0491C129.797 61.0491 130.671 60.1748 130.671 59.096V53.3267C130.671 52.2479 129.797 51.3735 128.718 51.3735H122.949C121.87 51.3735 120.996 52.2479 120.996 53.3267C120.996 54.4055 121.87 55.2798 122.949 55.2798H123.944C110.886 67.5868 94.8199 76.1622 77.2768 80.1516C69.9717 81.8125 62.4689 82.6548 54.9769 82.6548H46.5647C45.4859 82.6548 44.6116 83.5291 44.6116 84.6079C44.6116 85.6867 45.4859 86.5611 46.5647 86.5611Z" fill="white"/>
<path d="M128.596 107.462C128.082 107.462 127.578 107.668 127.215 108.034C126.852 108.397 126.643 108.899 126.643 109.415C126.643 109.928 126.852 110.432 127.215 110.795C127.578 111.159 128.082 111.368 128.596 111.368C129.109 111.368 129.614 111.159 129.977 110.795C130.34 110.432 130.549 109.928 130.549 109.415C130.549 108.899 130.34 108.397 129.977 108.034C129.614 107.668 129.109 107.462 128.596 107.462Z" fill="white"/>
</g>
<defs>
<clipPath id="clip0">
<rect width="100" height="100" fill="white" transform="translate(37.5803 51.3735)"/>
</clipPath>
</defs>
</svg>
