<svg width="200" height="200" viewBox="0 0 200 200" fill="none" xmlns="http://www.w3.org/2000/svg">
<path d="M11.388 88.8541C28.8878 62.8541 63.3877 48.3542 63.3877 48.3542C63.3877 48.3542 90.6543 21.7593 110.388 30.8543C121.34 35.9023 130.851 40.0918 142.86 40.0918C158.888 40.0918 165.307 40.399 176.86 48.3543C196.201 61.6716 202.604 90.2172 195.388 113.354C191.282 126.516 187.402 145.768 176.86 154.931C166.967 163.53 157.213 167.799 142.86 170.446C132.164 172.418 134.388 172.854 115.009 170.446C95.8783 168.068 90.0956 157.999 78.4383 162.434C52.9925 172.115 25.9366 161.366 11.3882 139.627C-1.22768 120.776 -1.62094 108.182 11.388 88.8541Z" fill="#933FA1"/>
<g clip-path="url(#clip0)">
<path d="M152.681 147.523H143.12V86.4986C143.12 85.006 141.906 83.7915 140.413 83.7915H134.236C133.339 83.7915 132.612 84.5186 132.612 85.4157C132.612 86.3128 133.339 87.04 134.236 87.04H139.872V147.523H124.443V87.04H126.599C127.496 87.04 128.223 86.3128 128.223 85.4157C128.223 84.5186 127.496 83.7915 126.599 83.7915H123.902C122.409 83.7915 121.194 85.006 121.194 86.4986V147.523H110.851V107.063C110.851 105.57 109.636 104.356 108.144 104.356H91.6321C90.1394 104.356 88.9249 105.57 88.9249 107.063V147.523H78.5811V124.828C78.5811 123.335 77.3666 122.121 75.874 122.121H59.3625C57.8699 122.121 56.6554 123.335 56.6554 124.828V132.091C56.6554 132.989 57.3825 133.716 58.2796 133.716C59.1767 133.716 59.9038 132.989 59.9038 132.091V125.369H75.3324V147.523H59.9038V139.645C59.9038 138.748 59.1767 138.021 58.2796 138.021C57.3825 138.021 56.6554 138.748 56.6554 139.645V147.523H47.0948C45.6022 147.523 44.3877 148.737 44.3877 150.23V155.409C44.3877 156.902 45.6022 158.117 47.0948 158.117H152.681C154.173 158.117 155.388 156.902 155.388 155.409V150.23C155.388 148.737 154.173 147.523 152.681 147.523ZM92.1734 107.604H107.602V147.523H92.1734V107.604ZM152.139 154.868H47.6364V150.772H58.2798H76.9571H90.5494H109.227H122.819H141.496H152.139V154.868H152.139Z" fill="white"/>
<path d="M57.8822 107.072L56.953 112.489C56.6939 114 57.3033 115.498 58.5432 116.399C59.2439 116.908 60.0636 117.166 60.8887 117.166C61.524 117.166 62.1624 117.013 62.7525 116.703L67.6177 114.145L72.4828 116.703C73.8391 117.416 75.4518 117.299 76.6921 116.399C77.932 115.498 78.5414 114 78.2823 112.489L77.3532 107.072L81.2891 103.235C82.3865 102.165 82.7742 100.595 82.3007 99.1379C81.827 97.6801 80.5908 96.6378 79.0741 96.4173L73.6347 95.6269L71.2022 90.698C70.5238 89.3235 69.1504 88.47 67.6177 88.47C66.0851 88.47 64.7117 89.3237 64.0336 90.698L61.6011 95.6269L56.1615 96.4173C54.6448 96.6378 53.4086 97.6799 52.9349 99.1379C52.4614 100.596 52.8488 102.165 53.9463 103.235L57.8822 107.072ZM56.0245 100.142C56.0678 100.009 56.2131 99.6927 56.6287 99.6322L62.3166 98.8055C63.2191 98.6748 63.9989 98.1081 64.4028 97.2901L66.9467 92.1358C67.1325 91.7592 67.4778 91.7185 67.6177 91.7185C67.7575 91.7185 68.1029 91.759 68.2889 92.1358L70.8328 97.2899C71.2365 98.1079 72.0163 98.6746 72.9186 98.8055L78.6069 99.6322C79.0225 99.6927 79.1677 100.009 79.2111 100.142C79.2545 100.275 79.3225 100.616 79.0216 100.909L74.906 104.921C74.2525 105.557 73.9546 106.474 74.109 107.373L75.0807 113.038C75.1516 113.452 74.896 113.688 74.7828 113.77C74.6694 113.853 74.3659 114.023 73.9948 113.827L68.907 111.152C68.5033 110.94 68.0604 110.834 67.6177 110.834C67.175 110.834 66.7321 110.94 66.3284 111.152L61.2406 113.827C60.8688 114.023 60.5657 113.853 60.4525 113.77C60.3394 113.688 60.0838 113.452 60.1547 113.038L61.1263 107.373C61.2807 106.474 60.9826 105.557 60.3298 104.921L56.2137 100.909C55.913 100.616 55.9811 100.275 56.0245 100.142Z" fill="white"/>
<path d="M90.1521 87.3091L89.2229 92.7269C88.9638 94.2373 89.573 95.7351 90.8129 96.6359C91.5136 97.145 92.3333 97.4036 93.1586 97.4036C93.7938 97.4036 94.4323 97.2503 95.0224 96.9403L99.8876 94.3825L104.753 96.9403C106.109 97.6538 107.722 97.5369 108.962 96.6359C110.202 95.7351 110.812 94.2371 110.552 92.7269L109.623 87.3091L113.559 83.4724C114.657 82.4028 115.044 80.8327 114.571 79.3752C114.097 77.9175 112.861 76.8753 111.344 76.6548L105.905 75.8644L103.472 70.9353C102.794 69.561 101.42 68.7073 99.8876 68.7073C98.355 68.7073 96.9816 69.561 96.3033 70.9353L93.8708 75.8644L88.4311 76.6548C86.9146 76.8753 85.6783 77.9175 85.2046 79.3752C84.7309 80.8325 85.1183 82.4028 86.2159 83.4727L90.1521 87.3091ZM88.2941 80.379C88.3375 80.2459 88.4827 79.9302 88.8983 79.8697L94.5871 79.0431C95.4894 78.9117 96.2688 78.3454 96.6725 77.5277L99.2164 72.3731C99.4021 71.9965 99.7475 71.956 99.8873 71.956C100.027 71.956 100.373 71.9965 100.558 72.3731L103.103 77.5283C103.506 78.3456 104.286 78.9117 105.188 79.0431L110.877 79.8697C111.292 79.9302 111.437 80.2463 111.481 80.3792C111.524 80.5123 111.592 80.8531 111.291 81.1462L107.175 85.1585C106.522 85.795 106.225 86.7114 106.379 87.6104L107.35 93.2758C107.421 93.6896 107.166 93.9255 107.052 94.0077C106.939 94.0896 106.636 94.2605 106.264 94.0645L101.177 91.3899C100.773 91.1776 100.33 91.0714 99.8873 91.0714C99.4446 91.0714 99.0017 91.1776 98.598 91.3897L93.5103 94.0645C93.1382 94.2603 92.8352 94.0896 92.7222 94.0077C92.609 93.9255 92.3536 93.6896 92.4245 93.2758L93.3962 87.6104C93.5504 86.7118 93.2527 85.7952 92.5995 85.1583L88.4834 81.1464C88.1829 80.8531 88.251 80.5123 88.2941 80.379Z" fill="white"/>
<path d="M122.421 66.1939L121.492 71.6114C121.233 73.1218 121.842 74.6199 123.082 75.5207C124.322 76.4215 125.935 76.5379 127.292 75.8251L132.157 73.2673L137.022 75.8251C137.612 76.1351 138.251 76.2884 138.886 76.2884C139.711 76.2884 140.531 76.0297 141.232 75.5207C142.472 74.6199 143.081 73.1218 142.822 71.6114L141.892 66.1939L145.828 62.3572C146.926 61.2875 147.313 59.7175 146.84 58.2602C146.366 56.8024 145.13 55.7601 143.613 55.5396L138.174 54.7489L135.741 49.8201C135.063 48.4458 133.689 47.592 132.157 47.592C130.624 47.592 129.251 48.4458 128.573 49.8201L126.14 54.7489L120.701 55.5396C119.184 55.7599 117.948 56.8022 117.474 58.26C117 59.7173 117.388 61.2875 118.485 62.3572L122.421 66.1939ZM120.564 59.2639C120.607 59.1308 120.752 58.815 121.168 58.7545L126.856 57.9278C127.759 57.7969 128.539 57.2304 128.942 56.4124L131.486 51.2581C131.672 50.8815 132.017 50.841 132.157 50.841C132.297 50.841 132.642 50.8815 132.828 51.2581L135.372 56.4126C135.776 57.2304 136.556 57.7971 137.458 57.9278L143.146 58.7545C143.562 58.815 143.707 59.1311 143.75 59.2639C143.794 59.3971 143.862 59.7379 143.561 60.031L139.445 64.0435C138.792 64.68 138.494 65.5964 138.648 66.4954L139.62 72.1605C139.691 72.5746 139.435 72.8105 139.322 72.8927C139.209 72.975 138.905 73.1452 138.534 72.9495L133.446 70.2748C133.042 70.0626 132.599 69.9564 132.157 69.9564C131.714 69.9564 131.271 70.0626 130.868 70.2746L125.78 72.9495C125.408 73.1452 125.105 72.9746 124.992 72.8927C124.878 72.8103 124.623 72.5746 124.694 72.1605L125.665 66.4959C125.82 65.597 125.522 64.6804 124.869 64.0432L120.753 60.031C120.452 59.7379 120.52 59.3968 120.564 59.2639Z" fill="white"/>
</g>
<defs>
<clipPath id="clip0">
<rect width="111" height="111" fill="white" transform="translate(44.3877 47.3545)"/>
</clipPath>
</defs>
</svg>
