<svg width="174" height="152" viewBox="0 0 174 152" fill="none" xmlns="http://www.w3.org/2000/svg">
<path d="M17.9993 28.5C31.2515 4.89279 46.0411 2.37429 67 0.999962C97.5 -1 125.033 6.61838 131.98 24.6576C137.965 40.198 150.612 46.1292 157.916 55.2207C167.892 67.6371 169.05 67.5184 172.38 80.5312C177.954 102.315 168.596 116.94 152.583 134.282C144.45 143.09 148.939 137.837 138.963 145.956C117.727 163.239 108.735 137.138 94.499 134.282C80.7356 131.521 50.1913 127.552 38.5 132C18.0011 139.799 1.5002 129.5 1.50014 117.5C1.5 90.4858 0.050902 94.2865 1.49998 71.5C2.88832 49.6687 2.99914 55.2207 17.9993 28.5Z" fill="#933FA1"/>
<g clip-path="url(#clip0)">
<path d="M126.625 74.8291C125.596 74.8291 124.762 75.6631 124.762 76.6919C124.762 77.9961 123.701 79.0571 122.397 79.0571C121.093 79.0571 120.032 77.9961 120.032 76.6919C120.032 75.6628 119.198 74.8291 118.169 74.8291C117.14 74.8291 116.306 75.6631 116.306 76.6919C116.306 80.0504 119.039 82.7826 122.397 82.7826C125.755 82.7826 128.488 80.0501 128.488 76.6919C128.488 75.6626 127.654 74.8291 126.625 74.8291Z" fill="white"/>
<path d="M144.11 75.1333L138.867 73.4538C138.196 73.2386 137.667 72.7026 137.452 72.0198C136.347 68.5066 134.679 65.2083 132.496 62.2163C131.5 60.8526 130.394 59.5503 129.185 58.3106C129.958 54.9173 130.379 51.0771 130.324 47.7593C130.246 43.0131 129.298 40.2293 127.425 39.2483C126.416 38.7193 123.346 37.1123 106.729 44.7188C106.336 44.8988 105.968 45.1206 105.628 45.3746C104.508 45.0736 103.363 44.7951 102.211 44.5451C102.072 44.5148 101.929 44.4881 101.789 44.4586C103.136 41.5171 103.922 38.3223 104.07 35.0243C104.116 33.9963 103.32 33.1258 102.292 33.0801C101.267 33.0291 100.393 33.8296 100.348 34.8576C100.105 40.2803 97.8553 45.3826 94.0138 49.2243C91.7185 51.5196 89.031 53.1868 86.1668 54.2368C81.1995 53.5398 76.14 53.5398 71.1728 54.2368C68.3083 53.1868 65.621 51.5196 63.3258 49.2243C59.2273 45.1258 56.97 39.6766 56.97 33.8803C56.97 28.0838 59.2273 22.6348 63.3258 18.5363C67.4243 14.4376 72.8738 12.1803 78.6698 12.1803C84.4658 12.1803 89.9153 14.4376 94.0138 18.5363C95.6608 20.1833 97.0218 22.0628 98.059 24.1221C98.5218 25.0411 99.642 25.4111 100.561 24.9481C101.48 24.4856 101.85 23.3653 101.387 22.4466C100.171 20.0318 98.5768 17.8301 96.6485 15.9016C91.8463 11.0993 85.4613 8.45459 78.67 8.45459C71.8788 8.45459 65.4938 11.0993 60.6915 15.9016C55.8893 20.7041 53.2445 27.0888 53.2445 33.8801C53.2445 40.6713 55.8893 47.0563 60.6915 51.8586C62.0768 53.2438 63.5838 54.4351 65.1778 55.4331C65.1783 55.4331 65.1788 55.4328 65.1793 55.4328C64.021 55.7338 62.8715 56.0718 61.7348 56.4518C60.759 56.7781 60.2325 57.8333 60.5588 58.8093C60.8848 59.7851 61.9405 60.3116 62.916 59.9856C73.075 56.5893 84.265 56.5893 94.424 59.9856C94.62 60.0511 94.819 60.0821 95.0148 60.0821C95.794 60.0821 96.5205 59.5891 96.7813 58.8093C97.1075 57.8336 96.581 56.7781 95.6053 56.4518C94.4685 56.0718 93.319 55.7336 92.1608 55.4328C92.1613 55.4328 92.1618 55.4331 92.1623 55.4331C93.7565 54.4351 95.2633 53.2438 96.6485 51.8586C97.874 50.6331 98.9558 49.2948 99.895 47.8726C100.409 47.9723 100.918 48.0768 101.421 48.1858C102.09 48.3311 102.756 48.4871 103.416 48.6508C103.395 48.7318 103.374 48.8126 103.356 48.8948C102.448 53.2061 102.507 57.0191 103.532 60.2273C104.453 63.1111 106.115 65.4473 108.472 67.1716C111.249 69.2036 114.603 70.0813 117.641 70.0813C119.927 70.0813 122.035 69.5838 123.583 68.7071C125.334 67.7153 126.801 65.6256 127.962 62.4881C128.499 63.1146 129.007 63.7563 129.487 64.4133C131.431 67.0768 132.915 70.0123 133.898 73.1378C134.476 74.9736 135.909 76.4181 137.731 77.0023L142.974 78.6818C144.35 79.1226 145.274 80.3888 145.274 81.8333V90.5271C145.274 91.9716 144.35 93.2378 142.974 93.6786L134.527 96.3843C133.176 96.8176 132.032 97.7463 131.307 98.9998C127.988 104.735 122.77 109.482 115.797 113.107C114.992 113.526 114.434 114.276 114.266 115.164L111.56 129.49C111.486 129.885 111.14 130.171 110.738 130.171H101.941C101.54 130.171 101.194 129.885 101.119 129.49L99.6205 121.573C99.3255 120.015 97.8645 118.98 96.292 119.219C92.5028 119.792 88.5983 120.082 84.6875 120.082C81.778 120.082 78.9058 119.92 76.15 119.599C74.6263 119.424 73.2068 120.463 72.922 121.967L71.498 129.49C71.4233 129.885 71.0775 130.171 70.6758 130.171H61.879C61.4773 130.171 61.1315 129.885 61.0558 129.484L58.4508 115.954C58.283 115.082 57.7355 114.341 56.9478 113.92C45.0618 107.575 38.7793 96.9736 38.7793 83.2636C38.7793 76.3366 40.2948 70.2113 43.2835 65.0573C46.0725 60.2476 50.146 56.2708 55.3908 53.2371C56.2813 52.7218 56.5855 51.5823 56.0705 50.6916C55.5555 49.8011 54.416 49.4973 53.5253 50.0118C43.3555 55.8948 37.2218 64.9708 35.533 76.4983V76.4981C35.3538 76.4818 35.1743 76.4663 34.9955 76.4478C35.028 75.2041 34.803 73.9491 34.313 72.7311C33.2323 70.0446 31.0123 68.1056 28.657 67.7913C26.801 67.5428 25.0348 68.3308 23.809 69.9503C22.0318 72.2988 22.3215 74.1573 22.8773 75.3028C23.8155 77.2361 26.2273 78.6036 30.2295 79.4633C30.1195 79.6281 29.9985 79.7936 29.866 79.9598C27.5013 82.9256 24.7153 83.5813 22.9063 83.6431C21.8473 83.6788 20.9993 84.5291 20.9993 85.5888V85.5978C20.9993 86.6431 21.824 87.4956 22.8683 87.5433C23.002 87.5496 23.1418 87.5528 23.2873 87.5528C25.5763 87.5528 29.25 86.7086 32.7795 82.2828C33.3368 81.5843 33.7908 80.8473 34.1398 80.0858C34.4913 80.1256 34.829 80.1596 35.1525 80.1896C35.1525 80.1888 35.1525 80.1883 35.1528 80.1876C35.0893 81.1971 35.054 82.2213 35.054 83.2636C35.054 91.0206 36.9033 97.9368 40.55 103.821C43.9125 109.246 48.7268 113.688 54.8638 117.029L57.3963 130.183C57.8035 132.335 59.6888 133.897 61.879 133.897H70.6758C72.866 133.897 74.7513 132.335 75.1585 130.183L76.446 123.381C79.12 123.664 81.8885 123.807 84.6873 123.807C88.5273 123.807 92.3628 123.54 96.1008 123.012L97.458 130.183C97.8655 132.335 99.7508 133.897 101.941 133.897H110.738C112.928 133.897 114.813 132.335 115.221 130.182L117.855 116.234C125.297 112.299 130.906 107.13 134.531 100.866C134.792 100.414 135.194 100.083 135.663 99.9326L144.11 97.2268C147.035 96.2896 148.999 93.5973 148.999 90.5266V81.8328C148.999 78.7623 147.035 76.0701 144.11 75.1333ZM126.319 52.9941C125.602 59.1256 123.679 64.3706 121.746 65.4651C119.55 66.7093 114.478 66.9496 110.671 64.1643C106.859 61.3758 105.59 56.3613 107.001 49.6628C107.001 49.6626 107.001 49.6626 107.001 49.6626C107.143 48.9898 107.621 48.4078 108.28 48.1063C117.606 43.8373 122.983 42.4411 124.98 42.4411C125.282 42.4411 125.506 42.4728 125.656 42.5313C126.256 43.1708 127.043 46.8061 126.319 52.9941ZM26.2295 73.6761C26.0368 73.2786 26.4918 72.5798 26.7803 72.1983C27.2375 71.5943 27.6588 71.4708 27.977 71.4708C28.0443 71.4708 28.107 71.4763 28.1645 71.4841C29.021 71.5983 30.221 72.5408 30.8568 74.1211C31.0065 74.4931 31.201 75.1093 31.2465 75.8778C28.6678 75.3436 26.6643 74.5733 26.2295 73.6761Z" fill="white"/>
<path d="M80.4788 31.745V25.079C82.7776 25.2433 83.6316 26.294 84.4196 26.294C85.4048 26.294 85.8646 25.0463 85.8646 24.4223C85.8646 22.813 82.7118 22.1235 80.4788 22.0578V21.1708C80.4788 20.7768 79.9861 20.4155 79.4936 20.4155C78.9351 20.4155 78.5411 20.7768 78.5411 21.1708V22.123C75.4213 22.4515 72.3016 24.0935 72.3016 28.2313C72.3016 32.4348 75.5856 33.617 78.5411 34.6678V42.385C75.1913 42.1223 74.3048 39.8235 73.2211 39.8235C72.4001 39.8235 71.7106 40.9073 71.7106 41.6955C71.7106 43.3045 74.4691 45.5048 78.5411 45.5705V46.5885C78.5411 46.9825 78.9353 47.3438 79.4936 47.3438C79.9863 47.3438 80.4788 46.9825 80.4788 46.5885V45.472C84.0256 44.9793 86.4556 42.7463 86.4556 38.707C86.4556 34.241 83.3358 32.7958 80.4788 31.745ZM78.7381 31.1213C76.9976 30.4645 75.5856 29.775 75.5856 27.9033C75.5856 26.1955 76.8991 25.3745 78.7381 25.1448V31.1213ZM80.2816 42.3193V35.3903C81.8906 36.0798 83.1713 36.9993 83.1713 39.068C83.1713 40.9403 82.0548 41.991 80.2816 42.3193Z" fill="white"/>
</g>
<defs>
<clipPath id="clip0">
<rect width="128" height="128" fill="white" transform="translate(20.9993 7.17578)"/>
</clipPath>
</defs>
</svg>
