<svg width="174" height="147" viewBox="0 0 174 147" fill="none" xmlns="http://www.w3.org/2000/svg">
<path d="M29.753 15.7291C50.9026 -1.61969 99.2583 0.0430182 99.2583 0.0430182C99.2583 0.0430182 128.311 2.58442 137 22.5C141.823 33.5538 143.392 41.8998 146.5 53.5C150.132 67.0559 168.415 69.8398 171.753 83.4643C177.341 106.272 173.098 128.025 152.321 140.504C140.502 147.604 131.161 147.089 117.195 146.921C104.088 146.764 84.3109 140.504 84.3109 140.504C84.3109 140.504 65.0302 134.18 52.1741 132.661C39.719 131.19 31.6925 137.102 20.0372 132.661C-5.40427 122.969 -0.743977 93.6879 2.84775 67.7782C5.9624 45.3101 11.7399 30.505 29.753 15.7291Z" fill="#933FA1"/>
<path d="M140.482 30H33.5175C29.3722 30 26 33.3722 26 37.5173V110.101C26 114.246 29.3722 117.618 33.5175 117.618H69.6948L68.2315 129.325H62.1687C61.1815 129.325 60.3816 130.125 60.3816 131.112C60.3816 132.099 61.1815 132.899 62.1687 132.899H111.831C112.818 132.899 113.618 132.099 113.618 131.112C113.618 130.125 112.818 129.325 111.831 129.325H105.769L104.305 117.618H140.482C144.628 117.618 148 114.246 148 110.101V37.5173C148 33.3722 144.628 30 140.482 30ZM71.8336 129.325L73.2972 117.618H79.8744L80.5197 120.199C81.2646 123.178 83.9295 125.258 87.0002 125.258C90.071 125.258 92.7359 123.178 93.4808 120.199L94.126 117.618H100.703L102.166 129.325H71.8336ZM83.5585 117.618H90.4413L90.0128 119.332C89.6666 120.717 88.4278 121.684 86.9998 121.684C85.5717 121.684 84.3332 120.717 83.9867 119.332L83.5585 117.618ZM144.426 110.101C144.426 112.275 142.657 114.044 140.482 114.044H33.5175C31.3432 114.044 29.5742 112.275 29.5742 110.101V37.5173C29.5742 35.343 31.3432 33.5742 33.5175 33.5742H140.482C142.657 33.5742 144.426 35.343 144.426 37.5173V110.101Z" fill="white"/>
<path d="M127.112 37.6404H35.4272C34.44 37.6404 33.6401 38.4403 33.6401 39.4275V108.191C33.6401 109.178 34.44 109.978 35.4272 109.978H39.2476C40.2348 109.978 41.0347 109.178 41.0347 108.191C41.035 107.204 40.2348 106.404 39.2478 106.404H37.2146V41.2146H127.112C128.099 41.2146 128.899 40.4145 128.899 39.4275C128.899 38.4403 128.099 37.6404 127.112 37.6404Z" fill="white"/>
<path d="M138.573 37.6404H134.752C133.765 37.6404 132.965 38.4403 132.965 39.4275C132.965 40.4145 133.765 41.2146 134.752 41.2146H136.785V106.404H46.8882C45.901 106.404 45.1011 107.204 45.1011 108.191C45.1011 109.178 45.901 109.978 46.8882 109.978H138.572C139.56 109.978 140.359 109.178 140.359 108.191V39.4275C140.36 38.4403 139.56 37.6404 138.573 37.6404Z" fill="white"/>
<path d="M111.329 57.4268C111.007 57.0163 110.523 56.7666 110.003 56.743L67.9808 54.8327C67.9479 54.8313 67.9157 54.8305 67.8826 54.831C67.6339 54.0144 67.1082 53.3063 66.3967 52.8316L61.2505 49.4008C60.4294 48.8535 59.3197 49.0753 58.7724 49.8967C58.2251 50.718 58.4469 51.8275 59.268 52.3748L64.414 55.8051C64.4383 55.8213 64.4561 55.8459 64.4642 55.874L71.0191 78.8159C71.2236 79.5312 71.56 80.1741 71.992 80.7293L69.5937 85.5259C69.0164 86.6804 69.0769 88.025 69.7555 89.123C70.0017 89.5212 70.3138 89.8603 70.6724 90.1319C70.203 90.9514 69.933 91.8992 69.933 92.9095C69.933 96.0015 72.4486 98.5168 75.5403 98.5168C78.632 98.5168 81.1475 96.0012 81.1475 92.9095C81.1475 92.1926 81.0107 91.5073 80.7643 90.8765H97.0573C96.8109 91.5073 96.6741 92.1926 96.6741 92.9095C96.6741 96.0015 99.1897 98.5168 102.281 98.5168C105.373 98.5168 107.889 96.0012 107.889 92.9095C107.889 92.0127 107.676 91.1651 107.3 90.4126C107.661 90.0857 107.889 89.6148 107.889 89.0894C107.889 88.1025 107.089 87.3023 106.102 87.3023H72.8999C72.8744 87.3023 72.8312 87.3023 72.7953 87.2439C72.7593 87.1858 72.7786 87.1474 72.79 87.1243L74.9994 82.7059C75.449 82.8214 75.9175 82.8839 76.3969 82.8839C76.6178 82.8839 76.8408 82.8708 77.0653 82.8446L102.177 79.8903C105.42 79.5086 108.029 77.101 108.67 73.8985L111.674 58.8787C111.776 58.3676 111.65 57.8374 111.329 57.4268ZM102.281 90.877C103.402 90.877 104.314 91.7891 104.314 92.91C104.314 94.0311 103.402 94.943 102.281 94.943C101.16 94.943 100.248 94.0311 100.248 92.91C100.248 91.7889 101.16 90.877 102.281 90.877ZM75.5398 90.877C76.6609 90.877 77.5728 91.7889 77.5728 92.91C77.5728 94.0311 76.6609 94.943 75.5398 94.943C74.4187 94.943 73.5068 94.0311 73.5068 92.91C73.5068 91.7889 74.4187 90.877 75.5398 90.877ZM71.1573 66.2916L68.9177 58.4534L76.0626 58.7781L77.3014 66.2916H71.1573ZM76.6478 79.2949C75.6513 79.4121 74.7303 78.7976 74.4554 77.8342L72.1786 69.8658H77.8907L79.3921 78.972L76.6478 79.2949ZM87.1234 78.0625L82.9458 78.5541L81.5135 69.8661H87.1234V78.0625ZM87.1234 66.2916H80.924L79.7126 58.9442L87.1234 59.2812V66.2916ZM96.1738 76.9976L90.6976 77.6419V69.8658H96.8193L96.1738 76.9976ZM97.1428 66.2916H90.6976V59.4434L97.7338 59.7632L97.1428 66.2916ZM105.165 73.198C104.829 74.8774 103.46 76.1405 101.759 76.3407L99.8011 76.5711L100.408 69.8661H105.831L105.165 73.198ZM106.546 66.2916H100.732L101.308 59.9257L107.761 60.219L106.546 66.2916Z" fill="white"/>
</svg>
