<svg width="445" height="445" viewBox="0 0 445 445" fill="none" xmlns="http://www.w3.org/2000/svg">
<path d="M105.198 348.035C117.978 349.939 131.008 349.61 143.815 351.247C176.14 355.377 196.325 373.257 219.607 390.185H364.117C365.158 389.099 366.173 387.996 367.161 386.856C402.324 346.406 406.071 278.57 392.463 229.326C374.218 163.182 323.96 82.9569 252.066 67.5866C220.266 60.787 186.766 66.5809 159.871 84.8882C99.947 125.677 43.3608 196.138 45.2743 272.224C46.191 308.688 67.5065 342.41 105.198 348.035Z" fill="#933FA1"/>
<path opacity="0.7" d="M105.198 348.035C117.978 349.939 131.008 349.61 143.815 351.247C176.14 355.377 196.325 373.257 219.607 390.185H364.117C365.158 389.099 366.173 387.996 367.161 386.856C402.324 346.406 406.071 278.57 392.463 229.326C374.218 163.182 323.96 82.9569 252.066 67.5866C220.266 60.787 186.766 66.5809 159.871 84.8882C99.947 125.677 43.3608 196.138 45.2743 272.224C46.191 308.688 67.5065 342.41 105.198 348.035Z" fill="white"/>
<path d="M34.6388 390.185H413.369" stroke="#263238" stroke-linecap="round" stroke-linejoin="round"/>
<path d="M254.994 100.828L254.335 95.1945C254.335 95.1945 257.005 90.2906 257.005 89.8545C257.005 89.4184 256.062 84.5145 255.012 83.1528C254.063 82.0203 252.991 80.9965 251.817 80.1001C250.651 79.0499 250.179 80.1001 250.535 81.3283C249.202 80.8782 247.823 80.5797 246.423 80.4383C245.647 80.6494 244.898 80.948 244.189 81.3283C243.73 81.2112 243.258 81.1484 242.783 81.1414C242.056 81.42 241.363 81.7813 240.718 82.2183C240.204 82.3585 239.698 82.5309 239.205 82.7345C238.422 83.1706 237.425 85.2621 237.425 85.2621C237.425 85.2621 236.01 85.8673 235.779 86.339C235.548 86.8107 233.429 89.7566 233.999 89.9969C235.281 90.5665 237.559 88.9378 237.559 88.9378C237.559 88.9378 240.932 89.2404 241.119 90.1215C241.306 91.0026 243.833 95.4615 245.507 96.1824V101.46L254.994 100.828Z" fill="#FCB093" stroke="#263238" stroke-linecap="round" stroke-linejoin="round"/>
<path d="M346.798 130.643L342.161 136.624L335.557 131.515L335.21 126.46L340.194 125.535L346.798 130.643Z" fill="#933FA1" stroke="#263238" stroke-linecap="round" stroke-linejoin="round"/>
<path d="M312.194 90.5931C312.194 90.5931 318.665 88.1189 323.764 91.9815C330.208 96.8765 338.138 110.832 330.475 135.654C330.475 135.654 322.207 127.386 298.488 135.654C298.488 135.654 292.178 132.494 290.95 114.356C290.309 104.789 288.956 86.5436 312.194 90.5931Z" fill="#263238"/>
<path d="M335.21 126.451C335.21 126.451 329.158 126.932 326.55 116.919" stroke="#263238" stroke-linecap="round" stroke-linejoin="round"/>
<path d="M370.151 283.323L363.174 286.242L359.952 278.535L362.141 273.96L366.938 275.615L370.151 283.323Z" fill="#933FA1" stroke="#263238" stroke-linecap="round" stroke-linejoin="round"/>
<path d="M362.372 274.351C362.372 274.351 359.943 264.846 352.529 264.668" stroke="#263238" stroke-linecap="round" stroke-linejoin="round"/>
<path d="M297.857 123.025C302.734 123.505 302.413 111.624 298.186 110.841C293.442 109.96 290.843 122.348 297.857 123.025Z" fill="#933FA1" stroke="#263238" stroke-linecap="round" stroke-linejoin="round"/>
<path d="M299.574 107.69C292.908 107.04 293.344 123.283 299.12 124.351C305.617 125.57 309.159 108.625 299.574 107.69Z" fill="#757575" stroke="#263238" stroke-linecap="round" stroke-linejoin="round"/>
<path d="M287.897 368.594L288.787 371.201C287.444 373.432 285.936 375.559 284.275 377.565C284.275 377.565 283.385 377.271 281.917 378.562C281.021 379.461 280.467 380.644 280.35 381.908C280.35 381.908 273.551 390.06 264.926 390.185C256.302 390.31 258.901 385.957 258.901 385.957L287.897 368.594Z" fill="#933FA1" stroke="#263238" stroke-linecap="round" stroke-linejoin="round"/>
<path d="M279.798 347.839C279.798 347.839 268.228 343.576 265.959 352.111C265.959 352.111 268.024 361.5 266.787 366.627C265.549 371.753 259.319 381.57 258.937 383.439C258.189 387.079 258.75 387.328 258.75 387.328C258.75 387.328 263.289 389.945 269.368 387.141C275.446 384.338 285.993 372.278 287.639 369.795C289.286 367.312 282.477 357.486 282.477 357.486L279.798 347.839Z" fill="#FCB093"/>
<path opacity="0.7" d="M279.798 347.839C279.798 347.839 268.228 343.576 265.959 352.111C265.959 352.111 268.024 361.5 266.787 366.627C265.549 371.753 259.319 381.57 258.937 383.439C258.189 387.079 258.75 387.328 258.75 387.328C258.75 387.328 263.289 389.945 269.368 387.141C275.446 384.338 285.993 372.278 287.639 369.795C289.286 367.312 282.477 357.486 282.477 357.486L279.798 347.839Z" fill="black"/>
<path d="M279.798 347.839C279.798 347.839 268.228 343.576 265.959 352.111C265.959 352.111 268.024 361.5 266.787 366.627C265.549 371.753 259.319 381.57 258.937 383.439C258.189 387.079 258.75 387.328 258.75 387.328C258.75 387.328 263.289 389.945 269.368 387.141C275.446 384.338 285.993 372.278 287.639 369.795C289.286 367.312 282.477 357.486 282.477 357.486L279.798 347.839Z" stroke="#263238" stroke-linecap="round" stroke-linejoin="round"/>
<path d="M273.871 359.898C274.878 365.645 273.855 371.563 270.978 376.639C270.978 376.639 268.122 379.309 269.332 380.885" stroke="#263238" stroke-linecap="round" stroke-linejoin="round"/>
<path d="M272.616 375.473C272.616 375.473 266.564 375.829 263.404 374.583" stroke="#263238" stroke-linecap="round" stroke-linejoin="round"/>
<path d="M273.738 372.127C273.738 372.127 268.077 373.017 264.918 371.237" stroke="#263238" stroke-linecap="round" stroke-linejoin="round"/>
<path d="M274.699 368.46C274.699 368.46 269.741 369.181 266.511 367.641" stroke="#263238" stroke-linecap="round" stroke-linejoin="round"/>
<path d="M275.251 364.215C275.251 364.215 269.733 365.95 267.125 364.215" stroke="#263238" stroke-linecap="round" stroke-linejoin="round"/>
<path d="M323.31 200.757C323.31 200.757 333.99 231.845 329.264 252.217C324.539 272.589 323.034 280.946 323.31 292.018C323.586 303.09 312.052 360.646 312.052 360.646H301.497C301.497 360.646 303.063 310.806 302.983 298.729C302.903 286.651 305.163 289.953 302.395 278.259C299.627 266.564 301.683 254.789 297.839 242.116C297.839 242.116 277.093 277.796 273.337 282.958C273.337 282.958 277.511 298.631 277.039 311.954C276.496 327.556 277.867 351.043 277.867 351.043C277.867 351.043 275.517 355.448 269.065 353.713C269.065 353.713 252.208 284.195 253.152 280.733C254.095 277.271 260.663 239.668 278.695 214.704C278.695 214.704 281.783 204.077 283.901 197.278L323.31 200.757Z" fill="#263238"/>
<path d="M314.704 359.373C314.704 359.373 309.773 355.813 299.574 356.561C299.574 356.561 298.835 368.798 297.447 372.358C296.059 375.918 288.734 382.086 287.381 383.136C286.028 384.186 286.019 387.898 286.019 387.898H317C316.608 382.6 315.783 377.343 314.535 372.18L314.704 359.373Z" fill="#FCB093"/>
<path opacity="0.7" d="M314.704 359.373C314.704 359.373 309.773 355.813 299.574 356.561C299.574 356.561 298.835 368.798 297.447 372.358C296.059 375.918 288.734 382.086 287.381 383.136C286.028 384.186 286.019 387.898 286.019 387.898H317C316.608 382.6 315.783 377.343 314.535 372.18L314.704 359.373Z" fill="black"/>
<path d="M314.704 359.373C314.704 359.373 309.773 355.813 299.574 356.561C299.574 356.561 298.835 368.798 297.447 372.358C296.059 375.918 288.734 382.086 287.381 383.136C286.028 384.186 286.019 387.898 286.019 387.898H317C316.608 382.6 315.783 377.343 314.535 372.18L314.704 359.373Z" stroke="#263238" stroke-linecap="round" stroke-linejoin="round"/>
<path d="M308.314 360.957C308.314 360.957 307.575 372.225 305.831 375.197C304.892 376.829 303.736 378.326 302.395 379.647C302.395 379.647 300.277 379.647 302.395 382.495" stroke="#263238" stroke-linecap="round" stroke-linejoin="round"/>
<path d="M304.763 378.561C304.763 378.561 298.15 374.77 293.442 377.671" stroke="#263238" stroke-linecap="round" stroke-linejoin="round"/>
<path d="M306.356 375.989C306.356 375.989 301.737 372.43 296.299 374.361" stroke="#263238" stroke-linecap="round" stroke-linejoin="round"/>
<path d="M308.314 372.02C308.314 372.02 303.348 368.166 298.114 370.623" stroke="#263238" stroke-linecap="round" stroke-linejoin="round"/>
<path d="M308.981 367.152C308.981 367.152 302.965 363.921 298.577 366.377" stroke="#263238" stroke-linecap="round" stroke-linejoin="round"/>
<path d="M316.991 387.898V390.185H313.431C312.517 389.686 311.492 389.425 310.45 389.425C309.408 389.425 308.383 389.686 307.468 390.185H290.763C288.997 390.178 287.254 389.786 285.654 389.037L286.01 387.898H316.991Z" fill="#933FA1" stroke="#263238" stroke-linecap="round" stroke-linejoin="round"/>
<path d="M340.665 144.999C337.32 142.772 333.635 141.104 329.754 140.059C329.754 140.059 327.654 138.003 326.55 139.614C322.1 146.04 298.453 136.838 298.453 136.838C298.453 136.838 297.144 135.369 293.789 135.431C291.494 133.527 288.664 132.386 285.69 132.165C280.76 131.809 263.627 134.995 261.518 133.651C259.408 132.307 255.181 98.5142 255.181 98.5142H244.982V102.884C244.982 102.884 240.407 113.653 240.763 129.139C241.119 144.625 227.057 150.624 269.305 164.739C269.305 164.739 267.899 190.086 272.474 201.354C272.474 201.354 306.4 218.388 327.992 218.495C327.992 218.495 332.798 221.655 326.497 207.219L333.75 197.242C333.75 197.242 343.958 215.042 350.998 210.129C358.038 205.216 352.44 152.439 340.665 144.999Z" fill="#933FA1"/>
<path opacity="0.2" d="M269.181 167.934C269.234 165.914 269.305 164.704 269.305 164.704C227.057 150.615 241.11 144.634 240.763 129.104C240.416 113.573 244.981 102.849 244.981 102.849V98.4697H255.199C255.199 98.4697 259.417 132.29 261.535 133.616C266.288 140.923 257.575 149.502 260.645 150.882C263.716 152.261 271.165 145.542 271.165 145.542C271.957 153.064 271.283 160.669 269.181 167.934Z" fill="black" fill-opacity="0.7"/>
<path opacity="0.2" d="M349.111 188.618C349.111 188.618 347.1 203.223 346.041 210.521C339.98 208.109 333.75 197.233 333.75 197.233L326.505 207.174C332.807 221.61 328.001 218.459 328.001 218.459C306.409 218.353 272.482 201.318 272.482 201.318C271.749 199.424 271.191 197.467 270.818 195.471C292.944 213.155 321.548 215.211 324.094 215.362C319.759 215.068 305.083 210.565 303.348 207.174C301.612 203.783 317.588 206.925 321.78 206.222C325.971 205.519 330.493 191.982 330.493 191.982C327.36 191.982 323.417 180.714 323.782 179.317C324.147 177.92 329.54 178.231 329.54 178.231C329.54 178.231 326.594 175.428 327.413 171.761C328.232 168.094 326.764 162.576 329.674 163.279C332.584 163.983 331.872 168.877 331.872 168.877L349.111 188.618Z" fill="black" fill-opacity="0.7"/>
<path d="M340.665 144.999C337.32 142.772 333.635 141.104 329.754 140.059C329.754 140.059 327.654 138.003 326.55 139.614C322.1 146.04 298.453 136.838 298.453 136.838C298.453 136.838 297.144 135.369 293.789 135.431C291.494 133.527 288.664 132.386 285.69 132.165C280.76 131.809 263.627 134.995 261.518 133.651C259.408 132.307 255.181 98.5142 255.181 98.5142H244.982V102.884C244.982 102.884 240.407 113.653 240.763 129.139C241.119 144.625 227.057 150.624 269.305 164.739C269.305 164.739 267.899 190.086 272.474 201.354C272.474 201.354 306.4 218.388 327.992 218.495C327.992 218.495 332.798 221.655 326.497 207.219L333.75 197.242C333.75 197.242 343.958 215.042 350.998 210.129C358.038 205.216 352.44 152.439 340.665 144.999Z" stroke="#263238" stroke-linecap="round" stroke-linejoin="round"/>
<path d="M306.436 150.882C316.698 151.701 326.55 139.614 326.55 139.614C326.55 139.614 320.987 139.383 320.32 136.838C318.077 128.828 323.613 118.219 323.613 118.219C323.613 118.219 299.076 120.889 303.828 126.113C304.71 127.065 305.456 128.134 306.044 129.29C307.824 132.85 307.023 135.681 306.285 136.41C306.233 136.46 306.176 136.505 306.116 136.544C304.683 137.345 298.488 136.829 298.488 136.829C298.488 136.829 297.073 150.134 306.436 150.882Z" fill="#FCB093" stroke="#263238" stroke-linecap="round" stroke-linejoin="round"/>
<path d="M323.319 142.996C319.718 144.544 315.829 145.312 311.91 145.248L308.955 147.028" stroke="#263238" stroke-linecap="round" stroke-linejoin="round"/>
<path d="M305.867 147.01L305.475 144.999C305.475 144.999 300.304 143.833 298.497 140.958" stroke="#263238" stroke-linecap="round" stroke-linejoin="round"/>
<path d="M306.249 136.419C313.939 137.772 316.689 127.822 316.689 127.822C316.689 127.822 310.521 126.522 306.009 129.29C307.798 132.833 306.988 135.681 306.249 136.419Z" fill="#263238"/>
<path d="M305.982 92.7825C289.25 95.23 297.314 119.954 299.04 126.086C299.681 128.356 306.739 134.986 309.898 134.399C312.363 133.927 321.139 126.514 321.593 123.452C322.794 115.282 324.85 90.0057 305.982 92.7825Z" fill="#FCB093" stroke="#263238" stroke-linecap="round" stroke-linejoin="round"/>
<path d="M303.686 110.796C303.686 111.953 304.647 115.246 302.378 117.569C300.909 119.064 304.647 119.732 304.647 119.732" stroke="#263238" stroke-linecap="round" stroke-linejoin="round"/>
<path d="M302.929 105.616C301.829 105.636 300.747 105.905 299.765 106.403C298.783 106.901 297.927 107.615 297.26 108.491" stroke="#263238" stroke-linecap="round" stroke-linejoin="round"/>
<path d="M308.706 105.367C310.852 105.084 313.033 105.248 315.113 105.848" stroke="#263238" stroke-linecap="round" stroke-linejoin="round"/>
<path d="M299.752 113.528C299.886 114.205 300.384 114.685 300.883 114.588C301.381 114.49 301.666 113.867 301.541 113.181C301.417 112.496 300.9 112.024 300.411 112.122C299.921 112.22 299.619 112.843 299.752 113.528Z" fill="#263238"/>
<path d="M310.61 112.211C310.735 112.896 311.242 113.377 311.74 113.279C312.009 113.173 312.226 112.968 312.347 112.706C312.468 112.444 312.484 112.146 312.39 111.873C312.266 111.188 311.758 110.716 311.26 110.805C310.993 110.913 310.777 111.118 310.656 111.379C310.535 111.641 310.519 111.938 310.61 112.211Z" fill="#263238"/>
<path d="M304.647 124.271C307.364 123.669 309.922 122.495 312.15 120.826C312.15 120.826 312.817 125.107 309.275 126.3C306.561 127.19 305.235 124.137 305.235 124.137" stroke="#263238" stroke-linecap="round" stroke-linejoin="round"/>
<path d="M312.194 96.2181C312.194 96.2181 312.194 108.491 323.319 112.042L327.405 99.9205L307.335 89.7122C286.028 89.8101 281.365 116.047 292.721 131.079C292.721 131.079 290.14 97.4552 312.194 96.2181Z" fill="#263238"/>
<path d="M321.005 112.754C320.747 111.393 323.925 107.628 325.277 109.764C327.591 113.422 326.408 116.884 324.441 118.335C323.551 118.993 322.483 120.186 321.575 119.225" fill="#FCB093"/>
<path d="M321.005 112.754C320.747 111.393 323.925 107.628 325.277 109.764C327.591 113.422 326.408 116.884 324.441 118.335C323.551 118.993 322.483 120.186 321.575 119.225" stroke="#263238" stroke-linecap="round" stroke-linejoin="round"/>
<path d="M323.773 105.234C317.098 104.584 317.543 120.827 323.319 121.895C329.807 123.105 333.35 106.159 323.773 105.234Z" fill="#757575" stroke="#263238" stroke-linecap="round" stroke-linejoin="round"/>
<path d="M324.272 109.212C324.272 109.212 323.382 90.3707 302.911 90.611C302.911 90.611 306 88.208 311.892 89.721C317.783 91.234 327.387 95.7107 327.387 109.221L324.272 109.212Z" fill="#933FA1" stroke="#263238" stroke-linecap="round" stroke-linejoin="round"/>
<path d="M325.349 107.477C320.48 107.005 320.801 118.877 325.019 119.67C329.772 120.551 332.362 108.153 325.349 107.477Z" fill="#933FA1" stroke="#263238" stroke-linecap="round" stroke-linejoin="round"/>
<g opacity="0.2">
<path opacity="0.2" d="M298.702 213.404C298.702 213.404 294.991 226.407 297.625 236.615" stroke="#FCB093" stroke-linecap="round" stroke-linejoin="round"/>
<path opacity="0.2" d="M296.441 239.41C296.441 239.41 289.197 234.301 286.028 233.776" stroke="#FCB093" stroke-linecap="round" stroke-linejoin="round"/>
<path opacity="0.2" d="M301.345 241.724C301.345 241.724 287.612 239.784 283.919 241.724" stroke="#FCB093" stroke-linecap="round" stroke-linejoin="round"/>
<path opacity="0.2" d="M298.702 239.41C298.702 239.41 305.288 236.42 308.955 235.717" stroke="#FCB093" stroke-linecap="round" stroke-linejoin="round"/>
<path opacity="0.2" d="M295.186 212.861C295.186 212.861 291.715 220.622 296.441 223.159" stroke="#FCB093" stroke-linecap="round" stroke-linejoin="round"/>
<path opacity="0.2" d="M267.125 280.101C266.938 280.804 271.646 282.922 271.646 282.922C271.646 282.922 269.759 287.844 267.125 288.556" stroke="#FCB093" stroke-linecap="round" stroke-linejoin="round"/>
<path opacity="0.2" d="M318.291 288.556C316.368 293.718 311.171 297.456 311.171 297.456" stroke="#FCB093" stroke-linecap="round" stroke-linejoin="round"/>
<path opacity="0.2" d="M264.028 322.821C264.028 322.821 270.578 329.861 271.646 332.442" stroke="#FCB093" stroke-linecap="round" stroke-linejoin="round"/>
</g>
<path d="M348.106 230.635L352.093 263.912C352.147 264.347 352.065 264.787 351.86 265.174C351.654 265.561 351.335 265.875 350.945 266.075L318.62 282.771C318.368 282.896 318.089 282.96 317.808 282.957C317.526 282.953 317.249 282.883 316.999 282.752C316.75 282.621 316.535 282.432 316.373 282.202C316.211 281.972 316.105 281.706 316.066 281.427L311.616 247.429C311.559 246.983 311.644 246.53 311.858 246.134C312.072 245.738 312.404 245.419 312.808 245.222L345.578 229.255C345.832 229.135 346.111 229.076 346.391 229.084C346.672 229.092 346.947 229.167 347.193 229.301C347.44 229.436 347.651 229.627 347.81 229.859C347.968 230.09 348.07 230.356 348.106 230.635Z" fill="#BFBFBF" stroke="#263238" stroke-linecap="round" stroke-linejoin="round"/>
<path d="M349.886 231.694L353.873 264.962C353.926 265.398 353.844 265.839 353.639 266.227C353.434 266.616 353.115 266.932 352.725 267.133L320.4 283.821C320.148 283.946 319.87 284.01 319.589 284.007C319.308 284.005 319.032 283.935 318.782 283.805C318.533 283.675 318.318 283.487 318.156 283.258C317.993 283.029 317.887 282.764 317.846 282.486L313.396 248.479C313.337 248.034 313.42 247.581 313.632 247.185C313.844 246.789 314.176 246.469 314.579 246.272L347.349 230.314C347.603 230.192 347.883 230.132 348.165 230.139C348.447 230.146 348.723 230.22 348.97 230.355C349.218 230.49 349.43 230.681 349.589 230.914C349.749 231.147 349.85 231.414 349.886 231.694Z" fill="#BFBFBF" stroke="#263238" stroke-linecap="round" stroke-linejoin="round"/>
<path d="M333.181 253.784C333.178 253.446 333.148 253.11 333.092 252.778C333.28 252.575 333.507 252.412 333.759 252.298C334.011 252.183 334.283 252.119 334.56 252.11C336.055 252.11 337.23 253.962 337.23 256.249C337.23 258.536 336.029 260.387 334.56 260.387C333.296 260.387 332.246 259.052 331.952 257.255C332.791 256.298 333.231 255.055 333.181 253.784Z" fill="#933FA1" stroke="#263238" stroke-linecap="round" stroke-linejoin="round"/>
<path d="M338.903 221.655L342.187 260.387C342.187 260.387 340.309 265.549 338.903 267.196C337.497 268.842 334.952 277.306 333.643 278.944C332.335 280.581 334.346 281.044 337.915 276.114C339.073 277.34 340.111 278.675 341.013 280.101C341.716 281.507 343.594 277.992 345.24 277.52C346.887 277.048 350.171 275.873 350.171 274.236C350.171 272.598 352.307 271.477 352.52 269.305C352.734 267.134 350.402 258.981 350.402 258.981L351.345 223.159L338.903 221.655Z" fill="#FCB093" stroke="#263238" stroke-linecap="round" stroke-linejoin="round"/>
<path d="M353.873 188.538C355.083 200.108 354.087 214.143 354.087 214.143L352.031 232.13C352.031 232.13 353.054 235.636 352.28 236.58C349.699 239.873 344.065 235.939 339.606 232.655C335.147 229.371 337.826 227.253 337.826 227.253C337.826 227.253 337.025 220.444 335.477 216.225C333.928 212.007 331.997 187.185 331.863 182.886C331.863 182.886 331.222 175.846 329.665 173.986C328.107 172.126 340.55 158.028 344.305 157.557" fill="#933FA1"/>
<path d="M353.873 188.538C355.083 200.108 354.087 214.143 354.087 214.143L352.031 232.13C352.031 232.13 353.054 235.636 352.28 236.58C349.699 239.873 344.065 235.939 339.606 232.655C335.147 229.371 337.826 227.253 337.826 227.253C337.826 227.253 337.025 220.444 335.477 216.225C333.928 212.007 331.997 187.185 331.863 182.886C331.863 182.886 331.222 175.846 329.665 173.986C328.107 172.126 340.55 158.028 344.305 157.557" stroke="#263238" stroke-linecap="round" stroke-linejoin="round"/>
<path d="M270.364 139.499C270.364 139.499 273.23 153.08 269.305 164.704" stroke="#263238" stroke-linecap="round" stroke-linejoin="round"/>
<path d="M326.497 207.183C321.005 209.691 314.839 210.317 308.955 208.963" stroke="#263238" stroke-linecap="round" stroke-linejoin="round"/>
<path d="M293.789 135.431C293.789 135.431 294.457 153.365 307.059 154.415" stroke="#263238" stroke-linecap="round" stroke-linejoin="round"/>
<path d="M261.536 133.651C261.536 133.651 262.621 139.134 259.097 140.958C255.573 142.783 259.097 137.309 259.097 137.309" stroke="#263238" stroke-linecap="round" stroke-linejoin="round"/>
<path d="M337.826 227.288C337.826 227.288 343.896 231.685 348.106 230.635" stroke="#263238" stroke-linecap="round" stroke-linejoin="round"/>
<path d="M244.982 102.884C244.982 102.884 251.354 105.67 253.107 105.216" stroke="#263238" stroke-linecap="round" stroke-linejoin="round"/>
<path d="M288.502 178L290.282 173.488L291.724 173.826L290.167 180.421L289.188 180.19L290.3 175.464L288.52 180.029L287.541 179.798L287.888 174.956L286.785 179.611L285.895 179.398L287.443 172.812L288.885 173.15L288.502 178Z" fill="#263238"/>
<path d="M292.054 175.535C292.086 175.313 292.164 175.099 292.283 174.909C292.402 174.719 292.559 174.555 292.745 174.428C292.93 174.302 293.14 174.216 293.361 174.175C293.582 174.134 293.809 174.139 294.027 174.19C294.246 174.242 294.451 174.338 294.631 174.473C294.81 174.608 294.96 174.779 295.069 174.975C295.179 175.171 295.247 175.388 295.269 175.611C295.29 175.835 295.265 176.06 295.195 176.273L294.385 179.7C294.353 179.922 294.275 180.135 294.156 180.326C294.037 180.516 293.88 180.68 293.694 180.806C293.509 180.933 293.299 181.019 293.078 181.06C292.857 181.101 292.63 181.096 292.412 181.044C292.193 180.993 291.987 180.897 291.808 180.761C291.629 180.626 291.479 180.456 291.369 180.26C291.26 180.064 291.192 179.847 291.17 179.624C291.148 179.4 291.173 179.175 291.244 178.961L292.054 175.535ZM292.267 179.264C292.151 179.736 292.321 179.967 292.65 180.047C292.979 180.127 293.228 179.994 293.335 179.522L294.225 175.962C294.332 175.49 294.163 175.268 293.834 175.188C293.504 175.108 293.264 175.241 293.148 175.713L292.267 179.264Z" fill="#263238"/>
<path d="M296.753 176.888L295.631 181.667L294.697 181.444L296.254 174.858L297.554 175.161L297.669 179.353L298.559 175.41L299.449 175.633L297.892 182.219L296.833 181.969L296.753 176.888Z" fill="#263238"/>
<path d="M300.25 175.802L301.888 176.184C302.11 176.211 302.323 176.289 302.509 176.412C302.696 176.535 302.852 176.699 302.965 176.892C303.078 177.085 303.145 177.302 303.16 177.525C303.176 177.748 303.139 177.971 303.054 178.178L302.262 181.507C302.245 181.728 302.178 181.943 302.066 182.135C301.953 182.327 301.798 182.49 301.612 182.612C301.426 182.734 301.215 182.812 300.994 182.84C300.773 182.867 300.549 182.843 300.339 182.77L298.702 182.388L300.25 175.802ZM301.069 176.985L299.93 181.685L300.517 181.827C300.847 181.907 301.078 181.783 301.194 181.311L302.004 177.884C302.11 177.413 301.95 177.199 301.621 177.119L301.069 176.985Z" fill="#263238"/>
<path d="M305.884 184.079L304.834 183.83L304.941 182.593L303.668 182.29L303.205 183.447L302.253 183.224L304.861 176.888L306.383 177.244L305.884 184.079ZM304.006 181.409L305.012 181.64L305.306 178.196L304.006 181.409Z" fill="#263238"/>
<path d="M307.388 182.13L307.112 177.413L308.198 177.671L308.269 180.857L309.756 178.045L310.744 178.276L308.403 182.37L307.887 184.559L306.854 184.31L307.388 182.13Z" fill="#263238"/>
<path d="M294.323 163.938L295.364 164.178L293.807 170.764L292.81 170.524L294.323 163.938Z" fill="#263238"/>
<path d="M304.745 166.118C304.255 165.835 303.684 165.724 303.124 165.805C302.563 165.886 302.047 166.153 301.657 166.563C301.479 166.027 301.124 165.567 300.65 165.26C300.176 164.952 299.611 164.816 299.049 164.872C297.269 165.015 296.263 166.982 297.224 169.198C297.895 170.553 298.858 171.742 300.046 172.678L300.277 172.865L300.562 172.793C302.033 172.441 303.407 171.766 304.585 170.818C306.383 169.207 306.276 166.991 304.745 166.118Z" fill="#263238"/>
<path d="M250.535 81.2837C251.354 82.8768 252.315 85.1018 251.941 85.8049C251.567 86.508 248.889 90.1659 249.823 92.3909" stroke="#263238" stroke-linecap="round" stroke-linejoin="round"/>
<path d="M237.39 85.2175L236.446 87.8875C236.827 88.1155 237.278 88.1936 237.713 88.1063C238.147 88.0191 238.533 87.7729 238.796 87.4158C239.846 86.1253 241.964 86.6682 241.964 86.6682" stroke="#263238" stroke-linecap="round" stroke-linejoin="round"/>
<path d="M244.189 81.2837C244.189 81.2837 240.06 83.9537 244.982 83.3396C247.927 83.0014 249.093 83.9003 249.049 84.0872" stroke="#263238" stroke-linecap="round" stroke-linejoin="round"/>
<path d="M240.718 82.1738C240.718 82.1738 238.938 83.5978 239.971 84.4344C241.003 85.271 243.157 84.9328 243.575 84.8883C244.505 84.8914 245.421 85.1173 246.245 85.5469" stroke="#263238" stroke-linecap="round" stroke-linejoin="round"/>
<path d="M243.193 76.9048H99.0571C94.5055 76.9048 90.8157 80.5946 90.8157 85.1462V381.943C90.8157 386.495 94.5055 390.185 99.0571 390.185H243.193C247.744 390.185 251.434 386.495 251.434 381.943V85.1462C251.434 80.5946 247.744 76.9048 243.193 76.9048Z" fill="white" stroke="#263238" stroke-linecap="round" stroke-linejoin="round"/>
<path d="M158.705 84.7278C158.707 85.1718 158.577 85.6063 158.331 85.9762C158.086 86.3462 157.736 86.6351 157.327 86.8062C156.917 86.9773 156.466 87.023 156.03 86.9375C155.594 86.852 155.194 86.639 154.879 86.3257C154.565 86.0124 154.35 85.6128 154.263 85.1775C154.176 84.7422 154.22 84.2908 154.389 83.8805C154.559 83.4701 154.846 83.1193 155.215 82.8725C155.584 82.6257 156.018 82.4939 156.462 82.4939C157.055 82.4939 157.624 82.729 158.045 83.1476C158.465 83.5663 158.702 84.1345 158.705 84.7278Z" fill="#538BFA" stroke="#263238" stroke-linecap="round" stroke-linejoin="round"/>
<path d="M188.021 84.7279C188.023 85.0064 187.942 85.2791 187.789 85.5115C187.635 85.7439 187.416 85.9256 187.16 86.0334C186.903 86.1412 186.62 86.1703 186.346 86.117C186.073 86.0638 185.822 85.9306 185.624 85.7343C185.427 85.538 185.292 85.2874 185.237 85.0144C185.182 84.7414 185.209 84.4582 185.315 84.2007C185.421 83.9432 185.602 83.7231 185.833 83.5682C186.064 83.4133 186.337 83.3306 186.615 83.3306C186.987 83.3306 187.343 83.4775 187.606 83.7393C187.87 84.0011 188.019 84.3565 188.021 84.7279Z" fill="#538BFA" stroke="#263238" stroke-linecap="round" stroke-linejoin="round"/>
<path d="M180.172 83.9358H163.102C162.738 83.9358 162.443 84.2307 162.443 84.5944V84.8614C162.443 85.2251 162.738 85.52 163.102 85.52H180.172C180.535 85.52 180.83 85.2251 180.83 84.8614V84.5944C180.83 84.2307 180.535 83.9358 180.172 83.9358Z" fill="#538BFA" stroke="#263238" stroke-linecap="round" stroke-linejoin="round"/>
<path d="M246.788 87.4869V380.35C246.788 381.788 246.217 383.166 245.201 384.183C244.184 385.199 242.806 385.77 241.368 385.77H100.882C100.17 385.77 99.4649 385.63 98.8073 385.358C98.1497 385.085 97.5522 384.686 97.0489 384.183C96.5456 383.68 96.1464 383.082 95.874 382.425C95.6016 381.767 95.4614 381.062 95.4614 380.35V87.4869C95.4614 86.7755 95.6017 86.0712 95.8742 85.4141C96.1467 84.757 96.5461 84.16 97.0495 83.6574C97.5529 83.1549 98.1505 82.7565 98.808 82.485C99.4656 82.2136 100.17 82.0745 100.882 82.0757H129.718C130.645 82.075 131.55 82.3576 132.312 82.8857C133.074 83.4138 133.656 84.1622 133.981 85.0305L135.209 88.3235C135.531 89.1928 136.111 89.9427 136.871 90.4725C137.632 91.0024 138.536 91.2866 139.463 91.2872H202.778C203.706 91.2872 204.612 91.0033 205.374 90.4735C206.136 89.9437 206.717 89.1935 207.041 88.3235L208.269 85.0305C208.591 84.1622 209.171 83.4134 209.932 82.8851C210.693 82.3568 211.597 82.0743 212.523 82.0757H241.368C242.804 82.0757 244.181 82.6455 245.197 83.6601C246.214 84.6746 246.786 86.0509 246.788 87.4869Z" fill="#E8E8E8"/>
<path d="M246.788 363.289V380.35C246.789 381.062 246.65 381.768 246.378 382.426C246.106 383.084 245.707 383.682 245.203 384.186C244.7 384.689 244.102 385.088 243.444 385.36C242.785 385.632 242.08 385.772 241.368 385.77H100.882C100.17 385.77 99.4649 385.63 98.8073 385.358C98.1497 385.085 97.5522 384.686 97.0489 384.183C96.5456 383.68 96.1464 383.082 95.874 382.424C95.6016 381.767 95.4614 381.062 95.4614 380.35V363.289H246.788Z" fill="#263238"/>
<path d="M246.788 87.4958V100.953H95.4882V87.4958C95.4882 86.0583 96.0592 84.6797 97.0757 83.6632C98.0921 82.6467 99.4708 82.0757 100.908 82.0757H129.744C130.672 82.0737 131.577 82.3559 132.339 82.8842C133.102 83.4124 133.684 84.1615 134.007 85.0305L135.227 88.3235C135.551 89.1928 136.133 89.9423 136.895 90.4719C137.657 91.0015 138.562 91.2859 139.49 91.2872H202.804C203.732 91.2859 204.637 91.0015 205.399 90.4719C206.161 89.9423 206.743 89.1928 207.067 88.3235L208.287 85.0305C208.612 84.1622 209.194 83.4138 209.956 82.8857C210.718 82.3576 211.623 82.075 212.55 82.0757H241.368C242.08 82.0745 242.786 82.2139 243.444 82.4859C244.102 82.7579 244.7 83.1571 245.203 83.6606C245.707 84.1641 246.106 84.7621 246.378 85.4202C246.65 86.0783 246.789 86.7837 246.788 87.4958Z" fill="#2A2A2A"/>
<path d="M246.788 87.4514V380.315C246.786 381.751 246.214 383.127 245.197 384.142C244.181 385.156 242.804 385.726 241.368 385.726H100.882C100.17 385.727 99.4656 385.588 98.808 385.317C98.1505 385.045 97.5529 384.647 97.0495 384.144C96.5461 383.642 96.1467 383.045 95.8742 382.388C95.6017 381.73 95.4614 381.026 95.4614 380.315V87.4514C95.4614 86.7396 95.6016 86.0348 95.874 85.3772C96.1464 84.7196 96.5456 84.1221 97.0489 83.6188C97.5522 83.1155 98.1497 82.7162 98.8073 82.4438C99.4649 82.1714 100.17 82.0313 100.882 82.0313H129.718C130.646 82.0312 131.552 82.3152 132.314 82.845C133.076 83.3747 133.657 84.125 133.981 84.995L135.209 88.2791C135.531 89.1483 136.111 89.8983 136.871 90.4281C137.632 90.9579 138.536 91.2422 139.463 91.2427H202.778C203.706 91.2428 204.612 90.9588 205.374 90.429C206.136 89.8993 206.717 89.149 207.041 88.2791L208.26 84.995C208.582 84.1257 209.162 83.3757 209.922 82.8459C210.683 82.3161 211.587 82.0318 212.514 82.0313H241.368C242.806 82.0313 244.184 82.6023 245.201 83.6188C246.217 84.6352 246.788 86.0139 246.788 87.4514V87.4514Z" stroke="#263238" stroke-linecap="round" stroke-linejoin="round"/>
<path d="M202.965 268.13H139.276C133.343 268.13 128.534 272.94 128.534 278.872V283.171C128.534 289.104 133.343 293.913 139.276 293.913H202.965C208.897 293.913 213.707 289.104 213.707 283.171V278.872C213.707 272.94 208.897 268.13 202.965 268.13Z" fill="#933FA1"/>
<path d="M150.018 277.911V279.504C150.018 281.471 149.066 282.539 147.144 282.539H146.254V287.15H144.322V274.876H147.17C149.066 274.876 150.018 275.944 150.018 277.911ZM146.227 276.63V280.786H147.117C147.731 280.786 148.06 280.501 148.06 279.629V277.787C148.06 276.897 147.731 276.63 147.117 276.63H146.227Z" fill="white"/>
<path d="M152.751 274.876V284.346C152.751 285.236 153.133 285.539 153.748 285.539C154.362 285.539 154.753 285.218 154.753 284.346V274.876H156.578V284.221C156.578 286.188 155.59 287.31 153.694 287.31C151.798 287.31 150.819 286.188 150.819 284.221V274.876H152.751Z" fill="white"/>
<path d="M161.927 287.15C161.764 286.663 161.704 286.148 161.749 285.637V283.714C161.749 282.575 161.366 282.148 160.485 282.148H159.817V287.15H157.895V274.876H160.805C162.799 274.876 163.662 275.766 163.662 277.698V278.659C163.73 279.151 163.645 279.652 163.419 280.094C163.193 280.537 162.837 280.899 162.398 281.133C163.36 281.534 163.68 282.45 163.68 283.732V285.69C163.646 286.197 163.715 286.706 163.885 287.185L161.927 287.15ZM159.817 276.63V280.394H160.574C161.295 280.394 161.731 280.083 161.731 279.104V277.894C161.731 277.004 161.428 276.63 160.752 276.63H159.817Z" fill="white"/>
<path d="M170.533 282.575V284.204C170.533 286.162 169.554 287.292 167.658 287.292C165.763 287.292 164.784 286.162 164.784 284.204V277.822C164.784 275.856 165.763 274.734 167.658 274.734C169.554 274.734 170.533 275.856 170.533 277.822V279.015H168.709V277.68C168.709 276.79 168.326 276.47 167.712 276.47C167.098 276.47 166.706 276.808 166.706 277.68V284.311C166.706 285.201 167.098 285.503 167.712 285.503C168.326 285.503 168.709 285.183 168.709 284.311V282.531L170.533 282.575Z" fill="white"/>
<path d="M173.639 287.15H171.708V274.876H173.639V280.136H175.828V274.876H177.795V287.15H175.828V281.89H173.639V287.15Z" fill="white"/>
<path d="M185.44 287.15H183.491L183.162 284.925H180.795L180.456 287.15H178.676L180.67 274.876H183.491L185.44 287.15ZM180.99 283.26H182.851L181.961 277.03L180.99 283.26Z" fill="white"/>
<path d="M188.929 274.734C190.807 274.734 191.768 275.856 191.768 277.822V278.205H189.944V277.68C189.944 276.79 189.597 276.47 188.983 276.47C188.368 276.47 188.012 276.808 188.012 277.68C188.012 278.552 188.404 279.238 189.668 280.35C191.279 281.774 191.786 282.789 191.786 284.195C191.786 286.153 190.807 287.283 188.911 287.283C187.016 287.283 186.037 286.153 186.037 284.195V283.438H187.861V284.328C187.861 285.218 188.244 285.521 188.858 285.521C189.472 285.521 189.855 285.201 189.855 284.328C189.855 283.456 189.472 282.762 188.208 281.658C186.597 280.243 186.09 279.22 186.09 277.822C186.09 275.9 187.051 274.734 188.929 274.734Z" fill="white"/>
<path d="M194.821 280.047H197.491V281.827H194.821V285.387H198.15V287.167H192.89V274.876H198.15V276.656H194.821V280.047Z" fill="white"/>
<path d="M195 248H146L147.225 247.499C150.111 246.319 152.582 244.313 154.326 241.734C156.07 239.156 157.009 236.119 157.025 233.009V215H183.975V232.899C183.973 236.028 184.903 239.086 186.648 241.686C188.393 244.286 190.874 246.309 193.775 247.499L195 248Z" fill="white"/>
<path opacity="0.3" d="M183.831 215.167V230.915C174.923 232.649 165.858 233.445 156.784 233.288V215.167H183.831Z" fill="black" fill-opacity="0.7"/>
<path d="M195 248H146L147.225 247.499C150.111 246.319 152.582 244.313 154.326 241.734C156.07 239.156 157.009 236.119 157.025 233.009V215H183.975V232.899C183.973 236.028 184.903 239.086 186.648 241.686C188.393 244.286 190.874 246.309 193.775 247.499L195 248Z" stroke="#263238" stroke-linecap="round" stroke-linejoin="round"/>
<path d="M225.323 137H115.677C113.646 137 112 138.661 112 140.709V221.291C112 223.339 113.646 225 115.677 225H225.323C227.354 225 229 223.339 229 221.291V140.709C229 138.661 227.354 137 225.323 137Z" fill="white" stroke="#263238" stroke-linecap="round" stroke-linejoin="round"/>
<path d="M224 144H116V218H224V144Z" fill="#E6E6E6"/>
<path opacity="0.4" d="M191.343 144.008C191.343 144.008 164.468 194.746 116.349 201.041V144.008H191.343Z" fill="white"/>
<path opacity="0.4" d="M224.329 170.244V218.265H172.325C180.279 192.127 207.093 177.338 224.329 170.244Z" fill="white"/>
<path d="M224 144H116V218H224V144Z" stroke="#263238" stroke-linecap="round" stroke-linejoin="round"/>
<path d="M145.417 245H195.521C196.179 245 196.809 245.258 197.274 245.717C197.739 246.176 198 246.798 198 247.448V252H143V247.448C143 246.809 143.253 246.195 143.704 245.738C144.156 245.281 144.771 245.016 145.417 245Z" fill="white" stroke="#263238" stroke-linecap="round" stroke-linejoin="round"/>
<path d="M237.06 305.902H105.18V317.703H237.06V305.902Z" fill="#538BFA"/>
<path d="M208.571 325.455H112.3C111.715 325.455 111.241 325.929 111.241 326.514V326.932C111.241 327.517 111.715 327.992 112.3 327.992H208.571C209.156 327.992 209.631 327.517 209.631 326.932V326.514C209.631 325.929 209.156 325.455 208.571 325.455Z" fill="#538BFA"/>
<path d="M195.756 333.065H112.3C111.715 333.065 111.241 333.539 111.241 334.124V334.542C111.241 335.127 111.715 335.601 112.3 335.601H195.756C196.34 335.601 196.815 335.127 196.815 334.542V334.124C196.815 333.539 196.34 333.065 195.756 333.065Z" fill="#538BFA"/>
<path d="M188.066 343.211H112.514C112.178 343.208 111.856 343.073 111.62 342.835C111.383 342.596 111.25 342.274 111.25 341.938C111.252 341.602 111.388 341.28 111.626 341.044C111.864 340.807 112.187 340.674 112.523 340.674H188.075C188.41 340.674 188.731 340.807 188.968 341.044C189.205 341.281 189.339 341.603 189.339 341.938C189.34 342.105 189.308 342.271 189.244 342.426C189.181 342.581 189.087 342.722 188.969 342.84C188.85 342.959 188.709 343.053 188.554 343.116C188.399 343.18 188.233 343.212 188.066 343.211Z" fill="#538BFA"/>
<path d="M200.027 348.284H112.3C111.715 348.284 111.241 348.758 111.241 349.343V349.761C111.241 350.346 111.715 350.82 112.3 350.82H200.027C200.612 350.82 201.087 350.346 201.087 349.761V349.343C201.087 348.758 200.612 348.284 200.027 348.284Z" fill="#538BFA"/>
<path d="M229.94 325.455H219.145C218.56 325.455 218.086 325.929 218.086 326.514V326.932C218.086 327.517 218.56 327.992 219.145 327.992H229.94C230.525 327.992 231 327.517 231 326.932V326.514C231 325.929 230.525 325.455 229.94 325.455Z" fill="#538BFA"/>
<path d="M229.94 333.065H221.281C220.696 333.065 220.222 333.539 220.222 334.124V334.542C220.222 335.127 220.696 335.601 221.281 335.601H229.94C230.525 335.601 231 335.127 231 334.542V334.124C231 333.539 230.525 333.065 229.94 333.065Z" fill="#538BFA"/>
<path d="M229.941 340.674H218.077C217.492 340.674 217.018 341.148 217.018 341.733V342.151C217.018 342.736 217.492 343.211 218.077 343.211H229.941C230.525 343.211 231 342.736 231 342.151V341.733C231 341.148 230.525 340.674 229.941 340.674Z" fill="#538BFA"/>
<path d="M229.949 348.284H226.63C226.045 348.284 225.57 348.758 225.57 349.343V349.761C225.57 350.346 226.045 350.82 226.63 350.82H229.949C230.534 350.82 231.008 350.346 231.008 349.761V349.343C231.008 348.758 230.534 348.284 229.949 348.284Z" fill="#538BFA"/>
<path d="M222.215 115.023H120.034C118.157 115.023 116.635 116.546 116.635 118.423V119.776C116.635 121.654 118.157 123.176 120.034 123.176H222.215C224.093 123.176 225.615 121.654 225.615 119.776V118.423C225.615 116.546 224.093 115.023 222.215 115.023Z" fill="#2A2A2A"/>
<path d="M223.239 292.534L207.326 286.269L213.591 302.182L216.065 296.584L218.78 299.307L220.355 297.723L217.641 295.008L223.239 292.534Z" fill="white" stroke="#263238" stroke-linecap="round" stroke-linejoin="round"/>
<path d="M56.96 363.058C54.9662 366.367 53.6502 370.04 53.0885 373.862" stroke="#263238" stroke-linecap="round" stroke-linejoin="round"/>
<path d="M94.1354 333.617L87.1934 330.599L90.5131 322.937L95.3369 321.352L97.464 325.954L94.1354 333.617Z" fill="#933FA1" stroke="#263238" stroke-linecap="round" stroke-linejoin="round"/>
<path d="M95.3367 321.352C97.1167 318.033 103.347 311.918 107.628 313.565" stroke="#263238" stroke-linecap="round" stroke-linejoin="round"/>
<path d="M232.005 369.733L237.381 375.064L231.498 380.991L226.434 380.724L226.122 375.66L232.005 369.733Z" fill="#933FA1" stroke="#263238" stroke-linecap="round" stroke-linejoin="round"/>
<path d="M226.434 380.724C226.434 380.724 220.729 388.734 214.561 388.004" stroke="#263238" stroke-linecap="round" stroke-linejoin="round"/>
<path d="M408.145 343.665L404.416 350.251L397.154 346.148L396.077 341.19L400.874 339.553L408.145 343.665Z" fill="#933FA1" stroke="#263238" stroke-linecap="round" stroke-linejoin="round"/>
<path d="M396.05 341.191C396.05 341.191 390.301 341.573 386.99 332.62" stroke="#263238" stroke-linecap="round" stroke-linejoin="round"/>
<path d="M383.59 376.167C383.59 376.167 382.86 369.457 379.781 365.924" stroke="#263238" stroke-linecap="round" stroke-linejoin="round"/>
<path d="M381.854 355.795H326.034V390.025H381.854V355.795Z" fill="#BFBFBF"/>
<path opacity="0.2" d="M334.934 355.795L358.617 363.334V390.034H381.863V355.795H334.934Z" fill="black" fill-opacity="0.7"/>
<path opacity="0.2" d="M381.855 355.324H358.394V390.034H381.855V355.324Z" fill="black" fill-opacity="0.7"/>
<path d="M381.854 355.795H326.034V390.025H381.854V355.795Z" stroke="#263238" stroke-linecap="round" stroke-linejoin="round"/>
<path d="M346.05 371.904L344.715 373.613L358.617 390.034" stroke="#263238" stroke-linecap="round" stroke-linejoin="round"/>
<path d="M358.617 382.317V355.795L347.536 369.991" stroke="#263238" stroke-linecap="round" stroke-linejoin="round"/>
<path d="M358.626 385.673V387.737" stroke="#263238" stroke-linecap="round" stroke-linejoin="round"/>
<path d="M328.873 385.984L326.034 390.025" stroke="#263238" stroke-linecap="round" stroke-linejoin="round"/>
<path d="M335.521 370.463L337.55 373.613L330.19 384.106" stroke="#263238" stroke-linecap="round" stroke-linejoin="round"/>
<path d="M330.457 362.63L334.124 368.309" stroke="#263238" stroke-linecap="round" stroke-linejoin="round"/>
<path d="M326.034 355.795L328.383 359.435" stroke="#263238" stroke-linecap="round" stroke-linejoin="round"/>
<path d="M390.754 330.003H334.934V356.97H390.754V330.003Z" fill="#999999"/>
<path opacity="0.2" d="M390.764 330.003H367.526V356.97H390.764V330.003Z" fill="black" fill-opacity="0.7"/>
<path d="M390.754 330.003H334.934V356.97H390.754V330.003Z" stroke="#263238" stroke-linecap="round" stroke-linejoin="round"/>
<path d="M354.95 344.279L353.615 342.935L367.517 330.003" stroke="#263238" stroke-linecap="round" stroke-linejoin="round"/>
<path d="M367.517 336.082V356.979L356.436 345.792" stroke="#263238" stroke-linecap="round" stroke-linejoin="round"/>
<path d="M367.526 333.438V331.81" stroke="#263238" stroke-linecap="round" stroke-linejoin="round"/>
<path d="M337.773 333.189L334.934 330.003" stroke="#263238" stroke-linecap="round" stroke-linejoin="round"/>
<path d="M344.421 345.418L346.45 342.935L339.09 334.667" stroke="#263238" stroke-linecap="round" stroke-linejoin="round"/>
<path d="M339.357 351.595L343.024 347.118" stroke="#263238" stroke-linecap="round" stroke-linejoin="round"/>
<path d="M334.934 356.979L337.283 354.113" stroke="#263238" stroke-linecap="round" stroke-linejoin="round"/>
<path d="M130.323 313.565H107.628V390.176H130.323V313.565Z" fill="#263238"/>
<path d="M119.536 346.317C117.667 360.432 115.558 378.028 115.558 390.176H104.584V313.28C104.584 312.537 104.879 311.823 105.405 311.298C105.931 310.772 106.644 310.477 107.387 310.477H120.737C120.737 310.477 121.414 332.201 119.536 346.317Z" fill="#BFBFBF"/>
<path opacity="0.2" d="M112.701 310.441V390.176H104.584V313.28C104.584 312.536 104.879 311.823 105.405 311.298C105.931 310.772 106.644 310.477 107.387 310.477L112.701 310.441Z" fill="black"/>
<path d="M119.536 346.317C117.667 360.432 115.558 378.028 115.558 390.176H104.584V313.28C104.584 312.537 104.879 311.823 105.405 311.298C105.931 310.772 106.644 310.477 107.387 310.477H120.737C120.737 310.477 121.414 332.201 119.536 346.317Z" stroke="#263238" stroke-linecap="round" stroke-linejoin="round"/>
<path d="M112.701 312.372V387.568" stroke="#263238" stroke-linecap="round" stroke-linejoin="round"/>
<path d="M132.397 390.185V313.28C132.397 312.537 132.101 311.823 131.575 311.298C131.05 310.772 130.337 310.477 129.593 310.477H125.143C125.143 310.477 124.422 332.237 126.291 346.352C128.16 360.468 130.278 378.063 130.278 390.212L132.397 390.185Z" fill="#BFBFBF" stroke="#263238" stroke-linecap="round" stroke-linejoin="round"/>
<path d="M116.697 340.274C116.907 340.274 117.108 340.19 117.257 340.042C117.405 339.893 117.489 339.692 117.489 339.482V316.6C117.489 316.39 117.405 316.188 117.257 316.04C117.108 315.891 116.907 315.808 116.697 315.808C116.487 315.808 116.285 315.891 116.137 316.04C115.988 316.188 115.905 316.39 115.905 316.6V339.482C115.905 339.692 115.988 339.893 116.137 340.042C116.285 340.19 116.487 340.274 116.697 340.274Z" fill="#263238"/>
<path d="M199.716 387.515H148.924C148.507 387.492 148.108 387.335 147.787 387.067C147.467 386.799 147.241 386.435 147.144 386.029L139.81 352.44C139.756 352.265 139.745 352.079 139.777 351.899C139.809 351.718 139.884 351.548 139.996 351.403C140.107 351.257 140.252 351.14 140.418 351.062C140.584 350.984 140.766 350.947 140.949 350.954H191.742C192.158 350.979 192.555 351.138 192.875 351.405C193.196 351.672 193.422 352.035 193.522 352.44L200.846 386.011C200.904 386.186 200.918 386.373 200.888 386.555C200.858 386.737 200.784 386.91 200.673 387.057C200.562 387.205 200.417 387.323 200.251 387.403C200.084 387.483 199.901 387.521 199.716 387.515Z" fill="#BFBFBF" stroke="#263238" stroke-linecap="round" stroke-linejoin="round"/>
<path d="M200.606 387.515H149.814C149.397 387.492 148.998 387.335 148.677 387.067C148.357 386.799 148.131 386.435 148.034 386.029L140.7 352.44C140.646 352.265 140.635 352.079 140.667 351.899C140.699 351.718 140.774 351.548 140.886 351.403C140.997 351.257 141.142 351.14 141.308 351.062C141.474 350.984 141.656 350.947 141.839 350.954H192.632C193.048 350.979 193.445 351.138 193.765 351.405C194.086 351.672 194.312 352.035 194.412 352.44L201.736 386.011C201.794 386.186 201.808 386.373 201.778 386.555C201.748 386.737 201.674 386.91 201.563 387.057C201.452 387.205 201.307 387.323 201.14 387.403C200.974 387.483 200.791 387.521 200.606 387.515Z" fill="#263238"/>
<path d="M199.68 383.991H149.209L146.957 373.684L142.631 353.873H193.103L199.68 383.991Z" fill="#BFBFBF"/>
<path d="M223.817 387.275V388.761L211.562 389.82H150.277C149.942 389.818 149.622 389.684 149.386 389.447C149.149 389.211 149.015 388.891 149.013 388.556V387.284L223.817 387.275Z" fill="#BFBFBF" stroke="#263238" stroke-linecap="round" stroke-linejoin="round"/>
<path d="M177.537 387.275V388.761L165.282 389.82H150.277C149.942 389.818 149.622 389.684 149.386 389.447C149.149 389.211 149.015 388.891 149.013 388.556V387.284L177.537 387.275Z" fill="#999999" stroke="#263238" stroke-linecap="round" stroke-linejoin="round"/>
<path opacity="0.4" d="M180.092 353.873C175.437 360.993 165.852 370.48 146.957 373.684L142.631 353.873H180.092Z" fill="white"/>
<path d="M55.1889 390.034H111.01V363.067H55.1889V390.034Z" fill="#757575"/>
<path opacity="0.2" d="M55.1799 390.034H78.4178V363.067H55.1799V390.034Z" fill="black"/>
<path d="M55.1889 390.034H111.01V363.067H55.1889V390.034Z" stroke="#263238" stroke-linecap="round" stroke-linejoin="round"/>
<path d="M90.9937 375.749L92.3287 377.093L78.418 390.034" stroke="#263238" stroke-linecap="round" stroke-linejoin="round"/>
<path d="M78.418 383.955V363.058L89.4985 374.245" stroke="#263238" stroke-linecap="round" stroke-linejoin="round"/>
<path d="M78.418 386.598V388.227" stroke="#263238" stroke-linecap="round" stroke-linejoin="round"/>
<path d="M108.171 386.847L111.01 390.034" stroke="#263238" stroke-linecap="round" stroke-linejoin="round"/>
<path d="M101.522 374.619L99.4843 377.093L106.853 385.37" stroke="#263238" stroke-linecap="round" stroke-linejoin="round"/>
<path d="M106.586 368.442L102.92 372.919" stroke="#263238" stroke-linecap="round" stroke-linejoin="round"/>
<path d="M111.01 363.058L108.651 365.923" stroke="#263238" stroke-linecap="round" stroke-linejoin="round"/>
<path d="M94.3845 362.862C94.2465 362.844 94.1097 362.817 93.9751 362.782C92.1951 362.328 90.5219 360.165 89.178 358.759C88.1723 357.7 78.6137 357.7 77.608 358.759C76.2641 360.165 74.5553 362.319 72.8109 362.782C72.6762 362.817 72.5395 362.844 72.4015 362.862C69.0195 363.218 74.048 350.624 75.6856 349.815C77.3232 349.005 79.4414 349.094 79.6906 350.126H87.0954C87.3446 349.094 89.4539 349.014 91.1004 349.815C92.7469 350.616 97.7665 363.218 94.3845 362.862Z" fill="#BFBFBF" stroke="#263238" stroke-linecap="round" stroke-linejoin="round"/>
<path d="M93.9751 362.782C92.1951 362.328 90.5219 360.165 89.178 358.759C88.1723 357.7 78.6137 357.7 77.608 358.759C76.2641 360.165 74.5553 362.319 72.8109 362.782C74.3862 361.278 76.2997 357.3 77.1897 356.276C78.2844 355.003 78.8095 355.706 78.8095 355.706H87.9765C87.9765 355.706 88.5016 355.003 89.6052 356.276C90.4863 357.3 92.3998 361.278 93.9751 362.782Z" fill="#263238"/>
<path d="M391.297 385.779L384.222 388.467L381.249 380.671L383.59 376.167L388.325 377.974L391.297 385.779Z" fill="#933FA1" stroke="#263238" stroke-linecap="round" stroke-linejoin="round"/>
<path d="M55.1889 385.69L47.7485 384.311L49.2704 376.105L53.6047 373.471L56.7108 377.485L55.1889 385.69Z" fill="#933FA1" stroke="#263238" stroke-linecap="round" stroke-linejoin="round"/>
<path d="M164.615 178.197C164.562 178.374 164.497 178.546 164.42 178.713C164.344 178.875 164.235 179.019 164.101 179.137C163.943 179.271 163.76 179.371 163.562 179.431C163.281 179.511 162.989 179.549 162.697 179.542C162.407 179.549 162.117 179.512 161.839 179.431C161.64 179.372 161.456 179.272 161.299 179.137C161.163 179.02 161.052 178.876 160.974 178.713C160.9 178.545 160.835 178.373 160.779 178.197L159.244 173.374C159.216 173.287 159.184 173.203 159.147 173.119C159.147 173.054 159.082 173.015 159.043 173.015C159.004 173.015 158.939 173.061 158.939 173.146C158.939 173.23 158.939 173.296 158.939 173.341L159.036 179.425H155.785V171.076C155.762 170.71 155.873 170.348 156.097 170.058C156.295 169.831 156.542 169.652 156.819 169.536C157.084 169.438 157.363 169.381 157.645 169.366C157.911 169.366 158.113 169.366 158.25 169.366C158.467 169.368 158.684 169.381 158.9 169.406C159.15 169.435 159.394 169.505 159.622 169.614C159.867 169.735 160.087 169.901 160.272 170.104C160.494 170.373 160.662 170.684 160.766 171.018L162.417 175.828C162.417 175.828 162.417 175.893 162.463 175.946C162.483 175.995 162.507 176.043 162.534 176.089C162.558 176.139 162.588 176.185 162.625 176.226C162.636 176.242 162.649 176.255 162.665 176.265C162.681 176.275 162.698 176.282 162.716 176.285C162.716 176.285 162.775 176.285 162.807 176.226C162.845 176.184 162.877 176.138 162.905 176.089L162.977 175.946C162.977 175.893 162.977 175.854 163.016 175.828L164.621 170.972C164.717 170.635 164.886 170.323 165.116 170.058C165.3 169.856 165.521 169.69 165.766 169.569C165.99 169.464 166.229 169.396 166.475 169.366C166.703 169.341 166.933 169.328 167.164 169.327C167.617 169.309 168.071 169.371 168.503 169.51C168.778 169.603 169.027 169.76 169.231 169.967C169.398 170.121 169.515 170.321 169.569 170.541C169.611 170.717 169.633 170.896 169.634 171.076V179.425H166.384L166.494 173.341C166.504 173.252 166.488 173.161 166.449 173.08C166.449 173.035 166.397 173.015 166.364 173.015C166.332 173.015 166.312 173.015 166.279 173.093C166.236 173.184 166.199 173.278 166.169 173.374L164.615 178.197Z" fill="#282E3D"/>
<path d="M177.502 171.86C177.9 171.845 178.297 171.916 178.666 172.068C178.925 172.175 179.162 172.328 179.368 172.519C179.515 172.667 179.64 172.837 179.738 173.021C179.828 173.2 179.902 173.385 179.959 173.576C180.011 173.76 180.043 173.948 180.057 174.138C180.057 174.32 180.057 174.49 180.057 174.64V177.812C180.056 178.02 180.037 178.228 179.998 178.432C179.96 178.658 179.85 178.866 179.686 179.026C179.528 179.207 179.312 179.327 179.075 179.366C178.86 179.403 178.643 179.423 178.425 179.424H173.991C173.751 179.424 173.512 179.405 173.275 179.366C173.028 179.326 172.8 179.207 172.625 179.026C172.48 178.894 172.363 178.735 172.281 178.556C172.198 178.375 172.137 178.184 172.099 177.988C172.059 177.799 172.035 177.607 172.027 177.414C172.027 177.225 172.027 177.049 172.027 176.898C172.027 176.748 172.027 176.566 172.027 176.389C172.041 176.222 172.067 176.057 172.105 175.893C172.15 175.723 172.215 175.558 172.3 175.404C172.389 175.248 172.508 175.113 172.651 175.006C172.839 174.854 173.063 174.755 173.301 174.718C173.517 174.694 173.734 174.681 173.952 174.679H177.248V174.562C177.254 174.484 177.254 174.405 177.248 174.327C177.233 174.231 177.192 174.141 177.131 174.066C177.035 173.93 176.891 173.837 176.728 173.805C176.578 173.779 176.425 173.766 176.273 173.765H172.508V171.86H177.502ZM175.311 176.429C175.248 176.421 175.185 176.421 175.122 176.429C175.039 176.44 174.962 176.476 174.901 176.533C174.856 176.578 174.824 176.634 174.81 176.696C174.803 176.761 174.803 176.827 174.81 176.892C174.804 176.948 174.804 177.005 174.81 177.062C174.825 177.122 174.856 177.176 174.901 177.218C174.95 177.266 175.01 177.3 175.076 177.316C175.146 177.325 175.215 177.325 175.285 177.316H176.721C176.797 177.326 176.873 177.326 176.949 177.316C177.017 177.306 177.082 177.279 177.138 177.238C177.197 177.199 177.239 177.138 177.255 177.068C177.261 177.001 177.261 176.933 177.255 176.866V176.396L175.311 176.429Z" fill="#282E3D"/>
<path d="M182.352 175.045C182.352 174.862 182.352 174.666 182.352 174.451C182.371 174.23 182.41 174.012 182.469 173.798C182.529 173.569 182.621 173.349 182.742 173.146C182.869 172.926 183.034 172.732 183.23 172.571C183.426 172.407 183.645 172.273 183.88 172.173C184.14 172.083 184.408 172.017 184.68 171.977C184.919 171.934 185.16 171.906 185.402 171.892H186.052H187.898V173.85H186.93C186.669 173.85 186.409 173.88 186.156 173.942C185.891 174.006 185.66 174.167 185.506 174.392C185.345 174.602 185.24 174.849 185.2 175.11C185.158 175.349 185.136 175.592 185.135 175.835V179.444H182.352V175.045Z" fill="#282E3D"/>
<path d="M189.726 179.425V169.432H192.515V179.425H189.726ZM195.402 179.425L193.354 176.716C193.179 176.504 193.05 176.257 192.976 175.991C192.941 175.83 192.919 175.667 192.911 175.502C192.903 175.276 192.95 175.052 193.048 174.849C193.145 174.67 193.252 174.495 193.367 174.327L195.09 171.873H198.107L195.818 174.882C195.757 174.966 195.709 175.058 195.675 175.156C195.639 175.243 195.619 175.336 195.616 175.43C195.619 175.548 195.648 175.664 195.701 175.769C195.756 175.891 195.824 176.007 195.902 176.115L198.503 179.438L195.402 179.425Z" fill="#282E3D"/>
<path d="M203.074 179.424C202.788 179.424 202.521 179.424 202.268 179.424C202.022 179.417 201.778 179.382 201.54 179.32C201.308 179.26 201.088 179.161 200.889 179.026C200.682 178.871 200.507 178.676 200.376 178.452C200.2 178.13 200.093 177.774 200.064 177.408C200.011 176.854 199.987 176.299 199.992 175.743V174.745C199.989 174.45 200.006 174.156 200.044 173.863C200.074 173.607 200.132 173.355 200.22 173.113C200.303 172.889 200.434 172.686 200.603 172.519C200.784 172.328 201.006 172.182 201.254 172.095C201.533 171.991 201.823 171.916 202.118 171.873C202.446 171.824 202.776 171.795 203.107 171.788H204.166C204.934 171.788 205.571 171.788 206.072 171.86C206.51 171.883 206.931 172.038 207.281 172.303C207.463 172.443 207.612 172.621 207.717 172.826C207.82 173.034 207.903 173.253 207.964 173.478C208.021 173.705 208.056 173.937 208.068 174.17C208.068 174.405 208.068 174.627 208.068 174.823C208.065 175.074 208.043 175.325 208.003 175.574C207.96 175.833 207.821 176.067 207.612 176.226C207.511 176.321 207.385 176.385 207.248 176.409C207.124 176.43 206.998 176.441 206.871 176.442H202.762C202.743 176.55 202.743 176.66 202.762 176.768C202.782 176.869 202.817 176.965 202.866 177.055C202.923 177.147 203.002 177.224 203.094 177.279C203.187 177.335 203.291 177.368 203.399 177.375C203.639 177.401 203.88 177.415 204.121 177.414H207.775V179.438L203.074 179.424ZM204.869 174.66C205.064 174.66 205.194 174.608 205.246 174.516C205.293 174.437 205.32 174.347 205.324 174.255C205.323 174.146 205.286 174.041 205.22 173.955C205.113 173.837 204.967 173.763 204.81 173.746C204.7 173.746 204.563 173.713 204.414 173.7H204.069H203.542C203.391 173.705 203.242 173.743 203.107 173.811C203.039 173.843 202.98 173.889 202.933 173.947C202.885 174.004 202.852 174.072 202.834 174.144C202.803 174.312 202.803 174.485 202.834 174.653L204.869 174.66Z" fill="#282E3D"/>
<path d="M214.114 179.425H213.62C213.203 179.41 212.79 179.339 212.391 179.216C212.172 179.152 211.965 179.051 211.78 178.915C211.474 178.708 211.23 178.422 211.072 178.087C210.913 177.768 210.828 177.418 210.824 177.062V173.798H209.758V171.84H210.824V169.432H213.614V171.86H215.733V173.818H213.588V175.547C213.587 175.824 213.615 176.1 213.672 176.37C213.729 176.636 213.868 176.878 214.069 177.062C214.249 177.228 214.476 177.335 214.719 177.369C214.919 177.4 215.121 177.418 215.324 177.421H215.733V179.444L214.114 179.425Z" fill="#282E3D"/>
<path d="M165.473 191.806C165.491 192.076 165.427 192.344 165.291 192.577C165.207 192.718 165.104 192.848 164.985 192.962C164.682 193.201 164.304 193.323 163.919 193.308H159.212C158.771 193.299 158.333 193.229 157.911 193.099C157.471 192.973 157.065 192.75 156.721 192.446C156.447 192.207 156.226 191.914 156.071 191.584C155.913 191.246 155.794 190.892 155.714 190.527C155.636 190.159 155.584 189.786 155.558 189.411C155.558 189.032 155.558 188.68 155.558 188.347C155.558 188.014 155.558 187.538 155.597 187.126C155.623 186.719 155.686 186.315 155.785 185.919C155.873 185.539 156.015 185.174 156.208 184.835C156.401 184.499 156.662 184.208 156.975 183.98C157.197 183.807 157.448 183.674 157.716 183.589C157.962 183.5 158.214 183.433 158.47 183.386C158.685 183.343 158.902 183.317 159.121 183.308C159.309 183.308 159.433 183.308 159.498 183.308H165.304V185.684H160.948C160.603 185.644 160.255 185.7 159.94 185.846C159.626 185.993 159.358 186.223 159.166 186.513C158.995 186.782 158.89 187.089 158.861 187.407C158.861 187.733 158.809 188.06 158.809 188.308C158.811 188.609 158.828 188.909 158.861 189.209C158.89 189.537 158.994 189.854 159.166 190.135C159.317 190.386 159.545 190.581 159.816 190.69C160.063 190.777 160.322 190.822 160.584 190.821H161.552H161.832C161.932 190.806 162.023 190.758 162.092 190.684C162.168 190.613 162.218 190.519 162.235 190.416C162.245 190.312 162.245 190.207 162.235 190.103V188.027H165.486L165.473 191.806Z" fill="#933FA1"/>
<path d="M175.513 183.314V189.052C175.516 189.297 175.54 189.542 175.584 189.783C175.645 190.045 175.797 190.277 176.013 190.435C176.175 190.559 176.361 190.648 176.559 190.697C176.771 190.757 176.99 190.788 177.21 190.788C177.429 190.787 177.648 190.757 177.86 190.697C178.057 190.647 178.243 190.558 178.406 190.435C178.522 190.344 178.619 190.231 178.692 190.103C178.754 189.982 178.804 189.855 178.842 189.724C178.875 189.603 178.892 189.478 178.894 189.352C178.894 189.234 178.894 189.124 178.894 189.019V183.314H182.112V189.306C182.112 189.566 182.099 189.825 182.073 190.083C182.051 190.344 182.001 190.603 181.923 190.853C181.846 191.115 181.739 191.367 181.605 191.604C181.459 191.857 181.28 192.09 181.072 192.296C180.828 192.543 180.544 192.748 180.233 192.903C179.925 193.048 179.602 193.159 179.271 193.236C178.93 193.312 178.585 193.363 178.237 193.386C177.879 193.386 177.528 193.418 177.177 193.418C176.826 193.418 176.462 193.418 176.111 193.386C175.763 193.362 175.417 193.312 175.077 193.236C174.745 193.159 174.423 193.048 174.115 192.903C173.805 192.745 173.522 192.54 173.276 192.296C173.097 192.084 172.944 191.852 172.821 191.604C172.689 191.365 172.582 191.114 172.502 190.853C172.428 190.602 172.378 190.344 172.353 190.083C172.34 189.824 172.34 189.565 172.353 189.306V183.314H175.513Z" fill="#933FA1"/>
<path d="M189.277 185.227C189.278 184.98 189.298 184.733 189.335 184.489C189.373 184.231 189.486 183.99 189.661 183.797C189.833 183.603 190.059 183.464 190.311 183.399C190.524 183.348 190.742 183.319 190.961 183.314H196.377C196.533 183.314 196.715 183.314 196.923 183.314C197.143 183.324 197.362 183.359 197.573 183.419C197.803 183.486 198.022 183.585 198.224 183.713C198.446 183.858 198.636 184.046 198.783 184.267C199.002 184.599 199.144 184.976 199.199 185.37C199.262 185.761 199.295 186.156 199.296 186.552C199.296 186.669 199.296 186.826 199.296 187.022C199.294 187.24 199.278 187.458 199.251 187.675C199.218 187.903 199.186 188.138 199.134 188.373C199.092 188.597 199.026 188.815 198.939 189.026C198.788 189.419 198.514 189.754 198.159 189.979C197.833 190.169 197.463 190.268 197.086 190.266H196.663V190.325L199.479 193.307H195.577L193.627 190.697C193.464 190.475 193.308 190.259 193.165 190.044C193.021 189.84 192.943 189.596 192.944 189.345V189.13C192.942 188.972 192.977 188.815 193.048 188.673C193.118 188.531 193.22 188.408 193.347 188.314C193.647 188.097 194.011 187.987 194.381 188.001H194.895C195.052 188 195.208 187.985 195.363 187.955C195.53 187.924 195.68 187.834 195.785 187.701C195.867 187.583 195.925 187.45 195.954 187.309C195.984 187.167 196 187.023 196 186.878C196.011 186.674 195.98 186.469 195.909 186.278C195.869 186.189 195.819 186.106 195.759 186.03C195.649 185.906 195.495 185.829 195.33 185.814C195.174 185.805 195.018 185.805 194.862 185.814H193.087C192.999 185.804 192.909 185.804 192.821 185.814C192.732 185.834 192.65 185.88 192.586 185.945C192.495 186.018 192.435 186.123 192.417 186.239C192.411 186.352 192.411 186.465 192.417 186.578V193.301H189.166L189.277 185.227Z" fill="#933FA1"/>
<path d="M209.407 183.314V189.052C209.407 189.297 209.431 189.542 209.478 189.783C209.539 190.043 209.688 190.274 209.901 190.435C210.064 190.558 210.25 190.647 210.447 190.697C210.659 190.757 210.878 190.787 211.097 190.788C211.317 190.788 211.536 190.757 211.748 190.697C211.945 190.647 212.131 190.558 212.294 190.435C212.411 190.346 212.509 190.232 212.58 190.103C212.645 189.983 212.695 189.856 212.729 189.724C212.762 189.602 212.781 189.478 212.788 189.352C212.788 189.234 212.788 189.124 212.788 189.019V183.314H216V189.306C216 189.567 216 189.822 215.967 190.083C215.939 190.343 215.889 190.601 215.818 190.853C215.738 191.114 215.631 191.365 215.499 191.604C215.349 191.855 215.17 192.087 214.966 192.296C214.72 192.54 214.437 192.745 214.127 192.903C213.819 193.048 213.497 193.159 213.165 193.236C212.823 193.312 212.475 193.363 212.125 193.386C211.774 193.386 211.416 193.418 211.065 193.418C210.714 193.418 210.35 193.418 209.999 193.386C209.653 193.363 209.309 193.312 208.971 193.236C208.64 193.159 208.317 193.048 208.009 192.903C207.698 192.748 207.414 192.543 207.17 192.296C206.962 192.09 206.783 191.857 206.637 191.604C206.503 191.367 206.396 191.115 206.318 190.853C206.241 190.603 206.191 190.344 206.169 190.083C206.143 189.825 206.13 189.566 206.13 189.306V183.314H209.407Z" fill="#933FA1"/>
<path d="M138.685 198.294C145.465 198.294 150.961 197.996 150.961 197.628C150.961 197.261 145.465 196.963 138.685 196.963C131.906 196.963 126.41 197.261 126.41 197.628C126.41 197.996 131.906 198.294 138.685 198.294Z" fill="url(#paint0_radial)"/>
<path d="M121.728 185.56C121.772 185.598 121.82 185.631 121.871 185.658C122.51 185.902 123.191 186.017 123.874 185.997C123.939 186 124.002 186.013 124.063 186.036C124.705 186.322 125.413 186.426 126.111 186.337C126.456 186.273 126.784 186.137 127.073 185.938C127.141 185.881 127.221 185.841 127.307 185.821C128.547 185.475 129.82 185.256 131.104 185.168H131.254C131.462 185.155 131.663 185.088 131.837 184.974C132.011 184.859 132.153 184.702 132.249 184.516L132.541 183.961L132.424 182.805C132.421 182.784 132.421 182.762 132.424 182.74V182.649C132.432 182.57 132.468 182.497 132.525 182.443C132.583 182.389 132.658 182.358 132.736 182.355H133.438L134.979 179.875C134.979 179.875 135.012 179.816 135.025 179.816C135.038 179.816 135.025 179.868 135.025 179.881C135.057 179.999 135.083 180.116 135.109 180.234C135.279 180.923 135.4 181.623 135.473 182.329H141.611C141.649 181.745 141.741 181.166 141.884 180.599C141.932 180.419 141.993 180.242 142.066 180.071V180.031C142.08 179.993 142.097 179.956 142.118 179.921L142.151 179.868L142.736 180.645L143.887 182.329H144.641C144.682 182.329 144.723 182.337 144.761 182.353C144.799 182.368 144.833 182.391 144.862 182.42C144.917 182.476 144.953 182.546 144.966 182.623V182.681V182.734C144.966 182.734 144.966 182.734 144.966 182.812L144.895 183.726C145.148 183.969 145.415 184.198 145.695 184.411C145.802 184.498 145.927 184.56 146.06 184.594C146.194 184.628 146.333 184.632 146.468 184.607C146.566 184.589 146.661 184.562 146.754 184.529C148.62 183.85 148.113 180.09 148.763 178.733C148.772 178.716 148.784 178.701 148.799 178.689C148.814 178.677 148.831 178.668 148.849 178.662C148.867 178.657 148.886 178.655 148.905 178.657C148.924 178.659 148.942 178.665 148.959 178.674C149.059 178.734 149.171 178.773 149.287 178.788C149.404 178.803 149.522 178.795 149.635 178.762C149.747 178.73 149.852 178.674 149.943 178.6C150.033 178.525 150.108 178.433 150.161 178.328C150.659 177.717 151.065 177.035 151.364 176.305C151.45 176.098 151.481 175.874 151.455 175.652C151.41 175.365 151.286 175.215 151.078 175.208C151.035 175.207 150.993 175.193 150.958 175.168C150.923 175.142 150.897 175.106 150.883 175.064C150.74 174.692 150.519 174.51 150.233 174.627C150.187 174.642 150.137 174.641 150.091 174.625C150.045 174.608 150.006 174.577 149.979 174.536C149.896 174.376 149.761 174.251 149.596 174.181C149.431 174.111 149.247 174.1 149.076 174.151C149.061 174.154 149.046 174.153 149.031 174.148C149.017 174.144 149.004 174.135 148.994 174.124C148.985 174.112 148.978 174.099 148.975 174.084C148.972 174.069 148.973 174.054 148.978 174.04C149.167 173.547 149.27 173.026 149.284 172.499C149.292 172.165 149.187 171.838 148.985 171.572C148.692 171.187 148.386 171.005 148.061 171.233C147.955 171.312 147.871 171.417 147.819 171.539C147.766 171.66 147.747 171.793 147.762 171.925C147.838 172.754 147.794 173.589 147.632 174.405C147.307 174.405 147.086 174.673 146.982 175.175C146.961 175.283 146.95 175.392 146.949 175.502V176.918C146.937 177.185 147.022 177.448 147.19 177.656C147.218 177.695 147.237 177.74 147.244 177.788C147.251 177.836 147.245 177.884 147.229 177.93C146.895 178.978 146.482 179.999 145.994 180.984L143.965 177.46C143.883 177.251 143.759 177.062 143.6 176.905C143.441 176.747 143.251 176.625 143.042 176.546L142.847 176.468L142.606 176.376C142.457 176.546 142.294 176.722 142.118 176.899L141.819 177.173L141.663 177.31L141.507 177.447L141.345 177.584L141.065 177.806C140.929 177.923 140.779 178.034 140.636 178.152L140.324 178.393L139.966 178.661L139.44 179.065L139.004 179.405L138.9 179.516C138.761 179.645 138.669 179.817 138.64 180.005C138.63 180.066 138.63 180.128 138.64 180.188V180.221C138.64 180.221 138.64 180.253 138.64 180.273C138.637 180.292 138.637 180.312 138.64 180.332V180.41V180.456V180.488L138.685 180.541L138.737 180.593C138.789 180.626 138.847 180.65 138.907 180.665C138.987 180.687 139.073 180.687 139.154 180.665C139.186 180.653 139.216 180.633 139.238 180.606C139.394 180.456 139.31 180.162 139.076 179.986C139.178 179.971 139.282 179.98 139.38 180.014C139.478 180.047 139.567 180.103 139.638 180.178C139.71 180.253 139.763 180.343 139.793 180.443C139.823 180.542 139.829 180.647 139.81 180.749C139.804 180.809 139.79 180.868 139.771 180.926C139.738 181.044 139.673 181.15 139.583 181.232C139.501 181.296 139.406 181.341 139.305 181.364C139.204 181.388 139.099 181.39 138.998 181.37C138.484 181.289 138.019 181.016 137.697 180.606C137.431 180.299 137.184 179.907 136.852 179.438C136.715 179.242 136.566 179.033 136.39 178.785C136.332 178.706 135.233 177.577 135.161 177.479C134.915 177.225 134.68 176.96 134.459 176.683L134.381 176.592C134.282 176.639 134.188 176.699 134.102 176.768C133.905 176.926 133.749 177.13 133.646 177.362L130.35 182.518C129.615 182.629 128.991 183.099 127.632 184.294C127.613 184.31 127.59 184.321 127.566 184.326C127.542 184.332 127.516 184.331 127.492 184.323C127.469 184.316 127.447 184.303 127.429 184.285C127.412 184.268 127.399 184.246 127.392 184.222C127.344 184.033 127.245 183.861 127.105 183.726C126.841 184.197 126.464 184.596 126.008 184.884C125.552 185.173 125.032 185.344 124.494 185.381C123.956 185.418 123.418 185.32 122.927 185.096C122.436 184.872 122.009 184.529 121.683 184.098H121.546C120.903 184.444 121.013 184.933 121.728 185.56Z" fill="#F2C494" stroke="#282E3D" stroke-width="1.26851" stroke-miterlimit="10" stroke-linecap="square"/>
<path d="M144.251 190.064C145.343 189.352 146.273 188.725 147.066 188.249L147.216 188.158C147.437 188.027 147.651 187.903 147.866 187.799L148.009 187.72L148.178 187.642L148.262 187.603L148.347 187.564C148.553 187.471 148.772 187.411 148.997 187.387C148.347 187.44 145.844 187.635 144.771 187.851L144.446 188.38L144.251 190.064Z" fill="#F2C494" stroke="#282E3D" stroke-width="1.26851" stroke-miterlimit="10" stroke-linecap="square"/>
<path d="M134.608 190.951L135.181 191.31L135.33 191.395L135.59 191.552L135.74 191.643C136.526 192.113 137.391 192.609 138.406 193.144C138.48 193.185 138.558 193.217 138.64 193.242H138.698C138.897 193.172 139.091 193.087 139.277 192.988L139.556 192.837L139.836 192.681L140.109 192.531L141.032 191.995L141.13 191.943L142.086 191.369L142.242 191.278L142.437 191.153L142.807 190.925L134.608 190.951Z" fill="#282E3D" stroke="#282E3D" stroke-width="1.26851" stroke-miterlimit="10" stroke-linecap="square"/>
<path d="M127.957 187.387H128.12C128.513 187.383 128.903 187.47 129.258 187.642C129.349 187.688 129.44 187.733 129.524 187.786L129.791 187.929L130.304 188.223L130.558 188.366L130.629 188.406L130.889 188.562L131.143 188.719L131.527 188.954L131.897 189.182L133.198 190.011L133.022 188.327L132.873 187.642C131.345 187.433 129.186 187.12 127.957 187.387Z" fill="#F2C494" stroke="#282E3D" stroke-width="1.26851" stroke-miterlimit="10" stroke-linecap="square"/>
<path d="M144.42 188.366L144.465 187.981L144.979 182.701" stroke="#282E3D" stroke-width="1.26851" stroke-miterlimit="10" stroke-linecap="square"/>
<path d="M144.056 193.973C143.992 194.308 143.837 194.618 143.607 194.868C143.377 195.118 143.082 195.299 142.755 195.39C142.63 195.422 142.501 195.442 142.372 195.448C141.221 195.514 141.013 195.253 139.654 195.037L139.173 194.972L138.88 194.92H138.737C139.121 194.854 140.141 194.665 140.278 194.626C141.546 194.26 142.788 193.921 143.965 193.562C144.042 193.684 144.075 193.83 144.056 193.973Z" fill="#F2C494" stroke="#282E3D" stroke-width="1.26851" stroke-miterlimit="10" stroke-linecap="square"/>
<path d="M138.574 193.288C138.444 193.327 138.464 193.353 138.327 193.366H138.087C137.838 193.379 137.588 193.379 137.339 193.366C136.805 193.332 136.279 193.217 135.779 193.027C135.566 192.937 135.339 192.881 135.109 192.864C134.805 192.811 134.493 192.84 134.204 192.948C133.915 193.056 133.66 193.238 133.464 193.477C130.558 192.557 128.412 191.558 127.176 190.488C126.87 190.224 126.655 189.87 126.562 189.476C126.468 189.082 126.501 188.668 126.656 188.295C126.925 187.86 127.352 187.549 127.846 187.426C127.991 187.393 128.139 187.375 128.288 187.374H128.49C128.715 187.398 128.934 187.458 129.14 187.55L129.225 187.59L129.257 187.642L129.439 187.733L129.582 187.812C129.784 187.916 129.998 188.04 130.232 188.171L130.382 188.262C131.175 188.738 132.111 189.365 133.197 190.076H133.249L133.405 190.174L133.568 190.279L133.815 190.442L133.873 190.481L134.049 190.592L134.225 190.703L134.589 190.932L134.959 191.16L135.31 191.375L136.266 191.95L136.364 192.002L137.287 192.537L137.56 192.687L137.84 192.844L138.119 192.994C138.259 193.109 138.412 193.208 138.574 193.288Z" fill="#F2C494" stroke="#282E3D" stroke-width="1.26851" stroke-miterlimit="10" stroke-linecap="square"/>
<path d="M150.324 190.442C148.763 191.852 146.566 192.72 144.101 193.516H143.952C142.769 193.875 141.533 194.215 140.259 194.58C140.129 194.619 139.108 194.808 138.724 194.874H138.594L138.094 194.946C137.092 195.102 136.403 195.324 135.395 195.396C135.057 195.431 134.714 195.377 134.403 195.238C134.092 195.1 133.822 194.882 133.62 194.606C133.484 194.396 133.398 194.157 133.367 193.908C133.338 193.747 133.371 193.582 133.458 193.444C133.658 193.21 133.916 193.034 134.206 192.932C134.496 192.83 134.807 192.806 135.109 192.863C135.334 192.885 135.553 192.943 135.759 193.033C136.26 193.224 136.786 193.338 137.32 193.373C137.569 193.386 137.819 193.386 138.068 193.373H138.36C138.497 193.36 138.632 193.333 138.763 193.294H138.822C138.903 193.27 138.981 193.237 139.056 193.196C140.07 192.661 140.935 192.165 141.722 191.695L141.878 191.604L142.131 191.447L142.274 191.362L142.847 191.003C143.107 190.847 143.354 190.69 143.594 190.533L143.685 190.475L143.77 190.416H143.815L144.127 190.213L144.297 190.102L145.597 189.274L145.968 189.045L146.351 188.81L146.605 188.653L146.865 188.497L146.936 188.458L147.19 188.314L147.704 188.02L147.97 187.877C148.055 187.825 148.146 187.779 148.237 187.733C148.585 187.551 148.969 187.451 149.362 187.439H149.524C150.877 187.642 151.728 189.182 150.324 190.442Z" fill="#F2C494" stroke="#282E3D" stroke-width="1.26851" stroke-miterlimit="10" stroke-linecap="square"/>
<path d="M139.998 181.35C140.135 181.35 140.252 181.35 140.375 181.35C140.49 181.335 140.604 181.308 140.714 181.272C140.927 181.196 141.122 181.076 141.286 180.919C141.623 180.599 141.872 180.196 142.007 179.751C142.062 179.602 142.151 179.467 142.267 179.359C142.382 179.264 142.523 179.205 142.671 179.189C142.559 179.262 142.464 179.358 142.391 179.47C142.342 179.58 142.307 179.697 142.287 179.816C142.227 180.366 141.954 180.87 141.526 181.219C141.306 181.397 141.04 181.507 140.759 181.539C140.492 181.56 140.225 181.493 139.998 181.35Z" fill="#282E3D"/>
<path d="M137.19 181.35C136.963 181.499 136.693 181.568 136.423 181.546C136.144 181.514 135.88 181.403 135.662 181.226C135.447 181.053 135.268 180.839 135.138 180.596C135.007 180.352 134.926 180.085 134.901 179.81C134.879 179.69 134.842 179.574 134.791 179.464C134.72 179.35 134.624 179.254 134.511 179.183C134.661 179.199 134.803 179.258 134.921 179.353C135.035 179.463 135.124 179.596 135.181 179.744C135.316 180.19 135.565 180.593 135.902 180.913C136.066 181.07 136.261 181.19 136.475 181.265C136.587 181.302 136.702 181.328 136.819 181.344C136.936 181.363 137.06 181.344 137.19 181.35Z" fill="#282E3D"/>
<path d="M140.519 180.932H140.909C140.824 180.815 140.694 180.815 140.519 180.932Z" stroke="#282E3D" stroke-width="1.26851" stroke-miterlimit="10" stroke-linecap="square"/>
<path d="M136.227 180.919H136.618C136.448 180.815 136.318 180.815 136.227 180.919Z" stroke="#282E3D" stroke-width="1.26851" stroke-miterlimit="10" stroke-linecap="square"/>
<path d="M132.983 188.334L132.937 187.916L132.397 182.701" stroke="#282E3D" stroke-width="1.26851" stroke-miterlimit="10" stroke-linecap="square"/>
<path d="M147.879 175.6C148.105 175.93 148.446 176.162 148.834 176.252C149.026 176.254 149.212 176.185 149.355 176.056C149.517 175.952 149.621 175.789 149.563 175.645C149.532 175.581 149.479 175.53 149.413 175.502L149.14 175.378L148.581 175.117C148.21 174.94 147.84 174.764 147.482 174.549L147.306 174.444L147.534 174.092L147.697 174.209C148.022 174.438 148.347 174.647 148.724 174.862L149.257 175.162L149.524 175.319C149.635 175.385 149.717 175.493 149.751 175.619C149.771 175.74 149.75 175.865 149.693 175.973C149.635 176.082 149.544 176.168 149.433 176.22C149.253 176.348 149.034 176.408 148.815 176.389C148.415 176.254 148.08 175.972 147.879 175.6Z" fill="#282E3D"/>
<path d="M148.042 177.59C148.243 177.512 148.428 177.397 148.588 177.251C148.694 177.086 148.744 176.892 148.731 176.696V176.494L149.186 176.585L149.114 176.774C149.053 177.031 148.909 177.26 148.705 177.427C148.495 177.521 148.271 177.576 148.042 177.59Z" fill="#282E3D"/>
<path d="M148.958 176.468C148.912 176.879 148.847 177.186 149.179 177.303C149.357 177.343 149.543 177.313 149.699 177.218C150.044 177.014 150.331 176.726 150.533 176.38C150.735 176.034 150.847 175.642 150.857 175.24" stroke="#282E3D" stroke-width="1.26851" stroke-miterlimit="10" stroke-linecap="square"/>
<path d="M149.699 175.521C149.825 175.405 149.914 175.256 149.958 175.091C150.002 174.925 149.998 174.751 149.946 174.588" stroke="#282E3D" stroke-width="1.26851" stroke-miterlimit="10" stroke-linecap="square"/>
<path d="M148.633 174.849C148.763 174.617 148.849 174.362 148.886 174.098" stroke="#282E3D" stroke-width="1.26851" stroke-miterlimit="10" stroke-linecap="square"/>
<path d="M149.804 177.277C149.804 177.675 150.343 177.766 150.688 177.46" stroke="#282E3D" stroke-width="1.26851" stroke-miterlimit="10" stroke-linecap="square"/>
<path d="M130.369 182.309C130.852 182.444 131.273 182.745 131.559 183.158C131.213 182.873 130.779 182.716 130.33 182.714H130.129L130.168 182.244L130.369 182.309Z" fill="#282E3D"/>
<path d="M146.162 181.03C146.013 181.304 145.837 181.526 145.701 181.774C145.551 182.013 145.472 182.289 145.473 182.57C145.402 182.281 145.415 181.977 145.512 181.696C145.59 181.409 145.707 181.134 145.779 180.88L145.831 180.684L146.253 180.854L146.162 181.03Z" fill="#282E3D"/>
<path d="M132.43 182.727C132.444 182.697 132.461 182.668 132.482 182.642C132.51 182.636 132.539 182.636 132.567 182.642H144.771C144.827 182.644 144.881 182.667 144.921 182.708C144.946 182.728 144.964 182.755 144.973 182.786C144.982 182.816 144.982 182.848 144.973 182.877L144.452 188.047L144.407 188.432L144.238 190.129H144.186L144.03 190.227L143.867 190.331L143.62 190.494L143.562 190.534L143.367 190.658L143.211 190.756L142.846 190.984H134.608L133.861 190.514L133.77 190.455L133.685 190.397H133.64L133.328 190.194L133.159 190.025L132.983 188.341L132.944 187.923L132.424 182.825C132.416 182.793 132.418 182.758 132.43 182.727ZM138.705 187.544C138.856 187.544 139.005 187.499 139.131 187.414C139.257 187.33 139.355 187.21 139.414 187.069C139.472 186.928 139.487 186.773 139.457 186.624C139.428 186.474 139.354 186.337 139.247 186.229C139.14 186.122 139.003 186.048 138.854 186.019C138.706 185.989 138.551 186.004 138.411 186.062C138.271 186.121 138.151 186.22 138.067 186.346C137.982 186.473 137.937 186.622 137.937 186.774C137.937 186.978 138.018 187.174 138.162 187.319C138.306 187.463 138.501 187.544 138.705 187.544Z" fill="#F7F7F7" stroke="#282E3D" stroke-width="1.26851" stroke-miterlimit="10"/>
<path d="M134.608 190.951L135.181 191.31L135.33 191.402H142.138L142.294 191.304L142.489 191.18L142.859 190.951H134.608Z" stroke="#282E3D" stroke-width="1.26851" stroke-miterlimit="10"/>
<path d="M134.608 190.951L135.181 191.31L135.33 191.395H142.112L142.463 191.18L142.833 190.951H134.608Z" fill="#F7F7F7" stroke="#282E3D" stroke-width="0.654715" stroke-miterlimit="10"/>
<path d="M137.938 186.774C137.938 186.926 137.982 187.075 138.067 187.202C138.151 187.329 138.271 187.427 138.411 187.486C138.551 187.544 138.706 187.559 138.854 187.529C139.003 187.5 139.14 187.426 139.247 187.319C139.355 187.211 139.428 187.074 139.457 186.924C139.487 186.775 139.472 186.62 139.414 186.479C139.355 186.339 139.257 186.218 139.131 186.134C139.005 186.049 138.856 186.004 138.705 186.004C138.501 186.004 138.306 186.085 138.162 186.229C138.018 186.374 137.938 186.57 137.938 186.774Z" fill="#282E3D"/>
<path d="M132.431 182.721C132.426 182.697 132.426 182.673 132.431 182.649L132.463 182.584H144.772C144.8 182.584 144.827 182.589 144.853 182.6C144.879 182.612 144.902 182.628 144.921 182.649C144.95 182.686 144.972 182.728 144.986 182.773V182.636C144.97 182.552 144.927 182.476 144.863 182.421C144.806 182.367 144.732 182.337 144.655 182.336H132.756C132.677 182.338 132.602 182.37 132.545 182.424C132.488 182.478 132.452 182.551 132.444 182.629L132.431 182.721Z" stroke="#282E3D" stroke-width="1.26851" stroke-miterlimit="10"/>
<path d="M133.458 175.136C133.69 175.596 133.964 176.033 134.277 176.442L134.381 176.579L134.459 176.67C134.725 176.997 135.01 177.309 135.311 177.603C135.382 177.675 136.481 178.804 136.54 178.909C136.715 179.131 136.865 179.34 137.001 179.562C137.333 180.032 137.58 180.423 137.847 180.73C138.169 181.14 138.633 181.413 139.147 181.494C139.249 181.514 139.353 181.512 139.454 181.488C139.555 181.465 139.65 181.42 139.732 181.357C139.823 181.274 139.888 181.168 139.921 181.05C139.94 180.993 139.953 180.933 139.96 180.874C139.978 180.771 139.973 180.666 139.943 180.567C139.913 180.468 139.86 180.377 139.788 180.302C139.716 180.227 139.628 180.171 139.53 180.138C139.432 180.104 139.327 180.095 139.225 180.11C139.459 180.286 139.544 180.58 139.388 180.73C139.365 180.757 139.336 180.777 139.303 180.789C139.222 180.812 139.137 180.812 139.056 180.789C138.997 180.772 138.94 180.747 138.887 180.717L138.835 180.665L138.789 180.612V180.58V180.534V180.456C138.786 180.436 138.786 180.417 138.789 180.397C138.793 180.38 138.793 180.362 138.789 180.345V180.312C138.78 180.254 138.78 180.194 138.789 180.136C138.829 179.894 138.959 179.677 139.154 179.529L139.589 179.19L140.116 178.785L140.473 178.517L140.786 178.276C140.929 178.158 141.078 178.047 141.215 177.93L141.494 177.708L141.657 177.571L141.813 177.434L141.969 177.297L142.268 177.023C142.437 176.846 142.606 176.67 142.756 176.5L142.795 176.455C143.293 175.895 143.719 175.275 144.063 174.608C144.745 173.224 144.713 171.997 143.88 171.279C143.764 171.177 143.638 171.087 143.503 171.011C143.242 170.869 142.962 170.763 142.671 170.698L142.261 170.496C142.333 170.547 142.398 170.606 142.457 170.672V170.711C142.571 170.852 142.657 171.014 142.71 171.187C142.804 171.489 142.804 171.813 142.71 172.114C142.664 172.273 142.591 172.423 142.496 172.558C142.233 172.906 141.906 173.201 141.533 173.426C141.883 173.072 142.111 172.614 142.183 172.121C142.194 172.052 142.194 171.981 142.183 171.912C142.163 171.807 142.113 171.71 142.04 171.631C141.793 171.338 141.351 171.455 140.929 171.801C140.772 171.94 140.588 172.043 140.388 172.104C140.188 172.164 139.977 172.18 139.77 172.15C139.564 172.12 139.366 172.045 139.191 171.931C139.016 171.817 138.868 171.665 138.757 171.488H138.646C138.535 171.664 138.386 171.815 138.211 171.929C138.036 172.042 137.839 172.117 137.632 172.146C137.426 172.176 137.216 172.161 137.016 172.101C136.816 172.041 136.631 171.939 136.475 171.801C136.039 171.448 135.597 171.331 135.35 171.651C135.279 171.723 135.229 171.813 135.207 171.912C135.203 171.971 135.203 172.029 135.207 172.088C135.262 172.598 135.492 173.073 135.857 173.433C135.483 173.209 135.156 172.914 134.895 172.565C134.801 172.43 134.726 172.283 134.674 172.127C134.674 172.127 134.674 172.088 134.674 172.069C134.65 171.987 134.632 171.904 134.622 171.821C134.586 171.443 134.687 171.065 134.908 170.757L134.901 170.672C134.965 170.603 135.035 170.539 135.109 170.482C135.005 170.476 134.901 170.476 134.797 170.482C134.485 170.509 134.183 170.605 133.913 170.763C133.791 170.835 133.677 170.92 133.575 171.018C132.717 171.827 132.6 173.394 133.458 175.136Z" fill="#F7F7F7" stroke="#282E3D" stroke-width="1.26851" stroke-miterlimit="10"/>
<path d="M138.744 171.494C138.855 171.672 139.003 171.823 139.178 171.938C139.353 172.052 139.551 172.127 139.757 172.156C139.964 172.186 140.175 172.171 140.375 172.11C140.575 172.05 140.759 171.947 140.916 171.808C141.338 171.462 141.78 171.344 142.027 171.638C142.1 171.716 142.15 171.813 142.17 171.918C142.181 171.988 142.181 172.058 142.17 172.127C142.098 172.621 141.87 173.078 141.52 173.433C141.893 173.207 142.22 172.913 142.483 172.565C142.578 172.43 142.651 172.28 142.697 172.121C142.791 171.819 142.791 171.496 142.697 171.194C142.644 171.02 142.558 170.858 142.444 170.718V170.678C142.39 170.611 142.329 170.55 142.261 170.496L142.19 170.443C141.254 169.791 140.044 171.096 138.744 171.494Z" fill="#F7F7F7" stroke="#282E3D" stroke-width="1.26851" stroke-miterlimit="10"/>
<path d="M134.557 171.834C134.567 171.918 134.585 172.001 134.609 172.082C134.609 172.082 134.609 172.121 134.609 172.14C134.661 172.296 134.736 172.443 134.83 172.578C135.091 172.927 135.418 173.222 135.792 173.446C135.427 173.087 135.197 172.611 135.142 172.101C135.138 172.043 135.138 171.984 135.142 171.925C135.164 171.826 135.214 171.736 135.285 171.664C135.532 171.344 135.974 171.462 136.41 171.814C136.567 171.952 136.751 172.055 136.951 172.114C137.151 172.174 137.361 172.189 137.568 172.16C137.774 172.13 137.971 172.055 138.146 171.942C138.322 171.828 138.47 171.678 138.582 171.501C137.281 171.083 136.052 169.778 135.116 170.45L135.11 170.483C135.034 170.546 134.964 170.615 134.901 170.691L134.843 170.77C134.622 171.078 134.521 171.456 134.557 171.834Z" fill="#F7F7F7" stroke="#282E3D" stroke-width="1.26851" stroke-miterlimit="10"/>
<path d="M143.315 172.499C143.285 172.272 143.209 172.054 143.09 171.858C142.971 171.663 142.813 171.494 142.626 171.364L142.912 171.057C143.078 171.254 143.201 171.485 143.27 171.734C143.34 171.983 143.355 172.244 143.315 172.499Z" fill="#282E3D"/>
<path d="M143.562 171.246C143.216 171.019 142.817 170.889 142.404 170.868L142.502 170.469C142.916 170.633 143.28 170.901 143.562 171.246Z" fill="#282E3D"/>
<path d="M140.669 170.731C141.013 170.492 141.429 170.382 141.845 170.418C142.066 170.441 142.278 170.517 142.464 170.64C142.649 170.763 142.803 170.928 142.912 171.122L142.548 171.299C142.484 171.136 142.381 170.991 142.248 170.877C142.116 170.763 141.957 170.684 141.787 170.646C141.416 170.544 141.021 170.574 140.669 170.731Z" fill="#282E3D"/>
<path d="M143.731 174.379C143.927 174.067 144.056 173.716 144.107 173.351C144.159 172.985 144.132 172.613 144.03 172.258C144.215 172.6 144.309 172.985 144.303 173.374C144.298 173.772 144.23 174.166 144.101 174.542L143.731 174.379Z" fill="#282E3D"/>
<path d="M143.133 174.588C143.171 175.207 143.062 175.827 142.814 176.396L142.476 176.18C142.817 175.709 143.042 175.163 143.133 174.588Z" fill="#282E3D"/>
<path d="M142.587 175.463C142.644 175.73 142.644 176.006 142.588 176.274C142.532 176.541 142.421 176.794 142.262 177.016L141.956 176.748C142.146 176.592 142.301 176.396 142.41 176.174C142.519 175.952 142.579 175.71 142.587 175.463Z" fill="#282E3D"/>
<path d="M139.316 178.896C139.745 178.63 140.111 178.274 140.389 177.852C140.213 178.341 139.933 178.786 139.57 179.157L139.316 178.896Z" fill="#282E3D"/>
<path d="M139.609 178.341C139.635 178.57 139.58 178.802 139.453 178.994C139.346 179.166 139.251 179.345 139.167 179.529L138.822 179.327C138.965 179.163 139.121 179.012 139.29 178.876C139.458 178.743 139.571 178.552 139.609 178.341Z" fill="#282E3D"/>
<path d="M138.393 179.294C138.365 179.523 138.404 179.754 138.505 179.962C138.605 180.169 138.762 180.342 138.958 180.462L138.711 180.782C138.527 180.582 138.405 180.333 138.36 180.064C138.285 179.811 138.297 179.54 138.393 179.294Z" fill="#282E3D"/>
<path d="M137.008 178.935C137.25 179.533 137.588 180.086 138.009 180.573L137.697 180.828C137.364 180.24 137.131 179.6 137.008 178.935Z" fill="#282E3D"/>
<path d="M136.832 179.633C136.732 179.404 136.662 179.163 136.624 178.915C136.593 178.679 136.504 178.455 136.364 178.263C136.556 178.411 136.71 178.604 136.813 178.824C136.907 179.026 137.027 179.215 137.17 179.385L136.832 179.633Z" fill="#282E3D"/>
<path d="M134.147 174.47C134.029 174.627 133.953 174.811 133.926 175.005C133.9 175.2 133.925 175.398 133.997 175.58C134.157 175.941 134.377 176.272 134.648 176.559L134.322 176.794C134.085 176.44 133.912 176.047 133.809 175.632C133.761 175.417 133.761 175.195 133.809 174.98C133.873 174.782 133.99 174.606 134.147 174.47Z" fill="#282E3D"/>
<path d="M134.459 175.28C134.45 175.756 134.577 176.224 134.823 176.631C135.116 177.013 135.462 177.352 135.851 177.636C135.579 177.616 135.316 177.536 135.079 177.4C134.843 177.265 134.64 177.078 134.485 176.853C134.327 176.618 134.243 176.34 134.245 176.057C134.242 175.782 134.316 175.513 134.459 175.28Z" fill="#282E3D"/>
<path d="M133.334 172.258C133.196 172.722 133.153 173.209 133.206 173.69C133.26 174.171 133.41 174.636 133.646 175.058L133.276 175.215C133.104 174.733 133.014 174.225 133.009 173.713C133.004 173.209 133.116 172.711 133.334 172.258Z" fill="#282E3D"/>
<path d="M134.83 171.187C134.505 171.461 134.134 171.546 133.952 171.899C133.985 171.701 134.071 171.517 134.199 171.364C134.318 171.222 134.429 171.074 134.531 170.92L134.83 171.187Z" fill="#282E3D"/>
<path d="M134.719 171.977C134.572 172.109 134.464 172.278 134.407 172.467C134.356 172.681 134.356 172.905 134.407 173.119C134.295 172.919 134.23 172.696 134.218 172.467C134.217 172.214 134.285 171.966 134.413 171.749L134.719 171.977Z" fill="#282E3D"/>
<path d="M134.407 172.101C134.41 171.823 134.501 171.553 134.667 171.331C134.74 171.223 134.836 171.132 134.947 171.063L135.272 170.868L135.018 171.135C134.938 171.218 134.878 171.319 134.843 171.429C134.761 171.637 134.75 171.866 134.81 172.082L134.407 172.101Z" fill="#282E3D"/>
<path d="M134.069 169.105C134.298 169.142 134.511 169.247 134.68 169.406C134.685 169.11 134.711 168.816 134.758 168.524C134.463 168.623 134.217 168.831 134.069 169.105V169.105Z" stroke="#282E3D" stroke-width="1.26851" stroke-miterlimit="10"/>
<path d="M143.198 169.105C142.969 169.142 142.756 169.247 142.587 169.406C142.582 169.11 142.556 168.816 142.509 168.524C142.805 168.621 143.052 168.829 143.198 169.105V169.105Z" stroke="#282E3D" stroke-width="1.26851" stroke-miterlimit="10"/>
<path d="M133.484 169.471C133.533 169.357 133.615 169.261 133.719 169.196C133.824 169.131 133.946 169.099 134.069 169.105C134.298 169.142 134.51 169.247 134.68 169.405C134.685 169.11 134.711 168.816 134.758 168.524C135.525 163.89 141.611 163.812 142.482 168.374C142.548 168.734 142.583 169.099 142.586 169.464C142.79 169.247 143.07 169.118 143.367 169.105C143.475 169.119 143.578 169.159 143.667 169.223C143.755 169.287 143.827 169.372 143.874 169.471C143.977 169.647 144.03 169.847 144.03 170.052C144.037 170.16 144.037 170.269 144.03 170.378C143.995 170.645 143.902 170.902 143.757 171.129C143.64 171.027 143.514 170.937 143.38 170.861C143.118 170.718 142.838 170.613 142.547 170.548L142.261 170.495L142.19 170.443C141.254 169.791 140.044 171.096 138.744 171.494H138.614C137.313 171.076 136.084 169.771 135.148 170.443L135.109 170.482C135.005 170.476 134.901 170.476 134.797 170.482C134.485 170.509 134.183 170.605 133.913 170.763C133.791 170.835 133.677 170.92 133.575 171.018C133.462 170.816 133.387 170.594 133.354 170.365C133.347 170.256 133.347 170.147 133.354 170.039C133.344 169.841 133.389 169.644 133.484 169.471Z" fill="#F2C494" stroke="#282E3D" stroke-width="1.26851" stroke-miterlimit="10"/>
<path d="M139.908 172.819C139.759 173.012 139.57 173.17 139.355 173.283C139.139 173.395 138.902 173.46 138.659 173.472C138.415 173.466 138.176 173.404 137.96 173.291C137.743 173.178 137.556 173.016 137.411 172.819C137.779 173.076 138.212 173.223 138.659 173.243C139.104 173.209 139.533 173.063 139.908 172.819Z" fill="#282E3D"/>
<path d="M139.478 170.058C139.557 170.105 139.625 170.169 139.678 170.244C139.73 170.32 139.767 170.405 139.784 170.496C139.791 170.693 139.729 170.887 139.608 171.044C139.499 171.194 139.357 171.317 139.192 171.403C139.027 171.509 138.841 171.576 138.646 171.599C138.448 171.578 138.257 171.513 138.087 171.409C137.938 171.315 137.81 171.19 137.71 171.044C137.585 170.892 137.52 170.699 137.528 170.502C137.544 170.411 137.578 170.325 137.63 170.248C137.681 170.172 137.749 170.107 137.827 170.058C137.713 170.171 137.648 170.323 137.645 170.483C137.655 170.64 137.722 170.789 137.833 170.9C138.049 171.139 138.341 171.294 138.659 171.338C138.977 171.293 139.269 171.139 139.485 170.9C139.588 170.79 139.651 170.647 139.66 170.496C139.648 170.337 139.579 170.189 139.465 170.078L139.478 170.058Z" fill="#282E3D"/>
<path d="M139.121 167.362C139.628 167.082 140.265 167.362 140.948 167.845C140.233 166.677 139.388 166.436 139.082 167.336L139.121 167.362Z" fill="#282E3D" stroke="#282E3D" stroke-width="0.245518" stroke-miterlimit="10"/>
<path d="M136.26 167.845C136.943 167.362 137.56 167.082 138.087 167.362H138.12C137.82 166.436 136.975 166.677 136.26 167.845Z" fill="#282E3D" stroke="#282E3D" stroke-width="0.245518" stroke-miterlimit="10"/>
<path d="M139.141 168.864C139.141 169.516 140.324 169.738 140.948 169.027C140.627 169.141 140.286 169.185 139.947 169.157C140.136 169.132 140.313 169.05 140.454 168.923C140.022 169.049 139.56 169.028 139.141 168.864Z" fill="#282E3D" stroke="#282E3D" stroke-width="0.245518" stroke-miterlimit="10"/>
<path d="M136.286 169.027C136.936 169.738 138.068 169.549 138.094 168.864C137.678 169.025 137.222 169.046 136.793 168.923C136.935 169.05 137.112 169.132 137.301 169.157C136.957 169.188 136.611 169.143 136.286 169.027Z" fill="#282E3D" stroke="#282E3D" stroke-width="0.245518" stroke-miterlimit="10"/>
<path d="M143.679 169.98C143.635 169.902 143.577 169.835 143.506 169.781C143.436 169.727 143.355 169.688 143.269 169.667C143.228 169.653 143.184 169.652 143.142 169.664C143.101 169.676 143.064 169.699 143.035 169.732C142.977 169.797 142.944 169.941 142.996 169.973C143.048 170.006 143.133 169.973 143.263 170.045C143.386 170.09 143.491 170.175 143.562 170.287C143.59 170.347 143.605 170.413 143.605 170.479C143.605 170.546 143.59 170.611 143.562 170.672C143.538 170.73 143.498 170.782 143.448 170.821C143.398 170.86 143.339 170.885 143.276 170.894C143.339 170.836 143.379 170.756 143.388 170.671C143.396 170.585 143.372 170.499 143.321 170.43C143.275 170.361 143.215 170.301 143.146 170.254L143.016 170.195C142.962 170.15 142.926 170.088 142.912 170.019C142.866 169.849 142.957 169.771 142.996 169.66C143.029 169.603 143.074 169.554 143.128 169.516C143.182 169.479 143.243 169.455 143.308 169.445C143.372 169.445 143.435 169.459 143.493 169.486C143.551 169.513 143.602 169.552 143.643 169.602C143.684 169.651 143.714 169.708 143.73 169.77C143.746 169.832 143.749 169.897 143.737 169.96L143.679 169.98Z" fill="#282E3D"/>
<path d="M133.646 169.98C133.634 169.92 133.634 169.859 133.648 169.8C133.661 169.741 133.686 169.686 133.723 169.638C133.759 169.589 133.805 169.55 133.858 169.521C133.911 169.492 133.97 169.475 134.03 169.47C134.092 169.467 134.155 169.481 134.211 169.509C134.267 169.538 134.314 169.581 134.348 169.634C134.416 169.727 134.462 169.834 134.485 169.947C134.485 170.104 134.316 170.195 134.244 170.215C134.171 170.253 134.103 170.302 134.043 170.358C133.939 170.469 133.802 170.593 133.919 170.776C133.856 170.759 133.801 170.72 133.764 170.666C133.727 170.613 133.711 170.547 133.718 170.482C133.731 170.357 133.786 170.24 133.874 170.149C133.963 170.082 134.068 170.037 134.179 170.019C134.29 170.019 134.348 170.019 134.374 169.94C134.379 169.897 134.374 169.852 134.358 169.811C134.342 169.77 134.316 169.734 134.283 169.705C134.248 169.687 134.209 169.677 134.169 169.677C134.13 169.677 134.091 169.687 134.056 169.705C133.89 169.752 133.75 169.862 133.666 170.012L133.646 169.98Z" fill="#282E3D"/>
<path d="M121 182.094C121 182.739 121.191 183.37 121.548 183.907C121.905 184.444 122.413 184.862 123.007 185.109C123.601 185.356 124.255 185.421 124.885 185.295C125.516 185.169 126.095 184.858 126.55 184.402C127.004 183.945 127.314 183.364 127.439 182.731C127.565 182.097 127.501 181.441 127.254 180.845C127.008 180.249 126.592 179.739 126.057 179.38C125.522 179.022 124.894 178.83 124.251 178.83C123.389 178.83 122.562 179.174 121.952 179.786C121.343 180.398 121 181.228 121 182.094Z" fill="#933FA1"/>
<path d="M121 182.094C121 182.739 121.191 183.37 121.548 183.907C121.905 184.444 122.413 184.862 123.007 185.109C123.601 185.356 124.255 185.421 124.885 185.295C125.516 185.169 126.095 184.858 126.55 184.402C127.004 183.945 127.314 183.364 127.439 182.731C127.565 182.097 127.501 181.441 127.254 180.845C127.008 180.249 126.592 179.739 126.057 179.38C125.522 179.022 124.894 178.83 124.251 178.83C123.389 178.83 122.562 179.174 121.952 179.786C121.343 180.398 121 181.228 121 182.094V182.094Z" stroke="#282E3D" stroke-width="1.24805" stroke-miterlimit="10"/>
<path d="M124.511 180.782C124.669 180.79 124.821 180.847 124.946 180.945C125.07 181.044 125.162 181.178 125.207 181.33C125.233 181.42 125.252 181.512 125.265 181.604L124.615 181.65C124.612 181.602 124.599 181.554 124.577 181.51C124.555 181.467 124.525 181.428 124.488 181.397C124.451 181.365 124.408 181.341 124.362 181.326C124.316 181.312 124.267 181.306 124.219 181.311C124.082 181.311 123.946 181.37 123.946 181.5C123.946 181.631 124.043 181.67 124.427 181.826L124.719 181.937C124.897 181.971 125.058 182.065 125.174 182.204C125.291 182.344 125.355 182.519 125.356 182.701C125.356 183.158 125.005 183.426 124.537 183.478V183.869H124.056V183.478C123.941 183.482 123.826 183.461 123.719 183.418C123.613 183.374 123.517 183.308 123.437 183.224C123.358 183.14 123.297 183.04 123.259 182.931C123.221 182.821 123.207 182.705 123.217 182.59L123.868 182.551C123.868 182.812 124.004 182.949 124.277 182.949C124.433 182.949 124.609 182.91 124.609 182.727C124.609 182.544 124.492 182.544 124.31 182.466L124.056 182.355C123.685 182.238 123.328 182.035 123.328 181.572C123.33 181.373 123.406 181.182 123.541 181.036C123.675 180.89 123.859 180.8 124.056 180.782V180.423H124.511V180.782Z" fill="white"/>
<defs>
<radialGradient id="paint0_radial" cx="0" cy="0" r="1" gradientUnits="userSpaceOnUse" gradientTransform="translate(138.553 196.852) rotate(90) scale(9.69052 9.27561)">
<stop offset="0.15" stop-color="#0A0100"/>
<stop offset="0.36" stop-color="#070100" stop-opacity="0.66"/>
<stop offset="1" stop-opacity="0"/>
</radialGradient>
</defs>
</svg>
