<svg width="643" height="701" viewBox="0 0 643 701" fill="none" xmlns="http://www.w3.org/2000/svg">
<g filter="url(#filter0_d)">
<path d="M280.407 504.042C265.479 490.007 249.079 495.347 231.749 484.417C222.063 478.309 218.556 472.09 208.63 466.381C198.577 460.6 191.253 460.888 181.047 455.381C167.288 447.956 158.189 443.918 149.193 431.131C137.761 414.882 143.924 400.48 138.148 381.47C114.697 304.303 20 212.082 20 212.082L350.934 19.9998C350.934 19.9998 372.003 105.578 401.709 152.248C416.933 176.165 433.051 184.367 446.731 209.199C460.752 234.649 456.316 254.491 471.12 279.493C485.29 303.423 502.971 309.604 518.428 332.724C535.112 357.677 523.904 342.394 533 371C540.58 394.839 350.5 359.023 503.544 414C526.904 422.391 525.79 455.523 518.428 476.5C513.898 489.407 529 491.023 534.5 495.023C540.013 499.033 552 495.023 538.837 530.465C533.288 545.404 516 547.523 503.544 550.95C484.304 556.242 490.79 543.211 471.12 539.846C460.488 538.027 451 558.523 428.403 552.851C419.331 550.574 416.787 562.709 407.688 564.875C392.033 568.6 384.211 554.172 368.144 553.295C355.849 552.623 349.052 558.714 336.846 557.101C321.51 555.073 312.602 550.289 301.188 539.846C289.261 528.932 292.185 515.116 280.407 504.042Z" fill="white"/>
</g>
<defs>
<filter id="filter0_d" x="0" y="0" width="642.582" height="700.099" filterUnits="userSpaceOnUse" color-interpolation-filters="sRGB">
<feFlood flood-opacity="0" result="BackgroundImageFix"/>
<feColorMatrix in="SourceAlpha" type="matrix" values="0 0 0 0 0 0 0 0 0 0 0 0 0 0 0 0 0 0 127 0"/>
<feOffset/>
<feGaussianBlur stdDeviation="10"/>
<feColorMatrix type="matrix" values="0 0 0 0 0 0 0 0 0 0 0 0 0 0 0 0 0 0 0.1 0"/>
<feBlend mode="normal" in2="BackgroundImageFix" result="effect1_dropShadow"/>
<feBlend mode="normal" in="SourceGraphic" in2="effect1_dropShadow" result="shape"/>
</filter>
</defs>
</svg>
