<?xml version="1.0" encoding="UTF-8"?> <svg xmlns="http://www.w3.org/2000/svg" width="1023" height="673" viewBox="0 0 1023 673" fill="none"> <g filter="url(#filter0_d)"> <path d="M256.906 176.054C287.111 167.026 292.67 141.066 320.599 126.44C336.208 118.265 347.191 118.402 362.454 109.598C377.911 100.682 383.185 90.7084 398.395 81.3771C418.901 68.7975 431.302 59.8032 455.264 57.7079C485.715 55.0452 516.362 6.86225 542.021 23.4769C675.021 109.598 743.953 -6.43874 846.52 54.9768C904.224 89.5288 937.302 116.734 969 176.054C998.963 232.127 1000.95 271.809 1002.5 335.366C1004.25 407.273 969 516.477 969 516.477C969 516.477 910.701 618.522 846.52 643.977C767.4 675.358 716.373 605.898 631.329 609.383C587.747 611.169 564.385 626.291 520.777 625.315C476.083 624.314 453.108 603.076 408.404 603.466C365.617 603.839 343.738 622.601 301.036 625.315C254.947 628.244 228.293 625.296 183.204 615.301C145.629 606.971 127.512 591.782 89.9396 583.438C61.5831 577.141 62.865 595.066 43.9897 572.977C30.3133 556.972 14.0866 535.926 22.1521 516.477C26.1716 506.784 35.1868 508.29 40.0204 498.977C51.3195 477.206 19.0983 461.211 22.1521 436.871C25.9761 406.393 24.3214 384.897 43.9897 361.311C54.6214 348.562 70.8551 350.512 77.656 335.366C83.5535 322.232 73.51 312.285 77.656 298.497C84.7884 274.777 110.029 275.512 123.606 254.8C133.995 238.951 131.139 225.196 142.714 210.192C157.257 191.342 170.502 183.179 193.213 176.054C216.947 168.608 233.073 183.178 256.906 176.054Z" fill="white"></path> </g> <defs> <filter id="filter0_d" x="0" y="0" width="1022.56" height="672.14" filterUnits="userSpaceOnUse" color-interpolation-filters="sRGB"> <feFlood flood-opacity="0" result="BackgroundImageFix"></feFlood> <feColorMatrix in="SourceAlpha" type="matrix" values="0 0 0 0 0 0 0 0 0 0 0 0 0 0 0 0 0 0 127 0"></feColorMatrix> <feOffset></feOffset> <feGaussianBlur stdDeviation="10"></feGaussianBlur> <feColorMatrix type="matrix" values="0 0 0 0 0 0 0 0 0 0 0 0 0 0 0 0 0 0 0.1 0"></feColorMatrix> <feBlend mode="normal" in2="BackgroundImageFix" result="effect1_dropShadow"></feBlend> <feBlend mode="normal" in="SourceGraphic" in2="effect1_dropShadow" result="shape"></feBlend> </filter> </defs> </svg> 