<svg width="149" height="56" viewBox="0 0 149 56" fill="none" xmlns="http://www.w3.org/2000/svg">
<path d="M69.0751 22.7371C68.9925 23.0274 68.8914 23.3113 68.7723 23.5868C68.6542 23.8534 68.4858 24.0914 68.2777 24.2858C68.0321 24.5059 67.7471 24.6705 67.44 24.7698C67.0036 24.9021 66.5511 24.9638 66.0975 24.9526C65.6472 24.9647 65.1979 24.903 64.7652 24.7698C64.4571 24.6731 64.1716 24.5082 63.9274 24.2858C63.7157 24.0924 63.5438 23.8544 63.4227 23.5868C63.308 23.3094 63.2069 23.0258 63.1199 22.7371L60.7379 14.7895C60.6943 14.647 60.6437 14.507 60.5865 14.3701C60.5865 14.2625 60.4855 14.198 60.425 14.198C60.3644 14.198 60.2635 14.2733 60.2635 14.4131C60.2635 14.5529 60.2635 14.6604 60.2635 14.7357L60.4149 24.759H55.3681V11.0039C55.3326 10.4004 55.5049 9.80392 55.8526 9.32613C56.1589 8.95122 56.5423 8.65677 56.973 8.46576C57.3845 8.30375 57.8167 8.20946 58.2548 8.18614C58.6687 8.18614 58.9816 8.18614 59.1935 8.18614C59.5308 8.18888 59.8677 8.21042 60.2029 8.25067C60.5916 8.29867 60.9702 8.41496 61.3233 8.59482C61.7041 8.79405 62.0465 9.06765 62.3326 9.40141C62.6783 9.84503 62.9389 10.3566 63.0997 10.9071L65.6635 18.8332C65.6635 18.8332 65.6635 18.9408 65.7342 19.0268C65.765 19.1088 65.8022 19.1879 65.8452 19.2634C65.8815 19.3458 65.9291 19.4219 65.9865 19.4893C66.0026 19.5148 66.0235 19.5366 66.0478 19.5532C66.0721 19.5698 66.0993 19.581 66.1278 19.586C66.1278 19.586 66.2186 19.586 66.2691 19.4893C66.3266 19.4196 66.3774 19.344 66.4205 19.2634L66.5315 19.0268C66.5315 18.9408 66.5315 18.8762 66.5921 18.8332L69.0852 10.8318C69.2338 10.2758 69.4957 9.76171 69.8523 9.32613C70.1385 8.99236 70.4808 8.71876 70.8617 8.51953C71.2095 8.34687 71.5808 8.23433 71.9619 8.18614C72.3172 8.14411 72.6743 8.12257 73.0318 8.12161C73.736 8.09231 74.4397 8.19422 75.111 8.42274C75.5377 8.57663 75.9248 8.8344 76.2415 9.17557C76.4996 9.42958 76.682 9.75861 76.7664 10.122C76.8307 10.411 76.8645 10.7068 76.8673 11.0039V24.759H71.8206L71.9921 14.7357C72.0078 14.5881 71.9833 14.4387 71.9215 14.3055C71.9215 14.2302 71.8407 14.198 71.7903 14.198C71.7398 14.198 71.7095 14.198 71.6591 14.327C71.5921 14.4769 71.5348 14.6314 71.4875 14.7895L69.0751 22.7371Z" fill="#282E3D"/>
<path d="M89.0804 12.2942C89.6988 12.2697 90.315 12.3871 90.8872 12.6383C91.2894 12.814 91.6586 13.0654 91.9773 13.3804C92.2061 13.6249 92.4 13.9039 92.5526 14.2085C92.6911 14.5023 92.806 14.8081 92.8958 15.1227C92.9755 15.4247 93.0262 15.7346 93.0472 16.0476C93.0472 16.3487 93.0472 16.6283 93.0472 16.8757V22.1024C93.046 22.4452 93.0156 22.7872 92.9563 23.1241C92.8962 23.4968 92.7265 23.8394 92.4718 24.1028C92.226 24.4008 91.8906 24.5985 91.523 24.662C91.1897 24.724 90.8521 24.7563 90.5137 24.7588H83.6299C83.258 24.7586 82.8866 24.7263 82.5196 24.662C82.1354 24.5963 81.7814 24.4001 81.5103 24.1028C81.2849 23.8856 81.103 23.6222 80.9753 23.3284C80.8465 23.0296 80.7516 22.7155 80.6927 22.3928C80.6309 22.0812 80.5937 21.7646 80.5817 21.4464C80.5817 21.1345 80.5817 20.8441 80.5817 20.5968C80.5817 20.3494 80.5817 20.0483 80.5817 19.7579C80.6031 19.4826 80.6436 19.2094 80.7028 18.9405C80.7721 18.6594 80.8738 18.3884 81.0056 18.134C81.1431 17.8777 81.3286 17.6544 81.5506 17.4779C81.842 17.2281 82.1903 17.0648 82.56 17.0047C82.8951 16.964 83.2321 16.9424 83.5693 16.9402H88.6868V16.7466C88.6952 16.6177 88.6952 16.4883 88.6868 16.3594C88.6626 16.2016 88.5999 16.0532 88.5051 15.9293C88.3556 15.7061 88.1317 15.5522 87.8793 15.4991C87.6458 15.4572 87.4095 15.4356 87.1727 15.4345H81.3286V12.2942H89.0804ZM85.6789 19.8224C85.5817 19.8101 85.4834 19.8101 85.3862 19.8224C85.258 19.8413 85.1383 19.9013 85.043 19.9945C84.9732 20.0683 84.9242 20.1614 84.9017 20.2634C84.8912 20.3706 84.8912 20.4787 84.9017 20.586C84.8927 20.679 84.8927 20.7727 84.9017 20.8656C84.9244 20.9644 84.9735 21.054 85.043 21.1237C85.1188 21.2023 85.2129 21.258 85.3155 21.2851C85.4227 21.2998 85.5313 21.2998 85.6385 21.2851H87.8692C87.9865 21.3009 88.1052 21.3009 88.2225 21.2851C88.3286 21.2686 88.4292 21.2242 88.5152 21.156C88.6076 21.0916 88.6728 20.9912 88.6969 20.8764C88.7073 20.7655 88.7073 20.6538 88.6969 20.543V19.7687L85.6789 19.8224Z" fill="#282E3D"/>
<path d="M96.6102 17.5426C96.6102 17.2415 96.6102 16.9189 96.6102 16.564C96.6388 16.2002 96.6996 15.8401 96.7919 15.4885C96.8853 15.1106 97.028 14.7486 97.2158 14.413C97.4127 14.0516 97.6691 13.731 97.9729 13.4666C98.2773 13.1964 98.6174 12.9753 98.9822 12.8106C99.3858 12.6623 99.8014 12.5543 100.224 12.488C100.594 12.4167 100.968 12.37 101.344 12.3481H102.353H105.22V15.5745H103.716C103.311 15.5732 102.908 15.6238 102.515 15.7251C102.104 15.8315 101.745 16.0958 101.506 16.4672C101.256 16.8125 101.093 17.2195 101.031 17.6502C100.965 18.0442 100.931 18.4437 100.93 18.8439V24.7912H96.6102V17.5426Z" fill="#282E3D"/>
<path d="M108.056 24.7588V8.29346H112.386V24.7588H108.056ZM116.868 24.7588L113.688 20.2956C113.417 19.946 113.217 19.5392 113.103 19.1019C113.047 18.8367 113.013 18.5668 113.002 18.2953C112.989 17.9237 113.062 17.5545 113.214 17.2198C113.365 16.9241 113.53 16.637 113.709 16.3594L116.383 12.3157H121.067L117.514 17.2736C117.42 17.4121 117.345 17.5642 117.292 17.7253C117.237 17.8689 117.206 18.0219 117.201 18.177C117.205 18.3715 117.25 18.5626 117.332 18.7362C117.418 18.9369 117.523 19.1278 117.645 19.3062L121.683 24.7803L116.868 24.7588Z" fill="#282E3D"/>
<path d="M128.778 24.7592C128.334 24.7592 127.92 24.7592 127.527 24.7592C127.145 24.7476 126.766 24.6898 126.396 24.5871C126.037 24.4879 125.695 24.3242 125.387 24.1031C125.065 23.8472 124.794 23.5255 124.59 23.1567C124.316 22.6259 124.151 22.0395 124.105 21.436C124.023 20.5245 123.986 19.6091 123.994 18.6936V17.0481C123.989 16.5627 124.016 16.0776 124.075 15.5962C124.12 15.1741 124.212 14.7591 124.347 14.3595C124.476 13.9909 124.68 13.6569 124.943 13.3808C125.223 13.066 125.569 12.8265 125.952 12.6817C126.387 12.5108 126.836 12.3882 127.295 12.3161C127.803 12.2352 128.315 12.1885 128.829 12.1763H130.474C131.665 12.1763 132.654 12.1763 133.431 12.2946C134.112 12.3332 134.766 12.5879 135.309 13.0259C135.591 13.2556 135.823 13.5495 135.985 13.8863C136.146 14.2302 136.275 14.5905 136.369 14.9617C136.458 15.3351 136.512 15.717 136.53 16.1017C136.53 16.4889 136.53 16.8545 136.53 17.1772C136.526 17.5916 136.492 18.005 136.429 18.4139C136.363 18.8416 136.147 19.2263 135.824 19.4894C135.667 19.646 135.47 19.7506 135.258 19.7905C135.065 19.8254 134.869 19.8434 134.673 19.8443H128.294C128.264 20.0221 128.264 20.2042 128.294 20.382C128.324 20.5478 128.379 20.7075 128.455 20.8552C128.544 21.0066 128.666 21.1332 128.81 21.2248C128.954 21.3164 129.116 21.3704 129.283 21.3822C129.655 21.4259 130.029 21.4474 130.403 21.4468H136.076V24.7807L128.778 24.7592ZM131.564 16.9083C131.867 16.9083 132.069 16.8223 132.15 16.6717C132.223 16.5411 132.264 16.3933 132.271 16.2415C132.269 16.0622 132.213 15.8884 132.109 15.7468C131.944 15.5535 131.718 15.4311 131.473 15.4027C131.302 15.4027 131.09 15.3489 130.858 15.3274H130.323H129.505C129.27 15.3347 129.039 15.3972 128.829 15.5102C128.724 15.5624 128.632 15.6387 128.559 15.7335C128.486 15.8284 128.433 15.9395 128.405 16.0587C128.358 16.336 128.358 16.6202 128.405 16.8975L131.564 16.9083Z" fill="#282E3D"/>
<path d="M145.917 24.7588H145.15C144.503 24.734 143.861 24.6183 143.242 24.4146C142.901 24.3102 142.58 24.1428 142.294 23.9199C141.819 23.5779 141.439 23.1062 141.193 22.5541C140.947 22.0296 140.816 21.4522 140.81 20.8656V15.4883H139.154V12.2619H140.81V8.29346H145.14V12.2942H148.43V15.5206H145.1V18.3705C145.098 18.8259 145.142 19.2801 145.231 19.7256C145.319 20.1648 145.535 20.5634 145.846 20.8656C146.127 21.1397 146.479 21.3161 146.856 21.3711C147.166 21.4237 147.48 21.4525 147.794 21.4571H148.43V24.791L145.917 24.7588Z" fill="#282E3D"/>
<path d="M70.4074 45.1607C70.4348 45.6044 70.3364 46.0466 70.1248 46.4298C69.9944 46.6633 69.8348 46.8767 69.6504 47.0643C69.1799 47.4582 68.5929 47.6603 67.9951 47.6343H60.6873C60.0027 47.6202 59.3232 47.5044 58.6686 47.2901C57.9854 47.0829 57.3543 46.7154 56.8215 46.2147C56.3958 45.8217 56.052 45.3381 55.8122 44.7951C55.5673 44.238 55.3811 43.6536 55.257 43.0528C55.1361 42.4466 55.0551 41.8321 55.0148 41.2138C55.0148 40.59 55.0148 40.0093 55.0148 39.4608C55.0148 38.9123 55.0148 38.1272 55.0753 37.4497C55.1162 36.7784 55.2142 36.1125 55.368 35.4601C55.5045 34.8343 55.7255 34.2329 56.0241 33.6748C56.3234 33.1209 56.7293 32.6407 57.2152 32.2659C57.56 31.9802 57.9496 31.7618 58.3658 31.6207C58.7467 31.4749 59.1383 31.3634 59.5367 31.2873C59.8694 31.216 60.2069 31.1729 60.546 31.1582C60.8387 31.1582 61.0305 31.1582 61.1314 31.1582H70.145V35.0729H63.3823C62.8479 35.0067 62.3068 35.0992 61.8187 35.3403C61.3307 35.5813 60.9146 35.9615 60.6167 36.4387C60.3505 36.8825 60.1879 37.3877 60.1423 37.9121C60.1423 38.4498 60.0615 38.9876 60.0615 39.3962C60.065 39.8921 60.092 40.3874 60.1423 40.8804C60.1872 41.4217 60.3496 41.9445 60.6167 42.4075C60.8512 42.8208 61.2054 43.1417 61.626 43.3217C62.0086 43.4653 62.4114 43.538 62.8171 43.5368H64.321H64.755C64.9098 43.5127 65.0523 43.433 65.1588 43.3109C65.2766 43.1942 65.3547 43.0391 65.3808 42.87C65.3958 42.6983 65.3958 42.5255 65.3808 42.3538V38.9338H70.4276L70.4074 45.1607Z" fill="#933FA1"/>
<path d="M85.9918 31.1689V40.6223C85.9971 41.0264 86.0343 41.4293 86.1029 41.8268C86.1968 42.2587 86.4332 42.6404 86.7691 42.9022C87.0208 43.1065 87.3094 43.2529 87.6169 43.3324C87.9452 43.4319 88.2849 43.4826 88.6263 43.483C88.9676 43.4819 89.3071 43.4313 89.6356 43.3324C89.9423 43.2507 90.2306 43.1044 90.4835 42.9022C90.6633 42.7516 90.8141 42.5653 90.9276 42.3537C91.024 42.1544 91.1017 41.9455 91.1597 41.73C91.2113 41.5302 91.2384 41.3242 91.2405 41.117C91.2405 40.9234 91.2405 40.7406 91.2405 40.5685V31.1689H96.2368V41.0417C96.2368 41.4691 96.2165 41.8962 96.1762 42.3215C96.1419 42.7522 96.064 43.1776 95.9441 43.5905C95.8243 44.0216 95.6583 44.4366 95.4495 44.8273C95.2229 45.2452 94.9445 45.6286 94.6218 45.9673C94.2429 46.3754 93.8029 46.7134 93.3198 46.9675C92.8414 47.2061 92.3407 47.39 91.8259 47.516C91.2978 47.6427 90.7612 47.7254 90.221 47.7633C89.6659 47.7633 89.1208 47.8171 88.5758 47.8171C88.0307 47.8171 87.4655 47.8171 86.9205 47.7633C86.3803 47.7247 85.8438 47.642 85.3156 47.516C84.8008 47.39 84.3001 47.2061 83.8217 46.9675C83.3416 46.7081 82.9024 46.3706 82.5197 45.9673C82.2421 45.6189 82.0049 45.2361 81.8131 44.8273C81.6083 44.4345 81.4425 44.02 81.3185 43.5905C81.2034 43.1764 81.1256 42.7514 81.0864 42.3215C81.0663 41.8952 81.0663 41.468 81.0864 41.0417V31.1689H85.9918Z" fill="#933FA1"/>
<path d="M107.36 34.32C107.362 33.9131 107.392 33.5069 107.451 33.1048C107.508 32.6796 107.684 32.2826 107.955 31.9648C108.223 31.6437 108.574 31.4152 108.965 31.3088C109.296 31.224 109.634 31.1772 109.974 31.1689H118.382C118.624 31.1689 118.907 31.1689 119.23 31.1689C119.571 31.1842 119.91 31.242 120.239 31.341C120.595 31.4512 120.935 31.6141 121.249 31.825C121.593 32.0638 121.888 32.3748 122.117 32.7391C122.457 33.2857 122.678 33.9069 122.763 34.5567C122.861 35.2003 122.912 35.8511 122.914 36.5032C122.914 36.6968 122.914 36.9549 122.914 37.2776C122.909 37.6372 122.886 37.9963 122.843 38.353C122.793 38.7294 122.742 39.1166 122.662 39.5038C122.596 39.8725 122.495 40.233 122.359 40.5792C122.124 41.228 121.7 41.7787 121.148 42.1494C120.642 42.4635 120.067 42.6269 119.482 42.6226H118.826V42.7194L123.197 47.6343H117.14L114.112 43.3324C113.86 42.9668 113.618 42.6119 113.396 42.257C113.172 41.9208 113.052 41.5185 113.053 41.1062V40.7513C113.049 40.4904 113.104 40.2325 113.213 39.9987C113.322 39.765 113.481 39.5622 113.678 39.407C114.144 39.0489 114.709 38.8672 115.283 38.8908H116.081C116.325 38.8891 116.568 38.8639 116.807 38.8155C117.066 38.7647 117.299 38.6157 117.463 38.3961C117.59 38.2018 117.68 37.9824 117.726 37.7508C117.772 37.5174 117.796 37.2795 117.797 37.041C117.814 36.7043 117.766 36.3673 117.655 36.0515C117.593 35.9061 117.515 35.769 117.423 35.6429C117.252 35.4384 117.013 35.3115 116.757 35.288C116.515 35.2722 116.272 35.2722 116.03 35.288H113.275C113.137 35.271 112.998 35.271 112.861 35.288C112.723 35.321 112.597 35.3957 112.497 35.5031C112.356 35.6232 112.262 35.7962 112.235 35.987C112.224 36.1733 112.224 36.36 112.235 36.5463V47.6235H107.188L107.36 34.32Z" fill="#933FA1"/>
<path d="M138.609 31.1689V40.6223C138.61 41.0266 138.647 41.43 138.721 41.8268C138.814 42.2561 139.046 42.6367 139.377 42.9022C139.629 43.1044 139.918 43.2507 140.224 43.3324C140.553 43.4313 140.892 43.4819 141.234 43.483C141.575 43.4826 141.915 43.4319 142.243 43.3324C142.55 43.2507 142.838 43.1044 143.091 42.9022C143.273 42.7546 143.425 42.5677 143.535 42.3537C143.636 42.1565 143.714 41.9471 143.767 41.73C143.817 41.5295 143.848 41.3241 143.858 41.117C143.858 40.9234 143.858 40.7406 143.858 40.5685V31.1689H148.844V41.0417C148.844 41.4719 148.844 41.8913 148.794 42.3215C148.75 42.7506 148.672 43.1751 148.562 43.5905C148.438 44.02 148.272 44.4345 148.067 44.8273C147.834 45.2407 147.556 45.6233 147.239 45.9673C146.857 46.3706 146.417 46.7081 145.937 46.9675C145.459 47.2061 144.958 47.39 144.444 47.516C143.912 47.6427 143.372 47.7254 142.829 47.7633C142.284 47.7633 141.728 47.8171 141.183 47.8171C140.638 47.8171 140.073 47.8171 139.528 47.7633C138.991 47.7254 138.458 47.6427 137.933 47.516C137.418 47.39 136.918 47.2061 136.439 46.9675C135.956 46.7134 135.516 46.3754 135.137 45.9673C134.815 45.6286 134.536 45.2452 134.31 44.8273C134.101 44.4366 133.935 44.0216 133.815 43.5905C133.695 43.1776 133.617 42.7522 133.583 42.3215C133.543 41.8962 133.522 41.4691 133.522 41.0417V31.1689H138.609Z" fill="#933FA1"/>
<path d="M28.8221 55.8507C39.3468 55.8507 47.8787 55.3596 47.8787 54.7537C47.8787 54.1479 39.3468 53.6567 28.8221 53.6567C18.2974 53.6567 9.7655 54.1479 9.7655 54.7537C9.7655 55.3596 18.2974 55.8507 28.8221 55.8507Z" fill="url(#paint0_radial)"/>
<path d="M2.49816 34.8682C2.56559 34.9316 2.64019 34.9858 2.72022 35.0295C3.71194 35.4318 4.76834 35.6218 5.82903 35.5887C5.92919 35.5936 6.02798 35.6154 6.12174 35.6533C7.11929 36.1244 8.21887 36.2955 9.3012 36.148C9.83679 36.0432 10.3457 35.8197 10.795 35.492C10.9003 35.3981 11.0248 35.3318 11.1584 35.2984C13.0839 34.7275 15.059 34.3671 17.053 34.2229H17.2852C17.608 34.2015 17.92 34.0911 18.1907 33.9026C18.4614 33.7141 18.6815 33.4539 18.8295 33.1474L19.2837 32.2333L19.102 30.3297C19.097 30.2941 19.097 30.2578 19.102 30.2222V30.0716C19.1142 29.9422 19.1699 29.8218 19.259 29.7328C19.3481 29.6438 19.4645 29.5922 19.5865 29.5877H20.6766L23.0688 25.5009C23.0688 25.5009 23.1192 25.4041 23.1394 25.4041C23.1596 25.4041 23.1394 25.4902 23.1394 25.5117C23.1899 25.7053 23.2303 25.8988 23.2706 26.0924C23.5335 27.2279 23.7223 28.3814 23.8359 29.5447H33.3642C33.4231 28.5828 33.5651 27.6288 33.7881 26.6947C33.8617 26.3972 33.9562 26.106 34.0707 25.8236V25.759C34.0915 25.6952 34.1186 25.6339 34.1515 25.5762L34.2019 25.4902L35.1104 26.77L36.8969 29.5447H38.0678C38.1314 29.5445 38.1945 29.5577 38.2534 29.5835C38.3123 29.6094 38.3658 29.6473 38.4109 29.6952C38.4956 29.7861 38.552 29.9025 38.5724 30.0286V30.1254V30.2114C38.5724 30.2114 38.5724 30.2114 38.5724 30.3405L38.4614 31.8461C38.855 32.2471 39.2695 32.6241 39.7029 32.9754C39.8695 33.1182 40.0631 33.221 40.2704 33.2766C40.4777 33.3323 40.6938 33.3396 40.904 33.298C41.0551 33.2678 41.2036 33.2246 41.3482 33.169C44.245 32.0505 43.4577 25.8558 44.4671 23.6189C44.4808 23.5912 44.4996 23.5667 44.5224 23.5468C44.5451 23.5269 44.5713 23.512 44.5995 23.503C44.6276 23.494 44.6572 23.4911 44.6865 23.4943C44.7157 23.4976 44.7441 23.507 44.7699 23.5221C44.9262 23.6214 45.0999 23.6856 45.2804 23.7106C45.4609 23.7356 45.6443 23.721 45.8193 23.6675C45.9942 23.6141 46.1571 23.5231 46.2977 23.4C46.4384 23.277 46.5539 23.1245 46.6372 22.9521C47.4101 21.9447 48.0393 20.8213 48.5045 19.6181C48.6371 19.2784 48.6858 18.9081 48.6458 18.5427C48.5751 18.0695 48.3834 17.8221 48.0604 17.8114C47.993 17.8105 47.9277 17.7872 47.8734 17.7448C47.8191 17.7023 47.7786 17.6429 47.7576 17.5748C47.5355 16.9618 47.1923 16.6606 46.7482 16.8542C46.6762 16.8788 46.5986 16.8774 46.5274 16.8502C46.4562 16.823 46.3954 16.7715 46.3546 16.7036C46.2257 16.4413 46.0154 16.2346 45.7596 16.1189C45.5038 16.0032 45.2182 15.9856 44.9516 16.0691C44.9288 16.0743 44.9051 16.073 44.883 16.0652C44.8608 16.0574 44.841 16.0435 44.8256 16.0249C44.8102 16.0063 44.7997 15.9837 44.7952 15.9593C44.7908 15.9349 44.7925 15.9097 44.8002 15.8863C45.093 15.0753 45.2535 14.2169 45.2745 13.3482C45.2882 12.7976 45.1243 12.2586 44.8102 11.821C44.356 11.1865 43.8816 10.8854 43.377 11.2618C43.212 11.3913 43.0822 11.5649 43.0007 11.7652C42.9191 11.9654 42.8888 12.185 42.9127 12.4018C43.0301 13.7673 42.9621 15.1437 42.7108 16.4886C42.2061 16.4886 41.8629 16.9295 41.7014 17.7576C41.6691 17.9348 41.6522 18.1148 41.651 18.2953V20.6291C41.6313 21.0693 41.7642 21.5018 42.0244 21.8443C42.0686 21.9085 42.0972 21.9833 42.1078 22.0621C42.1184 22.1409 42.1105 22.2213 42.085 22.296C41.5669 24.0233 40.9258 25.7059 40.1672 27.3292L37.018 21.5217C36.891 21.178 36.6979 20.8665 36.451 20.6072C36.2041 20.3479 35.9091 20.1465 35.5848 20.0161L35.282 19.887L34.9085 19.7364C34.6763 20.0161 34.424 20.3064 34.1515 20.5968L33.6872 21.0485L33.4449 21.2744L33.2027 21.5002L32.9503 21.726L32.5163 22.0917C32.3044 22.2853 32.0722 22.4681 31.8501 22.6617L31.3657 23.0596L30.8105 23.5006L29.9929 24.1673L29.3167 24.7266L29.1552 24.9094C28.9389 25.122 28.7966 25.4063 28.7514 25.716C28.7365 25.8158 28.7365 25.9174 28.7514 26.0171V26.0709C28.7514 26.0709 28.7514 26.1247 28.7514 26.1569C28.7467 26.189 28.7467 26.2217 28.7514 26.2537V26.3828V26.4581V26.5119L28.8221 26.5979L28.9028 26.6839C28.9835 26.7387 29.0722 26.7787 29.1653 26.8022C29.2907 26.8399 29.4234 26.8399 29.5488 26.8022C29.5999 26.783 29.6452 26.7496 29.68 26.7054C29.9223 26.4581 29.7911 25.9741 29.4277 25.6837C29.5865 25.6587 29.7486 25.6744 29.9006 25.7294C30.0526 25.7845 30.19 25.8774 30.3016 26.0005C30.4131 26.1235 30.4955 26.2731 30.5419 26.4369C30.5882 26.6006 30.5973 26.7738 30.5683 26.942C30.5578 27.0408 30.5375 27.1382 30.5077 27.2324C30.4566 27.4268 30.3552 27.602 30.215 27.7379C30.0874 27.8422 29.9403 27.9163 29.7837 27.9553C29.627 27.9942 29.4644 27.9971 29.3066 27.9637C28.5088 27.8307 27.7876 27.3813 27.2879 26.7054C26.874 26.2 26.4905 25.5547 25.9757 24.7804C25.7638 24.4577 25.5316 24.1136 25.2591 23.7049C25.1682 23.5758 23.4624 21.7153 23.3514 21.554C22.9686 21.1354 22.6048 20.6976 22.2613 20.2419L22.1402 20.0913C21.9855 20.17 21.8398 20.2674 21.7062 20.3817C21.4004 20.6428 21.158 20.9785 20.9996 21.3604L15.8822 29.8565C14.7416 30.0394 13.7726 30.8137 11.6631 32.7818C11.6336 32.8086 11.5984 32.8271 11.5605 32.8357C11.5226 32.8442 11.4833 32.8425 11.4462 32.8308C11.4091 32.819 11.3753 32.7976 11.348 32.7683C11.3206 32.7391 11.3006 32.7031 11.2896 32.6635C11.216 32.3522 11.0622 32.0691 10.8455 31.8461C10.435 32.6232 9.84958 33.2792 9.14195 33.7553C8.43432 34.2313 7.62669 34.5124 6.79177 34.5732C5.95685 34.634 5.12085 34.4726 4.35901 34.1036C3.59718 33.7345 2.93342 33.1694 2.42751 32.4592H2.21554C1.21628 33.0292 1.38787 33.8357 2.49816 34.8682Z" fill="#F2C494" stroke="#282E3D" stroke-width="1.26851" stroke-miterlimit="10" stroke-linecap="square"/>
<path d="M37.4622 42.2888C39.1579 41.1165 40.6012 40.0841 41.8327 39.299L42.0648 39.1484C42.408 38.9333 42.7411 38.729 43.0742 38.5569L43.2962 38.4279L43.5587 38.2988L43.6899 38.2343L43.8211 38.1698C44.141 38.0166 44.4817 37.9186 44.8304 37.8794C43.8211 37.9654 39.9351 38.2881 38.2696 38.643L37.765 39.5141L37.4622 42.2888Z" fill="#F2C494" stroke="#282E3D" stroke-width="1.26851" stroke-miterlimit="10" stroke-linecap="square"/>
<path d="M22.4934 43.7515L23.3816 44.343L23.6138 44.4828L24.0175 44.7409L24.2497 44.8915C25.471 45.6658 26.8134 46.4832 28.388 47.3651C28.5038 47.4317 28.6255 47.4858 28.7514 47.5264H28.8422C29.1513 47.4113 29.4517 47.2711 29.7406 47.107L30.1746 46.8596L30.6086 46.6015L31.0325 46.3541L32.4658 45.4723L32.6172 45.3862L34.101 44.4398L34.3432 44.2892L34.646 44.0849L35.2214 43.7085L22.4934 43.7515Z" fill="#282E3D" stroke="#282E3D" stroke-width="1.26851" stroke-miterlimit="10" stroke-linecap="square"/>
<path d="M12.1677 37.8796H12.4201C13.0313 37.8729 13.6357 38.0164 14.1864 38.299C14.3277 38.3743 14.469 38.4496 14.6003 38.5356L15.0141 38.7722L15.8115 39.2562L16.2051 39.4928L16.3162 39.5573L16.7199 39.8154L17.1135 40.0735L17.7091 40.4607L18.2844 40.8371L20.3031 42.2029L20.0306 39.4282L19.7984 38.299C17.4264 37.9549 14.0754 37.4386 12.1677 37.8796Z" fill="#F2C494" stroke="#282E3D" stroke-width="1.26851" stroke-miterlimit="10" stroke-linecap="square"/>
<path d="M37.7246 39.4927L37.7953 38.8582L38.5927 30.1577" stroke="#282E3D" stroke-width="1.26851" stroke-miterlimit="10" stroke-linecap="square"/>
<path d="M37.1593 48.7308C37.0612 49.2819 36.8201 49.7928 36.4633 50.2053C36.1064 50.6178 35.6482 50.9155 35.1406 51.0645C34.9458 51.1185 34.7462 51.151 34.5451 51.1613C32.7586 51.2689 32.4356 50.8387 30.326 50.4838L29.5791 50.3762L29.1249 50.2902H28.9028C29.4983 50.1826 31.083 49.8708 31.295 49.8062C33.2632 49.204 35.1911 48.6447 37.018 48.0532C37.1387 48.2542 37.1887 48.4942 37.1593 48.7308Z" fill="#F2C494" stroke="#282E3D" stroke-width="1.26851" stroke-miterlimit="10" stroke-linecap="square"/>
<path d="M28.6506 47.6016C28.4487 47.6661 28.479 47.7091 28.267 47.7307H27.8935C27.5069 47.7522 27.1194 47.7522 26.7328 47.7307C25.9036 47.6741 25.0871 47.4855 24.3103 47.1714C23.9796 47.0229 23.6286 46.9321 23.2707 46.9025C22.7992 46.8164 22.3147 46.8646 21.8663 47.0421C21.4178 47.2196 21.0214 47.5202 20.717 47.9135C16.2052 46.3971 12.8744 44.7516 10.9566 42.9879C10.4814 42.5534 10.1474 41.9698 10.0023 41.3208C9.85729 40.6717 9.90867 39.9904 10.1491 39.3743C10.566 38.659 11.2289 38.1456 11.9962 37.9439C12.2213 37.8882 12.4515 37.8593 12.6826 37.8579H12.9955C13.3443 37.8971 13.685 37.9951 14.0048 38.1483L14.1361 38.2128L14.1865 38.2988L14.4691 38.4494L14.6912 38.5785C15.0041 38.7505 15.3372 38.9549 15.7006 39.17L15.9327 39.3205C17.1641 40.1056 18.6176 41.1381 20.3032 42.3103H20.384L20.6262 42.4716L20.8785 42.6437L21.2621 42.9126L21.3529 42.9771L21.6255 43.1599L21.898 43.3428L22.4632 43.7192L23.0386 44.0956L23.5836 44.4505L25.0674 45.3969L25.2188 45.4829L26.652 46.3648L27.076 46.6122L27.51 46.8703L27.944 47.1176C28.1612 47.3074 28.3983 47.4698 28.6506 47.6016Z" fill="#F2C494" stroke="#282E3D" stroke-width="1.26851" stroke-miterlimit="10" stroke-linecap="square"/>
<path d="M46.8895 42.9125C44.4671 45.2355 41.0554 46.6658 37.23 47.9779H36.9978C35.1608 48.5694 33.243 49.1286 31.2647 49.7309C31.0628 49.7954 29.4782 50.1073 28.8826 50.2148H28.6808L27.9036 50.3331C26.3492 50.5912 25.2792 50.9569 23.7147 51.0752C23.1888 51.1335 22.6577 51.0441 22.1742 50.8158C21.6908 50.5875 21.2719 50.2283 20.9592 49.7739C20.7483 49.4268 20.6137 49.0335 20.5656 48.6232C20.5216 48.3588 20.572 48.0864 20.7069 47.8596C21.0177 47.4742 21.4183 47.1828 21.8683 47.0148C22.3184 46.8468 22.802 46.808 23.2706 46.9024C23.6187 46.9388 23.9593 47.0331 24.28 47.182C25.0568 47.4962 25.8733 47.6847 26.7024 47.7413C27.0891 47.7628 27.4765 47.7628 27.8632 47.7413H28.3174C28.5294 47.7201 28.739 47.6769 28.9432 47.6122H29.034C29.1599 47.5716 29.2817 47.5175 29.3974 47.4509C30.972 46.569 32.3144 45.7517 33.5358 44.9773L33.778 44.8268L34.1716 44.5687L34.3937 44.4289L35.2819 43.8374C35.6857 43.5792 36.0692 43.3211 36.4427 43.063L36.584 42.9662L36.7152 42.8694H36.7859L37.2704 42.536L37.5328 42.3532L39.5515 40.9874L40.1268 40.611L40.7224 40.2238L41.116 39.9657L41.5197 39.7076L41.6308 39.6431L42.0244 39.4065L42.8218 38.9225L43.2356 38.6859C43.3669 38.5999 43.5082 38.5246 43.6495 38.4493C44.1898 38.1497 44.7868 37.9842 45.3957 37.9653H45.648C47.7474 38.2987 49.0697 40.8368 46.8895 42.9125Z" fill="#F2C494" stroke="#282E3D" stroke-width="1.26851" stroke-miterlimit="10" stroke-linecap="square"/>
<path d="M30.861 27.9314C31.0729 27.9314 31.2546 27.9314 31.4464 27.9314C31.6248 27.9061 31.8005 27.8629 31.9713 27.8023C32.3028 27.6785 32.6057 27.4804 32.8595 27.2216C33.3832 26.6941 33.7693 26.0308 33.9799 25.2965C34.065 25.0506 34.2033 24.8295 34.3836 24.6512C34.562 24.4948 34.7796 24.3975 35.0094 24.3716C34.8361 24.4918 34.6882 24.6493 34.5754 24.834C34.4986 25.0158 34.4443 25.2074 34.4139 25.404C34.3213 26.3104 33.8969 27.1412 33.2329 27.7163C32.8906 28.0083 32.4777 28.191 32.0419 28.2432C31.627 28.2771 31.213 28.1677 30.861 27.9314Z" fill="#282E3D"/>
<path d="M26.5006 27.9314C26.1481 28.1767 25.7292 28.2902 25.3095 28.254C24.8769 28.2015 24.4673 28.0187 24.1286 27.727C23.7946 27.4426 23.5179 27.0894 23.3149 26.6884C23.112 26.2874 22.9871 25.8469 22.9477 25.3933C22.9135 25.1963 22.8559 25.0047 22.7761 24.8233C22.666 24.6362 22.5176 24.4781 22.342 24.3608C22.5749 24.3866 22.7958 24.4837 22.9779 24.6405C23.1553 24.8214 23.2931 25.0417 23.3817 25.2857C23.5923 26.02 23.9784 26.6834 24.5021 27.2108C24.7559 27.4697 25.0587 27.6677 25.3903 27.7916C25.5645 27.8521 25.7436 27.8954 25.9252 27.9206C26.1069 27.9529 26.2987 27.9206 26.5006 27.9314Z" fill="#282E3D"/>
<path d="M31.6685 27.2431H32.2741C32.1428 27.0498 31.941 27.0498 31.6685 27.2431Z" stroke="#282E3D" stroke-width="1.26851" stroke-miterlimit="10" stroke-linecap="square"/>
<path d="M25.0067 27.2218H25.6123C25.3499 27.0498 25.148 27.0498 25.0067 27.2218Z" stroke="#282E3D" stroke-width="1.26851" stroke-miterlimit="10" stroke-linecap="square"/>
<path d="M19.9701 39.439L19.8994 38.7507L19.0616 30.1577" stroke="#282E3D" stroke-width="1.26851" stroke-miterlimit="10" stroke-linecap="square"/>
<path d="M43.0943 18.4565C43.445 19.0003 43.9745 19.3841 44.578 19.5319C44.8756 19.5356 45.1636 19.4206 45.3855 19.2093C45.6379 19.0372 45.7994 18.7684 45.7085 18.5318C45.6608 18.4254 45.5782 18.3413 45.4764 18.2952L45.0524 18.0908L44.1844 17.6606C43.6091 17.3703 43.0337 17.0799 42.4786 16.725L42.2061 16.5529L42.5593 15.9722L42.8117 16.1658C43.3163 16.5422 43.821 16.8863 44.4064 17.2412L45.2341 17.7359L45.6479 17.994C45.8215 18.1038 45.9482 18.2812 46.0012 18.4887C46.0318 18.6886 46 18.8937 45.9106 19.0724C45.8213 19.2511 45.6794 19.3937 45.5066 19.4782C45.2282 19.6894 44.8884 19.7885 44.5478 19.7578C43.9263 19.5353 43.407 19.0704 43.0943 18.4565Z" fill="#282E3D"/>
<path d="M43.3467 21.7365C43.6595 21.6079 43.947 21.4182 44.1945 21.1772C44.3593 20.9061 44.4372 20.5854 44.4166 20.2631V19.9297L45.1231 20.0803L45.0121 20.3921C44.9162 20.8151 44.6928 21.1928 44.3762 21.4676C44.051 21.6223 43.7022 21.7134 43.3467 21.7365Z" fill="#282E3D"/>
<path d="M44.7699 19.8866C44.6992 20.5642 44.5983 21.0696 45.1131 21.2632C45.3891 21.3289 45.6783 21.2789 45.9205 21.1234C46.4551 20.7875 46.9005 20.3121 47.2149 19.7419C47.5292 19.1718 47.7021 18.5258 47.7172 17.8647" stroke="#282E3D" stroke-width="1.26851" stroke-miterlimit="10" stroke-linecap="square"/>
<path d="M45.9204 18.3275C46.1148 18.1364 46.2541 17.8903 46.322 17.6179C46.3899 17.3456 46.3837 17.0582 46.304 16.7896" stroke="#282E3D" stroke-width="1.26851" stroke-miterlimit="10" stroke-linecap="square"/>
<path d="M44.2651 17.2202C44.467 16.8374 44.6005 16.4181 44.6588 15.9834" stroke="#282E3D" stroke-width="1.26851" stroke-miterlimit="10" stroke-linecap="square"/>
<path d="M46.082 21.2202C46.082 21.8762 46.9198 22.0268 47.4547 21.5213" stroke="#282E3D" stroke-width="1.26851" stroke-miterlimit="10" stroke-linecap="square"/>
<path d="M15.9125 29.5123C16.6623 29.7349 17.3156 30.2294 17.7596 30.9104C17.2215 30.4403 16.5478 30.1821 15.852 30.1791H15.5391L15.5996 29.4048L15.9125 29.5123Z" fill="#282E3D"/>
<path d="M40.4297 27.4045C40.1975 27.8562 39.925 28.2218 39.713 28.6305C39.4811 29.0234 39.3586 29.4784 39.3598 29.9426C39.2487 29.4661 39.2698 28.9655 39.4203 28.5014C39.5415 28.0282 39.7231 27.5765 39.8342 27.1571L39.9149 26.8345L40.571 27.1141L40.4297 27.4045Z" fill="#282E3D"/>
<path d="M19.1121 30.2009C19.133 30.1507 19.1602 30.1037 19.1929 30.0611C19.2361 30.0512 19.2808 30.0512 19.3241 30.0611H38.2696C38.3573 30.063 38.4407 30.1017 38.5018 30.1687C38.541 30.2014 38.5693 30.2466 38.5825 30.2977C38.5979 30.3466 38.5979 30.3994 38.5825 30.4483L37.775 38.9659L37.7044 39.6005L37.442 42.3967H37.3612L37.119 42.558L36.8666 42.7301L36.4831 42.9989L36.3922 43.0635L36.0894 43.2678L35.8472 43.4291L35.2819 43.8055H22.4934L21.3327 43.0312L21.1914 42.9344L21.0602 42.8376H20.9895L20.505 42.5042L20.2426 42.2246L19.9701 39.4499L19.9095 38.7616L19.102 30.3623C19.0898 30.3086 19.0933 30.2523 19.1121 30.2009ZM28.8524 38.1378C29.0879 38.1378 29.3182 38.0634 29.5141 37.924C29.7099 37.7845 29.8626 37.5863 29.9527 37.3544C30.0429 37.1226 30.0665 36.8674 30.0205 36.6212C29.9746 36.375 29.8611 36.1489 29.6946 35.9714C29.528 35.794 29.3158 35.6731 29.0847 35.6241C28.8537 35.5752 28.6142 35.6003 28.3966 35.6964C28.1789 35.7924 27.9929 35.9551 27.8621 36.1638C27.7312 36.3724 27.6613 36.6178 27.6613 36.8688C27.6613 37.2054 27.7868 37.5282 28.0102 37.7661C28.2335 38.0041 28.5365 38.1378 28.8524 38.1378Z" fill="#F7F7F7" stroke="#282E3D" stroke-width="1.26851" stroke-miterlimit="10"/>
<path d="M22.4934 43.752L23.3816 44.3434L23.6138 44.494H34.1817L34.424 44.3327L34.7268 44.1284L35.3021 43.752H22.4934Z" stroke="#282E3D" stroke-width="1.26851" stroke-miterlimit="10"/>
<path d="M22.4934 43.752L23.3816 44.3435L23.6138 44.4833H34.1413L34.6864 44.1284L35.2617 43.752H22.4934Z" fill="#F7F7F7" stroke="#282E3D" stroke-width="0.654715" stroke-miterlimit="10"/>
<path d="M27.6614 36.8687C27.6614 37.1196 27.7312 37.365 27.8621 37.5737C27.993 37.7824 28.179 37.945 28.3966 38.0411C28.6143 38.1372 28.8537 38.1623 29.0848 38.1133C29.3158 38.0644 29.528 37.9435 29.6946 37.766C29.8612 37.5885 29.9746 37.3624 30.0206 37.1162C30.0665 36.8701 30.0429 36.6149 29.9528 36.383C29.8626 36.1511 29.71 35.9529 29.5141 35.8135C29.3183 35.674 29.088 35.5996 28.8524 35.5996C28.5365 35.5996 28.2336 35.7333 28.0102 35.9713C27.7869 36.2093 27.6614 36.5321 27.6614 36.8687Z" fill="#282E3D"/>
<path d="M19.1123 30.1902C19.1055 30.1511 19.1055 30.111 19.1123 30.0719L19.1628 29.9643H38.2698C38.3134 29.964 38.3566 29.9735 38.3966 29.992C38.4366 30.0105 38.4725 30.0377 38.502 30.0719C38.5475 30.1326 38.5817 30.2019 38.6029 30.2762V30.0504C38.5783 29.9125 38.5107 29.7874 38.4111 29.6955C38.3235 29.6078 38.2084 29.5579 38.0882 29.5557H19.617C19.4949 29.5602 19.3786 29.6118 19.2895 29.7008C19.2004 29.7898 19.1446 29.9102 19.1325 30.0396L19.1123 30.1902Z" stroke="#282E3D" stroke-width="1.26851" stroke-miterlimit="10"/>
<path d="M20.7069 17.6932C21.0674 18.4505 21.4932 19.1706 21.9787 19.8441L22.1402 20.0699L22.2613 20.2205C22.6742 20.7595 23.1157 21.273 23.5835 21.7584C23.6946 21.8767 25.4004 23.7373 25.4912 23.9093C25.7637 24.275 25.9959 24.6191 26.2078 24.9848C26.7226 25.7591 27.1062 26.4044 27.52 26.9099C28.0198 27.5857 28.7409 28.0352 29.5387 28.1682C29.6965 28.2016 29.8591 28.1987 30.0158 28.1597C30.1725 28.1208 30.3195 28.0467 30.4471 27.9423C30.5873 27.8065 30.6887 27.6313 30.7398 27.4369C30.7696 27.3426 30.7899 27.2453 30.8004 27.1465C30.8294 26.9783 30.8204 26.8051 30.774 26.6413C30.7276 26.4776 30.6452 26.328 30.5337 26.2049C30.4222 26.0819 30.2847 25.989 30.1327 25.9339C29.9808 25.8788 29.8186 25.8631 29.6598 25.8882C30.0232 26.1786 30.1544 26.6625 29.9122 26.9099C29.8773 26.9541 29.832 26.9875 29.781 27.0067C29.6555 27.0444 29.5228 27.0444 29.3974 27.0067C29.3058 26.9785 29.2177 26.9388 29.135 26.8884L29.0542 26.8023L28.9836 26.7163V26.6625V26.5872V26.4582C28.9788 26.4261 28.9788 26.3935 28.9836 26.3614C28.9885 26.333 28.9885 26.3038 28.9836 26.2754V26.2216C28.9685 26.1255 28.9685 26.0273 28.9836 25.9312C29.0453 25.5332 29.2475 25.1754 29.5488 24.931L30.2251 24.3718L31.0426 23.705L31.5978 23.2641L32.0823 22.8661C32.3043 22.6726 32.5365 22.4897 32.7485 22.2961L33.1825 21.9305L33.4348 21.7046L33.6771 21.4788L33.9193 21.2529L34.3836 20.8013C34.646 20.5109 34.9085 20.2205 35.1406 19.9409L35.2012 19.8656C35.9755 18.9439 36.6369 17.9212 37.1694 16.822C38.2292 14.5421 38.1788 12.5202 36.8868 11.3372C36.706 11.1697 36.5099 11.0219 36.3014 10.8962C35.8953 10.6612 35.4604 10.4875 35.0094 10.38L34.3735 10.0466C34.4841 10.1314 34.5856 10.2287 34.6763 10.337V10.4015C34.854 10.6336 34.9877 10.9002 35.07 11.1866C35.2165 11.6837 35.2165 12.2167 35.07 12.7138C34.9984 12.9758 34.8858 13.2231 34.7369 13.4451C34.3289 14.0188 33.8219 14.5043 33.243 14.8755C33.7864 14.2917 34.1401 13.5379 34.2524 12.7245C34.2684 12.6105 34.2684 12.4945 34.2524 12.3804C34.2203 12.2072 34.1434 12.047 34.0303 11.9179C33.6468 11.434 32.9604 11.6276 32.3043 12.1976C32.0619 12.4268 31.7754 12.5971 31.4649 12.6964C31.1544 12.7956 30.8273 12.8216 30.5064 12.7725C30.1855 12.7234 29.8785 12.6003 29.6068 12.4118C29.3351 12.2234 29.1052 11.9741 28.9331 11.6813H28.7615C28.5883 11.9726 28.3579 12.2205 28.0862 12.4079C27.8144 12.5952 27.5078 12.7177 27.1875 12.7667C26.8671 12.8158 26.5406 12.7903 26.2303 12.692C25.9201 12.5938 25.6335 12.4251 25.3903 12.1976C24.714 11.6168 24.0276 11.4232 23.6441 11.9502C23.5338 12.0687 23.4569 12.2177 23.422 12.3804C23.4159 12.4771 23.4159 12.5741 23.422 12.6708C23.5079 13.5114 23.8646 14.2943 24.4314 14.8862C23.8506 14.5179 23.3431 14.0319 22.9375 13.4558C22.7916 13.2342 22.6761 12.9916 22.5944 12.7353C22.5944 12.7353 22.5944 12.6708 22.5944 12.6385C22.5568 12.5049 22.5298 12.3682 22.5136 12.2298C22.4575 11.6075 22.6153 10.9846 22.9577 10.4768L22.9476 10.337C23.0464 10.223 23.1545 10.1186 23.2706 10.0251C23.1093 10.0138 22.9475 10.0138 22.7861 10.0251C22.3021 10.0691 21.8332 10.227 21.4134 10.4876C21.2239 10.6054 21.0478 10.7462 20.8886 10.907C19.5562 12.2406 19.3745 14.8217 20.7069 17.6932Z" fill="#F7F7F7" stroke="#282E3D" stroke-width="1.26851" stroke-miterlimit="10"/>
<path d="M28.913 11.6922C29.085 11.9849 29.3149 12.2342 29.5866 12.4226C29.8583 12.6111 30.1653 12.7342 30.4862 12.7833C30.8071 12.8324 31.1342 12.8065 31.4447 12.7072C31.7552 12.6079 32.0417 12.4377 32.2842 12.2084C32.9403 11.6384 33.6266 11.4448 34.0102 11.9288C34.1232 12.0578 34.2002 12.218 34.2322 12.3912C34.2483 12.5053 34.2483 12.6213 34.2322 12.7353C34.12 13.5488 33.7663 14.3025 33.2229 14.8863C33.8017 14.5151 34.3087 14.0296 34.7167 13.4559C34.8657 13.2339 34.9783 12.9866 35.0498 12.7246C35.1963 12.2275 35.1963 11.6945 35.0498 11.1974C34.9676 10.911 34.8339 10.6444 34.6562 10.4124V10.3478C34.5723 10.237 34.4776 10.136 34.3736 10.0467L34.2625 9.96066C32.8091 8.8852 30.9317 11.0361 28.913 11.6922Z" fill="#F7F7F7" stroke="#282E3D" stroke-width="1.26851" stroke-miterlimit="10"/>
<path d="M22.4127 12.2515C22.4289 12.3899 22.4559 12.5266 22.4935 12.6602C22.4935 12.6602 22.4935 12.7247 22.4935 12.757C22.5752 13.0133 22.6907 13.2559 22.8366 13.4775C23.2422 14.0536 23.7497 14.5396 24.3305 14.9079C23.7637 14.316 23.407 13.5331 23.3211 12.6925C23.315 12.5958 23.315 12.4988 23.3211 12.4021C23.356 12.2394 23.4329 12.0904 23.5432 11.9719C23.9267 11.4449 24.6131 11.6385 25.2894 12.2193C25.5326 12.4468 25.8192 12.6155 26.1294 12.7137C26.4397 12.812 26.7662 12.8375 27.0866 12.7884C27.4069 12.7394 27.7135 12.6169 27.9853 12.4296C28.257 12.2422 28.4874 11.9943 28.6606 11.703C26.6419 11.0147 24.7342 8.86381 23.2808 9.97154L23.2707 10.0253C23.1532 10.129 23.045 10.2442 22.9477 10.3695L22.8568 10.4985C22.5144 11.0063 22.3566 11.6292 22.4127 12.2515Z" fill="#F7F7F7" stroke="#282E3D" stroke-width="1.26851" stroke-miterlimit="10"/>
<path d="M36.0086 13.3484C35.963 12.9742 35.8442 12.6143 35.6599 12.2919C35.4756 11.9696 35.2299 11.692 34.9387 11.4771L35.3828 10.9717C35.6417 11.2964 35.8316 11.677 35.9396 12.0872C36.0476 12.4974 36.0712 12.9276 36.0086 13.3484Z" fill="#282E3D"/>
<path d="M36.3922 11.2837C35.8559 10.9097 35.2358 10.6944 34.5956 10.6599L34.747 10.0039C35.389 10.2737 35.9555 10.7143 36.3922 11.2837Z" fill="#282E3D"/>
<path d="M31.9006 10.4339C32.4349 10.041 33.0808 9.85853 33.7276 9.91764C34.0705 9.95641 34.3997 10.0821 34.6876 10.2841C34.9756 10.4862 35.214 10.7588 35.3829 11.0791L34.8177 11.3695C34.7184 11.101 34.5588 10.8625 34.3529 10.675C34.147 10.4875 33.9011 10.3567 33.6367 10.2941C33.0602 10.1262 32.4469 10.1756 31.9006 10.4339Z" fill="#282E3D"/>
<path d="M36.6547 16.4459C36.9597 15.9315 37.1588 15.3539 37.2388 14.7514C37.3188 14.1489 37.278 13.5351 37.119 12.9507C37.4063 13.5147 37.5523 14.1481 37.5429 14.7897C37.5348 15.445 37.4292 16.0948 37.23 16.7148L36.6547 16.4459Z" fill="#282E3D"/>
<path d="M35.726 16.79C35.785 17.8108 35.6155 18.8318 35.2314 19.7691L34.7065 19.4142C35.2355 18.6371 35.5847 17.738 35.726 16.79Z" fill="#282E3D"/>
<path d="M34.8783 18.231C34.9665 18.6715 34.9672 19.1268 34.8803 19.5677C34.7933 20.0085 34.6207 20.4251 34.3736 20.7906L33.8992 20.3496C34.1945 20.0911 34.4346 19.7683 34.6035 19.403C34.7723 19.0376 34.866 18.638 34.8783 18.231Z" fill="#282E3D"/>
<path d="M29.8011 23.8877C30.4673 23.4503 31.0357 22.863 31.4666 22.167C31.1934 22.9734 30.7595 23.7072 30.1948 24.3179L29.8011 23.8877Z" fill="#282E3D"/>
<path d="M30.2554 22.9736C30.297 23.3514 30.2111 23.7326 30.0131 24.0491C29.8483 24.3331 29.6999 24.6276 29.569 24.931L29.0341 24.5976C29.2555 24.3281 29.4987 24.0798 29.7608 23.8555C30.021 23.6356 30.1969 23.322 30.2554 22.9736Z" fill="#282E3D"/>
<path d="M28.3679 24.5439C28.3256 24.9208 28.3859 25.3026 28.5416 25.6439C28.6973 25.9852 28.9418 26.2716 29.246 26.469L28.8625 26.996C28.5769 26.6664 28.3875 26.2553 28.3174 25.813C28.2014 25.3958 28.2191 24.9492 28.3679 24.5439Z" fill="#282E3D"/>
<path d="M26.2179 23.9526C26.5934 24.9373 27.1186 25.8493 27.7723 26.652L27.2878 27.0715C26.7697 26.1031 26.408 25.0488 26.2179 23.9526Z" fill="#282E3D"/>
<path d="M25.9454 25.1032C25.7897 24.7256 25.6811 24.3279 25.6224 23.9202C25.5739 23.5315 25.4351 23.1618 25.2186 22.8447C25.5169 23.0892 25.7557 23.4064 25.9151 23.7696C26.0608 24.1028 26.2475 24.4138 26.4702 24.6945L25.9454 25.1032Z" fill="#282E3D"/>
<path d="M21.7768 16.5962C21.5932 16.8536 21.4752 17.1573 21.4346 17.4777C21.3939 17.7981 21.4318 18.1243 21.5446 18.4245C21.7925 19.0195 22.1339 19.565 22.554 20.0377L22.0493 20.4248C21.6814 19.8408 21.4115 19.1931 21.2519 18.5105C21.1782 18.1563 21.1782 17.7892 21.2519 17.4351C21.3516 17.1095 21.5331 16.8194 21.7768 16.5962Z" fill="#282E3D"/>
<path d="M22.2613 17.9297C22.2475 18.7139 22.4436 19.4861 22.8266 20.1559C23.2812 20.7863 23.8182 21.344 24.4213 21.8121C24 21.7795 23.5908 21.6466 23.224 21.4233C22.8572 21.1999 22.542 20.8918 22.3017 20.5216C22.0562 20.1342 21.926 19.6769 21.9282 19.2095C21.9234 18.7579 22.0389 18.3141 22.2613 17.9297Z" fill="#282E3D"/>
<path d="M20.5151 12.9507C20.3008 13.715 20.2332 14.5174 20.3165 15.3101C20.3997 16.1028 20.632 16.8695 20.9996 17.5644L20.4242 17.8225C20.1572 17.0285 20.0173 16.1924 20.0104 15.349C20.0026 14.5187 20.1753 13.6979 20.5151 12.9507Z" fill="#282E3D"/>
<path d="M22.8366 11.1865C22.332 11.6382 21.7566 11.778 21.474 12.3588C21.5258 12.0337 21.6582 11.7292 21.8576 11.4769C22.0427 11.2444 22.2146 11.0001 22.3723 10.7456L22.8366 11.1865Z" fill="#282E3D"/>
<path d="M22.665 12.4882C22.4372 12.7047 22.2696 12.9837 22.1805 13.2948C22.1012 13.6483 22.1012 14.0168 22.1805 14.3703C22.0064 14.0407 21.9062 13.6726 21.8878 13.2948C21.8865 12.8786 21.9912 12.4697 22.1906 12.1118L22.665 12.4882Z" fill="#282E3D"/>
<path d="M22.1805 12.6923C22.1849 12.2343 22.3263 11.7897 22.5843 11.4232C22.6977 11.2449 22.8457 11.0945 23.0183 10.9823L23.523 10.6597L23.1293 11.1006C23.0047 11.2374 22.9114 11.403 22.8568 11.5846C22.7303 11.9276 22.7126 12.3053 22.8063 12.66L22.1805 12.6923Z" fill="#282E3D"/>
<path d="M21.6556 7.75599C22.0109 7.81714 22.3411 7.98932 22.6044 8.25071C22.612 7.76427 22.6525 7.27906 22.7256 6.79883C22.2677 6.9613 21.8851 7.30358 21.6556 7.75599V7.75599Z" stroke="#282E3D" stroke-width="1.26851" stroke-miterlimit="10"/>
<path d="M35.827 7.75599C35.4717 7.81714 35.1415 7.98932 34.8782 8.25071C34.8706 7.76427 34.8302 7.27906 34.7571 6.79883C35.217 6.95735 35.6009 7.30073 35.827 7.75599V7.75599Z" stroke="#282E3D" stroke-width="1.26851" stroke-miterlimit="10"/>
<path d="M20.7472 8.35815C20.8231 8.17113 20.9507 8.01325 21.113 7.90562C21.2754 7.79799 21.4647 7.74575 21.6556 7.75589C22.0109 7.81703 22.3411 7.98921 22.6044 8.2506C22.612 7.76417 22.6525 7.27895 22.7256 6.79873C23.9166 -0.837054 33.3641 -0.96611 34.7167 6.55137C34.8188 7.144 34.8728 7.74489 34.8782 8.34739C35.194 7.98932 35.6287 7.77703 36.0894 7.75589C36.2575 7.77783 36.4177 7.8445 36.5553 7.94975C36.6929 8.05499 36.8034 8.19544 36.8767 8.35815C37.0363 8.6484 37.1199 8.97892 37.1189 9.31531C37.1295 9.49438 37.1295 9.67397 37.1189 9.85304C37.0647 10.2935 36.9199 10.7158 36.695 11.0898C36.5142 10.9223 36.3181 10.7746 36.1096 10.6489C35.7035 10.4138 35.2686 10.2401 34.8176 10.1327L34.3735 10.0466L34.2625 9.96058C32.809 8.88512 30.9316 11.036 28.9129 11.6921H28.711C26.6923 11.0038 24.7846 8.85286 23.3312 9.96058L23.2706 10.0251C23.1093 10.0138 22.9474 10.0138 22.7861 10.0251C22.3021 10.0691 21.8332 10.227 21.4134 10.4876C21.2239 10.6054 21.0478 10.7462 20.8885 10.907C20.7129 10.5741 20.5965 10.2095 20.5454 9.83153C20.535 9.65246 20.535 9.47287 20.5454 9.2938C20.5307 8.96808 20.6005 8.64434 20.7472 8.35815Z" fill="#F2C494" stroke="#282E3D" stroke-width="1.26851" stroke-miterlimit="10"/>
<path d="M30.7197 13.8755C30.4886 14.1931 30.1957 14.4537 29.8612 14.6393C29.5267 14.8249 29.1584 14.9313 28.7817 14.9509C28.4031 14.941 28.0316 14.839 27.6957 14.6526C27.3598 14.4662 27.0684 14.2004 26.8438 13.8755C27.4148 14.2988 28.0867 14.5412 28.7817 14.5745C29.4723 14.5176 30.1386 14.2772 30.7197 13.8755Z" fill="#282E3D"/>
<path d="M30.0535 9.32617C30.1758 9.40384 30.2813 9.50819 30.3631 9.63237C30.4448 9.75656 30.501 9.89777 30.5279 10.0467C30.5387 10.3725 30.4423 10.6921 30.2554 10.9501C30.0854 11.1974 29.8644 11.3998 29.6094 11.5416C29.3532 11.7158 29.0634 11.8261 28.7616 11.8643C28.4542 11.8297 28.1578 11.7232 27.8935 11.5524C27.662 11.3961 27.4628 11.1911 27.3081 10.9501C27.1143 10.6996 27.0137 10.3819 27.0255 10.0575C27.0499 9.90752 27.1039 9.76479 27.1839 9.63872C27.264 9.51265 27.3682 9.40612 27.4898 9.32617C27.3137 9.51106 27.2123 9.76187 27.2072 10.0252C27.2234 10.2848 27.3274 10.5294 27.4999 10.7135C27.8339 11.1075 28.288 11.3627 28.7817 11.4341C29.275 11.361 29.7285 11.106 30.0636 10.7135C30.2244 10.5317 30.3207 10.296 30.3361 10.0467C30.3172 9.78567 30.2095 9.54094 30.0333 9.35844L30.0535 9.32617Z" fill="#282E3D"/>
<path d="M29.4983 4.88428C30.2856 4.42183 31.2748 4.88428 32.3346 5.68012C31.2243 3.75504 29.9121 3.35712 29.4377 4.84126L29.4983 4.88428Z" fill="#282E3D" stroke="#282E3D" stroke-width="0.245518" stroke-miterlimit="10"/>
<path d="M25.0571 5.68017C26.1169 4.88433 27.0758 4.42188 27.8934 4.88433H27.9439C27.4796 3.35718 26.1674 3.7551 25.0571 5.68017Z" fill="#282E3D" stroke="#282E3D" stroke-width="0.245518" stroke-miterlimit="10"/>
<path d="M29.5286 7.35791C29.5286 8.43338 31.3656 8.79904 32.3346 7.62678C31.8365 7.81451 31.3067 7.88781 30.7802 7.84187C31.0733 7.80051 31.3478 7.66553 31.5675 7.4547C30.8964 7.66286 30.1796 7.62883 29.5286 7.35791Z" fill="#282E3D" stroke="#282E3D" stroke-width="0.245518" stroke-miterlimit="10"/>
<path d="M25.0975 7.62678C26.1069 8.79903 27.8632 8.48715 27.9035 7.35791C27.2586 7.624 26.5496 7.65799 25.8848 7.4547C26.1045 7.66553 26.379 7.80051 26.6721 7.84187C26.1389 7.89157 25.6018 7.81821 25.0975 7.62678Z" fill="#282E3D" stroke="#282E3D" stroke-width="0.245518" stroke-miterlimit="10"/>
<path d="M36.5739 9.19682C36.5065 9.06917 36.4153 8.95754 36.306 8.86877C36.1966 8.78001 36.0714 8.71597 35.938 8.6806C35.8742 8.65876 35.8058 8.65731 35.7412 8.67642C35.6766 8.69554 35.6187 8.73437 35.5746 8.78815C35.4838 8.89569 35.4333 9.13229 35.5141 9.18607C35.5948 9.23984 35.726 9.18607 35.9279 9.30437C36.1195 9.37906 36.2827 9.51891 36.3922 9.70229C36.4362 9.80148 36.4591 9.90983 36.4591 10.0195C36.4591 10.1293 36.4362 10.2376 36.3922 10.3368C36.3545 10.4337 36.2937 10.5184 36.2158 10.5825C36.1379 10.6467 36.0456 10.688 35.9481 10.7025C36.047 10.6074 36.109 10.4765 36.1221 10.3352C36.1351 10.194 36.0983 10.0527 36.0188 9.93889C35.9463 9.82435 35.8537 9.72576 35.7462 9.64852L35.5444 9.55172C35.4615 9.47695 35.4046 9.37469 35.3829 9.26135C35.3122 8.98173 35.4535 8.85267 35.5141 8.66984C35.5645 8.57565 35.6343 8.49481 35.7182 8.43336C35.8021 8.37191 35.8979 8.33143 35.9986 8.31494C36.0977 8.31481 36.1957 8.33791 36.2855 8.38259C36.3753 8.42728 36.4548 8.49246 36.5184 8.57352C36.582 8.65459 36.628 8.74955 36.6533 8.85169C36.6786 8.95382 36.6825 9.06063 36.6647 9.16456L36.5739 9.19682Z" fill="#282E3D"/>
<path d="M20.9996 9.19708C20.9806 9.09955 20.9815 8.99884 21.002 8.90169C21.0226 8.80454 21.0624 8.71319 21.1188 8.63376C21.1752 8.55433 21.2468 8.48866 21.329 8.44114C21.4111 8.39362 21.5018 8.36535 21.5951 8.35822C21.6924 8.35283 21.7894 8.37484 21.8762 8.42204C21.963 8.46923 22.0366 8.53995 22.0897 8.62708C22.1943 8.78094 22.2666 8.95701 22.3016 9.14331C22.3016 9.40142 22.0392 9.55198 21.9282 9.58425C21.8145 9.64803 21.7093 9.72759 21.6153 9.82085C21.4538 10.0037 21.2418 10.208 21.4235 10.5091C21.3257 10.4815 21.2405 10.4175 21.1831 10.3288C21.1257 10.24 21.1 10.1324 21.1106 10.0252C21.132 9.81878 21.2172 9.62582 21.3528 9.4767C21.4924 9.36525 21.6551 9.29145 21.8272 9.26161C21.9988 9.26161 22.0897 9.26161 22.13 9.13255C22.1381 9.06061 22.1295 8.98766 22.1048 8.92013C22.0802 8.8526 22.0403 8.79258 21.9887 8.74539C21.9344 8.71432 21.8737 8.69806 21.8121 8.69806C21.7504 8.69806 21.6898 8.71432 21.6355 8.74539C21.3789 8.82209 21.1612 9.00379 21.0298 9.25085L20.9996 9.19708Z" fill="#282E3D"/>
<path d="M1.36768 29.1576C1.36768 30.2211 1.66366 31.2608 2.21821 32.1451C2.77276 33.0294 3.56095 33.7186 4.48313 34.1256C5.4053 34.5326 6.42004 34.6391 7.39902 34.4316C8.378 34.2241 9.27724 33.712 9.98305 32.9599C10.6888 32.2079 11.1695 31.2497 11.3642 30.2067C11.559 29.1636 11.459 28.0824 11.077 27.0998C10.6951 26.1172 10.0482 25.2774 9.21828 24.6865C8.38834 24.0956 7.4126 23.7803 6.41444 23.7803C5.07596 23.7803 3.79229 24.3468 2.84584 25.3553C1.89939 26.3637 1.36768 27.7314 1.36768 29.1576Z" fill="#933FA1"/>
<path d="M1.36768 29.1576C1.36768 30.2211 1.66366 31.2608 2.21821 32.1451C2.77276 33.0294 3.56095 33.7186 4.48313 34.1256C5.4053 34.5326 6.42004 34.6391 7.39902 34.4316C8.37799 34.2241 9.27724 33.712 9.98305 32.9599C10.6888 32.2079 11.1695 31.2497 11.3642 30.2067C11.559 29.1636 11.459 28.0824 11.077 27.0998C10.6951 26.1172 10.0482 25.2774 9.21828 24.6865C8.38834 24.0956 7.4126 23.7803 6.41444 23.7803C5.07596 23.7803 3.79229 24.3468 2.84584 25.3553C1.89939 26.3637 1.36768 27.7314 1.36768 29.1576V29.1576Z" stroke="#282E3D" stroke-width="1.24805" stroke-miterlimit="10"/>
<path d="M6.81814 26.9958C7.06365 27.0092 7.29925 27.1032 7.49261 27.265C7.68598 27.4267 7.82763 27.6483 7.89814 27.8992C7.93804 28.0474 7.96839 28.1983 7.98899 28.3509L6.97964 28.4262C6.97457 28.346 6.9545 28.2678 6.92062 28.196C6.88675 28.1243 6.83974 28.0604 6.78237 28.0083C6.72499 27.9562 6.65842 27.9169 6.58656 27.8926C6.5147 27.8683 6.439 27.8596 6.36393 27.8669C6.15197 27.8669 5.94 27.9637 5.94 28.1788C5.94 28.3939 6.09141 28.4584 6.68692 28.7165L7.14113 28.8994C7.41741 28.9543 7.66718 29.1098 7.84764 29.3394C8.02811 29.5689 8.12803 29.8582 8.13029 30.1577C8.13029 30.9105 7.58525 31.3514 6.85851 31.4375V32.0827H6.11159V31.4375C5.93277 31.4443 5.75463 31.4106 5.58899 31.3384C5.42335 31.2663 5.274 31.1575 5.15086 31.0192C5.02772 30.8808 4.9336 30.7162 4.87475 30.5361C4.8159 30.3561 4.79367 30.1647 4.80953 29.9748L5.81888 29.9103C5.81888 30.3405 6.03085 30.5663 6.45477 30.5663C6.69702 30.5663 6.96954 30.5018 6.96954 30.2007C6.96954 29.8996 6.78786 29.8996 6.50524 29.7705L6.11159 29.5877C5.53626 29.3941 4.98112 29.0607 4.98112 28.2971C4.98489 27.9696 5.10259 27.6552 5.31143 27.4148C5.52026 27.1744 5.80539 27.0251 6.11159 26.9958V26.4043H6.81814V26.9958Z" fill="white"/>
<defs>
<radialGradient id="paint0_radial" cx="0" cy="0" r="1" gradientUnits="userSpaceOnUse" gradientTransform="translate(28.6157 53.4742) rotate(90) scale(15.9671 14.3993)">
<stop offset="0.15" stop-color="#0A0100"/>
<stop offset="0.36" stop-color="#070100" stop-opacity="0.66"/>
<stop offset="1" stop-opacity="0"/>
</radialGradient>
</defs>
</svg>
