<svg width="329" height="329" viewBox="0 0 329 329" fill="none" xmlns="http://www.w3.org/2000/svg">
<path d="M123.059 27.0505H85.6783C84.6789 27.0505 83.8688 27.8606 83.8688 28.86V66.241C83.8688 67.2403 84.6789 68.0505 85.6783 68.0505H123.059C124.059 68.0505 124.869 67.2403 124.869 66.241V28.86C124.869 27.8606 124.059 27.0505 123.059 27.0505Z" fill="#F0F0F0"/>
<path d="M116.348 37.1705H116.302C114.913 37.1705 113.788 37.2561 113.788 37.3679C114.523 37.5511 115.283 37.6177 116.038 37.5653C115.913 37.6969 115.729 37.8878 115.499 38.1444L113.525 40.3816L106.945 47.9354L104.175 46.0601C103.681 45.7377 103.194 45.4021 102.74 45.106L102.589 45.0139L102.477 45.1455C99.549 48.5671 96.9564 51.6268 95.1074 53.8377L92.9426 56.4697C92.6637 56.7757 92.4126 57.106 92.1925 57.4567C92.4999 57.1878 92.7879 56.8975 93.0545 56.5881L95.3114 54.0482C97.1867 51.9097 99.7727 48.929 102.661 45.5666L103.977 46.4286L106.892 48.3631L107.037 48.4618L107.149 48.3302L113.729 40.5592L115.63 38.2497C115.881 37.947 116.052 37.7233 116.157 37.5917H116.19C116.134 38.3537 116.198 39.1197 116.381 39.8618C116.492 39.8618 116.578 38.7629 116.585 37.3943V37.1969L116.348 37.1705Z" fill="#E0E0E0"/>
<path d="M220.226 54.4166H240.282C240.282 58.364 239.118 62.2237 236.934 65.5121C234.751 68.8006 231.645 71.3716 228.007 72.903C224.369 74.4344 220.359 74.8582 216.481 74.1212C212.603 73.3841 209.029 71.5191 206.206 68.7597C203.384 66.0004 201.438 62.4694 200.613 58.6092C199.788 54.7489 200.121 50.7311 201.569 47.059C203.018 43.3869 205.517 40.2239 208.755 37.9663C211.993 35.7086 215.826 34.4567 219.772 34.3673L220.226 54.4166Z" fill="#F0F0F0"/>
<path d="M225.628 49.5277L225.181 29.4719C230.538 29.4696 235.697 31.4989 239.617 35.1504C243.37 38.887 245.54 43.9247 245.678 49.2184L225.628 49.5277Z" fill="#538BFA"/>
<path d="M228.392 136.976C228.28 140.661 228.491 151.899 228.491 151.899L231.781 148.609H250.303C250.615 148.608 250.912 148.483 251.132 148.262C251.351 148.041 251.475 147.743 251.475 147.432V137.035C251.475 136.725 251.351 136.427 251.132 136.207C250.912 135.987 250.614 135.864 250.303 135.864H229.57C229.268 135.862 228.977 135.976 228.758 136.183C228.538 136.391 228.407 136.675 228.392 136.976Z" fill="#538BFA"/>
<path d="M237.854 142.233C237.853 142.405 237.801 142.572 237.704 142.714C237.608 142.856 237.472 142.966 237.313 143.031C237.154 143.096 236.98 143.112 236.812 143.078C236.644 143.044 236.49 142.96 236.369 142.839C236.248 142.717 236.166 142.562 236.133 142.394C236.1 142.225 236.118 142.051 236.184 141.893C236.25 141.735 236.361 141.599 236.504 141.504C236.646 141.409 236.814 141.358 236.985 141.358C237.1 141.358 237.213 141.381 237.319 141.425C237.425 141.469 237.521 141.534 237.602 141.615C237.683 141.696 237.746 141.793 237.79 141.899C237.833 142.005 237.855 142.119 237.854 142.233Z" fill="#E0E0E0"/>
<path d="M240.789 142.233C240.789 142.407 240.737 142.576 240.641 142.72C240.544 142.864 240.407 142.976 240.247 143.042C240.087 143.108 239.91 143.125 239.74 143.091C239.57 143.057 239.415 142.973 239.292 142.85C239.17 142.727 239.087 142.57 239.054 142.4C239.021 142.23 239.04 142.054 239.107 141.894C239.174 141.734 239.287 141.598 239.432 141.502C239.577 141.407 239.747 141.357 239.92 141.358C240.035 141.358 240.148 141.381 240.254 141.425C240.36 141.469 240.456 141.534 240.537 141.615C240.617 141.696 240.681 141.793 240.724 141.899C240.768 142.005 240.79 142.119 240.789 142.233Z" fill="#E0E0E0"/>
<path d="M243.723 142.233C243.723 142.406 243.672 142.576 243.576 142.719C243.48 142.863 243.343 142.976 243.183 143.042C243.023 143.108 242.847 143.125 242.677 143.092C242.508 143.058 242.352 142.974 242.229 142.852C242.107 142.73 242.024 142.574 241.99 142.404C241.956 142.234 241.973 142.058 242.04 141.898C242.106 141.738 242.218 141.602 242.362 141.506C242.506 141.409 242.675 141.358 242.848 141.358C243.08 141.358 243.303 141.45 243.467 141.614C243.631 141.779 243.723 142.001 243.723 142.233Z" fill="#E0E0E0"/>
<path d="M77.5652 195.459C78.0587 189.057 82.77 179.147 88.5604 176.377C91.478 175.005 94.6989 174.406 97.9146 174.637C101.13 174.867 104.233 175.919 106.925 177.693C110.551 180.141 113.301 183.872 117.269 185.714C125.119 189.359 134.436 184.194 139.917 177.496C145.398 170.797 148.833 162.493 155.051 156.439C158.043 153.527 161.587 151.243 165.474 149.719C169.362 148.196 173.514 147.465 177.688 147.569C181.862 147.673 185.973 148.611 189.78 150.326C193.586 152.041 197.012 154.5 199.854 157.558C204.072 162.098 206.836 167.764 210.225 172.949C213.613 178.134 217.963 183.128 223.852 185.069C231.939 187.734 241.065 183.819 246.79 177.509C252.514 171.198 255.488 162.914 257.976 154.768C260.463 146.622 262.641 138.219 267.188 131.021C271.734 123.822 279.242 117.861 287.757 117.644V195.222L77.5652 195.459Z" fill="#F0F0F0"/>
<path d="M301.7 292.876C301.7 292.968 240.269 293.047 164.507 293.047C88.7445 293.047 27.3005 292.968 27.3005 292.876C27.3005 292.784 88.7182 292.705 164.507 292.705C240.295 292.705 301.7 292.81 301.7 292.876Z" fill="#263238"/>
<path d="M249.612 127.395C249.746 127.378 249.878 127.352 250.007 127.316C250.191 127.252 250.358 127.148 250.497 127.012C250.636 126.875 250.743 126.709 250.81 126.527C250.89 126.247 250.914 125.954 250.882 125.665C250.882 125.342 250.882 125.007 250.882 124.605C250.882 123.835 250.882 122.954 250.882 121.973C250.882 117.979 250.849 112.215 250.823 105.109C250.823 101.542 250.823 97.647 250.823 93.4621C250.823 91.3631 250.823 89.1983 250.823 86.9677C250.823 85.8557 250.823 84.7239 250.823 83.579C250.823 83.0197 250.823 82.4012 250.823 81.8748C250.78 81.6183 250.651 81.3841 250.457 81.2107C250.264 81.0373 250.017 80.935 249.757 80.9207H219.068C218.77 80.9205 218.484 81.0366 218.27 81.2443C218.056 81.4519 217.932 81.7348 217.923 82.0327C217.923 82.6907 217.923 83.3487 217.923 84.0462V95.8573C217.923 100.983 217.923 105.925 217.923 110.636C217.923 115.347 217.923 119.848 217.923 124V125.559C217.903 125.807 217.903 126.055 217.923 126.303C217.961 126.527 218.067 126.733 218.226 126.895C218.382 127.061 218.583 127.177 218.805 127.231C219.04 127.266 219.278 127.277 219.515 127.264H226.576L243.44 127.323L248.046 127.356H249.237H249.645C249.645 127.356 249.507 127.356 249.237 127.356H248.046L243.44 127.389L226.576 127.441H220.989H219.515C219.256 127.457 218.996 127.443 218.739 127.402C218.466 127.34 218.219 127.198 218.028 126.994C217.831 126.792 217.698 126.535 217.647 126.257C217.628 125.994 217.628 125.73 217.647 125.467V123.908C217.647 119.723 217.647 115.249 217.647 110.544C217.647 105.839 217.647 100.891 217.647 95.7651C217.647 93.2077 217.647 90.602 217.647 87.9481V83.954C217.647 83.296 217.647 82.6381 217.647 81.9274C217.659 81.5411 217.821 81.1745 218.098 80.9055C218.376 80.6365 218.747 80.4862 219.134 80.4864H249.777C250.106 80.5071 250.419 80.6388 250.664 80.8598C250.909 81.0808 251.071 81.3783 251.126 81.7037C251.172 82.3617 251.126 82.8749 251.126 83.4605V86.8493C251.126 89.0799 251.126 91.2447 251.126 93.3437C251.126 97.5286 251.126 101.424 251.126 104.99C251.126 112.097 251.086 117.861 251.073 121.855C251.073 122.848 251.073 123.73 251.073 124.487C251.073 124.868 251.073 125.224 251.073 125.546C251.099 125.843 251.067 126.143 250.981 126.428C250.91 126.62 250.794 126.792 250.645 126.931C250.495 127.07 250.315 127.173 250.119 127.231C249.968 127.331 249.793 127.388 249.612 127.395Z" fill="#538BFA"/>
<path d="M236.505 89.9551C232.031 88.9615 227.115 91.3895 225.859 96.0021C224.648 100.43 227.576 105.602 232.017 106.806C234.208 107.331 236.515 107.035 238.502 105.975C240.49 104.914 242.019 103.161 242.802 101.049C244.394 96.318 241.361 91.2185 236.781 89.7116C236.255 89.534 236.044 90.3697 236.558 90.5407C240.46 91.9686 243.263 96.1798 242.091 100.411C240.986 104.425 236.281 107.109 232.268 106.043C228.405 105.017 225.911 100.871 226.405 97.0089C227.004 92.2778 232.011 89.4485 236.466 90.2183C236.63 90.2183 236.702 90.0012 236.538 89.9683L236.505 89.9551Z" fill="#538BFA"/>
<path d="M232.057 106.668C234.325 107.338 236.766 107.093 238.857 105.987C240.947 104.88 242.521 102.999 243.243 100.746C244.638 95.9429 241.526 90.7447 236.847 89.3168C235.768 88.9878 235.38 90.5802 236.387 90.975C240.335 92.5279 242.967 96.8246 241.414 101.042C240.019 104.793 235.913 106.602 232.103 106.175C231.8 106.135 231.761 106.609 232.037 106.688L232.057 106.668Z" fill="#538BFA"/>
<path d="M243.46 114.538C243.46 114.63 239.394 114.709 234.367 114.709C229.339 114.709 225.273 114.63 225.273 114.538C225.273 114.446 229.346 114.367 234.367 114.367C239.387 114.367 243.46 114.446 243.46 114.538Z" fill="#933FA1"/>
<path d="M243.46 117.295C243.46 117.394 239.394 117.466 234.367 117.466C229.339 117.466 225.273 117.394 225.273 117.295C225.273 117.196 229.346 117.124 234.367 117.124C239.387 117.124 243.46 117.203 243.46 117.295Z" fill="#933FA1"/>
<path d="M119.493 52.1135V112.952C119.495 113.601 119.753 114.222 120.212 114.681C120.67 115.14 121.292 115.398 121.941 115.4H202.98C203.628 115.398 204.25 115.14 204.709 114.681C205.167 114.222 205.426 113.601 205.428 112.952V50.0079C205.428 49.6809 205.362 49.3571 205.235 49.0557C205.108 48.7544 204.922 48.4816 204.688 48.2534C204.453 48.0252 204.176 47.8463 203.871 47.7272C203.566 47.6082 203.241 47.5514 202.914 47.5601L121.875 49.6658C121.238 49.6845 120.633 49.9505 120.188 50.4073C119.744 50.8642 119.494 51.4761 119.493 52.1135Z" fill="#E0E0E0"/>
<path d="M198.19 62.7599C198.19 62.8257 197.157 62.24 195.196 61.6215C192.416 60.7546 189.475 60.5296 186.596 60.9635C184.628 61.2749 182.722 61.8967 180.95 62.8059C178.926 63.8939 177.053 65.241 175.377 66.8131C173.548 68.4318 171.731 70.2611 169.639 71.9521C167.505 73.772 165.009 75.1177 162.315 75.9001C160.92 76.2605 159.467 76.3476 158.038 76.1567C156.668 75.95 155.337 75.5374 154.09 74.9329C151.808 73.7417 149.593 72.4236 147.458 70.9849C145.544 69.7154 143.435 68.7706 141.213 68.1884C139.277 67.7185 137.277 67.5652 135.291 67.7343C132.394 67.9755 129.589 68.8758 127.093 70.3663C125.336 71.4455 124.507 72.2482 124.461 72.1956C124.638 71.9806 124.836 71.7844 125.053 71.61C125.649 71.0746 126.287 70.5883 126.961 70.1558C129.069 68.7947 131.429 67.8708 133.901 67.439C136.373 67.0073 138.907 67.0764 141.352 67.6422C143.635 68.2122 145.806 69.162 147.774 70.4519C149.896 71.8622 152.093 73.1582 154.354 74.3341C156.766 75.5632 159.539 75.8876 162.171 75.2487C164.776 74.4814 167.191 73.1744 169.257 71.4126C171.323 69.761 173.146 67.9383 175.002 66.3196C176.726 64.7292 178.65 63.3709 180.726 62.2795C182.556 61.3929 184.515 60.8042 186.53 60.5358C189.469 60.1249 192.463 60.4157 195.268 61.3846C196.026 61.6428 196.763 61.9596 197.472 62.3322C197.726 62.4496 197.966 62.5929 198.19 62.7599Z" fill="#538BFA"/>
<path d="M146.563 77.0517H138.634V98.4893H146.563V77.0517Z" fill="#538BFA"/>
<path d="M180.2 77.0517H172.271V98.4893H180.2V77.0517Z" fill="#538BFA"/>
<path d="M191.406 64.4642H183.477V98.4893H191.406V64.4642Z" fill="#538BFA"/>
<path d="M136.305 91.7383H128.376V98.95H136.305V91.7383Z" fill="#538BFA"/>
<path d="M157.775 86.7309H149.846V98.4894H157.775V86.7309Z" fill="#538BFA"/>
<path d="M168.988 84.0333H161.059V98.4896H168.988V84.0333Z" fill="#538BFA"/>
<path d="M146.879 101.016C146.879 101.194 144.964 101.332 142.595 101.332C140.226 101.332 138.312 101.194 138.312 101.016C138.312 100.838 140.233 100.7 142.595 100.7C144.957 100.7 146.879 100.838 146.879 101.016Z" fill="#538BFA"/>
<path d="M137.015 101.016C137.015 101.194 135.094 101.332 132.732 101.332C130.37 101.332 128.448 101.194 128.448 101.016C128.448 100.838 130.37 100.7 132.732 100.7C135.094 100.7 137.015 100.838 137.015 101.016Z" fill="#538BFA"/>
<path d="M192.972 101.016C192.972 101.194 190.8 101.332 188.129 101.332C185.457 101.332 183.286 101.194 183.286 101.016C183.286 100.838 185.451 100.7 188.129 100.7C190.807 100.7 192.972 100.838 192.972 101.016Z" fill="#538BFA"/>
<path d="M176.351 101.332C179.025 101.332 181.194 101.191 181.194 101.016C181.194 100.842 179.025 100.7 176.351 100.7C173.676 100.7 171.508 100.842 171.508 101.016C171.508 101.191 173.676 101.332 176.351 101.332Z" fill="#538BFA"/>
<path d="M168.981 101.016C168.981 101.194 167.066 101.332 164.697 101.332C162.329 101.332 160.42 101.194 160.42 101.016C160.42 100.838 162.335 100.7 164.697 100.7C167.06 100.7 168.981 100.838 168.981 101.016Z" fill="#538BFA"/>
<path d="M157.4 101.016C157.4 101.194 155.479 101.332 153.117 101.332C150.754 101.332 148.833 101.194 148.833 101.016C148.833 100.838 150.748 100.7 153.117 100.7C155.485 100.7 157.4 100.838 157.4 101.016Z" fill="#538BFA"/>
<path d="M183.24 127.738H183.371C183.507 127.749 183.639 127.787 183.76 127.849C183.962 127.953 184.127 128.116 184.233 128.317C184.361 128.601 184.409 128.915 184.372 129.225C184.372 130.62 184.372 132.666 184.405 135.291C184.437 137.917 184.405 141.154 184.437 144.898C184.437 146.776 184.437 148.776 184.437 150.899V153.314C184.475 153.613 184.42 153.916 184.28 154.183C184.124 154.458 183.866 154.661 183.562 154.748C183.269 154.801 182.971 154.819 182.674 154.801H180.95L181.068 154.683C181.068 156.578 181.068 158.631 181.068 160.749V161.098L180.838 160.835L175.462 154.775L175.568 154.821H120.151H116.275C116.058 154.821 115.867 154.821 115.617 154.821C115.377 154.791 115.149 154.695 114.959 154.544C114.769 154.386 114.626 154.179 114.545 153.946C114.508 153.826 114.489 153.702 114.485 153.577V139.562C114.485 136.305 114.485 133.1 114.485 129.968V128.784C114.493 128.563 114.558 128.349 114.673 128.161C114.788 127.973 114.95 127.818 115.143 127.711C115.348 127.612 115.574 127.564 115.801 127.573H122.079L153.906 127.613L175.357 127.665L181.194 127.698H182.707H183.227H182.707H181.194H175.357L153.906 127.751L122.079 127.79H115.808C115.64 127.778 115.471 127.812 115.321 127.889C115.173 127.965 115.048 128.078 114.958 128.218C114.868 128.358 114.816 128.519 114.808 128.685V139.562C114.808 142.821 114.808 146.135 114.808 149.504V153.314C114.791 153.51 114.807 153.708 114.854 153.9C114.907 154.071 115.01 154.222 115.15 154.334C115.291 154.448 115.463 154.519 115.644 154.538H120.144H175.561H175.627L175.666 154.584L181.029 160.664L180.799 160.749C180.799 158.624 180.799 156.578 180.799 154.683V154.558H182.667C182.942 154.578 183.218 154.566 183.49 154.525C183.734 154.452 183.941 154.29 184.069 154.071C184.201 153.841 184.26 153.578 184.24 153.314C184.24 153.038 184.24 152.761 184.24 152.492V150.873C184.24 148.747 184.24 146.747 184.24 144.872C184.24 141.128 184.24 137.904 184.24 135.265C184.24 132.626 184.24 130.593 184.24 129.198C184.283 128.9 184.244 128.595 184.128 128.317C184.03 128.123 183.876 127.963 183.687 127.856C183.546 127.792 183.395 127.752 183.24 127.738Z" fill="#538BFA"/>
<path d="M118.17 149.938C118.723 148.01 119.368 146.043 120.651 144.503C121.934 142.964 124.02 141.931 125.961 142.431C129.034 143.22 130.514 147.313 133.653 147.695C135.39 147.931 137.081 146.892 138.2 145.543C139.318 144.194 140.009 142.556 140.865 141.029C142.181 138.733 143.911 136.607 146.273 135.456C148.636 134.304 151.676 134.298 153.742 135.923C157.282 138.713 156.788 144.872 160.559 147.333C161.475 147.909 162.543 148.2 163.626 148.169C164.708 148.137 165.757 147.784 166.638 147.155C168.316 145.911 169.172 143.766 170.935 142.654C172.975 141.338 175.804 141.871 177.653 143.424C179.502 144.977 180.463 147.372 180.812 149.754" fill="#538BFA"/>
<path d="M179.542 138.871C179.489 138.859 179.438 138.839 179.391 138.811L178.956 138.607C178.389 138.366 177.804 138.168 177.206 138.015C174.986 137.539 172.683 137.606 170.494 138.213C168.985 138.622 167.516 139.168 166.106 139.844C164.572 140.555 162.987 141.424 161.296 142.299C159.533 143.252 157.698 144.066 155.808 144.733C153.764 145.457 151.595 145.759 149.432 145.622C147.28 145.418 145.171 144.886 143.181 144.043C141.24 143.266 139.457 142.351 137.759 141.496C134.377 139.759 131.179 138.371 128.363 137.949C126.129 137.542 123.828 137.71 121.677 138.436C120.898 138.729 120.149 139.097 119.44 139.535C119.479 139.495 119.524 139.459 119.572 139.43L119.967 139.147C120.489 138.812 121.045 138.532 121.625 138.311C123.793 137.524 126.129 137.316 128.402 137.706C131.291 138.107 134.502 139.489 137.897 141.213C139.601 142.062 141.384 142.97 143.306 143.733C145.266 144.559 147.341 145.081 149.458 145.28C151.577 145.415 153.701 145.12 155.703 144.411C157.576 143.758 159.396 142.96 161.144 142.022C162.842 141.147 164.434 140.292 165.987 139.588C167.417 138.914 168.906 138.374 170.435 137.976C172.66 137.379 175 137.349 177.239 137.89C178.056 138.087 178.834 138.418 179.542 138.871Z" fill="#538BFA"/>
<path d="M150.182 134.673C150.188 134.811 150.154 134.947 150.082 135.065C150.01 135.183 149.904 135.277 149.779 135.334C149.653 135.392 149.514 135.41 149.378 135.387C149.241 135.364 149.115 135.301 149.015 135.206C148.915 135.111 148.846 134.988 148.817 134.853C148.787 134.718 148.799 134.578 148.85 134.45C148.901 134.321 148.99 134.211 149.104 134.134C149.218 134.057 149.353 134.015 149.491 134.015C149.668 134.016 149.838 134.085 149.967 134.207C150.095 134.329 150.172 134.496 150.182 134.673Z" fill="#538BFA"/>
<path d="M125.389 137.601C125.389 137.738 125.348 137.871 125.272 137.985C125.196 138.098 125.088 138.187 124.962 138.239C124.836 138.291 124.697 138.305 124.563 138.279C124.429 138.252 124.306 138.186 124.209 138.089C124.113 137.993 124.047 137.87 124.02 137.736C123.993 137.602 124.007 137.463 124.059 137.336C124.112 137.21 124.2 137.102 124.314 137.026C124.427 136.951 124.561 136.91 124.698 136.91C124.79 136.905 124.882 136.92 124.968 136.953C125.054 136.986 125.132 137.037 125.197 137.102C125.262 137.167 125.313 137.245 125.346 137.331C125.379 137.417 125.393 137.509 125.389 137.601Z" fill="#538BFA"/>
<path d="M174.725 137.607C174.725 137.745 174.685 137.88 174.608 137.995C174.531 138.11 174.422 138.199 174.295 138.252C174.167 138.305 174.027 138.318 173.892 138.291C173.757 138.265 173.632 138.198 173.535 138.101C173.437 138.003 173.371 137.879 173.344 137.743C173.317 137.608 173.331 137.468 173.384 137.34C173.436 137.213 173.526 137.104 173.641 137.027C173.755 136.951 173.89 136.91 174.028 136.91C174.213 136.91 174.39 136.983 174.521 137.114C174.652 137.245 174.725 137.422 174.725 137.607Z" fill="#538BFA"/>
<path d="M221.457 235.176H227.622C230.498 235.176 236.663 227.615 203.21 228.477C181.22 229.043 179.772 232.294 180.884 234.189C181.153 234.619 181.536 234.967 181.99 235.193C182.444 235.42 182.952 235.516 183.457 235.472C183.997 235.432 184.707 235.426 185.55 235.432L185.023 237.749L172.784 291.849L174.916 291.665L183.957 261.884L201.203 261.226L202.19 292.889H204.895L205.553 261.061H205.638L207.461 260.996L222.746 260.403L231.807 292.896H234.399L221.457 235.176ZM185.267 257.64L191.3 237.749L191.958 235.498C194.485 235.498 197.44 235.439 200.401 235.439L201.059 257.153L185.267 257.64ZM208.007 256.929H207.349L205.671 256.982L206.119 235.156H215.752L221.674 256.482L208.007 256.929Z" fill="#455A64"/>
<path d="M166.349 289.158V282.164L178.884 282.085L178.983 292.54L178.206 292.599C174.752 292.823 160.618 293.257 158.302 292.534C155.722 291.737 166.349 289.158 166.349 289.158Z" fill="#933FA1"/>
<path d="M158.006 291.896C158.006 292.014 162.691 292.113 168.474 292.113C174.258 292.113 178.943 292.014 178.943 291.896C178.943 291.777 174.258 291.685 168.474 291.685C162.691 291.685 158.006 291.777 158.006 291.896Z" fill="#263238"/>
<path d="M166.132 290.586C166.237 290.533 166.132 290.165 165.875 289.796C165.619 289.428 165.283 289.237 165.217 289.322C165.152 289.408 165.303 289.711 165.553 290.053C165.803 290.395 166.027 290.645 166.132 290.586Z" fill="#263238"/>
<path d="M165.329 291.046C165.441 291.007 165.382 290.592 165.138 290.158C164.895 289.724 164.566 289.454 164.48 289.5C164.395 289.546 164.546 289.934 164.776 290.336C165.007 290.737 165.217 291.092 165.329 291.046Z" fill="#263238"/>
<path d="M175.166 291.849C175.219 291.849 175.403 291.698 175.673 291.389C176.005 290.99 176.373 290.622 176.772 290.29C177.165 289.979 177.632 289.774 178.127 289.698C178.509 289.645 178.785 289.698 178.785 289.645C178.785 289.592 178.575 289.428 178.127 289.395C177.544 289.391 176.977 289.588 176.522 289.954C176.084 290.304 175.716 290.732 175.436 291.217C175.219 291.573 175.12 291.816 175.166 291.849Z" fill="#263238"/>
<path d="M166.092 289.27C166.033 289.369 166.244 289.612 166.606 289.744C166.968 289.875 167.264 289.829 167.303 289.744C167.343 289.658 167.066 289.487 166.75 289.369C166.435 289.25 166.152 289.171 166.092 289.27Z" fill="#263238"/>
<path d="M166.29 288.599C166.29 288.711 166.612 288.816 167.033 288.816C167.454 288.816 167.797 288.73 167.79 288.619C167.783 288.507 167.448 288.401 167.04 288.395C166.632 288.388 166.303 288.48 166.29 288.599Z" fill="#263238"/>
<path d="M192.794 289.158V282.164L205.329 282.085L205.428 292.54L204.651 292.599C201.197 292.823 187.063 293.257 184.747 292.534C182.174 291.737 192.794 289.158 192.794 289.158Z" fill="#933FA1"/>
<path d="M184.457 291.896C184.457 292.014 189.149 292.113 194.926 292.113C200.703 292.113 205.395 292.014 205.395 291.896C205.395 291.777 200.71 291.685 194.926 291.685C189.142 291.685 184.457 291.777 184.457 291.896Z" fill="#263238"/>
<path d="M192.584 290.586C192.689 290.533 192.584 290.165 192.327 289.796C192.07 289.428 191.735 289.237 191.669 289.322C191.603 289.408 191.761 289.711 192.005 290.053C192.248 290.395 192.478 290.645 192.584 290.586Z" fill="#263238"/>
<path d="M191.781 291.046C191.893 291.007 191.833 290.592 191.59 290.158C191.346 289.724 191.018 289.454 190.932 289.5C190.846 289.546 190.998 289.934 191.228 290.336C191.458 290.737 191.675 291.092 191.781 291.046Z" fill="#263238"/>
<path d="M201.618 291.849C201.67 291.849 201.855 291.698 202.124 291.389C202.457 290.99 202.825 290.622 203.223 290.29C203.616 289.979 204.083 289.774 204.579 289.698C204.96 289.645 205.237 289.698 205.237 289.645C205.237 289.592 205.02 289.428 204.579 289.395C203.995 289.391 203.428 289.588 202.973 289.954C202.536 290.304 202.168 290.732 201.888 291.217C201.67 291.573 201.572 291.816 201.618 291.849Z" fill="#263238"/>
<path d="M192.544 289.27C192.485 289.369 192.702 289.612 193.057 289.744C193.413 289.875 193.715 289.829 193.755 289.744C193.794 289.658 193.518 289.487 193.202 289.369C192.886 289.25 192.61 289.171 192.544 289.27Z" fill="#263238"/>
<path d="M192.741 288.599C192.741 288.711 193.064 288.816 193.485 288.816C193.906 288.816 194.248 288.73 194.242 288.619C194.235 288.507 193.899 288.401 193.492 288.395C193.084 288.388 192.755 288.48 192.741 288.599Z" fill="#263238"/>
<path d="M228.708 163.697C228.194 163.579 227.556 163.644 227.247 163.217C226.938 162.789 227.161 162.289 227.326 161.835C227.876 160.379 227.893 158.775 227.372 157.308C226.999 156.341 226.34 155.51 225.484 154.926C225.609 154.805 225.718 154.668 225.806 154.518C226.049 154.079 226.171 153.585 226.161 153.083C226.178 152.638 226.1 152.193 225.933 151.78C225.767 151.366 225.515 150.992 225.194 150.682C224.912 150.426 224.545 150.284 224.164 150.284C223.784 150.284 223.417 150.426 223.134 150.682C223.03 150.78 222.947 150.899 222.89 151.031C222.833 151.163 222.803 151.305 222.803 151.448C222.803 151.592 222.833 151.734 222.89 151.866C222.947 151.998 223.03 152.116 223.134 152.215C223.273 152.328 223.44 152.399 223.617 152.421C223.793 152.444 223.973 152.415 224.135 152.34C224.352 152.228 224.385 152.09 224.385 152.09C224.303 152.168 224.21 152.232 224.108 152.281C223.959 152.333 223.798 152.346 223.642 152.317C223.486 152.288 223.341 152.219 223.22 152.116C223.134 152.027 223.067 151.921 223.024 151.805C222.981 151.688 222.963 151.565 222.97 151.441C222.978 151.317 223.011 151.196 223.067 151.086C223.124 150.976 223.203 150.878 223.299 150.8C223.551 150.591 223.872 150.483 224.199 150.497C224.527 150.512 224.837 150.648 225.069 150.879C225.352 151.171 225.572 151.517 225.715 151.898C225.857 152.278 225.92 152.684 225.898 153.09C225.907 153.54 225.793 153.983 225.569 154.373C225.48 154.519 225.372 154.652 225.247 154.768C224.895 154.556 224.514 154.399 224.115 154.301C223.266 154.097 222.345 154.149 221.568 153.748C220.921 153.378 220.428 152.787 220.18 152.083C220.18 152.011 220.18 151.932 220.18 151.853C220.273 150.709 220.429 149.571 220.647 148.445C220.793 147.35 220.764 146.24 220.562 145.155C220.41 144.229 220.048 143.35 219.504 142.586C218.96 141.822 218.248 141.192 217.423 140.746C216.857 140.467 216.236 140.316 215.604 140.305C214.973 140.294 214.347 140.422 213.771 140.68C213.463 140.821 213.179 141.01 212.929 141.239L212.791 141.384C212.402 141.577 212.059 141.851 211.784 142.187L209.757 160.466L224.622 169.553C225.779 169.515 226.923 169.293 228.01 168.895C228.552 168.688 229.039 168.359 229.432 167.931C229.825 167.504 230.113 166.992 230.274 166.434C230.412 165.864 230.326 165.263 230.035 164.754C229.744 164.245 229.269 163.867 228.708 163.697ZM218.95 144.556C218.69 143.834 218.289 143.172 217.771 142.607C217.252 142.042 216.626 141.586 215.929 141.266C214.959 140.886 213.878 140.905 212.922 141.318C213.188 141.114 213.481 140.946 213.791 140.818C214.35 140.592 214.952 140.489 215.555 140.516C216.158 140.543 216.748 140.7 217.285 140.976C218.063 141.417 218.732 142.029 219.24 142.765C219.748 143.501 220.083 144.343 220.22 145.227C220.404 146.275 220.426 147.344 220.285 148.398C220.2 149.221 219.97 150.05 219.864 150.932C219.783 150.308 219.734 149.679 219.719 149.05C219.716 147.519 219.456 146 218.95 144.556Z" fill="#263238"/>
<path d="M214.548 144.53C214.458 144.179 214.255 143.869 213.969 143.648C213.406 143.394 212.768 143.365 212.185 143.569L212.152 139.371L203.98 132.725L199.578 135.008C198.45 135.595 197.507 136.482 196.852 137.571C196.197 138.66 195.856 139.909 195.867 141.18C195.9 144.563 195.985 149.149 196.209 151.755C196.591 156.229 201.118 156.597 201.118 156.597C201.118 156.597 201.315 158.209 201.447 159.808C201.447 159.808 200.453 173.054 205.112 172.936C208.547 172.85 210.856 165.632 211.83 161.835L212.35 159.749V159.637V159.552L212.251 146.991L212.389 147.135C212.538 147.261 212.719 147.341 212.912 147.364C213.105 147.387 213.301 147.354 213.475 147.267C213.722 147.157 213.945 146.999 214.129 146.801C214.313 146.603 214.456 146.37 214.548 146.115C214.722 145.601 214.722 145.044 214.548 144.53Z" fill="#FFBE9D"/>
<path d="M196.907 144.451C196.907 144.526 196.923 144.601 196.953 144.67C196.983 144.739 197.027 144.802 197.082 144.854C197.136 144.906 197.201 144.946 197.271 144.973C197.342 145 197.417 145.013 197.492 145.01C197.644 145.01 197.79 144.95 197.897 144.842C198.004 144.735 198.065 144.589 198.065 144.438C198.065 144.286 198.004 144.14 197.897 144.033C197.79 143.925 197.644 143.865 197.492 143.865C197.415 143.862 197.337 143.876 197.265 143.904C197.193 143.932 197.127 143.976 197.072 144.03C197.017 144.085 196.974 144.151 196.945 144.223C196.917 144.296 196.904 144.373 196.907 144.451Z" fill="#263238"/>
<path d="M196.334 143.845C196.407 143.918 196.821 143.543 197.44 143.496C198.058 143.45 198.525 143.733 198.591 143.648C198.657 143.562 198.538 143.477 198.334 143.345C198.059 143.17 197.732 143.091 197.407 143.121C197.082 143.15 196.776 143.281 196.532 143.496C196.354 143.661 196.295 143.812 196.334 143.845Z" fill="#263238"/>
<path d="M203.552 144.253C203.552 144.405 203.613 144.551 203.72 144.658C203.827 144.765 203.973 144.826 204.125 144.826C204.277 144.826 204.422 144.765 204.53 144.658C204.637 144.551 204.697 144.405 204.697 144.253C204.697 144.101 204.637 143.956 204.53 143.848C204.422 143.741 204.277 143.681 204.125 143.681C203.973 143.681 203.827 143.741 203.72 143.848C203.613 143.956 203.552 144.101 203.552 144.253Z" fill="#263238"/>
<path d="M203.184 143.641C203.256 143.714 203.671 143.345 204.289 143.292C204.908 143.24 205.375 143.529 205.441 143.45C205.507 143.371 205.388 143.273 205.184 143.141C204.906 142.973 204.582 142.897 204.258 142.924C203.934 142.951 203.627 143.08 203.381 143.292C203.204 143.444 203.144 143.608 203.184 143.641Z" fill="#263238"/>
<path d="M201.072 148.945C200.739 149.014 200.398 149.041 200.058 149.024C199.969 149.036 199.878 149.036 199.789 149.024C199.73 149.012 199.675 148.986 199.628 148.948C199.581 148.91 199.544 148.862 199.519 148.807C199.456 148.59 199.47 148.357 199.558 148.149L199.933 146.833C200.22 145.709 200.591 144.61 201.045 143.543C200.846 144.684 200.56 145.808 200.19 146.905L199.795 148.221C199.721 148.375 199.696 148.547 199.723 148.715C199.756 148.827 199.901 148.846 200.058 148.846C200.399 148.831 200.74 148.865 201.072 148.945Z" fill="#263238"/>
<path d="M203.21 149.445C203.25 149.399 201.427 150.544 200.17 150.577C200.403 150.885 200.733 151.105 201.107 151.202C201.481 151.299 201.877 151.266 202.23 151.11C202.573 151.007 202.865 150.778 203.046 150.469C203.228 150.161 203.287 149.795 203.21 149.445Z" fill="#A35D2B"/>
<path d="M201.091 156.604C203.218 156.464 205.259 155.717 206.974 154.452C206.974 154.452 205.711 157.775 201.216 157.696L201.091 156.604Z" fill="#EB996E"/>
<path d="M195.216 141.72C197.19 141.99 198.604 141.457 200.512 140.976C202.421 140.496 204.237 139.239 204.901 137.384C205.13 138.61 205.695 139.749 206.533 140.674C206.711 140.871 207.053 141.055 207.191 140.838C207.221 140.774 207.236 140.705 207.236 140.634C207.236 140.564 207.221 140.494 207.191 140.43L206.796 138.864C207.472 140.099 208.351 141.211 209.395 142.154C210.488 143.029 213.811 144.385 213.304 143.082C213.179 142.753 214.291 132.607 204.645 132.455C194.998 132.304 195.216 141.72 195.216 141.72Z" fill="#263238"/>
<path d="M212.31 144.608C212.277 144.608 212.475 144.378 212.889 144.391C213.101 144.408 213.303 144.486 213.471 144.615C213.638 144.745 213.765 144.921 213.835 145.121C213.904 145.321 213.914 145.537 213.863 145.743C213.812 145.949 213.703 146.135 213.547 146.28C213.364 146.44 213.133 146.535 212.889 146.55C212.475 146.55 212.284 146.352 212.31 146.326C212.337 146.3 212.547 146.372 212.863 146.326C213.059 146.291 213.237 146.188 213.365 146.035C213.493 145.882 213.563 145.689 213.563 145.49C213.563 145.291 213.493 145.098 213.365 144.945C213.237 144.792 213.059 144.689 212.863 144.655C212.534 144.562 212.33 144.661 212.31 144.608Z" fill="#EB996E"/>
<path d="M228.326 176.127L229.984 175.791C229.984 175.791 226.372 159.552 213.817 159.552H212.337V159.631V159.743L211.817 161.828C210.843 165.625 208.527 172.843 205.099 172.929C200.749 173.041 201.328 161.532 201.42 159.979C201.312 159.992 201.205 160.021 201.105 160.065C201.105 160.065 187.451 160.822 181.365 172.797L191.893 180.489L194.465 178.936C194.465 178.936 195.308 195.873 193.86 200.486C192.228 205.697 189.701 211.468 189.701 211.468C201.276 210.566 214.442 211.086 228.477 212.383L219.114 178.002C222.261 177.835 225.365 177.203 228.326 176.127Z" fill="#933FA1"/>
<path d="M217.061 184.24C217.061 184.24 216.976 184.391 216.765 184.608C216.462 184.907 216.129 185.174 215.771 185.404C214.575 186.184 213.166 186.575 211.738 186.523C210.311 186.471 208.934 185.979 207.797 185.115C207.454 184.861 207.14 184.57 206.862 184.246C206.665 184.016 206.579 183.871 206.599 183.858C206.619 183.845 207.066 184.332 207.915 184.918C209.041 185.693 210.364 186.131 211.73 186.181C213.095 186.231 214.447 185.891 215.627 185.2C216.555 184.687 217.015 184.24 217.061 184.24Z" fill="#263238"/>
<path d="M223.141 193.287C223.02 193.025 222.925 192.752 222.858 192.472C222.674 191.879 222.45 191.156 222.2 190.234C221.634 188.346 220.884 185.734 219.95 182.871C219.015 180.009 218.173 177.417 217.541 175.548C217.252 174.666 217.002 173.923 216.805 173.33C216.696 173.066 216.618 172.79 216.574 172.508C216.717 172.757 216.836 173.019 216.93 173.291C217.14 173.798 217.43 174.541 217.772 175.469C218.463 177.318 219.364 179.891 220.272 182.766C221.18 185.642 221.93 188.26 222.43 190.169C222.68 191.123 222.878 191.899 222.996 192.439C223.077 192.715 223.126 193 223.141 193.287Z" fill="#263238"/>
<path d="M219.068 167.316C218.478 167.303 217.9 167.147 217.384 166.862C216.823 166.681 216.311 166.373 215.89 165.96C216.459 166.072 217.008 166.272 217.515 166.553C218.068 166.727 218.592 166.985 219.068 167.316Z" fill="#263238"/>
<path d="M222.305 172.949C222.344 172.287 222.498 171.636 222.759 171.027C222.916 170.381 223.183 169.767 223.549 169.211C223.502 169.873 223.347 170.522 223.088 171.132C222.932 171.778 222.667 172.392 222.305 172.949Z" fill="#263238"/>
<path d="M211.034 177.002C211.178 176.399 211.416 175.821 211.738 175.291C211.959 174.71 212.265 174.164 212.646 173.672C212.396 174.9 211.842 176.045 211.034 177.002Z" fill="#263238"/>
<path d="M208.994 180.568C208.407 180.262 207.895 179.831 207.494 179.305C207.009 178.852 206.631 178.297 206.388 177.68C207.336 178.576 208.216 179.541 209.02 180.568H208.994Z" fill="#263238"/>
<path d="M217.14 180.029C216.798 180.742 216.319 181.381 215.732 181.91C215.243 182.438 214.698 182.91 214.107 183.319L213.62 183.615L214.001 183.226C214.093 183.134 214.153 183.095 214.172 183.108C214.192 183.121 214.172 183.194 214.12 183.305L214.015 183.213C214.245 182.937 214.83 182.365 215.488 181.674C215.987 181.076 216.54 180.525 217.14 180.029Z" fill="#263238"/>
<path d="M218.91 191.774C218.258 191.664 217.639 191.407 217.101 191.024C216.502 190.737 215.977 190.316 215.567 189.793C216.17 190.038 216.741 190.352 217.272 190.728C217.859 191.007 218.41 191.358 218.91 191.774Z" fill="#263238"/>
<path d="M210.665 189.089C210.442 189.719 210.11 190.305 209.685 190.82C209.351 191.399 208.925 191.92 208.421 192.36C208.641 191.728 208.973 191.142 209.402 190.629C209.735 190.05 210.162 189.53 210.665 189.089Z" fill="#263238"/>
<path d="M205.257 189.622C204.743 189.433 204.275 189.14 203.881 188.76C203.177 188.214 202.657 187.708 202.717 187.635C202.776 187.563 203.375 187.944 204.092 188.491C204.809 189.037 205.296 189.543 205.257 189.622Z" fill="#263238"/>
<path d="M202.328 181.608C202.381 181.687 201.868 182.148 201.177 182.641C200.486 183.135 199.861 183.47 199.861 183.391C199.861 183.312 200.315 182.852 201.006 182.358C201.391 182.021 201.841 181.766 202.328 181.608Z" fill="#263238"/>
<path d="M201.21 177.548C201.137 177.607 200.664 177.107 200.15 176.436C199.637 175.765 199.288 175.166 199.361 175.12C199.433 175.074 199.914 175.567 200.42 176.239C200.927 176.91 201.289 177.495 201.21 177.548Z" fill="#263238"/>
<path d="M212.942 166.757C213.052 166.185 213.275 165.641 213.6 165.158C213.826 164.621 214.152 164.132 214.561 163.717C214.449 164.29 214.226 164.836 213.903 165.322C213.678 165.858 213.352 166.345 212.942 166.757Z" fill="#263238"/>
<path d="M198.282 167.441C197.676 167.263 197.106 166.98 196.597 166.605C196.032 166.322 195.522 165.941 195.09 165.48C195.699 165.65 196.271 165.934 196.775 166.316C197.341 166.597 197.852 166.978 198.282 167.441Z" fill="#263238"/>
<path d="M190.603 165.474C190.688 165.52 190.445 166.086 190.063 166.724C189.682 167.362 189.307 167.856 189.221 167.803C189.136 167.75 189.386 167.198 189.767 166.553C190.149 165.908 190.524 165.428 190.603 165.474Z" fill="#263238"/>
<path d="M198.591 209.902C197.473 209.444 196.454 208.773 195.59 207.928C196.17 208.111 196.71 208.401 197.183 208.783C197.714 209.071 198.191 209.45 198.591 209.902Z" fill="#263238"/>
<path d="M220.581 207.546C220.654 207.612 220.173 208.244 219.509 208.967C218.844 209.691 218.259 210.218 218.193 210.152C218.127 210.086 218.601 209.454 219.265 208.731C219.93 208.007 220.516 207.48 220.581 207.546Z" fill="#263238"/>
<path d="M205.638 210.014C205.612 209.137 205.612 208.259 205.638 207.382C205.724 207.382 205.961 207.941 205.961 208.698C206.012 209.161 205.898 209.627 205.638 210.014Z" fill="#263238"/>
<path d="M213.416 210.139C212.837 209.982 212.292 209.719 211.81 209.362C211.271 209.101 210.787 208.739 210.382 208.296C211.502 208.711 212.531 209.337 213.416 210.139Z" fill="#263238"/>
<path d="M228.491 212.389C228.359 212.404 228.227 212.404 228.096 212.389L226.964 212.297L222.819 211.929C219.318 211.626 214.482 211.192 209.126 211.106C203.77 211.021 198.907 211.139 195.4 211.271L191.241 211.448L190.109 211.494C189.979 211.513 189.846 211.513 189.715 211.494L190.103 211.435L191.235 211.33C192.208 211.244 193.63 211.146 195.387 211.04C198.9 210.843 203.756 210.672 209.132 210.777C214.508 210.882 219.344 211.336 222.845 211.698C224.589 211.889 226.003 212.054 226.977 212.179L228.102 212.33C228.234 212.334 228.364 212.353 228.491 212.389Z" fill="#263238"/>
<g opacity="0.2">
<path opacity="0.2" d="M216.561 172.508L219.851 194.386C219.851 194.386 222.898 194.386 223.457 193.478L216.561 172.508Z" fill="black"/>
<path opacity="0.2" d="M216.561 172.508L219.851 194.386C219.851 194.386 222.898 194.386 223.457 193.478L216.561 172.508Z" fill="black"/>
</g>
<path d="M197.459 211.06C189.715 211.659 185.484 211.126 176.963 211.929C174.083 212.308 171.435 213.706 169.497 215.869C167.558 218.031 166.458 220.817 166.395 223.72L164.901 288.079H180.555L183.029 230.379L187.635 230.965C187.043 252.573 189.3 288.079 189.3 288.079L206.684 287.23L205.691 231.813C205.691 231.813 229.07 233.399 228.484 212.409C228.49 212.389 210.08 210.159 197.459 211.06Z" fill="#263238"/>
<path d="M202.138 210.895C201.747 210.983 201.351 211.049 200.953 211.093C200.19 211.211 199.085 211.376 197.729 211.626C196.139 211.848 194.581 212.261 193.09 212.856C192.23 213.237 191.433 213.747 190.728 214.37C189.977 215.04 189.368 215.855 188.938 216.765C188.152 218.564 187.77 220.513 187.82 222.476C187.82 224.292 187.885 225.944 187.872 227.326C187.859 228.707 187.813 229.826 187.76 230.616C187.76 231.004 187.708 231.306 187.681 231.504C187.677 231.608 187.662 231.712 187.635 231.813C187.607 231.414 187.607 231.014 187.635 230.616C187.635 229.839 187.635 228.727 187.635 227.326C187.635 225.924 187.556 224.286 187.51 222.476C187.441 220.462 187.826 218.459 188.636 216.613C189.087 215.665 189.725 214.817 190.511 214.12C191.243 213.478 192.071 212.954 192.965 212.567C194.486 211.975 196.076 211.577 197.696 211.382C199.058 211.165 200.177 211.034 200.947 210.961C201.328 210.928 201.605 210.902 201.835 210.895C201.935 210.879 202.037 210.879 202.138 210.895Z" fill="#455A64"/>
<path d="M181.648 226.352C181.986 226.985 182.27 227.645 182.496 228.326C182.832 228.969 183.014 229.68 183.029 230.405C182.691 229.772 182.407 229.112 182.181 228.431C181.842 227.79 181.659 227.077 181.648 226.352Z" fill="#455A64"/>
<path d="M182.924 225.036C183.22 225.882 183.373 226.771 183.378 227.668C183.48 228.573 183.363 229.489 183.036 230.339C182.931 230.339 183.108 229.142 183.036 227.707C182.964 226.273 182.806 225.036 182.924 225.036Z" fill="#455A64"/>
<path d="M204.513 226.253C204.912 227.118 205.176 228.039 205.296 228.984C205.515 229.905 205.658 230.842 205.724 231.787C205.327 230.92 205.069 229.997 204.96 229.05C204.733 228.132 204.583 227.196 204.513 226.253Z" fill="#455A64"/>
<path d="M206.079 226.24C206.471 228.085 206.367 230.002 205.776 231.794C205.783 230.865 205.842 229.938 205.954 229.017C205.947 228.09 205.989 227.163 206.079 226.24Z" fill="#455A64"/>
<path d="M180.154 284.302C180.154 284.394 176.726 284.473 172.495 284.473C168.264 284.473 164.836 284.394 164.836 284.302C164.836 284.21 168.264 284.131 172.495 284.131C176.726 284.131 180.154 284.203 180.154 284.302Z" fill="#455A64"/>
<path d="M206.474 284.012C206.474 284.105 202.572 284.184 197.762 284.184C192.952 284.184 189.05 284.105 189.05 284.012C189.05 283.92 192.952 283.841 197.762 283.841C202.572 283.841 206.474 283.92 206.474 284.012Z" fill="#455A64"/>
<path d="M226.411 222.022H226.194H225.536H223.036L213.824 222.068H207.474C206.307 222.064 205.143 222.197 204.006 222.463C202.809 222.736 201.737 223.4 200.96 224.351C200.224 225.414 199.831 226.677 199.835 227.97C199.769 229.286 199.914 230.662 199.966 232.063C200.037 234.862 200.113 237.746 200.197 240.716C200.532 252.56 200.809 263.292 200.907 271.063C200.96 274.945 200.973 278.09 200.973 280.275C200.973 281.345 200.973 282.181 200.973 282.782C200.973 283.052 200.973 283.262 200.973 283.44C200.983 283.514 200.983 283.589 200.973 283.663C200.964 283.589 200.964 283.514 200.973 283.44C200.973 283.275 200.973 283.065 200.973 282.782C200.973 282.183 200.973 281.347 200.927 280.275C200.881 278.084 200.822 274.945 200.749 271.063C200.585 263.298 200.276 252.566 199.94 240.716C199.861 237.755 199.789 234.866 199.716 232.07C199.664 230.681 199.525 229.306 199.598 227.944C199.597 226.588 200.015 225.264 200.795 224.154C201.616 223.154 202.749 222.458 204.013 222.18C205.176 221.912 206.366 221.78 207.56 221.785H213.909L223.121 221.851L225.622 221.891H226.28C226.328 221.93 226.372 221.974 226.411 222.022Z" fill="#455A64"/>
<path opacity="0.2" d="M185.786 230.708C185.786 230.708 185.181 222.911 188.109 218.43L187.642 230.932L185.786 230.708Z" fill="black"/>
<path d="M187.05 223.292C186.993 223.301 186.935 223.301 186.879 223.292L186.365 223.2C185.911 223.114 185.253 222.983 184.391 222.884C183.353 222.757 182.301 222.819 181.286 223.068C180.657 223.234 180.064 223.513 179.535 223.891C178.956 224.322 178.493 224.889 178.186 225.542C177.528 226.924 177.449 228.655 177.41 230.471C177.37 232.287 177.318 234.248 177.265 236.301C177.153 240.407 177.035 244.921 176.91 249.658C176.634 259.12 176.377 267.687 176.193 273.925C176.087 277.005 175.995 279.512 175.936 281.275C175.897 282.124 175.87 282.795 175.85 283.249C175.85 283.46 175.851 283.631 175.818 283.769C175.826 283.828 175.826 283.888 175.818 283.947C175.808 283.888 175.808 283.828 175.818 283.769C175.818 283.631 175.818 283.46 175.818 283.249C175.818 282.762 175.818 282.091 175.818 281.275C175.851 279.505 175.903 277.005 175.962 273.919C176.12 267.681 176.344 259.114 176.581 249.645C176.719 244.907 176.844 240.4 176.963 236.294C177.022 234.241 177.081 232.287 177.14 230.464C177.199 228.642 177.265 226.878 177.982 225.437C178.313 224.752 178.808 224.16 179.423 223.713C179.974 223.326 180.592 223.045 181.246 222.884C182.288 222.64 183.366 222.595 184.424 222.753C185.286 222.871 185.944 223.029 186.398 223.128L186.905 223.259C186.997 223.266 187.056 223.286 187.05 223.292Z" fill="#455A64"/>
<path d="M185.839 173.659C185.839 173.659 169.317 190.234 166.165 193.939C163.474 197.104 165.23 203.072 167.481 203.328C169.731 203.585 206.158 203.092 206.158 203.092L205.678 195.643C205.678 195.643 182.082 195.748 181.391 195.314C180.7 194.88 195.038 180.384 195.038 180.384L185.839 173.659Z" fill="#FFBE9D"/>
<path d="M229.53 175.824C229.53 175.824 234.551 191.044 235.156 192.84C235.762 194.636 238.88 202.249 232.958 202.888C227.036 203.526 195.255 202.888 195.255 202.888L192.893 195.196C192.893 195.196 223.608 195.117 223.457 193.478C223.306 191.84 218.792 178.094 218.792 178.094L229.53 175.824Z" fill="#FFBE9D"/>
<path d="M162.46 171.08L173.877 202.703L226.431 202.684L226.069 201.137L206.349 200.413L196.643 170.593L162.46 171.08Z" fill="#263238"/>
<path d="M185.885 185.477C185.892 185.833 185.797 186.184 185.611 186.487C185.425 186.791 185.156 187.035 184.836 187.19C184.515 187.345 184.157 187.406 183.803 187.364C183.45 187.322 183.116 187.179 182.841 186.953C182.565 186.727 182.361 186.426 182.251 186.088C182.142 185.749 182.132 185.386 182.222 185.041C182.313 184.697 182.5 184.386 182.762 184.144C183.024 183.903 183.35 183.742 183.7 183.681C184.228 183.633 184.752 183.794 185.161 184.131C185.57 184.467 185.83 184.95 185.885 185.477Z" fill="#538BFA"/>
<path d="M253.613 202.012H129.462H128.113H126.77V292.81H129.462V207.362H253.613V292.876H285.348V207.362V202.012H253.613Z" fill="#455A64"/>
<path d="M100.858 289.263V282.466L88.6852 282.387L88.58 292.553L89.3367 292.606C92.699 292.823 106.445 293.264 108.682 292.547C111.202 291.77 100.858 289.263 100.858 289.263Z" fill="#933FA1"/>
<path d="M108.971 291.928C108.971 292.04 104.418 292.132 98.7986 292.132C93.1793 292.132 88.6259 292.04 88.6259 291.928C88.6259 291.816 93.1793 291.718 98.7986 291.718C104.418 291.718 108.971 291.81 108.971 291.928Z" fill="#263238"/>
<path d="M101.075 290.651C100.977 290.599 101.075 290.237 101.319 289.888C101.562 289.539 101.904 289.342 101.977 289.421C102.049 289.5 101.891 289.803 101.648 290.132C101.404 290.461 101.174 290.704 101.075 290.651Z" fill="#263238"/>
<path d="M101.852 291.099C101.746 291.06 101.799 290.658 102.043 290.237C102.286 289.816 102.595 289.579 102.701 289.625C102.806 289.671 102.641 290.04 102.418 290.434C102.194 290.829 101.99 291.139 101.852 291.099Z" fill="#263238"/>
<path d="M92.2911 291.882C92.245 291.915 92.0608 291.737 91.7976 291.435C91.4779 291.045 91.1209 290.688 90.7316 290.369C90.3511 290.064 89.8973 289.864 89.4156 289.79C89.0406 289.737 88.8037 289.79 88.7576 289.737C88.7116 289.684 88.9616 289.526 89.4156 289.5C89.9832 289.488 90.5364 289.679 90.9751 290.04C91.3979 290.38 91.7548 290.795 92.0279 291.264C92.245 291.612 92.3371 291.849 92.2911 291.882Z" fill="#263238"/>
<path d="M101.108 289.375C101.174 289.474 100.963 289.704 100.615 289.836C100.266 289.967 99.9567 289.915 99.9567 289.803C99.9567 289.691 100.187 289.56 100.49 289.448C100.792 289.336 101.049 289.277 101.108 289.375Z" fill="#263238"/>
<path d="M100.917 288.717C100.917 288.829 100.608 288.928 100.194 288.934C99.7791 288.941 99.4567 288.849 99.4632 288.737C99.4698 288.625 99.7988 288.526 100.194 288.52C100.588 288.513 100.911 288.605 100.917 288.717Z" fill="#263238"/>
<path d="M136.206 86.5466L136.318 84.4871C136.518 83.347 136.604 82.1898 136.574 81.0326C136.573 80.4577 136.47 79.8876 136.272 79.3481C136.054 78.6644 135.744 78.0136 135.35 77.4136C135.252 77.3146 135.188 77.1868 135.167 77.0489C135.146 76.9109 135.169 76.7698 135.234 76.646C135.298 76.5223 135.4 76.4222 135.525 76.3602C135.65 76.2983 135.792 76.2778 135.93 76.3016C136.509 76.4529 137.693 77.8281 138.233 79.8811C138.772 81.934 140.154 78.8941 140.674 77.7952C141.194 76.6964 142.983 73.3735 143.444 73.2682C144.102 73.1103 144.424 73.8143 143.872 74.9C143.319 75.9857 141.898 79.3547 142.503 79.6047C142.932 79.4907 143.381 79.4705 143.819 79.5455C143.888 79.5607 143.951 79.5966 143.999 79.6483C144.047 79.7 144.078 79.7651 144.089 79.835C144.115 80.1573 144.179 80.4754 144.28 80.7825C144.28 80.7825 145.095 80.5193 145.299 80.8681C145.451 81.2303 145.542 81.6148 145.569 82.0064C145.569 82.0064 146.188 81.7366 146.517 81.9472C147.221 82.4078 146.458 83.3751 146.458 83.3751C144.78 85.7905 142.949 88.096 140.976 90.2775L136.193 86.4282" fill="#FFBE9D"/>
<path d="M77.6768 86.4083L77.5978 112.656L88.8299 113.176L89.1523 106.793C89.1523 106.793 93.1529 107.589 94.186 103.872C94.844 101.503 94.6795 83.1644 94.6795 83.1644L77.6768 86.4083Z" fill="#FFBE9D"/>
<path d="M94.094 79.1113C90.6658 80.2167 89.8433 80.5918 88.3036 80.7102C86.7639 80.8286 76.3412 80.8418 75.3871 86.7177C75.2586 86.4415 75.1594 86.1526 75.091 85.8558C75.014 85.2798 74.9723 84.6997 74.9659 84.1186C74.8007 84.3878 74.6968 84.6901 74.6616 85.0039C74.6263 85.3178 74.6606 85.6356 74.762 85.9347C74.7883 86.0627 74.8257 86.1882 74.8738 86.3098C74.8014 86.244 74.7356 86.1716 74.6567 86.1058C74.2784 85.771 73.8281 85.5279 73.3407 85.3952C72.9656 85.303 72.7222 85.3228 72.6827 85.3952C73.2954 85.6594 73.876 85.9928 74.4132 86.3887C74.762 86.6916 75.0617 87.0467 75.3015 87.4415C75.3015 87.4415 75.3015 87.4942 75.3015 87.5205C75.3015 87.5468 73.0577 86.5335 73.6499 90.5999C74.2421 94.6664 76.8939 98.1209 77.2229 104.78C77.2229 104.78 86.5204 105.885 88.1786 102.312L89.5669 98.213C89.5669 98.213 87.3297 97.8445 87.5929 96.0482C87.9548 93.5544 89.8565 93.4951 91.2778 94.6006L92.9096 90.2315C92.9096 90.2315 97.0418 87.5205 97.2787 85.79C97.5156 84.0594 97.4893 77.9992 94.094 79.1113Z" fill="#263238"/>
<path d="M46.5272 284.183L44.8822 291.527L56.2459 292.935L56.6538 285.657L46.5272 284.183Z" fill="#933FA1"/>
<path d="M51.6595 284.545C51.653 285.678 51.5295 286.807 51.291 287.914C51.1623 289.032 50.922 290.134 50.5738 291.204C50.7113 288.945 51.075 286.706 51.6595 284.519V284.545Z" fill="#263238"/>
<path d="M56.2919 292.152C55.7385 292.134 55.1879 292.066 54.6469 291.948L50.6989 291.29C49.1526 291.033 47.7642 290.777 46.7509 290.553C46.2039 290.463 45.6679 290.315 45.1519 290.112C45.7059 290.122 46.2573 290.191 46.7969 290.316L50.7449 290.974C52.2846 291.231 53.6796 291.487 54.6929 291.711C55.2413 291.795 55.7779 291.943 56.2919 292.152Z" fill="#263238"/>
<path d="M63.3851 168.764L42.3291 286.993L60.3451 288.013C60.3451 288.013 79.4798 186.102 82.2894 185.852C83.4673 185.74 83.941 287.184 84.882 286.993C85.8229 286.802 104.352 287.322 104.352 287.322C104.352 287.322 101.845 167.263 101.891 167.263L63.3851 168.764Z" fill="#263238"/>
<path d="M90.0011 183.365C90.0011 183.457 86.8954 184.201 83.0263 185.023C79.1573 185.846 75.9989 186.438 75.9792 186.339C75.9594 186.24 79.0849 185.503 82.954 184.681C86.823 183.858 89.9814 183.273 90.0011 183.365Z" fill="#455A64"/>
<path d="M61.6809 281.071C61.6809 281.17 57.6078 281.117 52.5873 280.966C47.5667 280.815 43.5003 280.604 43.5003 280.512C43.5003 280.42 47.5733 280.466 52.5939 280.617C57.6144 280.769 61.6809 280.966 61.6809 281.071Z" fill="#455A64"/>
<path d="M104.234 281.084C104.234 281.176 99.8317 281.124 94.4164 280.959C89.001 280.795 84.6056 280.591 84.6056 280.499C84.6056 280.406 89.001 280.459 94.4229 280.617C99.8449 280.775 104.234 280.966 104.234 281.084Z" fill="#455A64"/>
<path d="M72.3799 186.642C72.472 186.642 68.0173 207.75 62.4244 233.741C56.8314 259.732 52.2254 280.795 52.1332 280.775C52.0411 280.755 56.4958 259.673 62.0888 233.669C67.6818 207.665 72.2812 186.622 72.3799 186.642Z" fill="#455A64"/>
<path d="M94.4954 280.788C94.4879 280.707 94.4879 280.626 94.4954 280.545C94.4954 280.367 94.4954 280.13 94.4559 279.828C94.4559 279.17 94.3901 278.255 94.3375 277.071C94.2388 274.682 94.1269 271.214 94.0019 266.931C93.7518 258.377 93.5018 246.533 93.4426 233.465C93.3834 220.397 93.5084 208.56 93.6795 199.992C93.7584 195.709 93.844 192.248 93.9229 189.853C93.9624 188.668 93.9887 187.747 94.015 187.096C94.015 186.793 94.015 186.556 94.015 186.378C94.0062 186.297 94.0062 186.216 94.015 186.135C94.0254 186.216 94.0254 186.298 94.015 186.378V187.096C94.015 187.754 94.015 188.668 94.015 189.853C93.9821 192.267 93.9361 195.729 93.8769 199.999C93.7716 208.553 93.6795 220.397 93.7453 233.465C93.8111 246.533 94.015 258.364 94.1993 266.931C94.298 271.195 94.3769 274.656 94.4362 277.071C94.4362 278.248 94.4756 279.176 94.4888 279.828C94.4888 280.13 94.4888 280.367 94.4888 280.545C94.5013 280.625 94.5035 280.707 94.4954 280.788Z" fill="#455A64"/>
<path d="M134.317 85.9544C134.317 85.9544 120.368 107.01 119.183 108.175C117.999 109.34 96.1535 111.656 96.1535 111.656C89.4419 110.142 67.7542 110.643 63.6614 113.63C60.1148 115.604 55.8115 120.21 53.594 131.087C49.8105 149.695 46.027 156.551 53.594 159.15C56.6193 160.182 59.7374 160.918 62.9047 161.348L62.6942 169.77L101.911 167.329L99.937 146.418C99.7001 140.542 99.5882 134.423 99.4435 129.001C101.898 128.073 124.704 119.44 126.27 119.216C127.836 118.993 142.858 91.3632 142.858 91.3632C143.306 88.0797 134.317 85.9544 134.317 85.9544Z" fill="#933FA1"/>
<path d="M63.9838 124.033C64.076 124.033 63.8654 134.285 63.5167 146.918C63.1679 159.552 62.7994 169.797 62.7007 169.797C62.602 169.797 62.8192 159.545 63.1745 146.912C63.5298 134.278 63.8917 124.033 63.9838 124.033Z" fill="#263238"/>
<path d="M121.151 112.913C120.628 112.221 120.239 111.438 120.006 110.603C119.67 109.817 119.397 109.005 119.19 108.175C119.71 108.868 120.096 109.651 120.328 110.485C120.66 111.273 120.935 112.085 121.151 112.913Z" fill="#263238"/>
<path d="M122.717 111.123C122.051 110.748 121.425 110.307 120.848 109.807C120.193 109.389 119.629 108.843 119.19 108.201C119.853 108.58 120.479 109.02 121.059 109.517C121.71 109.94 122.274 110.485 122.717 111.123Z" fill="#263238"/>
<path d="M142.075 93.041C141.612 92.8191 141.171 92.5524 140.759 92.2448C139.957 91.7382 138.845 91.0538 137.568 90.3695C136.291 89.6852 135.107 89.1391 134.239 88.7574C133.753 88.5838 133.286 88.3634 132.844 88.0994C133.355 88.1837 133.854 88.3295 134.331 88.5337C136.672 89.4067 138.885 90.5908 140.911 92.054C141.339 92.3329 141.73 92.6645 142.075 93.041Z" fill="#263238"/>
<path d="M63.5167 147.017C62.6995 147.066 61.8798 146.984 61.0887 146.773C60.2741 146.661 59.4882 146.395 58.7725 145.99C59.5804 146.068 60.3798 146.218 61.1611 146.438C61.9658 146.54 62.7561 146.735 63.5167 147.017Z" fill="#263238"/>
<path d="M99.7397 111.36C99.0285 111.482 98.3253 111.647 97.6341 111.853C95.9838 112.394 94.5495 113.448 93.5409 114.861C92.5322 116.275 92.0021 117.974 92.0279 119.71C92.0625 120.43 92.1349 121.149 92.2451 121.862C92.1428 121.691 92.0715 121.504 92.0345 121.309C91.8902 120.789 91.8063 120.255 91.7845 119.716C91.6944 117.914 92.216 116.134 93.2646 114.664C94.3133 113.195 95.8275 112.124 97.5617 111.623C98.0777 111.467 98.6097 111.37 99.1475 111.334C99.3448 111.306 99.5456 111.315 99.7397 111.36Z" fill="#263238"/>
<path d="M101.918 167.355C101.918 167.454 93.1464 168.073 82.3223 168.744C71.4982 169.415 62.7073 169.889 62.7007 169.797C62.6942 169.705 71.4719 169.079 82.3026 168.402C93.1333 167.724 101.911 167.263 101.918 167.355Z" fill="#263238"/>
<path d="M86.2967 110.945C86.3532 111.103 86.3929 111.266 86.4151 111.432C86.4151 111.597 86.4941 111.794 86.5204 112.031C86.5467 112.268 86.5665 112.551 86.5994 112.86C86.6775 114.637 86.3886 116.411 85.7505 118.071C84.817 120.562 83.1017 122.684 80.8616 124.118C80.5413 124.322 80.2071 124.502 79.8614 124.658C79.5153 124.826 79.1594 124.974 78.7955 125.099C78.0651 125.362 77.3084 125.586 76.5583 125.856C75.7966 126.105 75.0676 126.446 74.3869 126.869C73.7066 127.329 73.1046 127.896 72.6037 128.547C71.6655 129.901 70.8001 131.305 70.0112 132.751C69.254 134.135 68.1438 135.293 66.7935 136.107C65.5157 136.753 64.0784 137.016 62.6547 136.864C61.4265 136.752 60.2302 136.41 59.1278 135.857C57.5435 135.056 56.1045 133.995 54.8706 132.719C54.4297 132.278 54.1007 131.922 53.8836 131.685C53.7607 131.57 53.6525 131.439 53.5612 131.297C53.6906 131.402 53.8137 131.514 53.9296 131.633L54.9627 132.626C56.2154 133.849 57.6519 134.868 59.22 135.647C60.3029 136.166 61.4711 136.485 62.6679 136.588C64.0297 136.714 65.3992 136.449 66.6159 135.824C67.9152 135.034 68.9804 133.912 69.7019 132.574C70.4991 131.113 71.3779 129.698 72.3339 128.336C72.8587 127.656 73.4897 127.065 74.2026 126.586C74.9051 126.145 75.6585 125.792 76.4464 125.533L78.6836 124.79C79.0408 124.669 79.3902 124.526 79.7298 124.362C80.0656 124.217 80.3891 124.046 80.6971 123.849C82.8987 122.462 84.5964 120.404 85.54 117.979C86.1905 116.355 86.5103 114.617 86.4809 112.867C86.4809 112.557 86.4809 112.288 86.4414 112.044C86.402 111.801 86.3822 111.603 86.3625 111.445C86.3258 111.281 86.3038 111.114 86.2967 110.945Z" fill="#263238"/>
<path d="M101.148 159.328C101.148 159.328 100.996 159.223 100.707 159.045C100.293 158.778 99.8337 158.59 99.3514 158.492C98.5754 158.376 97.7932 158.306 97.0089 158.282C96.0942 158.209 95.0349 158.203 93.8834 158.157C92.6077 158.135 91.3394 157.958 90.1064 157.63C88.691 157.228 87.3555 156.585 86.1584 155.729C84.8268 154.779 83.7232 153.545 82.9277 152.116C82.0769 150.579 81.6245 148.853 81.6117 147.096C81.5863 145.39 82.0404 143.712 82.9222 142.252C83.804 140.792 85.078 139.609 86.5993 138.838C87.2834 138.496 88.0121 138.252 88.7641 138.114C89.4664 137.997 90.1774 137.939 90.8895 137.943C92.1474 137.982 93.4064 137.944 94.6598 137.831C95.5632 137.773 96.4382 137.492 97.2064 137.014C97.9746 136.535 98.6121 135.873 99.0618 135.087C99.2823 134.646 99.4205 134.169 99.4698 133.679C99.5093 133.343 99.5093 133.159 99.5224 133.159C99.5305 133.203 99.5305 133.247 99.5224 133.291C99.5224 133.383 99.5224 133.515 99.5224 133.686C99.4953 134.191 99.3725 134.687 99.1605 135.146C98.8144 135.874 98.2835 136.498 97.6208 136.956C96.7491 137.567 95.7377 137.95 94.6795 138.068C93.4164 138.2 92.1461 138.253 90.8763 138.226C90.1793 138.229 89.4838 138.291 88.797 138.41C88.0765 138.549 87.3788 138.789 86.7243 139.121C85.2616 139.868 84.0372 141.01 83.1896 142.417C82.3419 143.824 81.9047 145.44 81.9275 147.083C81.9436 148.784 82.3823 150.455 83.204 151.945C83.9723 153.332 85.0373 154.532 86.3229 155.459C87.4866 156.302 88.7864 156.938 90.1657 157.341C91.3755 157.677 92.6216 157.865 93.8768 157.9C95.0349 157.959 96.0877 157.986 97.0089 158.078C97.7993 158.113 98.5864 158.203 99.3645 158.347C99.8578 158.474 100.321 158.698 100.727 159.005C100.834 159.081 100.937 159.162 101.036 159.249C101.077 159.269 101.115 159.295 101.148 159.328Z" fill="#263238"/>
<path d="M79.3548 168.961C79.3726 168.49 79.3462 168.019 79.2758 167.553C79.0316 166.289 78.3046 165.171 77.2492 164.434C76.9017 164.204 76.5257 164.021 76.1306 163.888C75.6999 163.767 75.2596 163.683 74.8146 163.638C73.7759 163.615 72.743 163.476 71.7351 163.223C71.1815 163.038 70.6759 162.733 70.2546 162.329C69.8295 161.901 69.4901 161.396 69.2545 160.842C68.7782 159.678 68.6303 158.405 68.8268 157.163C69.1952 154.63 70.3073 152.452 70.4981 150.307C70.6325 149.306 70.5403 148.287 70.2283 147.326C69.9431 146.499 69.4101 145.78 68.7017 145.267C67.6631 144.507 66.3723 144.175 65.0959 144.339C64.6338 144.426 64.1802 144.554 63.7404 144.721C64.1375 144.458 64.5862 144.283 65.0564 144.207C66.3778 143.984 67.7337 144.294 68.8268 145.069C69.5873 145.603 70.1642 146.359 70.4783 147.234C70.8183 148.232 70.9263 149.294 70.7942 150.34C70.6034 152.557 69.4782 154.762 69.1492 157.209C68.9602 158.39 69.0967 159.601 69.544 160.71C69.7641 161.225 70.0763 161.695 70.4652 162.098C70.8482 162.469 71.309 162.75 71.8141 162.921C72.8003 163.172 73.8106 163.318 74.8277 163.355C75.3008 163.404 75.7681 163.498 76.2227 163.638C77.0635 163.929 77.8073 164.446 78.3718 165.134C78.9362 165.822 79.2992 166.652 79.4206 167.533C79.4688 167.887 79.4688 168.246 79.4206 168.599C79.4099 168.722 79.3879 168.843 79.3548 168.961Z" fill="#263238"/>
<path d="M78.0388 132.554C78.0388 132.554 78.177 132.409 78.506 132.31C78.9778 132.188 79.4769 132.222 79.9272 132.409C80.2428 132.539 80.5258 132.737 80.7563 132.988C81.0163 133.289 81.1812 133.66 81.2301 134.054C81.2897 134.508 81.2133 134.968 81.0107 135.378C80.808 135.788 80.4882 136.129 80.0917 136.357C79.6787 136.553 79.2161 136.621 78.7642 136.55C78.3124 136.48 77.8922 136.275 77.5584 135.962C77.2666 135.689 77.0646 135.333 76.9794 134.942C76.914 134.606 76.9298 134.258 77.0255 133.929C77.1558 133.457 77.4467 133.045 77.848 132.764C77.9835 132.65 78.1515 132.581 78.3283 132.567C78.3283 132.567 78.1704 132.666 77.9269 132.87C77.5963 133.165 77.3663 133.556 77.2689 133.988C77.1843 134.298 77.1875 134.625 77.2782 134.933C77.3688 135.241 77.5433 135.518 77.7822 135.732C78.0704 135.992 78.4288 136.161 78.8127 136.219C79.1965 136.276 79.5888 136.219 79.9404 136.054C80.2787 135.857 80.5521 135.565 80.7273 135.214C80.9026 134.864 80.9721 134.47 80.9274 134.08C80.8897 133.762 80.7689 133.46 80.5771 133.204C80.3854 132.947 80.1295 132.746 79.8351 132.62C79.4261 132.424 78.967 132.357 78.5191 132.429C78.2164 132.495 78.0519 132.58 78.0388 132.554Z" fill="#263238"/>
<path d="M58.3119 160.605C58.2395 160.605 58.5488 159.446 58.6211 157.565C58.6471 157.054 58.6471 156.542 58.6211 156.031C58.6211 155.479 58.5159 154.893 58.4435 154.275C58.2252 152.945 57.8747 151.64 57.3973 150.379C56.899 149.129 56.2727 147.934 55.5286 146.813C55.1953 146.33 54.8373 145.864 54.456 145.418C54.1329 145.018 53.788 144.635 53.423 144.273C52.107 142.957 51.0936 142.299 51.1397 142.253C51.3898 142.368 51.626 142.512 51.8438 142.681C52.1166 142.855 52.3782 143.046 52.6268 143.253C52.9649 143.518 53.2878 143.801 53.594 144.102C53.9763 144.457 54.3367 144.835 54.6731 145.234C55.0654 145.686 55.4343 146.158 55.7786 146.648C56.5478 147.783 57.1941 148.996 57.7065 150.267C58.191 151.543 58.5374 152.866 58.7396 154.215C58.8232 154.809 58.8737 155.406 58.8909 156.005C58.9246 156.524 58.9246 157.045 58.8909 157.565C58.8669 157.992 58.8207 158.418 58.7528 158.841C58.7128 159.163 58.6512 159.482 58.5685 159.795C58.5168 160.075 58.4306 160.346 58.3119 160.605Z" fill="#263238"/>
<path d="M126.586 118.953C126.249 118.833 125.921 118.688 125.606 118.519C124.98 118.229 124.079 117.815 122.921 117.394C121.577 116.896 120.182 116.545 118.762 116.348C117.029 116.099 115.264 116.186 113.564 116.604C111.849 117.003 110.264 117.832 108.958 119.012C107.904 119.975 107.098 121.178 106.609 122.52C106.288 123.426 106.154 124.389 106.214 125.349C106.267 126.007 106.372 126.402 106.339 126.408C106.306 126.415 106.293 126.323 106.241 126.145C106.17 125.888 106.118 125.626 106.083 125.362C105.967 124.378 106.07 123.38 106.385 122.441C106.852 121.041 107.664 119.783 108.748 118.782C110.072 117.555 111.69 116.69 113.446 116.269C115.19 115.844 117 115.764 118.776 116.032C120.214 116.25 121.622 116.632 122.974 117.17C123.875 117.526 124.754 117.937 125.606 118.4C125.908 118.565 126.145 118.697 126.296 118.795C126.402 118.829 126.5 118.883 126.586 118.953Z" fill="#263238"/>
<path d="M131.975 89.4878C131.975 89.4878 132.041 89.5339 132.153 89.6457C132.317 89.8 132.469 89.9672 132.607 90.1458C133.127 90.799 133.538 91.5323 133.824 92.3172C134.254 93.4861 134.432 94.7331 134.344 95.9757C134.242 97.5022 133.751 98.9772 132.916 100.259C132.06 101.533 130.882 102.557 129.501 103.227C128.389 103.783 127.176 104.105 125.935 104.174C125.101 104.228 124.264 104.15 123.454 103.944C123.23 103.892 123.01 103.824 122.796 103.74C122.651 103.687 122.579 103.655 122.585 103.641C123.662 103.897 124.77 103.994 125.875 103.931C127.078 103.831 128.25 103.496 129.323 102.944C130.65 102.288 131.783 101.3 132.613 100.075C133.342 98.9479 133.807 97.6707 133.973 96.3389C134.14 95.007 134.003 93.6547 133.574 92.383C133.19 91.3429 132.651 90.3668 131.975 89.4878Z" fill="#263238"/>
<path d="M89.0142 110.853C87.1143 111.041 85.2048 111.114 83.2961 111.07C81.3893 111.142 79.48 111.1 77.5781 110.945C79.478 110.757 81.3875 110.685 83.2961 110.728C85.2029 110.657 87.1123 110.699 89.0142 110.853Z" fill="#263238"/>
</svg>
