<svg width="394" height="394" viewBox="0 0 394 394" fill="none" xmlns="http://www.w3.org/2000/svg">
<path d="M394 301.331H0V301.528H394V301.331Z" fill="#EBEBEB"/>
<path d="M354.521 314.01H328.423V314.207H354.521V314.01Z" fill="#EBEBEB"/>
<path d="M261.001 316.153H254.154V316.35H261.001V316.153Z" fill="#EBEBEB"/>
<path d="M327.635 306.698H312.513V306.895H327.635V306.698Z" fill="#EBEBEB"/>
<path d="M75.3722 308.021H41.3385V308.218H75.3722V308.021Z" fill="#EBEBEB"/>
<path d="M87.3813 308.021H82.3932V308.218H87.3813V308.021Z" fill="#EBEBEB"/>
<path d="M177.418 311.347H103.598V311.544H177.418V311.347Z" fill="#EBEBEB"/>
<path d="M186.756 266.186H34.6011C33.4091 266.184 32.2667 265.709 31.4246 264.866C30.5825 264.022 30.1095 262.879 30.1095 261.687V47.8001C30.1199 46.6149 30.5974 45.4818 31.4384 44.6467C32.2794 43.8116 33.4159 43.342 34.6011 43.34H186.756C187.949 43.34 189.094 43.814 189.938 44.6579C190.781 45.5017 191.256 46.6461 191.256 47.8395V261.687C191.256 262.88 190.781 264.025 189.938 264.869C189.094 265.712 187.949 266.186 186.756 266.186ZM34.6011 43.4976C33.4614 43.4997 32.369 43.9539 31.5639 44.7605C30.7587 45.5672 30.3065 46.6604 30.3065 47.8001V261.687C30.3065 262.827 30.7587 263.92 31.5639 264.726C32.369 265.533 33.4614 265.987 34.6011 265.989H186.756C187.896 265.987 188.99 265.533 189.796 264.727C190.602 263.921 191.056 262.827 191.059 261.687V47.8001C191.056 46.6596 190.602 45.5665 189.796 44.7601C188.99 43.9536 187.896 43.4997 186.756 43.4976H34.6011Z" fill="#EBEBEB"/>
<path d="M357.208 266.186H205.045C203.853 266.184 202.71 265.71 201.866 264.866C201.023 264.023 200.548 262.88 200.546 261.687V47.8001C200.558 46.6142 201.038 45.4811 201.88 44.6462C202.722 43.8113 203.86 43.342 205.045 43.34H357.208C358.392 43.3441 359.527 43.8146 360.366 44.6494C361.205 45.4843 361.682 46.6163 361.692 47.8001V261.687C361.692 262.878 361.22 264.02 360.38 264.863C359.539 265.706 358.399 266.182 357.208 266.186ZM205.045 43.4976C203.905 43.4997 202.812 43.9536 202.005 44.7601C201.199 45.5665 200.745 46.6596 200.743 47.8001V261.687C200.745 262.827 201.199 263.921 202.005 264.727C202.812 265.533 203.905 265.987 205.045 265.989H357.208C358.349 265.987 359.442 265.533 360.248 264.727C361.055 263.921 361.509 262.827 361.511 261.687V47.8001C361.509 46.6596 361.055 45.5665 360.248 44.7601C359.442 43.9536 358.349 43.4997 357.208 43.4976H205.045Z" fill="#EBEBEB"/>
<path d="M331.37 64.947H153.101V167.214H331.37V64.947Z" fill="#E6E6E6"/>
<path d="M336.137 64.947H155.331V167.214H336.137V64.947Z" fill="#F0F0F0"/>
<path d="M331.37 167.214H153.101V176.071H331.37V167.214Z" fill="#E6E6E6"/>
<path d="M344.072 167.214H163.266V176.071H344.072V167.214Z" fill="#F0F0F0"/>
<path d="M329.463 160.539V71.6135L161.997 71.6135V160.539H329.463Z" fill="#FAFAFA"/>
<path d="M174.306 160.539L213.453 71.6135H231.94L192.784 160.539H174.306Z" fill="white"/>
<path d="M165.086 153.904C164.96 153.902 164.84 153.851 164.751 153.761C164.663 153.671 164.613 153.55 164.613 153.424V75.9553C164.628 75.8394 164.685 75.733 164.773 75.6558C164.86 75.5786 164.973 75.5361 165.09 75.5361C165.207 75.5361 165.32 75.5786 165.407 75.6558C165.495 75.733 165.552 75.8394 165.567 75.9553V153.424C165.567 153.487 165.554 153.549 165.53 153.608C165.506 153.666 165.471 153.719 165.426 153.764C165.381 153.808 165.328 153.844 165.27 153.868C165.212 153.892 165.149 153.904 165.086 153.904Z" fill="#F0F0F0"/>
<path d="M196.756 160.539L235.911 71.6135H243.114L203.958 160.539H196.756Z" fill="white"/>
<path d="M329.463 160.539V71.6135H328.62V160.539H329.463Z" fill="#E6E6E6"/>
<path opacity="0.6" d="M337.713 81.6762H159.444L158.829 74.206H337.099L337.713 81.6762Z" fill="#EBEBEB"/>
<path opacity="0.6" d="M337.713 93.9138H159.444L158.829 86.4515H337.099L337.713 93.9138Z" fill="#EBEBEB"/>
<path opacity="0.6" d="M337.713 106.159H159.444L158.829 98.697H337.099L337.713 106.159Z" fill="#EBEBEB"/>
<path opacity="0.6" d="M337.713 118.405H159.444L158.829 110.935H337.099L337.713 118.405Z" fill="#EBEBEB"/>
<path opacity="0.6" d="M337.713 130.65H159.444L158.829 123.18H337.099L337.713 130.65Z" fill="#EBEBEB"/>
<path opacity="0.6" d="M337.713 142.888H159.444L158.829 135.426H337.099L337.713 142.888Z" fill="#EBEBEB"/>
<path d="M111.998 94.0163H50.8654V176.063H111.998V94.0163Z" fill="#E6E6E6"/>
<path d="M116.262 94.0163H51.7874V176.063H116.262V94.0163Z" fill="#F0F0F0"/>
<path d="M110.856 170.657V99.414H57.1852L57.1852 170.657H110.856Z" fill="white"/>
<path d="M83.6541 153.881L73.8041 144.031C71.4245 141.645 70.0883 138.413 70.0883 135.043C70.0883 131.674 71.4245 128.442 73.8041 126.056L83.6541 116.198C83.7525 116.104 83.8838 116.051 84.0205 116.051C84.1571 116.051 84.2885 116.104 84.3869 116.198L94.2448 126.08C96.6243 128.466 97.9606 131.698 97.9606 135.067C97.9606 138.437 96.6243 141.669 94.2448 144.054L84.3869 153.904C84.3376 153.952 84.2794 153.989 84.2156 154.013C84.1518 154.038 84.0838 154.049 84.0155 154.047C83.9472 154.045 83.88 154.029 83.818 154C83.7559 153.972 83.7002 153.931 83.6541 153.881ZM84.0244 117.302L74.5684 126.758C72.3843 128.949 71.1579 131.918 71.1579 135.012C71.1579 138.106 72.3843 141.074 74.5684 143.266L84.0244 152.722L93.4804 143.266C95.6684 141.076 96.8975 138.108 96.8975 135.012C96.8975 131.916 95.6684 128.947 93.4804 126.758L84.0244 117.302Z" fill="#F0F0F0"/>
<path d="M175.992 216.913C175.59 216.913 175.204 216.913 174.771 216.952C166.102 217.646 159.152 225.872 158.601 236.006C158.477 238.255 158.671 240.509 159.176 242.704C161.083 251.444 162 260.37 161.91 269.315V295.453C161.91 297.344 163.218 298.881 164.834 298.881H222.515V216.928L175.992 216.913Z" fill="#F0F0F0"/>
<path d="M239.93 237.346C239.93 225.589 231.459 216.148 221.278 216.96C212.61 217.654 205.652 225.88 205.109 236.014C204.977 238.259 205.165 240.512 205.668 242.704C207.575 251.444 208.492 260.37 208.402 269.315V295.453C208.402 297.344 209.71 298.881 211.326 298.881H233.674C235.25 298.881 236.597 297.344 236.597 295.453V267.747C236.532 259.357 237.439 250.988 239.3 242.806C239.72 241.017 239.932 239.184 239.93 237.346Z" fill="#FAFAFA"/>
<path d="M198.481 252.515H137.608V298.841H198.481V252.515Z" fill="#F5F5F5"/>
<path d="M99.3904 197H166.268C170.057 197 173.691 198.505 176.37 201.184C179.049 203.864 180.554 207.497 180.554 211.286V260.347H85.104V211.286C85.104 207.497 86.6092 203.864 89.2884 201.184C91.9676 198.505 95.6014 197 99.3904 197Z" fill="#E6E6E6"/>
<path d="M109.784 197H170.011C171.86 197 173.691 197.364 175.4 198.072C177.108 198.78 178.661 199.817 179.968 201.124C181.276 202.432 182.313 203.984 183.021 205.693C183.728 207.401 184.093 209.232 184.093 211.082V260.347H95.6947V211.082C95.6947 209.232 96.0592 207.4 96.7674 205.691C97.4755 203.982 98.5134 202.429 99.8219 201.122C101.13 199.814 102.684 198.777 104.393 198.07C106.102 197.362 107.934 196.999 109.784 197Z" fill="#F5F5F5"/>
<path d="M141.533 250.844H198.426C199.239 250.844 200.019 251.167 200.594 251.742C201.169 252.317 201.492 253.096 201.492 253.909V258.842C201.492 259.655 201.169 260.435 200.594 261.01C200.019 261.585 199.239 261.908 198.426 261.908H141.533C141.29 261.908 141.058 261.811 140.886 261.64C140.715 261.468 140.619 261.236 140.619 260.993V251.758C140.619 251.516 140.715 251.283 140.886 251.112C141.058 250.94 141.29 250.844 141.533 250.844Z" fill="#EBEBEB"/>
<path d="M77.9647 298.841H223.374V299.03C223.374 299.64 223.132 300.226 222.7 300.657C222.269 301.089 221.684 301.331 221.073 301.331H80.2578C79.6476 301.331 79.0623 301.089 78.6308 300.657C78.1993 300.226 77.9568 299.64 77.9568 299.03V298.841H77.9647Z" fill="#E6E6E6"/>
<path d="M78.8394 216.913C78.4375 216.913 78.0514 216.913 77.618 216.952C68.95 217.646 61.992 225.872 61.4483 236.006C61.3239 238.238 61.5122 240.477 62.0077 242.657C63.9145 251.396 64.8317 260.323 64.7421 269.267V295.405C64.7421 297.297 66.0502 298.833 67.6656 298.833H138.436V216.881L78.8394 216.913Z" fill="#F0F0F0"/>
<path d="M155.866 237.346C155.866 225.589 147.395 216.148 137.214 216.96C128.546 217.654 121.596 225.88 121.045 236.014C120.92 238.246 121.109 240.485 121.604 242.665C123.511 251.404 124.428 260.331 124.338 269.275V295.413C124.338 297.305 125.647 298.841 127.262 298.841H149.61C151.186 298.841 152.541 297.305 152.541 295.413V267.747C152.474 259.357 153.378 250.988 155.236 242.806C155.656 241.017 155.868 239.184 155.866 237.346Z" fill="#FAFAFA"/>
<path d="M316.319 223.855C317.003 223.857 317.672 223.658 318.243 223.281C318.813 222.905 319.261 222.369 319.528 221.74C319.796 221.11 319.872 220.416 319.746 219.744C319.621 219.072 319.301 218.452 318.825 217.961C317.249 216.338 314.664 215.014 310.551 215.014C306.437 215.014 303.884 216.338 302.285 217.961C301.809 218.451 301.489 219.071 301.363 219.742C301.238 220.414 301.313 221.107 301.58 221.736C301.846 222.365 302.292 222.901 302.862 223.278C303.432 223.655 304.1 223.856 304.783 223.855H316.319Z" fill="#F5F5F5"/>
<path d="M327.895 222.563C328.331 222.558 328.756 222.425 329.117 222.181C329.479 221.937 329.761 221.593 329.928 221.19C330.096 220.788 330.142 220.345 330.061 219.917C329.979 219.488 329.774 219.093 329.471 218.78C328.446 217.732 326.799 216.889 324.16 216.889C321.52 216.889 319.873 217.732 318.848 218.78C318.545 219.093 318.34 219.488 318.258 219.917C318.177 220.345 318.223 220.788 318.391 221.19C318.559 221.593 318.841 221.937 319.202 222.181C319.563 222.425 319.988 222.558 320.424 222.563H327.895Z" fill="#F5F5F5"/>
<path d="M298.652 221.562C298.652 221.562 299.101 226.156 316.366 226.156C333.631 226.156 334.088 221.562 334.088 221.562H298.652Z" fill="#F0F0F0"/>
<path d="M280.339 213.832C280.191 213.836 280.043 213.852 279.898 213.879V212.303C279.899 212.139 279.867 211.976 279.805 211.824C279.743 211.672 279.651 211.534 279.536 211.417C279.42 211.301 279.282 211.209 279.131 211.146C278.979 211.082 278.817 211.05 278.653 211.05H271.962C271.632 211.052 271.315 211.185 271.082 211.42C270.848 211.654 270.717 211.972 270.717 212.303V226.156H279.898V223.918C280.044 223.942 280.191 223.957 280.339 223.965C281.314 223.963 282.249 223.575 282.939 222.885C283.628 222.196 284.017 221.261 284.019 220.285V217.488C284.011 216.517 283.619 215.588 282.93 214.903C282.241 214.219 281.31 213.834 280.339 213.832ZM282.443 220.285C282.441 220.843 282.218 221.377 281.824 221.771C281.43 222.165 280.896 222.387 280.339 222.389C280.191 222.39 280.043 222.374 279.898 222.342V215.455C280.043 215.423 280.191 215.407 280.339 215.408C280.896 215.41 281.43 215.632 281.824 216.026C282.218 216.42 282.441 216.954 282.443 217.512V220.285Z" fill="#E6E6E6"/>
<path d="M287.888 226.156H253.673V301.331H287.888V226.156Z" fill="#E6E6E6"/>
<path d="M287.88 301.331H348.067V226.156H287.88V301.331Z" fill="#F5F5F5"/>
<path d="M344.915 301.331V229.308H291.032V301.331H344.915Z" fill="#E6E6E6"/>
<path d="M304.641 301.331V229.308H291.04V301.331H304.641Z" fill="#E0E0E0"/>
<path d="M346.625 266.896V263.744H291.04V266.896H346.625Z" fill="#F5F5F5"/>
<path d="M309.156 263.744H297.336L300.843 237.85H309.156V263.744Z" fill="#E6E6E6"/>
<path d="M326.492 263.744H304.105L299.936 233.437H322.324L326.492 263.744Z" fill="#F0F0F0"/>
<path d="M329.486 263.744H306.185L302.017 233.437H325.318L329.486 263.744Z" fill="#F5F5F5"/>
<path d="M308.242 261.356L304.735 235.825H323.253L326.768 261.356H308.242Z" fill="white"/>
<path d="M312.836 253.137L311.67 244.682C311.626 244.347 311.654 244.006 311.753 243.683C311.852 243.359 312.019 243.061 312.243 242.808C312.467 242.555 312.743 242.353 313.052 242.215C313.361 242.077 313.696 242.008 314.034 242.011H316.303C316.877 242.005 317.433 242.208 317.868 242.582C318.303 242.956 318.587 243.476 318.667 244.044L319.826 252.491C319.871 252.827 319.843 253.168 319.745 253.493C319.646 253.817 319.479 254.116 319.255 254.37C319.031 254.624 318.755 254.827 318.445 254.965C318.136 255.103 317.8 255.173 317.462 255.17H315.2C314.626 255.176 314.07 254.973 313.635 254.599C313.2 254.225 312.916 253.705 312.836 253.137Z" fill="#F5F5F5"/>
<path d="M197 336.917C281.381 336.917 349.785 332.924 349.785 327.997C349.785 323.071 281.381 319.077 197 319.077C112.619 319.077 44.2147 323.071 44.2147 327.997C44.2147 332.924 112.619 336.917 197 336.917Z" fill="#F5F5F5"/>
<path d="M128.69 158.078C131.963 137.918 118.273 118.923 98.1124 115.65C77.9523 112.378 58.9565 126.068 55.6841 146.228C52.4116 166.388 66.1018 185.384 86.2619 188.656C106.422 191.929 125.418 178.238 128.69 158.078Z" fill="#538BFA"/>
<path opacity="0.7" d="M128.69 158.078C131.963 137.918 118.273 118.923 98.1124 115.65C77.9523 112.378 58.9565 126.068 55.6841 146.228C52.4116 166.388 66.1018 185.384 86.2619 188.656C106.422 191.929 125.418 178.238 128.69 158.078Z" fill="#FAFAFA"/>
<path d="M72.1887 151.524C72.1887 146.875 73.0267 143.621 74.7025 141.761C76.3783 139.901 78.9288 138.972 82.3539 138.972C83.732 138.93 85.1064 139.136 86.4122 139.578C87.3737 139.924 88.2555 140.46 89.0047 141.154C89.6309 141.753 90.1623 142.444 90.5807 143.203C90.9913 144 91.301 144.844 91.5026 145.717C91.965 147.586 92.1952 149.505 92.1882 151.43C92.1882 155.864 91.437 159.113 89.9345 161.177C88.4321 163.242 85.8448 164.272 82.1727 164.266C80.4528 164.34 78.7402 164.002 77.1768 163.281C75.8854 162.622 74.7963 161.625 74.0248 160.397C73.3442 159.257 72.8769 158.002 72.6458 156.694C72.3187 154.991 72.1656 153.259 72.1887 151.524ZM78.934 151.524C78.934 154.64 79.1967 156.767 79.722 157.907C79.899 158.397 80.219 158.821 80.6407 159.126C81.0623 159.431 81.5659 159.602 82.086 159.617C82.7571 159.622 83.4028 159.361 83.8827 158.892C84.4661 158.25 84.8543 157.454 85.0016 156.599C85.2842 154.984 85.403 153.345 85.3562 151.706C85.3562 148.449 85.0936 146.263 84.5682 145.15C84.3729 144.653 84.0322 144.227 83.5907 143.928C83.1491 143.628 82.6274 143.469 82.0939 143.471C81.5574 143.462 81.0319 143.624 80.593 143.933C80.1541 144.241 79.8243 144.681 79.6511 145.189C79.1731 146.339 78.934 148.459 78.934 151.548V151.524Z" fill="#FAFAFA"/>
<path d="M110.407 138.972V163.904H103.527V147.592C102.516 148.376 101.434 149.064 100.297 149.649C99.0278 150.258 97.7098 150.759 96.3567 151.146V145.575C98.3017 145.015 100.128 144.104 101.747 142.888C103.03 141.84 104.059 140.514 104.757 139.011L110.407 138.972Z" fill="#FAFAFA"/>
<path d="M202.125 160.634C206.817 140.757 194.506 120.839 174.628 116.148C154.75 111.456 134.833 123.767 130.141 143.645C125.45 163.522 137.761 183.44 157.638 188.131C177.516 192.823 197.434 180.512 202.125 160.634Z" fill="#538BFA"/>
<path opacity="0.7" d="M202.125 160.634C206.817 140.757 194.506 120.839 174.628 116.148C154.75 111.456 134.833 123.767 130.141 143.645C125.45 163.522 137.761 183.44 157.638 188.131C177.516 192.823 197.434 180.512 202.125 160.634Z" fill="#FAFAFA"/>
<path d="M144.622 151.524C144.622 146.875 145.46 143.621 147.135 141.761C148.811 139.901 151.362 138.972 154.787 138.972C156.165 138.93 157.539 139.136 158.845 139.578C159.805 139.922 160.685 140.458 161.43 141.154C162.058 141.752 162.589 142.443 163.006 143.203C163.416 144 163.726 144.844 163.928 145.717C164.39 147.586 164.62 149.505 164.613 151.43C164.613 155.864 163.862 159.113 162.36 161.177C160.857 163.242 158.27 164.272 154.598 164.266C152.878 164.341 151.165 164.003 149.602 163.281C148.31 162.622 147.221 161.625 146.45 160.397C145.769 159.257 145.302 158.002 145.071 156.694C144.746 154.99 144.596 153.258 144.622 151.524ZM151.367 151.524C151.367 154.64 151.63 156.767 152.155 157.907C152.332 158.397 152.652 158.821 153.074 159.126C153.495 159.431 153.999 159.602 154.519 159.617C154.85 159.62 155.179 159.558 155.486 159.433C155.793 159.309 156.072 159.125 156.308 158.892C156.897 158.254 157.286 157.457 157.427 156.599C157.717 154.985 157.838 153.345 157.789 151.706C157.789 148.449 157.513 146.263 156.962 145.15C156.766 144.652 156.424 144.225 155.981 143.925C155.538 143.626 155.014 143.467 154.48 143.471C153.944 143.464 153.421 143.626 152.983 143.935C152.546 144.243 152.217 144.682 152.045 145.189C151.611 146.347 151.367 148.459 151.367 151.548V151.524Z" fill="#FAFAFA"/>
<path d="M187.331 163.904H166.922C167.167 161.866 167.899 159.917 169.058 158.223C170.24 156.452 172.462 154.351 175.724 151.919C177.14 150.966 178.425 149.832 179.546 148.546C180.05 147.926 180.342 147.161 180.381 146.363C180.391 146.007 180.326 145.652 180.19 145.322C180.054 144.992 179.851 144.695 179.593 144.448C179.015 143.93 178.266 143.643 177.489 143.643C176.713 143.643 175.963 143.93 175.385 144.448C174.722 145.273 174.334 146.284 174.274 147.34L167.466 146.789C167.62 145.204 168.123 143.672 168.939 142.305C169.68 141.204 170.727 140.344 171.95 139.831C173.668 139.187 175.498 138.895 177.332 138.972C179.227 138.884 181.122 139.151 182.919 139.76C184.202 140.255 185.302 141.132 186.071 142.273C186.831 143.393 187.23 144.718 187.213 146.072C187.205 147.593 186.751 149.078 185.905 150.343C184.618 152.113 183.015 153.63 181.177 154.818C179.806 155.764 178.892 156.426 178.435 156.804C177.978 157.182 177.434 157.679 176.804 158.293H187.426L187.331 163.904Z" fill="#FAFAFA"/>
<path d="M239.393 167.573C259.791 166.547 275.495 149.179 274.469 128.781C273.443 108.383 256.075 92.6787 235.677 93.7049C215.278 94.731 199.574 112.099 200.6 132.497C201.627 152.895 218.995 168.599 239.393 167.573Z" fill="#538BFA"/>
<path opacity="0.7" d="M239.393 167.573C259.791 166.547 275.495 149.179 274.469 128.781C273.443 108.383 256.075 92.6787 235.677 93.7049C215.278 94.731 199.574 112.099 200.6 132.497C201.627 152.895 218.995 168.599 239.393 167.573Z" fill="#FAFAFA"/>
<path d="M218.646 137.758C216.876 133.456 216.411 130.128 217.252 127.774C218.092 125.421 220.096 123.582 223.264 122.258C224.523 121.695 225.874 121.364 227.251 121.281C228.272 121.231 229.292 121.394 230.246 121.762C231.054 122.075 231.809 122.511 232.484 123.054C233.17 123.633 233.781 124.295 234.304 125.024C235.441 126.576 236.383 128.262 237.109 130.044C238.806 134.147 239.35 137.438 238.74 139.917C238.131 142.397 236.132 144.351 232.744 145.78C231.179 146.496 229.468 146.836 227.748 146.773C226.311 146.639 224.936 146.128 223.761 145.291C222.701 144.496 221.794 143.517 221.081 142.4C220.114 140.939 219.298 139.384 218.646 137.758ZM224.895 135.205C226.077 138.089 227.149 139.933 228.087 140.792C228.441 141.181 228.905 141.453 229.417 141.572C229.929 141.692 230.465 141.653 230.955 141.462C231.264 141.339 231.546 141.156 231.784 140.923C232.022 140.691 232.212 140.413 232.342 140.106C232.641 139.291 232.696 138.407 232.499 137.561C232.153 135.957 231.641 134.394 230.971 132.896C229.726 129.891 228.638 127.976 227.708 127.152C227.338 126.767 226.859 126.504 226.336 126.397C225.812 126.29 225.269 126.344 224.777 126.553C224.284 126.752 223.867 127.101 223.584 127.551C223.301 128.001 223.167 128.528 223.201 129.059C223.159 130.304 223.724 132.353 224.895 135.205Z" fill="#FAFAFA"/>
<path d="M243.902 121.88L237.519 123.259C237.202 121.353 237.576 119.397 238.575 117.743C239.568 116.167 241.349 114.854 243.918 113.803C246.873 112.582 249.237 112.227 251.01 112.81C251.84 113.045 252.605 113.469 253.245 114.049C253.884 114.628 254.382 115.348 254.697 116.151C255.102 117.092 255.204 118.136 254.989 119.138C254.717 120.276 254.177 121.333 253.413 122.219C254.177 122.081 254.958 122.057 255.73 122.148C256.649 122.29 257.513 122.673 258.236 123.259C259.018 123.912 259.618 124.756 259.977 125.71C260.522 127.044 260.704 128.498 260.505 129.925C260.315 131.419 259.678 132.82 258.677 133.944C257.361 135.326 255.743 136.384 253.949 137.033C252.321 137.779 250.567 138.212 248.78 138.31C247.455 138.332 246.146 138.021 244.974 137.404C243.724 136.7 242.631 135.751 241.758 134.614L247.7 131.194C248.21 132.121 248.987 132.873 249.93 133.353C250.673 133.627 251.495 133.596 252.215 133.267C252.617 133.111 252.979 132.87 253.277 132.56C253.575 132.249 253.802 131.877 253.941 131.47C254.246 130.545 254.184 129.538 253.768 128.657C253.456 127.746 252.803 126.992 251.947 126.553C251.546 126.372 251.111 126.278 250.671 126.278C250.231 126.278 249.795 126.372 249.394 126.553C248.716 126.873 248.083 127.281 247.511 127.766L245.982 123.141C246.271 123.072 246.555 122.985 246.833 122.881C247.603 122.583 248.226 121.994 248.567 121.242C248.733 120.899 248.824 120.525 248.834 120.144C248.843 119.764 248.771 119.386 248.622 119.035C248.515 118.726 248.345 118.442 248.122 118.202C247.9 117.962 247.63 117.771 247.33 117.641C247.016 117.52 246.68 117.464 246.344 117.478C246.008 117.492 245.679 117.574 245.375 117.719C245.039 117.842 244.731 118.031 244.468 118.275C244.206 118.518 243.994 118.812 243.847 119.138C243.573 120.034 243.592 120.995 243.902 121.88Z" fill="#FAFAFA"/>
<path d="M350.04 160.642C354.731 140.764 342.421 120.847 322.543 116.155C302.665 111.463 282.747 123.774 278.056 143.652C273.364 163.53 285.675 183.447 305.553 188.139C325.431 192.831 345.348 180.52 350.04 160.642Z" fill="#538BFA"/>
<path opacity="0.7" d="M350.04 160.642C354.731 140.764 342.421 120.847 322.543 116.155C302.665 111.463 282.747 123.774 278.056 143.652C273.364 163.53 285.675 183.447 305.553 188.139C325.431 192.831 345.348 180.52 350.04 160.642Z" fill="#FAFAFA"/>
<path d="M291.828 151.524C291.828 146.875 292.666 143.621 294.342 141.761C296.018 139.901 298.568 138.972 301.993 138.972C303.371 138.93 304.746 139.136 306.051 139.578C307.011 139.922 307.891 140.458 308.636 141.154C309.264 141.752 309.796 142.443 310.212 143.203C310.623 144 310.932 144.844 311.134 145.717C311.596 147.586 311.827 149.505 311.82 151.43C311.82 155.864 311.068 159.113 309.566 161.177C308.063 163.242 305.476 164.277 301.804 164.282C300.084 164.356 298.371 164.019 296.808 163.297C295.517 162.637 294.428 161.641 293.656 160.413C292.976 159.272 292.508 158.017 292.277 156.71C291.952 155.001 291.801 153.264 291.828 151.524ZM298.573 151.524C298.573 154.64 298.849 156.767 299.401 157.907C299.578 158.397 299.898 158.821 300.319 159.126C300.741 159.431 301.245 159.602 301.765 159.617C302.096 159.62 302.424 159.558 302.731 159.433C303.038 159.309 303.318 159.125 303.553 158.892C304.143 158.254 304.532 157.457 304.672 156.599C304.963 154.985 305.084 153.345 305.035 151.706C305.035 148.449 304.759 146.263 304.207 145.15C304.012 144.652 303.67 144.225 303.227 143.925C302.784 143.626 302.26 143.467 301.725 143.471C301.19 143.464 300.666 143.626 300.229 143.935C299.792 144.243 299.463 144.682 299.29 145.189C298.818 146.339 298.579 148.459 298.573 151.548V151.524Z" fill="#FAFAFA"/>
<path d="M326.319 159.294H313.931V153.699L326.319 138.972H332.244V154.015H335.318V159.294H332.244V163.904H326.319V159.294ZM326.319 154.015V146.316L319.77 154.015H326.319Z" fill="#FAFAFA"/>
<path d="M314.057 192.548C313.013 192.548 312.01 192.133 311.272 191.394C310.533 190.655 310.117 189.653 310.117 188.608C310.117 187.563 310.533 186.561 311.272 185.822C312.01 185.083 313.013 184.668 314.057 184.668C320.593 184.669 326.982 182.733 332.416 179.103C337.851 175.474 342.087 170.314 344.589 164.277C347.091 158.239 347.746 151.596 346.472 145.186C345.198 138.776 342.052 132.888 337.432 128.266C332.811 123.645 326.924 120.497 320.514 119.222C314.105 117.946 307.461 118.6 301.423 121.1C295.385 123.601 290.224 127.836 286.593 133.27C282.963 138.703 281.025 145.092 281.025 151.627C281.025 162.48 276.713 172.888 269.039 180.562C261.365 188.237 250.957 192.548 240.104 192.548C229.251 192.548 218.842 188.237 211.168 180.562C203.494 172.888 199.183 162.48 199.183 151.627C199.183 142.864 195.702 134.46 189.505 128.264C183.309 122.067 174.905 118.586 166.142 118.586C157.379 118.586 148.975 122.067 142.779 128.264C136.582 134.46 133.101 142.864 133.101 151.627C133.101 159.721 130.701 167.633 126.204 174.363C121.707 181.093 115.315 186.338 107.836 189.434C100.358 192.531 92.1296 193.341 84.1913 191.76C76.253 190.18 68.9616 186.281 63.2393 180.557C57.5171 174.832 53.621 167.539 52.0438 159.601C50.4667 151.662 51.2793 143.433 54.3789 135.956C57.4785 128.479 62.7259 122.089 69.4574 117.595C76.1889 113.1 84.102 110.703 92.1961 110.706C93.241 110.706 94.2432 111.121 94.9821 111.86C95.721 112.599 96.1361 113.601 96.1361 114.646C96.1361 115.691 95.721 116.693 94.9821 117.432C94.2432 118.171 93.241 118.586 92.1961 118.586C85.6612 118.586 79.2731 120.524 73.8396 124.155C68.406 127.785 64.1711 132.945 61.6703 138.983C59.1695 145.02 58.5152 151.664 59.7901 158.073C61.065 164.482 64.2118 170.37 68.8327 174.99C73.4535 179.611 79.3408 182.758 85.7501 184.033C92.1594 185.308 98.8028 184.654 104.84 182.153C110.878 179.652 116.038 175.417 119.669 169.984C123.299 164.55 125.237 158.162 125.237 151.627C125.237 140.774 129.548 130.366 137.222 122.692C144.897 115.017 155.305 110.706 166.158 110.706C177.011 110.706 187.419 115.017 195.093 122.692C202.767 130.366 207.079 140.774 207.079 151.627C207.079 155.966 207.933 160.262 209.594 164.271C211.254 168.28 213.688 171.922 216.756 174.99C219.824 178.059 223.467 180.492 227.475 182.153C231.484 183.813 235.78 184.668 240.119 184.668C244.458 184.668 248.755 183.813 252.764 182.153C256.772 180.492 260.415 178.059 263.483 174.99C266.551 171.922 268.985 168.28 270.645 164.271C272.306 160.262 273.16 155.966 273.16 151.627C273.16 143.533 275.56 135.621 280.057 128.892C284.554 122.162 290.945 116.917 298.423 113.82C305.901 110.723 314.129 109.913 322.067 111.493C330.005 113.073 337.297 116.971 343.019 122.694C348.742 128.418 352.639 135.71 354.217 143.649C355.795 151.587 354.983 159.815 351.885 167.292C348.786 174.769 343.54 181.16 336.81 185.655C330.079 190.151 322.167 192.549 314.073 192.548H314.057Z" fill="#933FA1"/>
<path d="M274.043 179.089L273.436 178.592C275.231 176.373 276.801 173.982 278.125 171.453L278.826 171.823C277.472 174.395 275.87 176.828 274.043 179.089Z" fill="#538BFA"/>
<path d="M256.234 192.217L255.942 191.484C260.898 189.509 265.442 186.625 269.338 182.982L269.874 183.557C265.906 187.268 261.28 190.205 256.234 192.217Z" fill="#538BFA"/>
<path d="M149.862 322.087H155.646L156.221 308.675H150.437L149.862 322.087Z" fill="#FFC3BD"/>
<path opacity="0.2" d="M156.221 308.683L155.929 315.594H150.138L150.429 308.683H156.221Z" fill="black"/>
<path d="M107.428 317.54L113.086 318.762L118.767 306.28L113.11 305.051L107.428 317.54Z" fill="#FFC3BD"/>
<path opacity="0.2" d="M113.102 305.058L118.767 306.28L115.836 312.718L110.178 311.496L113.102 305.058Z" fill="black"/>
<path d="M137.482 133.369C135.497 136.86 133.495 140.461 131.58 144.046C129.665 147.632 127.79 151.241 126.198 154.834C125.781 155.74 125.41 156.631 125.063 157.521C125.063 157.608 125.063 157.521 125.063 157.521C125.063 157.521 125.063 157.576 125.063 157.639C125.035 157.867 125.035 158.097 125.063 158.325C125.207 159.071 125.443 159.796 125.765 160.484C126.13 161.312 126.541 162.12 126.994 162.903C129.043 166.3 131.321 169.554 133.81 172.643L130.832 175.795C127.303 173.196 124.125 170.153 121.376 166.741C119.777 164.812 118.541 162.609 117.727 160.24C117.485 159.473 117.337 158.679 117.286 157.876C117.243 157.399 117.243 156.919 117.286 156.442C117.313 156.177 117.355 155.914 117.412 155.654C117.412 155.528 117.475 155.394 117.507 155.26L117.609 154.921C117.956 153.865 118.295 152.793 118.681 151.769C120.192 147.755 121.918 143.825 123.85 139.996C125.757 136.198 127.751 132.526 129.973 128.854L137.482 133.369Z" fill="#FFC3BD"/>
<path d="M132.691 171.634L136.757 172.974L133.337 178.726C133.337 178.726 130.359 177.379 129.76 174.637L132.691 171.634Z" fill="#FFC3BD"/>
<path d="M142.297 175.196L138.341 179.625L133.338 178.726L136.757 172.974L142.297 175.196Z" fill="#FFC3BD"/>
<path d="M156.914 101.936C157.009 102.393 157.324 102.724 157.624 102.653C157.923 102.582 158.089 102.172 157.994 101.715C157.899 101.258 157.584 100.927 157.285 100.998C156.985 101.069 156.812 101.479 156.914 101.936Z" fill="#263238"/>
<path d="M157.285 102.724C158.114 104.01 159.116 105.177 160.263 106.191C159.996 106.478 159.67 106.703 159.306 106.85C158.942 106.997 158.551 107.063 158.159 107.042L157.285 102.724Z" fill="#ED847E"/>
<path d="M154.724 99.7372C154.653 99.7347 154.586 99.7067 154.535 99.6584C154.484 99.6069 154.456 99.5376 154.456 99.4654C154.456 99.3932 154.484 99.3239 154.535 99.2723C154.826 98.9419 155.194 98.6869 155.605 98.5291C156.017 98.3713 156.461 98.3154 156.899 98.3661C156.971 98.3777 157.035 98.4174 157.078 98.4765C157.121 98.5356 157.139 98.6092 157.127 98.6813C157.114 98.7524 157.074 98.8157 157.015 98.8582C156.956 98.9007 156.884 98.9191 156.812 98.9098C156.469 98.877 156.122 98.9263 155.802 99.0537C155.481 99.1811 155.195 99.383 154.968 99.6427C154.939 99.6786 154.902 99.7063 154.859 99.723C154.816 99.7396 154.769 99.7445 154.724 99.7372Z" fill="#263238"/>
<path d="M143.881 108.366C144.669 112.605 145.536 120.367 142.573 123.188C142.573 123.188 143.731 127.483 151.603 127.483C160.271 127.483 155.74 123.188 155.74 123.188C151.012 122.061 151.138 118.562 151.958 115.269L143.881 108.366Z" fill="#FFC3BD"/>
<path d="M141.391 124.142C140.76 123.354 140.075 122.369 141.493 122.069C143.069 121.746 151.635 121.407 154.59 122.022C157.545 122.636 156.702 124.315 156.702 124.315L141.391 124.142Z" fill="white"/>
<path d="M115.292 319.55C115.526 319.633 115.774 319.668 116.021 319.655C116.269 319.641 116.511 319.579 116.734 319.471C116.821 319.392 116.88 319.288 116.904 319.173C116.928 319.059 116.915 318.94 116.868 318.833C116.843 318.744 116.798 318.661 116.736 318.592C116.675 318.522 116.599 318.467 116.514 318.431C115.726 318.053 113.937 318.785 113.858 318.817C113.834 318.828 113.813 318.846 113.797 318.868C113.782 318.89 113.773 318.916 113.771 318.943C113.772 318.969 113.78 318.994 113.794 319.017C113.808 319.039 113.827 319.057 113.85 319.069C114.313 319.28 114.796 319.441 115.292 319.55ZM116.23 318.62L116.395 318.675C116.445 318.697 116.489 318.729 116.525 318.77C116.56 318.811 116.586 318.859 116.6 318.912C116.679 319.156 116.6 319.235 116.553 319.258C116.246 319.526 115.087 319.258 114.276 318.951C114.895 318.7 115.562 318.587 116.23 318.62Z" fill="#933FA1"/>
<path d="M113.882 319.077H113.945C114.607 318.888 116.001 317.887 116.017 317.233C116.02 317.131 115.986 317.031 115.923 316.95C115.86 316.87 115.771 316.814 115.671 316.792C115.572 316.756 115.467 316.742 115.362 316.75C115.257 316.758 115.156 316.789 115.064 316.839C114.276 317.233 113.803 318.833 113.779 318.904C113.768 318.924 113.761 318.947 113.761 318.971C113.761 318.994 113.768 319.017 113.779 319.038C113.808 319.063 113.844 319.077 113.882 319.077ZM115.521 317.028H115.576C115.749 317.083 115.749 317.17 115.749 317.202C115.749 317.588 114.812 318.368 114.173 318.691C114.355 318.054 114.723 317.486 115.229 317.06C115.321 317.02 115.423 317.009 115.521 317.028Z" fill="#933FA1"/>
<path d="M157.97 322.379C158.719 322.379 159.436 322.276 159.672 321.945C159.734 321.858 159.767 321.753 159.767 321.646C159.767 321.539 159.734 321.434 159.672 321.346C159.624 321.266 159.56 321.196 159.485 321.14C159.409 321.085 159.323 321.045 159.231 321.023C158.27 320.763 156.245 321.914 156.166 321.969C156.14 321.981 156.118 322.002 156.105 322.027C156.092 322.053 156.089 322.083 156.095 322.111C156.1 322.138 156.114 322.163 156.134 322.183C156.153 322.202 156.178 322.216 156.205 322.221C156.788 322.323 157.379 322.376 157.97 322.379ZM158.892 321.26C158.979 321.247 159.066 321.247 159.152 321.26C159.208 321.27 159.261 321.292 159.307 321.324C159.354 321.357 159.392 321.4 159.42 321.449C159.523 321.622 159.483 321.709 159.42 321.756C159.152 322.127 157.687 322.134 156.607 321.985C157.314 321.597 158.091 321.35 158.892 321.26Z" fill="#933FA1"/>
<path d="M156.221 322.221H156.276C156.977 321.906 158.364 320.645 158.254 319.999C158.254 319.841 158.12 319.652 157.75 319.613C157.609 319.597 157.467 319.61 157.332 319.651C157.196 319.691 157.07 319.759 156.962 319.849C156.229 320.456 156.071 322.016 156.063 322.079C156.06 322.103 156.064 322.128 156.074 322.15C156.083 322.172 156.099 322.191 156.119 322.205C156.15 322.223 156.186 322.228 156.221 322.221ZM157.639 319.857H157.718C157.962 319.857 157.978 319.975 157.986 320.007C158.049 320.401 157.111 321.386 156.41 321.811C156.486 321.152 156.761 320.53 157.198 320.031C157.326 319.934 157.48 319.879 157.639 319.873V319.857Z" fill="#933FA1"/>
<path d="M113.63 318.194L107.27 316.823C107.159 316.797 107.041 316.812 106.939 316.863C106.837 316.915 106.756 317.002 106.711 317.107L104.505 321.89C104.451 322.006 104.424 322.133 104.427 322.261C104.43 322.389 104.461 322.515 104.52 322.629C104.578 322.743 104.662 322.842 104.764 322.919C104.867 322.996 104.986 323.048 105.111 323.072C107.341 323.521 108.445 323.624 111.242 324.23C112.96 324.601 116.845 325.546 119.216 326.059C121.588 326.571 122.408 324.294 121.486 323.868C117.333 321.969 115.6 320.298 114.473 318.746C114.268 318.466 113.968 318.27 113.63 318.194Z" fill="#263238"/>
<path d="M155.606 321.417H149.302C149.187 321.418 149.076 321.457 148.986 321.528C148.896 321.6 148.832 321.7 148.806 321.811L147.663 326.957C147.636 327.081 147.637 327.21 147.666 327.334C147.696 327.457 147.753 327.573 147.833 327.671C147.914 327.77 148.015 327.849 148.13 327.903C148.246 327.956 148.371 327.983 148.499 327.981C150.776 327.981 154.078 327.816 156.938 327.816C160.295 327.816 163.187 327.997 167.119 327.997C169.483 327.997 170.153 325.594 169.16 325.373C164.629 324.388 160.933 324.278 157.017 321.867C156.598 321.588 156.109 321.432 155.606 321.417Z" fill="#263238"/>
<path d="M157.687 124.614C162.178 124.149 166.827 123.558 171.327 122.849C175.752 122.223 180.121 121.248 184.392 119.934C184.888 119.768 185.361 119.587 185.834 119.398C186.225 119.241 186.604 119.056 186.969 118.846C187.836 118.358 188.789 117.767 189.719 117.144C191.594 115.891 193.501 114.567 195.385 113.204L206.818 104.985L209.718 108.224C206.503 111.778 203.154 115.15 199.632 118.405C197.867 120.028 196.07 121.636 194.116 123.18C193.147 123.968 192.177 124.756 191.035 125.473C190.408 125.901 189.752 126.286 189.073 126.624C188.458 126.915 187.843 127.191 187.237 127.412C184.887 128.362 182.475 129.152 180.019 129.776C177.655 130.422 175.235 130.934 172.848 131.391C168.067 132.307 163.24 132.965 158.388 133.361L157.687 124.614Z" fill="#FFC3BD"/>
<path d="M132.211 124.504C126.781 125.749 117.672 152.691 117.672 152.691L126.537 155.638C126.537 155.638 135.583 142.242 138.657 135.772C141.84 128.996 137.758 123.228 132.211 124.504Z" fill="#263238"/>
<path d="M128.082 154.306C128.082 154.306 119.414 152.651 117.42 151.422C116.726 152.423 115.844 156.071 116.459 157.143C117.073 158.215 125.127 159.775 126.206 159.137C127.286 158.498 128.082 154.306 128.082 154.306Z" fill="#263238"/>
<path opacity="0.2" d="M128.082 154.306C128.082 154.306 119.414 152.651 117.42 151.422C116.726 152.423 115.844 156.071 116.459 157.143C117.073 158.215 125.127 159.775 126.206 159.137C127.286 158.498 128.082 154.306 128.082 154.306Z" fill="#FAFAFA"/>
<path d="M164.645 124.796C164.645 124.796 170.799 131.754 164.984 174.834H134.023C133.81 170.106 136.797 146.891 132.211 124.496C135.633 123.837 139.094 123.4 142.573 123.188C146.958 122.936 151.355 122.936 155.74 123.188C158.746 123.492 161.723 124.029 164.645 124.796Z" fill="#263238"/>
<path d="M153.66 134.007C159.215 139.736 187.063 128.31 187.063 128.31L182.595 119.713C182.595 119.713 165.181 123.33 158.025 123.188C149.2 123.007 149.46 129.65 153.66 134.007Z" fill="#263238"/>
<path d="M181.24 119.548C181.24 119.548 185.676 127.199 186.031 129.492C187.252 129.366 190.562 127.625 190.995 126.474C191.429 125.324 187.315 118.216 186.118 117.806C184.92 117.396 181.24 119.548 181.24 119.548Z" fill="#263238"/>
<path opacity="0.2" d="M181.24 119.548C181.24 119.548 185.676 127.199 186.031 129.492C187.252 129.366 190.562 127.625 190.995 126.474C191.429 125.324 187.315 118.216 186.118 117.806C184.92 117.396 181.24 119.548 181.24 119.548Z" fill="#FAFAFA"/>
<path d="M206.637 105.064L210.577 100.423L214.817 105.151C214.817 105.151 212.201 109.54 208.048 108.846L206.637 105.064Z" fill="#FFC3BD"/>
<path d="M216.117 98.2322L219.939 100.423L214.856 105.127L210.609 100.423L216.117 98.2322Z" fill="#FFC3BD"/>
<path d="M141.454 104.063C142.943 109.619 143.534 112.936 146.97 115.245C152.123 118.72 158.538 114.733 158.735 108.854C158.916 103.559 156.457 95.3718 150.5 94.2528C149.187 93.9953 147.83 94.0786 146.558 94.4946C145.286 94.9107 144.142 95.6457 143.235 96.6295C142.328 97.6133 141.688 98.8131 141.376 100.114C141.064 101.416 141.091 102.775 141.454 104.063Z" fill="#FFC3BD"/>
<path d="M153.613 82.9607C157.553 91.2505 137.104 86.6564 136.962 94.1818C136.962 94.497 136.962 94.7807 136.962 95.0565C136.379 94.5128 135.205 93.9139 133.18 94.7334C134.367 95.1819 135.443 95.8837 136.332 96.7901C135.544 97.4599 134.346 97.8145 134.858 101.022C135.103 102.598 136.671 104.962 138.712 107.058C139.602 108.484 142.494 111.723 142.439 112.503C142.881 112.505 143.319 112.413 143.723 112.235C143.851 112.53 143.907 112.851 143.889 113.173C144.96 113.377 145.804 113.228 145.898 112.487C146.773 112.566 147.403 112.329 147.435 111.628C148.27 111.746 148.845 111.478 148.806 110.58C150.792 109.493 151.469 107.2 151.832 104.639C152.253 101.398 153.875 98.4337 156.379 96.3331C160.39 93.1259 161.966 88.0669 153.613 82.9607Z" fill="#263238"/>
<path d="M149.428 103.772C149.812 105.152 150.644 106.366 151.792 107.223C153.305 108.342 154.424 107.223 154.322 105.537C154.227 103.961 153.321 101.597 151.659 101.116C149.996 100.636 148.995 102.101 149.428 103.772Z" fill="#FFC3BD"/>
<path d="M153.999 174.834C153.999 174.834 147.427 219.064 143.826 235.612C139.886 253.736 118.752 311.954 118.752 311.954L108.389 309.708C108.389 309.708 124.205 255.233 126.458 237.259C128.901 217.756 134.023 174.802 134.023 174.802L153.999 174.834Z" fill="#933FA1"/>
<path opacity="0.5" d="M153.999 174.834C153.999 174.834 147.427 219.064 143.826 235.612C139.886 253.736 118.752 311.954 118.752 311.954L108.389 309.708C108.389 309.708 124.205 255.233 126.458 237.259C128.901 217.756 134.023 174.802 134.023 174.802L153.999 174.834Z" fill="black"/>
<path opacity="0.3" d="M149.846 190.594C142.25 192.083 143.054 220.412 143.968 234.982C146.158 224.683 149.365 204.864 151.556 190.798C151.026 190.537 150.423 190.465 149.846 190.594Z" fill="black"/>
<path d="M164.984 174.834C164.984 174.834 165.772 218.118 165.149 235.77C164.495 254.13 158.057 314.254 158.057 314.254H148.278C148.278 314.254 147.915 255.202 147.49 237.172C147.009 217.472 144.637 174.834 144.637 174.834H164.984Z" fill="#933FA1"/>
<path opacity="0.5" d="M164.984 174.834C164.984 174.834 165.772 218.118 165.149 235.77C164.495 254.13 158.057 314.254 158.057 314.254H148.278C148.278 314.254 147.915 255.202 147.49 237.172C147.009 217.472 144.637 174.834 144.637 174.834H164.984Z" fill="black"/>
<path opacity="0.2" d="M156.024 307.21C156.011 307.209 155.998 307.205 155.986 307.199C155.975 307.193 155.964 307.184 155.956 307.174C155.948 307.163 155.942 307.151 155.939 307.139C155.936 307.126 155.935 307.113 155.937 307.099C157.663 290.473 161.737 250.222 162.241 235.762C162.769 220.995 162.296 187.946 162.131 178.167C162.131 178.14 162.142 178.114 162.161 178.094C162.18 178.075 162.206 178.064 162.233 178.064C162.258 178.064 162.283 178.074 162.3 178.092C162.318 178.11 162.328 178.134 162.328 178.159C162.493 187.938 162.966 220.995 162.438 235.77C161.926 250.237 157.852 290.488 156.134 307.123C156.133 307.136 156.13 307.149 156.124 307.161C156.117 307.173 156.109 307.183 156.098 307.191C156.088 307.199 156.076 307.205 156.063 307.208C156.05 307.212 156.037 307.212 156.024 307.21Z" fill="#FAFAFA"/>
<path d="M121.234 308.526C121.281 308.526 119.303 312.269 119.303 312.269L107.649 309.747L108.626 306.24L121.234 308.526Z" fill="#263238"/>
<path d="M159.964 310.346C160.011 310.346 159.412 314.42 159.412 314.42H147.49L147.167 310.787L159.964 310.346Z" fill="#263238"/>
</svg>
