<svg width="2078" height="1058" viewBox="0 0 2078 1058" fill="none" xmlns="http://www.w3.org/2000/svg">
<g filter="url(#filter0_d)">
<path d="M135.562 66.7348C135.562 66.7348 271.092 21.261 356.562 24.0466C444.38 26.9089 488.496 92.2983 575.562 80.8025C661.036 69.5168 699.914 45.3273 786.062 41.0249C879.689 36.3489 934.933 77.206 1028.06 66.7348C1069.88 62.0325 1087.01 26.0675 1129.06 24.0466C1181.38 21.5321 1222.22 78.737 1274.56 80.8025C1356.95 84.0535 1440.11 24.8372 1522.56 24.0466C1609.03 23.2176 1602.27 80.5448 1687.56 66.7348C1734.99 59.0551 1754.88 30.0728 1802.56 24.0466C1854.89 17.4328 1936.56 41.0249 1936.56 41.0249V468.877H135.562V66.7348Z" fill="white"/>
</g>
<g filter="url(#filter1_d)">
<path d="M170.171 188.429C170.171 188.429 305.702 99.7247 391.171 105.159C478.99 110.742 523.106 238.295 610.171 215.871C695.645 193.856 734.523 146.67 820.671 138.278C914.299 129.156 969.543 208.855 1062.67 188.429C1104.49 179.257 1121.62 109.101 1163.67 105.159C1215.99 100.253 1256.83 211.842 1309.17 215.871C1391.56 222.212 1474.72 106.701 1557.17 105.159C1643.64 103.541 1636.88 215.368 1722.17 188.429C1769.6 173.449 1789.49 116.914 1837.17 105.159C1889.5 92.2571 1971.17 138.278 1971.17 138.278C1971.17 138.278 2119.18 694.927 1883.17 833.377C1818.08 871.559 1780.99 907.543 1706.17 917.377C1628.02 927.648 1506.67 977.877 1406.67 942.377C1254.73 888.439 1232.17 882.877 1137.17 942.377C988.192 1035.68 911.171 960.377 719.671 969.877C619.631 974.84 490.955 1045.09 391.171 1036.38C297.738 1028.22 244.429 999.666 170.171 942.377C-62.9497 762.526 170.171 188.429 170.171 188.429Z" fill="white"/>
</g>
<path d="M134.946 106.209C134.946 106.209 270.448 10.1629 355.898 16.0465C443.698 22.0919 472.453 118.357 559.5 94.076C644.956 70.2393 667 16.0465 785.307 51.9066C875.387 79.2109 922.391 74.023 1015.5 51.9066C1057.31 41.9747 1086.19 4.64543 1128.23 0.377068C1180.54 -4.93399 1247.67 47.544 1300 51.9066C1382.37 58.7731 1445.64 -15.8903 1521.65 16.0465C1607 51.9066 1601.34 135.377 1686.61 106.209C1734.03 89.9885 1753.92 28.7745 1801.59 16.0465C1853.91 2.07723 1935.56 51.9066 1935.56 51.9066C1935.56 51.9066 2256.05 891.741 1935.56 955.581C1849.62 972.701 1799.98 933.248 1712.61 935.009C1622.31 936.828 1573.44 969.171 1483.16 966.409C1398.17 963.809 1353.54 919.803 1268.7 925.805C1217.12 929.454 1190.73 960.349 1139.23 955.581C1097.16 951.687 1077.93 928.371 1036.75 918.226C946.144 895.901 891.445 910.356 798.804 918.226C710.585 925.72 663.341 955.91 574.852 955.581C488.291 955.259 442.46 918.356 355.898 918.226C268.566 918.094 221.522 968.003 134.946 955.581C-168.682 912.017 134.946 106.209 134.946 106.209Z" fill="url(#paint0_linear)"/>
<defs>
<filter id="filter0_d" x="115.562" y="2.87695" width="1841" height="486" filterUnits="userSpaceOnUse" color-interpolation-filters="sRGB">
<feFlood flood-opacity="0" result="BackgroundImageFix"/>
<feColorMatrix in="SourceAlpha" type="matrix" values="0 0 0 0 0 0 0 0 0 0 0 0 0 0 0 0 0 0 127 0"/>
<feOffset/>
<feGaussianBlur stdDeviation="10"/>
<feColorMatrix type="matrix" values="0 0 0 0 0 0 0 0 0 0 0 0 0 0 0 0 0 0 0.1 0"/>
<feBlend mode="normal" in2="BackgroundImageFix" result="effect1_dropShadow"/>
<feBlend mode="normal" in="SourceGraphic" in2="effect1_dropShadow" result="shape"/>
</filter>
<filter id="filter1_d" x="46.562" y="82.877" width="1990.43" height="974.247" filterUnits="userSpaceOnUse" color-interpolation-filters="sRGB">
<feFlood flood-opacity="0" result="BackgroundImageFix"/>
<feColorMatrix in="SourceAlpha" type="matrix" values="0 0 0 0 0 0 0 0 0 0 0 0 0 0 0 0 0 0 127 0"/>
<feOffset/>
<feGaussianBlur stdDeviation="10"/>
<feColorMatrix type="matrix" values="0 0 0 0 0 0 0 0 0 0 0 0 0 0 0 0 0 0 0.1 0"/>
<feBlend mode="normal" in2="BackgroundImageFix" result="effect1_dropShadow"/>
<feBlend mode="normal" in="SourceGraphic" in2="effect1_dropShadow" result="shape"/>
</filter>
<linearGradient id="paint0_linear" x1="591.412" y1="236.201" x2="1958.72" y2="337.963" gradientUnits="userSpaceOnUse">
<stop stop-color="#933FA1"/>
<stop offset="1" stop-color="#933FA1"/>
</linearGradient>
</defs>
</svg>
