<svg width="720" height="563" viewBox="0 0 720 563" fill="none" xmlns="http://www.w3.org/2000/svg">
<g filter="url(#filter0_d)">
<path d="M81.3802 57.9066C91.922 47.5581 159.38 25.4064 260.38 57.9066C361.38 90.4067 377.38 67.4066 429.38 57.9066C481.38 48.4066 500.217 78.0916 533.88 82.9066C580.016 89.5056 609.346 82.5985 633.38 115.407C664.88 158.407 595.023 167.483 650.88 249.407C693.835 312.407 674.88 355.407 674.88 382.919C674.88 431.726 668.196 451.441 644.88 492.907C611.777 551.778 583.489 503.374 520.983 507.565C459.392 511.695 441.07 540.436 373.88 501.407C305.88 461.907 165.88 555.907 81.3801 492.907C-2.57936 430.31 86.6986 425.539 62.8385 382.919C32.8802 329.406 41.3707 315.731 40.4293 270.959C39.3771 220.917 58.4457 195.028 62.8385 145.21C67.2237 95.4772 46.4101 92.2353 81.3802 57.9066Z" fill="white"/>
</g>
<defs>
<filter id="filter0_d" x="0" y="0.876953" width="719.046" height="561.447" filterUnits="userSpaceOnUse" color-interpolation-filters="sRGB">
<feFlood flood-opacity="0" result="BackgroundImageFix"/>
<feColorMatrix in="SourceAlpha" type="matrix" values="0 0 0 0 0 0 0 0 0 0 0 0 0 0 0 0 0 0 127 0"/>
<feOffset/>
<feGaussianBlur stdDeviation="20"/>
<feColorMatrix type="matrix" values="0 0 0 0 0 0 0 0 0 0 0 0 0 0 0 0 0 0 0.1 0"/>
<feBlend mode="normal" in2="BackgroundImageFix" result="effect1_dropShadow"/>
<feBlend mode="normal" in="SourceGraphic" in2="effect1_dropShadow" result="shape"/>
</filter>
</defs>
</svg>
