<svg width="601" height="602" viewBox="0 0 601 602" fill="none" xmlns="http://www.w3.org/2000/svg">
<path d="M576.407 59.1438L459.464 37.7861C455.03 36.9763 450.778 39.9144 449.969 44.3486L429.864 154.434C429.054 158.868 431.992 163.119 436.426 163.929L553.369 185.287C557.804 186.096 562.055 183.158 562.865 178.724L582.97 68.6389C583.78 64.2047 580.841 59.9536 576.407 59.1438Z" fill="#F0D6D6"/>
<path d="M525.274 134.611C524.972 134.592 524.671 134.556 524.373 134.503L521.776 134.094L512.232 132.472L480.187 126.798H479.935V126.534C479.995 124.803 480.067 122.928 480.139 121.101C480.812 105.186 481.413 90.9788 481.81 81.6993L481.966 81.8916L473.408 80.2088L471.184 79.7641C470.922 79.7259 470.664 79.6615 470.415 79.5718C470.681 79.5728 470.947 79.601 471.208 79.6559L473.48 80.0165L482.002 81.4709H482.17V81.6392C481.834 90.9307 481.317 105.126 480.728 121.053C480.656 122.916 480.584 124.755 480.512 126.486L480.259 126.173L512.268 132.039L521.788 133.854L524.348 134.371C524.664 134.419 524.975 134.5 525.274 134.611Z" fill="#FAFAFA"/>
<path d="M480.56 116.942C480.56 116.942 480.644 116.942 480.788 116.942L481.461 117.038L484.045 117.447L493.661 119.105L526.909 124.983L526.584 125.164C528.567 119.755 530.731 113.901 532.955 107.831C534.157 104.718 535.239 101.652 536.308 98.7436L536.549 99.1402L497.4 91.9282L485.86 89.8247L482.735 89.1997L481.942 89.0314C481.847 89.0146 481.754 88.9863 481.665 88.9473H481.942L482.759 89.0675L485.896 89.5843L497.508 91.5796L536.693 98.5272L537.042 98.5993L536.921 98.9359C535.84 101.857 534.722 104.946 533.568 108.035L527.173 125.356L527.089 125.596H526.837L493.637 119.502L484.021 117.687L481.461 117.17L480.8 117.026L480.56 116.942Z" fill="#FAFAFA"/>
<path d="M489.214 140.754C489.214 140.754 489.214 140.333 489.214 139.636C489.108 138.648 488.687 137.72 488.012 136.991C487.511 136.47 486.889 136.08 486.201 135.856C485.514 135.632 484.782 135.58 484.069 135.705C483.203 135.859 482.405 136.274 481.783 136.896C481.16 137.517 480.743 138.314 480.587 139.18C480.431 140.045 480.544 140.938 480.911 141.737C481.278 142.537 481.881 143.204 482.639 143.65C483.262 144.014 483.965 144.22 484.686 144.249C485.406 144.279 486.124 144.131 486.774 143.819C487.671 143.382 488.401 142.665 488.853 141.775C489.166 141.138 489.25 140.742 489.298 140.754C489.323 141.14 489.244 141.526 489.07 141.871C488.669 142.871 487.929 143.697 486.978 144.203C486.265 144.579 485.468 144.77 484.661 144.757C483.855 144.745 483.064 144.529 482.363 144.131C481.477 143.648 480.765 142.898 480.329 141.988C479.893 141.079 479.754 140.055 479.932 139.061C480.111 138.068 480.597 137.156 481.322 136.455C482.047 135.753 482.975 135.297 483.973 135.152C484.77 135.025 485.587 135.1 486.347 135.371C487.108 135.642 487.788 136.1 488.325 136.703C489.06 137.498 489.486 138.53 489.527 139.612C489.519 140.012 489.412 140.405 489.214 140.754Z" fill="#FAFAFA"/>
<path d="M518.218 145.97C518.158 145.97 518.218 145.562 518.158 144.852C518.052 143.868 517.63 142.945 516.956 142.22C516.407 141.638 515.707 141.22 514.934 141.012C514.161 140.805 513.346 140.816 512.579 141.046C511.813 141.275 511.125 141.713 510.593 142.311C510.061 142.909 509.705 143.642 509.566 144.43C509.427 145.219 509.51 146.03 509.806 146.773C510.101 147.517 510.598 148.164 511.24 148.642C511.882 149.119 512.644 149.409 513.441 149.479C514.238 149.548 515.039 149.395 515.754 149.035C516.651 148.599 517.382 147.882 517.834 146.992C518.146 146.355 518.218 145.958 518.278 145.97C518.293 146.356 518.215 146.739 518.05 147.088C517.645 148.085 516.905 148.91 515.958 149.42C515.251 149.807 514.457 150.01 513.651 150.01C512.844 150.01 512.05 149.807 511.343 149.42C510.452 148.939 509.736 148.189 509.296 147.277C508.857 146.365 508.716 145.338 508.895 144.342C509.073 143.345 509.562 142.431 510.291 141.728C511.019 141.026 511.951 140.571 512.953 140.429C513.751 140.301 514.567 140.377 515.327 140.648C516.088 140.919 516.768 141.377 517.305 141.98C518.035 142.782 518.461 143.816 518.507 144.901C518.495 145.275 518.396 145.641 518.218 145.97Z" fill="#FAFAFA"/>
<path d="M545.834 101.182C549.866 95.205 548.289 87.0917 542.312 83.0603C536.335 79.0289 528.222 80.6059 524.19 86.5828C520.159 92.5596 521.736 100.673 527.713 104.704C533.689 108.736 541.803 107.159 545.834 101.182Z" fill="#FAFAFA"/>
<path d="M534.169 100.991C534.169 100.991 534.169 101.1 534.169 101.304H533.964C534.175 99.114 534.516 96.9386 534.986 94.7892C535.731 91.0509 536.489 88.058 536.693 88.106C536.897 88.1541 536.465 91.1952 535.719 94.9334C535.336 97.099 534.818 99.2386 534.169 101.34H533.964C534.073 101.076 534.133 100.979 534.169 100.991Z" fill="#F0D6D6"/>
<path d="M542.102 96.0154C542.102 96.2197 539.013 95.787 535.299 95.0417C531.584 94.2965 528.603 93.5393 528.64 93.3349C528.676 93.1306 531.729 93.5753 535.443 94.3085C539.157 95.0418 542.186 95.8351 542.102 96.0154Z" fill="#F0D6D6"/>
<path d="M124.287 99.1406C124.287 99.1406 123.289 99.4531 121.33 100.03C120.105 100.395 118.901 100.829 117.724 101.328C116.081 101.965 114.475 102.695 112.916 103.516C108.585 105.84 104.596 108.752 101.064 112.17C98.8391 114.351 96.7968 116.711 94.958 119.226C92.8681 122.114 91.0341 125.179 89.4769 128.385C87.7725 131.994 86.4821 135.785 85.6305 139.684C84.7349 143.99 84.4436 148.4 84.765 152.786C85.1075 157.557 86.1108 162.258 87.746 166.753C89.5439 171.613 92.0337 176.187 95.1383 180.336C101.509 189.002 111.257 195.817 122.532 200.349C133.807 204.881 146.572 207.561 159.854 209.797C188.983 214.658 218.407 217.545 247.924 218.439C263.827 218.896 280.306 218.848 297.206 218.054C305.62 217.694 314.251 217.093 322.941 216.408C331.632 215.723 340.454 214.953 349.385 214.424C367.235 213.403 385.794 213.138 404.245 216.901C423.132 220.715 440.845 228.954 455.931 240.941C463.633 247.104 470.466 254.281 476.244 262.276C476.954 263.298 477.735 264.271 478.396 265.329L480.367 268.502L481.365 270.089C481.677 270.63 481.954 271.195 482.254 271.736L484.021 275.053C484.646 276.135 485.079 277.313 485.62 278.455L487.147 281.893L488.421 285.499C488.829 286.701 489.322 287.903 489.623 289.105C492.522 298.874 493.761 309.06 493.289 319.239C492.716 329.545 490.42 339.682 486.497 349.229C486.03 350.437 485.501 351.621 484.911 352.775L483.204 356.128L481.281 359.482C480.62 360.6 480.079 361.754 479.273 362.787C477.887 364.958 476.391 367.056 474.79 369.074L472.386 372.091L469.778 374.903C466.317 378.656 462.528 382.092 458.455 385.169C454.467 388.258 450.288 391.093 445.942 393.655C437.288 398.695 428.286 403.113 419.005 406.877C409.846 410.663 400.627 414.089 391.491 417.49C354.987 431.145 319.564 443.742 285.547 454.933C268.543 460.542 251.907 465.795 235.64 470.691C219.373 475.587 203.555 480.115 188.185 484.273C180.504 486.389 172.92 488.3 165.479 490.283L143.531 495.729C136.48 497.434 129.306 498.579 122.075 499.154C118.573 499.44 115.057 499.516 111.546 499.383C109.803 499.383 108.084 499.178 106.377 499.046C104.67 498.914 102.963 498.661 101.305 498.313C94.7255 497.226 88.4289 494.839 82.7817 491.293C77.5037 487.809 73.0756 483.183 69.8242 477.759C66.8311 472.602 64.6996 466.991 63.5137 461.147C62.3365 455.651 62.0685 449.998 62.7203 444.415C63.8502 433.669 66.9874 423.981 70.2088 415.435C73.4302 406.889 77.0362 399.16 80.3176 392.332C86.9046 378.702 92.3977 368.292 95.2344 360.84C96.4439 358.085 97.1639 355.14 97.362 352.138C97.4156 351.101 97.1099 350.078 96.4965 349.241L96.6167 349.397C96.7381 349.55 96.8429 349.715 96.9293 349.89C97.273 350.588 97.4422 351.36 97.4221 352.138C97.2557 355.168 96.5474 358.144 95.3306 360.924C92.554 368.413 87.0849 378.846 80.534 392.489C77.2766 399.328 73.7547 406.973 70.4973 415.591C67.2399 424.21 64.1748 433.801 63.0689 444.499C62.4346 450.02 62.7107 455.607 63.8863 461.039C65.0691 466.836 67.1883 472.402 70.1607 477.518C73.3908 482.885 77.7813 487.46 83.0101 490.908C88.6101 494.392 94.844 496.733 101.353 497.796C103.011 498.145 104.706 498.289 106.389 498.517C108.072 498.746 109.803 498.818 111.534 498.842C115.029 498.975 118.529 498.899 122.015 498.613C129.222 498.027 136.371 496.878 143.399 495.176L165.335 489.706C172.763 487.759 180.348 485.848 188.029 483.696C203.402 479.562 219.221 474.982 235.46 470.09C251.699 465.198 268.346 459.933 285.343 454.32C319.347 443.117 354.758 430.496 391.263 416.841C400.386 413.428 409.606 410.014 418.753 406.228C428.003 402.493 436.977 398.107 445.605 393.102C449.948 390.56 454.127 387.75 458.118 384.688C462.167 381.635 465.932 378.223 469.369 374.495L471.953 371.694L474.357 368.701C475.943 366.698 477.428 364.616 478.805 362.463C479.525 361.403 480.191 360.308 480.8 359.181L482.699 355.84L484.37 352.366C484.911 351.164 485.512 350.07 485.945 348.844C489.841 339.362 492.121 329.294 492.688 319.059C493.161 308.955 491.942 298.843 489.082 289.141C488.781 287.939 488.3 286.737 487.88 285.535L486.618 282.013L485.091 278.587C484.562 277.457 484.142 276.291 483.517 275.21L481.762 271.916C481.461 271.375 481.185 270.822 480.872 270.281L479.886 268.707L477.927 265.558C477.278 264.5 476.497 263.538 475.8 262.516C470.041 254.574 463.232 247.449 455.558 241.337C440.552 229.431 422.938 221.25 404.16 217.466C385.794 213.715 367.283 213.968 349.457 214.977C340.527 215.506 331.728 216.264 323.013 216.949C314.299 217.634 305.729 218.223 297.255 218.583C280.294 219.365 263.815 219.401 247.9 218.932C218.361 218.044 188.916 215.148 159.77 210.266C146.428 208.066 133.698 205.458 122.364 200.746C111.029 196.034 101.244 189.327 94.8378 180.588C91.7284 176.4 89.2312 171.79 87.4214 166.897C85.7817 162.362 84.7785 157.621 84.4405 152.81C84.1269 148.382 84.4303 143.932 85.342 139.588C86.214 135.688 87.5203 131.898 89.2365 128.289C90.8183 125.072 92.6721 121.996 94.7777 119.094C96.6404 116.573 98.7111 114.213 100.968 112.038C104.556 108.615 108.601 105.707 112.988 103.396C114.552 102.592 116.157 101.87 117.796 101.232C118.974 100.763 120.178 100.362 121.402 100.03C123.277 99.4411 124.287 99.1406 124.287 99.1406Z" fill="#F0D6D6"/>
<path d="M96.5206 349.241C96.5206 349.241 96.2441 349.349 95.6792 349.517L93.203 350.25C89.9924 351.079 86.6976 351.539 83.3827 351.621C78.1183 351.712 72.8823 350.832 67.937 349.024C61.3819 346.583 55.5052 342.61 50.7965 337.437C50.1594 336.716 49.5945 335.935 48.9334 335.165L47.9958 333.963L47.1664 332.701C46.6255 331.848 45.9644 331.018 45.5077 330.117C45.0509 329.215 44.5461 328.266 44.0653 327.328C42.3274 323.31 40.8067 319.201 39.5097 315.02C36.6009 306.438 33.4276 297.314 30.2303 287.638C26.9176 277.304 27.661 266.096 32.3097 256.29C34.7365 251.141 38.1554 246.521 42.3705 242.695C46.7221 238.762 51.8318 235.76 57.3858 233.872C62.9399 231.985 68.821 231.253 74.6682 231.721C80.348 232.223 85.8738 233.836 90.9313 236.469C100.581 241.419 107.992 249.848 111.666 260.052C115.019 269.668 118.06 278.864 120.969 287.446C122.478 291.554 123.77 295.739 124.84 299.983C125.032 301.029 125.212 302.05 125.393 303.072C125.573 304.094 125.561 305.127 125.657 306.137L125.765 307.64V309.142C125.765 310.128 125.765 311.101 125.669 312.075C125.072 319.041 122.818 325.762 119.094 331.68C116.27 336.121 112.652 340.004 108.42 343.135C105.73 345.088 102.827 346.73 99.766 348.027L97.362 348.952C96.8211 349.157 96.5326 349.241 96.5326 349.241C96.5326 349.241 96.797 349.109 97.3379 348.892L99.7419 347.907C102.761 346.572 105.623 344.907 108.276 342.942C112.451 339.794 116.019 335.912 118.806 331.487C122.459 325.606 124.659 318.939 125.224 312.039C125.224 311.077 125.224 310.116 125.308 309.13V307.652C125.308 307.159 125.224 306.666 125.188 306.161C125.092 305.163 125.068 304.154 124.924 303.132C124.78 302.11 124.551 301.113 124.371 300.079C123.294 295.86 121.998 291.699 120.488 287.614C117.544 279.044 114.478 269.849 111.125 260.257C108.756 253.715 104.815 247.856 99.6484 243.195C94.4819 238.535 88.2487 235.217 81.4979 233.533C74.7471 231.85 67.6857 231.852 60.9359 233.539C54.1861 235.227 47.9549 238.549 42.7912 243.212C36.7563 248.672 32.4157 255.749 30.2849 263.603C28.1542 271.457 28.323 279.757 30.7712 287.518C33.9565 297.134 37.1177 306.329 39.9905 314.912C41.2753 319.076 42.7717 323.172 44.474 327.184L45.9043 329.937C46.3972 330.838 46.9982 331.655 47.527 332.509C47.8035 332.918 48.0679 333.338 48.3444 333.711L49.2699 334.913C49.883 335.67 50.4719 336.439 51.097 337.161C55.749 342.299 61.559 346.255 68.0452 348.7C72.9447 350.515 78.1338 351.423 83.3587 351.38C86.6574 351.327 89.9412 350.924 93.155 350.178L95.6431 349.505C96.2321 349.301 96.5206 349.241 96.5206 349.241Z" fill="#F0D6D6"/>
<path d="M113.577 265.617L32.454 293.155L113.577 265.617Z" fill="#F0D6D6"/>
<path d="M32.454 293.155C32.454 292.987 50.484 286.688 72.9253 279.092C95.3667 271.495 113.541 265.461 113.589 265.617C113.637 265.773 95.559 272.084 73.1297 279.681C50.7003 287.277 32.454 293.311 32.454 293.155Z" fill="#F0D6D6"/>
<path d="M58.1167 233.945C63.2372 249.042 68.3617 264.135 73.4903 279.224L58.1167 233.945Z" fill="#F0D6D6"/>
<path d="M73.4903 279.224C73.322 279.284 69.7521 269.187 65.509 256.686C61.266 244.186 57.9604 233.993 58.1167 233.945C58.273 233.896 61.8549 243.981 66.098 256.482C70.3411 268.983 73.6465 279.176 73.4903 279.224Z" fill="#F0D6D6"/>
<path d="M30.8193 351.128L31.9612 347.966C31.978 347.928 32.0057 347.895 32.0409 347.872C32.0762 347.849 32.1174 347.836 32.1595 347.836C32.2016 347.836 32.2428 347.849 32.278 347.872C32.3133 347.895 32.341 347.928 32.3578 347.966L33.3915 350.959C33.4209 351.02 33.4726 351.067 33.5358 351.092L36.7571 352.101C36.7996 352.116 36.8363 352.144 36.8624 352.18C36.8884 352.217 36.9024 352.261 36.9024 352.306C36.9024 352.35 36.8884 352.394 36.8624 352.431C36.8363 352.468 36.7996 352.495 36.7571 352.51L33.7401 353.604C33.71 353.616 33.6834 353.636 33.6625 353.661C33.6416 353.686 33.627 353.716 33.6199 353.748L32.6223 357.126C32.6054 357.164 32.5777 357.197 32.5425 357.22C32.5072 357.243 32.466 357.255 32.4239 357.255C32.3818 357.255 32.3406 357.243 32.3054 357.22C32.2702 357.197 32.2424 357.164 32.2256 357.126L30.8794 353.736C30.8562 353.682 30.8132 353.639 30.7592 353.616L28.1148 352.714C28.0762 352.697 28.0433 352.67 28.0202 352.634C27.9972 352.599 27.9849 352.558 27.9849 352.516C27.9849 352.474 27.9972 352.433 28.0202 352.397C28.0433 352.362 28.0762 352.334 28.1148 352.318L30.7111 351.224C30.7577 351.206 30.7961 351.172 30.8193 351.128Z" fill="#F0D6D6"/>
<path d="M54.6429 372.908L57.0469 366.081C57.0775 365.99 57.1357 365.911 57.2133 365.856C57.2909 365.8 57.3841 365.77 57.4796 365.77C57.5752 365.77 57.6683 365.8 57.7459 365.856C57.8236 365.911 57.8818 365.99 57.9124 366.081L60.124 372.535C60.1465 372.602 60.1842 372.663 60.2343 372.714C60.2843 372.764 60.3454 372.801 60.4125 372.824L67.3601 374.975C67.4506 375.006 67.5292 375.064 67.5849 375.142C67.6406 375.219 67.6706 375.313 67.6706 375.408C67.6706 375.504 67.6406 375.597 67.5849 375.674C67.5292 375.752 67.4506 375.81 67.3601 375.841L60.8693 378.245C60.8003 378.268 60.738 378.307 60.6877 378.359C60.6374 378.412 60.6007 378.475 60.5808 378.545L58.4172 385.829C58.3866 385.92 58.3284 385.999 58.2508 386.054C58.1732 386.11 58.08 386.14 57.9845 386.14C57.8889 386.14 57.7958 386.11 57.7182 386.054C57.6405 385.999 57.5823 385.92 57.5518 385.829L54.703 378.557C54.6803 378.495 54.6435 378.439 54.5956 378.393C54.5477 378.347 54.4898 378.313 54.4265 378.293L48.7411 376.358C48.6547 376.325 48.5803 376.266 48.5278 376.19C48.4754 376.114 48.4473 376.023 48.4473 375.931C48.4473 375.838 48.4754 375.748 48.5278 375.672C48.5803 375.596 48.6547 375.537 48.7411 375.504L54.3544 373.1C54.4707 373.073 54.5732 373.005 54.6429 372.908Z" fill="#F0D6D6"/>
<path d="M86.6762 64.4629L90.4866 53.9334C90.5361 53.7962 90.6267 53.6775 90.7461 53.5937C90.8655 53.5098 91.0078 53.4648 91.1537 53.4648C91.2996 53.4648 91.4419 53.5098 91.5613 53.5937C91.6807 53.6775 91.7713 53.7962 91.8208 53.9334L95.2225 63.886C95.2559 63.9921 95.3151 64.0882 95.3948 64.1658C95.4746 64.2434 95.5723 64.3001 95.6792 64.3307L106.389 67.6602C106.526 67.7097 106.645 67.8004 106.729 67.9197C106.813 68.0391 106.858 68.1815 106.858 68.3273C106.858 68.4732 106.813 68.6156 106.729 68.735C106.645 68.8543 106.526 68.945 106.389 68.9945L96.3523 72.6966C96.2496 72.7371 96.1573 72.8003 96.0823 72.8815C96.0074 72.9627 95.9518 73.0597 95.9196 73.1654L92.5781 84.4161C92.5317 84.5547 92.4429 84.6752 92.3242 84.7606C92.2056 84.846 92.0631 84.892 91.917 84.892C91.7708 84.892 91.6283 84.846 91.5097 84.7606C91.3911 84.6752 91.3023 84.5547 91.2559 84.4161L86.8445 73.1894C86.8056 73.0944 86.7469 73.0089 86.6723 72.9384C86.5977 72.8679 86.5089 72.8142 86.4118 72.7808L77.6372 69.7998C77.5039 69.7481 77.3894 69.6572 77.3087 69.5393C77.2279 69.4213 77.1847 69.2817 77.1847 69.1387C77.1847 68.9957 77.2279 68.8561 77.3087 68.7381C77.3894 68.6202 77.5039 68.5293 77.6372 68.4776L86.2796 64.7995C86.4503 64.7427 86.5924 64.6221 86.6762 64.4629Z" fill="#F0D6D6"/>
<path d="M350.623 50.3875L352.811 44.3775C352.836 44.2968 352.887 44.2263 352.955 44.1762C353.023 44.1261 353.105 44.0991 353.19 44.0991C353.274 44.0991 353.356 44.1261 353.425 44.1762C353.493 44.2263 353.543 44.2968 353.568 44.3775L355.528 50.0991C355.552 50.1571 355.588 50.2095 355.633 50.2529C355.679 50.2963 355.733 50.3299 355.792 50.3515L361.946 52.2507C362.025 52.2791 362.094 52.3313 362.142 52.4002C362.191 52.469 362.217 52.5511 362.217 52.6353C362.217 52.7195 362.191 52.8016 362.142 52.8704C362.094 52.9393 362.025 52.9915 361.946 53.0199L356.189 55.1475C356.129 55.1697 356.076 55.2051 356.032 55.2508C355.988 55.2966 355.956 55.3517 355.936 55.4119L354.025 61.8787C353.997 61.9579 353.944 62.0264 353.876 62.0748C353.807 62.1233 353.725 62.1493 353.64 62.1493C353.556 62.1493 353.474 62.1233 353.405 62.0748C353.336 62.0264 353.284 61.9579 353.256 61.8787L350.72 55.4239C350.7 55.3699 350.668 55.3212 350.626 55.2815C350.584 55.2419 350.534 55.2125 350.479 55.1955L345.443 53.4887C345.367 53.4581 345.303 53.4057 345.258 53.3383C345.212 53.2708 345.188 53.1914 345.188 53.1101C345.188 53.0288 345.212 52.9493 345.258 52.8819C345.303 52.8144 345.367 52.7621 345.443 52.7315L350.407 50.6159C350.505 50.5687 350.581 50.4875 350.623 50.3875Z" fill="#F0D6D6"/>
<path d="M561.923 237.323L564.111 231.313C564.139 231.233 564.191 231.165 564.26 231.116C564.329 231.068 564.411 231.042 564.495 231.042C564.579 231.042 564.662 231.068 564.73 231.116C564.799 231.165 564.851 231.233 564.88 231.313L566.839 237.034C566.858 237.093 566.89 237.147 566.934 237.191C566.978 237.235 567.032 237.268 567.092 237.286L573.246 239.198C573.325 239.226 573.393 239.278 573.442 239.347C573.49 239.416 573.516 239.498 573.516 239.582C573.516 239.666 573.49 239.749 573.442 239.817C573.393 239.886 573.325 239.939 573.246 239.967L567.488 242.094C567.429 242.117 567.376 242.152 567.332 242.198C567.288 242.244 567.255 242.299 567.236 242.359L565.325 248.814C565.299 248.894 565.249 248.965 565.181 249.015C565.113 249.065 565.031 249.092 564.946 249.092C564.861 249.092 564.779 249.065 564.711 249.015C564.643 248.965 564.593 248.894 564.567 248.814L562.031 242.371C562.009 242.318 561.977 242.271 561.935 242.231C561.894 242.192 561.845 242.162 561.791 242.143L556.742 240.424C556.667 240.393 556.603 240.341 556.557 240.273C556.512 240.206 556.487 240.126 556.487 240.045C556.487 239.964 556.512 239.884 556.557 239.817C556.603 239.749 556.667 239.697 556.742 239.666L561.707 237.563C561.757 237.54 561.802 237.506 561.84 237.465C561.877 237.424 561.905 237.375 561.923 237.323Z" fill="#F0D6D6"/>
<path d="M404.521 48.2716L408.428 37.4536C408.478 37.3135 408.57 37.1924 408.691 37.1067C408.813 37.0211 408.958 36.9751 409.107 36.9751C409.255 36.9751 409.4 37.0211 409.522 37.1067C409.644 37.1924 409.736 37.3135 409.786 37.4536L413.272 47.6465C413.306 47.754 413.367 47.8511 413.449 47.9288C413.531 48.0066 413.631 48.0624 413.74 48.0913L424.691 51.4929C424.835 51.5404 424.96 51.6321 425.05 51.7552C425.139 51.8782 425.187 52.0262 425.187 52.1781C425.187 52.33 425.139 52.478 425.05 52.601C424.96 52.724 424.835 52.8158 424.691 52.8632L414.425 56.6495C414.319 56.6897 414.224 56.7541 414.146 56.8375C414.069 56.9209 414.013 57.0212 413.981 57.1303L410.567 68.6335C410.524 68.776 410.437 68.9016 410.319 68.9929C410.201 69.0842 410.058 69.1368 409.909 69.1434C409.76 69.15 409.613 69.1103 409.488 69.0297C409.362 68.9492 409.265 68.8317 409.209 68.6936L404.689 57.2145C404.653 57.1168 404.595 57.0285 404.52 56.9558C404.445 56.8831 404.355 56.8277 404.257 56.7938L395.326 53.7647C395.19 53.7124 395.073 53.6201 394.99 53.4999C394.908 53.3797 394.863 53.2374 394.863 53.0916C394.863 52.9458 394.908 52.8035 394.99 52.6833C395.073 52.5631 395.19 52.4708 395.326 52.4185L404.172 48.6562C404.328 48.5707 404.451 48.4353 404.521 48.2716Z" fill="#F0D6D6"/>
<path d="M467.097 81.4111H146.115C137.883 81.4111 131.21 88.0841 131.21 96.3157V569.918C131.21 578.15 137.883 584.823 146.115 584.823H467.097C475.329 584.823 482.002 578.15 482.002 569.918V96.3157C482.002 88.0841 475.329 81.4111 467.097 81.4111Z" fill="#515152"/>
<path d="M470.674 115.877H142V536.288H470.674V115.877Z" fill="white"/>
<path d="M320.065 559.53C320.065 562.192 319.276 564.794 317.797 567.008C316.318 569.221 314.216 570.946 311.757 571.965C309.297 572.983 306.591 573.25 303.98 572.731C301.37 572.211 298.971 570.93 297.089 569.047C295.207 567.165 293.925 564.767 293.405 562.156C292.886 559.545 293.153 556.839 294.171 554.379C295.19 551.92 296.915 549.818 299.129 548.339C301.342 546.86 303.944 546.071 306.606 546.071C310.176 546.071 313.599 547.489 316.123 550.013C318.647 552.537 320.065 555.96 320.065 559.53Z" fill="#515152"/>
<path d="M357.849 95.9028H255.35C254.481 95.9028 253.776 96.6077 253.776 97.4772V99.8903C253.776 100.76 254.481 101.465 255.35 101.465H357.849C358.719 101.465 359.424 100.76 359.424 99.8903V97.4772C359.424 96.6077 358.719 95.9028 357.849 95.9028Z" fill="#515152"/>
<path d="M181.977 425.421C181.544 425.245 181.133 425.02 180.751 424.75C180.003 424.286 178.919 423.576 177.602 422.673C175.022 420.866 171.408 418.259 167.511 415.343L157.549 407.858L154.53 405.6C154.133 405.354 153.769 405.059 153.446 404.723C153.882 404.887 154.294 405.108 154.671 405.381C155.433 405.845 156.517 406.555 157.833 407.471C160.414 409.278 164.014 411.885 167.911 414.801C171.808 417.717 175.202 420.272 177.873 422.286L180.906 424.544C181.297 424.792 181.657 425.086 181.977 425.421Z" fill="#515152"/>
<path d="M176.802 434.106C172.612 433.606 168.451 432.887 164.337 431.951C160.177 431.234 156.059 430.295 152 429.138C156.191 429.631 160.353 430.35 164.466 431.293C168.625 432.009 172.743 432.949 176.802 434.106Z" fill="#515152"/>
<path d="M187.707 417.743C186.125 415.432 184.732 412.998 183.538 410.465C182.158 408.031 180.968 405.494 179.977 402.877C181.558 405.188 182.952 407.622 184.145 410.155C185.528 412.588 186.719 415.125 187.707 417.743Z" fill="#515152"/>
<path d="M158.625 372.155L160.638 366.554C160.704 366.357 160.831 366.185 161 366.064C161.169 365.942 161.372 365.877 161.58 365.877C161.788 365.877 161.991 365.942 162.16 366.064C162.329 366.185 162.456 366.357 162.522 366.554L164.315 371.716C164.369 371.863 164.455 371.996 164.566 372.106C164.678 372.215 164.813 372.298 164.961 372.349L170.613 374.116C170.81 374.183 170.982 374.309 171.103 374.478C171.225 374.647 171.29 374.85 171.29 375.058C171.29 375.267 171.225 375.47 171.103 375.639C170.982 375.808 170.81 375.934 170.613 376L165.451 377.91C165.303 377.963 165.17 378.05 165.062 378.165C164.955 378.279 164.876 378.418 164.832 378.568L163.09 384.556C163.028 384.755 162.907 384.93 162.742 385.057C162.577 385.185 162.377 385.258 162.169 385.266C161.96 385.275 161.755 385.218 161.58 385.105C161.405 384.992 161.27 384.827 161.193 384.633L158.792 378.556C158.738 378.422 158.655 378.301 158.551 378.201C158.446 378.101 158.322 378.024 158.186 377.975L153.669 376.439C153.479 376.372 153.314 376.248 153.194 376.085C153.075 375.922 153.008 375.727 153.001 375.526C152.994 375.324 153.048 375.125 153.155 374.954C153.263 374.783 153.42 374.649 153.605 374.568L158.07 372.684C158.317 372.587 158.516 372.397 158.625 372.155Z" fill="#538BFA"/>
<path d="M433.624 156.155L435.638 150.554C435.704 150.357 435.83 150.185 435.999 150.064C436.168 149.942 436.371 149.877 436.58 149.877C436.788 149.877 436.991 149.942 437.16 150.064C437.329 150.185 437.455 150.357 437.522 150.554L439.315 155.716C439.369 155.863 439.454 155.996 439.566 156.106C439.678 156.215 439.812 156.298 439.96 156.349L445.613 158.116C445.81 158.183 445.982 158.309 446.103 158.478C446.225 158.647 446.29 158.85 446.29 159.058C446.29 159.267 446.225 159.47 446.103 159.639C445.982 159.808 445.81 159.934 445.613 160L440.451 161.91C440.303 161.963 440.17 162.05 440.062 162.165C439.954 162.279 439.875 162.418 439.831 162.568L438.089 168.556C438.028 168.755 437.907 168.93 437.742 169.057C437.577 169.185 437.376 169.258 437.168 169.266C436.96 169.275 436.755 169.218 436.58 169.105C436.405 168.992 436.27 168.827 436.192 168.633L433.792 162.556C433.737 162.422 433.655 162.301 433.551 162.201C433.446 162.101 433.322 162.024 433.186 161.975L428.669 160.439C428.479 160.372 428.313 160.248 428.194 160.085C428.075 159.922 428.008 159.727 428.001 159.526C427.994 159.324 428.048 159.125 428.155 158.954C428.263 158.783 428.42 158.649 428.605 158.568L433.07 156.684C433.316 156.587 433.515 156.397 433.624 156.155Z" fill="#538BFA"/>
<path d="M454.432 354.902L455.4 352.192C455.436 352.1 455.498 352.02 455.58 351.963C455.662 351.907 455.759 351.877 455.858 351.877C455.958 351.877 456.055 351.907 456.136 351.963C456.218 352.02 456.281 352.1 456.316 352.192L457.181 354.773C457.206 354.847 457.249 354.913 457.305 354.967C457.361 355.021 457.429 355.061 457.504 355.083L460.227 355.935C460.325 355.964 460.412 356.024 460.474 356.107C460.536 356.189 460.569 356.29 460.569 356.393C460.569 356.496 460.536 356.596 460.474 356.679C460.412 356.761 460.325 356.822 460.227 356.851L457.71 357.78C457.641 357.807 457.578 357.848 457.527 357.902C457.476 357.955 457.437 358.019 457.413 358.09L456.562 360.993C456.526 361.086 456.463 361.166 456.382 361.222C456.3 361.278 456.203 361.309 456.104 361.309C456.004 361.309 455.907 361.278 455.825 361.222C455.744 361.166 455.681 361.086 455.645 360.993L454.484 358.051C454.462 357.983 454.423 357.922 454.371 357.872C454.319 357.823 454.256 357.787 454.187 357.767L452.006 357.019C451.912 356.986 451.831 356.925 451.773 356.844C451.715 356.764 451.684 356.666 451.684 356.567C451.684 356.467 451.715 356.37 451.773 356.289C451.831 356.208 451.912 356.148 452.006 356.115L454.161 355.199C454.287 355.14 454.385 355.033 454.432 354.902Z" fill="#538BFA"/>
<path d="M437.579 374.775L439.592 369.162C439.664 368.97 439.793 368.805 439.962 368.689C440.13 368.572 440.33 368.51 440.534 368.51C440.739 368.51 440.939 368.572 441.107 368.689C441.275 368.805 441.404 368.97 441.476 369.162L443.27 374.323C443.322 374.47 443.407 374.602 443.519 374.71C443.631 374.817 443.767 374.897 443.915 374.943L449.567 376.711C449.763 376.78 449.933 376.909 450.053 377.079C450.173 377.249 450.237 377.451 450.237 377.659C450.237 377.867 450.173 378.07 450.053 378.24C449.933 378.41 449.763 378.538 449.567 378.608L444.406 380.505C444.26 380.559 444.129 380.647 444.024 380.762C443.919 380.876 443.842 381.013 443.799 381.163L442.031 387.163C441.975 387.364 441.857 387.543 441.694 387.673C441.531 387.803 441.33 387.878 441.122 387.888C440.913 387.898 440.707 387.842 440.532 387.729C440.357 387.615 440.222 387.448 440.147 387.254L437.799 381.227C437.748 381.091 437.667 380.968 437.562 380.868C437.457 380.767 437.33 380.692 437.192 380.647L432.676 379.098C432.484 379.033 432.317 378.912 432.197 378.75C432.076 378.588 432.008 378.393 432.001 378.191C431.994 377.989 432.048 377.79 432.158 377.62C432.267 377.45 432.425 377.318 432.611 377.24L437.076 375.356C437.311 375.232 437.49 375.025 437.579 374.775Z" fill="#538BFA"/>
<path d="M181.432 144.902L182.4 142.192C182.435 142.1 182.498 142.02 182.58 141.963C182.662 141.907 182.759 141.877 182.858 141.877C182.957 141.877 183.054 141.907 183.136 141.963C183.218 142.02 183.281 142.1 183.316 142.192L184.181 144.773C184.206 144.847 184.249 144.913 184.305 144.967C184.361 145.021 184.429 145.061 184.503 145.083L187.226 145.935C187.325 145.964 187.412 146.024 187.474 146.107C187.536 146.189 187.569 146.29 187.569 146.393C187.569 146.496 187.536 146.596 187.474 146.679C187.412 146.761 187.325 146.822 187.226 146.851L184.71 147.78C184.641 147.807 184.578 147.848 184.527 147.902C184.476 147.955 184.437 148.019 184.413 148.09L183.561 150.993C183.526 151.086 183.463 151.166 183.381 151.222C183.3 151.278 183.203 151.309 183.103 151.309C183.004 151.309 182.907 151.278 182.825 151.222C182.743 151.166 182.681 151.086 182.645 150.993L181.484 148.051C181.461 147.983 181.422 147.922 181.371 147.872C181.319 147.823 181.256 147.787 181.187 147.767L179.006 147.019C178.912 146.986 178.83 146.925 178.773 146.844C178.715 146.764 178.684 146.666 178.684 146.567C178.684 146.467 178.715 146.37 178.773 146.289C178.83 146.208 178.912 146.148 179.006 146.115L181.161 145.199C181.287 145.14 181.384 145.033 181.432 144.902Z" fill="#538BFA"/>
<path d="M164.579 164.775L166.592 159.162C166.664 158.97 166.793 158.805 166.961 158.689C167.13 158.572 167.329 158.51 167.534 158.51C167.739 158.51 167.939 158.572 168.107 158.689C168.275 158.805 168.404 158.97 168.476 159.162L170.27 164.323C170.321 164.47 170.407 164.602 170.519 164.71C170.631 164.817 170.767 164.897 170.915 164.943L176.567 166.711C176.763 166.78 176.933 166.909 177.052 167.079C177.172 167.249 177.237 167.451 177.237 167.659C177.237 167.867 177.172 168.07 177.052 168.24C176.933 168.41 176.763 168.538 176.567 168.608L171.405 170.505C171.26 170.559 171.129 170.647 171.024 170.762C170.919 170.876 170.841 171.013 170.799 171.163L169.031 177.163C168.975 177.364 168.857 177.543 168.694 177.673C168.53 177.803 168.33 177.878 168.122 177.888C167.913 177.898 167.707 177.842 167.532 177.729C167.357 177.615 167.222 177.448 167.147 177.254L164.798 171.227C164.747 171.091 164.666 170.968 164.561 170.868C164.456 170.767 164.33 170.692 164.192 170.647L159.675 169.098C159.484 169.033 159.317 168.912 159.196 168.75C159.076 168.588 159.008 168.393 159.001 168.191C158.994 167.989 159.048 167.79 159.157 167.62C159.266 167.45 159.425 167.318 159.611 167.24L164.076 165.356C164.31 165.232 164.49 165.025 164.579 164.775Z" fill="#538BFA"/>
<path d="M567.092 550.323C567.092 550.492 447.733 550.636 300.512 550.636C153.291 550.636 33.9084 550.492 33.9084 550.323C33.9084 550.155 153.243 550.011 300.512 550.011C447.781 550.011 567.092 550.191 567.092 550.323Z" fill="#515152"/>
<path d="M81.6278 156.127L85.943 144.107C85.9993 143.952 86.1022 143.817 86.2377 143.722C86.3732 143.627 86.5347 143.576 86.7002 143.576C86.8658 143.576 87.0273 143.627 87.1628 143.722C87.2982 143.817 87.4012 143.952 87.4575 144.107L91.352 155.514C91.3929 155.633 91.4609 155.74 91.5506 155.828C91.6404 155.916 91.7493 155.981 91.8688 156.019L104.105 159.854C104.267 159.904 104.408 160.005 104.508 160.141C104.608 160.277 104.662 160.442 104.662 160.611C104.662 160.78 104.608 160.945 104.508 161.081C104.408 161.217 104.267 161.318 104.105 161.368L92.7463 165.551C92.6259 165.592 92.5172 165.662 92.4293 165.754C92.3414 165.846 92.277 165.958 92.2415 166.08L88.4912 178.893C88.4454 179.056 88.3496 179.2 88.2173 179.306C88.085 179.411 87.9228 179.472 87.7539 179.48C87.5851 179.488 87.4179 179.442 87.2763 179.35C87.1346 179.258 87.0256 179.123 86.9647 178.965L81.8922 166.152C81.8527 166.043 81.789 165.944 81.7057 165.862C81.6224 165.781 81.5218 165.72 81.4114 165.683L71.3868 162.246C71.2351 162.187 71.1047 162.084 71.0127 161.95C70.9208 161.816 70.8716 161.657 70.8716 161.494C70.8716 161.332 70.9208 161.173 71.0127 161.039C71.1047 160.905 71.2351 160.802 71.3868 160.743L81.2311 156.596C81.4148 156.492 81.5554 156.326 81.6278 156.127Z" fill="#538BFA"/>
<path d="M111.053 200.65L112.832 195.721C112.851 195.653 112.892 195.593 112.948 195.55C113.005 195.508 113.073 195.484 113.144 195.484C113.215 195.484 113.284 195.508 113.34 195.55C113.397 195.593 113.438 195.653 113.457 195.721L115.067 200.409C115.085 200.459 115.113 200.505 115.151 200.542C115.188 200.58 115.234 200.608 115.284 200.626L120.32 202.2C120.388 202.219 120.448 202.26 120.491 202.317C120.534 202.373 120.557 202.442 120.557 202.513C120.557 202.584 120.534 202.652 120.491 202.709C120.448 202.765 120.388 202.806 120.32 202.825L115.62 204.556C115.571 204.572 115.526 204.601 115.491 204.638C115.455 204.676 115.429 204.722 115.416 204.772L113.877 210.025C113.852 210.088 113.809 210.141 113.754 210.179C113.698 210.217 113.632 210.237 113.565 210.237C113.498 210.237 113.432 210.217 113.376 210.179C113.321 210.141 113.277 210.088 113.252 210.025L111.161 204.748C111.145 204.702 111.118 204.66 111.083 204.627C111.047 204.593 111.004 204.569 110.957 204.556L106.834 203.138C106.77 203.116 106.715 203.074 106.676 203.019C106.637 202.964 106.616 202.899 106.616 202.831C106.616 202.764 106.637 202.698 106.676 202.643C106.715 202.588 106.77 202.547 106.834 202.525L110.896 200.806C110.964 200.772 111.019 200.717 111.053 200.65Z" fill="#538BFA"/>
<path d="M552.779 554.876L551.747 541.476H528.331L529.3 557.871L537.994 562.69L552.779 554.876Z" fill="#FFD2C1"/>
<path d="M528.684 554.838L528.747 556.373C528.747 556.373 503.192 568.062 503.141 573.02L554.855 570.327L553.257 553.152C549.522 555.181 545.394 556.381 541.154 556.672C536.914 556.963 532.661 556.337 528.684 554.838Z" fill="#538BFA"/>
<g opacity="0.6">
<path opacity="0.6" d="M548.3 558.927C548.805 559.05 549.247 559.356 549.54 559.786C549.833 560.216 549.956 560.74 549.885 561.255C549.781 561.764 549.486 562.214 549.059 562.512C548.633 562.809 548.109 562.931 547.595 562.853C547.052 562.718 546.58 562.385 546.27 561.92C545.96 561.454 545.836 560.889 545.922 560.337C546.087 559.815 546.449 559.378 546.93 559.118C547.411 558.858 547.974 558.794 548.501 558.94" fill="white"/>
</g>
<g opacity="0.6">
<path opacity="0.6" d="M554.855 570.327L554.465 566.2L505.054 570.289C505.054 570.289 502.801 571.409 503.141 573.02L554.855 570.327Z" fill="white"/>
</g>
<path d="M528.545 556.537C528.545 556.788 529.803 556.839 531.125 557.581C532.446 558.324 533.125 559.355 533.352 559.242C533.578 559.129 533.125 557.694 531.552 556.814C529.98 555.933 528.545 556.298 528.545 556.537Z" fill="#515152"/>
<path d="M523.261 559.053C523.261 559.305 524.33 559.682 525.249 560.701C526.167 561.721 526.507 562.84 526.721 562.815C526.935 562.79 527.06 561.356 525.903 560.11C524.745 558.864 523.261 558.814 523.261 559.053Z" fill="#515152"/>
<path d="M520.518 565.709C520.757 565.709 521.046 564.451 520.316 563.117C519.586 561.784 518.391 561.28 518.29 561.507C518.19 561.733 518.97 562.413 519.549 563.532C520.128 564.652 520.266 565.697 520.518 565.709Z" fill="#515152"/>
<path d="M583.656 524.98L584.776 565.131L566.217 564.489L560.693 525.534L583.656 524.98Z" fill="#FFD2C1"/>
<path d="M565.299 556.637C565.299 556.637 578.649 565.193 584.676 557.166L586.462 560.94L594.817 587.59C595.097 588.434 595.054 589.351 594.696 590.165C594.338 590.979 593.691 591.631 592.879 591.994C592.258 592.256 591.577 592.34 590.91 592.238C590.244 592.136 589.619 591.851 589.105 591.415C583.568 586.646 563.298 568.968 563.399 566.477L563.248 559.858C563.235 559.181 563.428 558.515 563.801 557.95C564.174 557.384 564.709 556.944 565.336 556.688L565.299 556.637Z" fill="#538BFA"/>
<g opacity="0.6">
<path opacity="0.6" d="M592.25 592.145L563.311 564.124V565.571C563.297 566.168 563.418 566.76 563.667 567.303C563.915 567.845 564.284 568.325 564.745 568.704C567.11 571.598 573.553 578.015 588.941 591.352C589.388 591.732 589.919 592 590.49 592.134C591.061 592.267 591.656 592.263 592.225 592.12L592.25 592.145Z" fill="white"/>
</g>
<g opacity="0.6">
<path opacity="0.6" d="M567.224 559.682C567.661 559.967 567.975 560.406 568.104 560.912C568.232 561.418 568.165 561.954 567.916 562.413C567.628 562.857 567.183 563.177 566.67 563.308C566.156 563.438 565.613 563.37 565.148 563.117C564.68 562.819 564.344 562.353 564.209 561.815C564.073 561.277 564.148 560.708 564.418 560.223C564.767 559.79 565.267 559.505 565.818 559.425C566.369 559.346 566.93 559.478 567.387 559.795" fill="white"/>
</g>
<path d="M583.669 577.575C583.87 577.663 584.587 575.838 586.626 574.807C587.892 574.257 589.248 573.946 590.627 573.888C590.627 573.812 590.199 573.561 589.369 573.485C588.288 573.407 587.207 573.634 586.248 574.14C585.299 574.637 584.513 575.397 583.983 576.329C583.618 577.046 583.581 577.549 583.669 577.575Z" fill="#515152"/>
<path d="M586.336 582.041C587.318 581.452 588.335 580.922 589.381 580.456C590.502 580.202 591.636 580.013 592.779 579.89C592.879 579.714 591.168 579.047 589.13 579.739C587.091 580.431 586.16 581.928 586.336 582.041Z" fill="#515152"/>
<path d="M578.8 571.862C578.976 572.013 580.624 570.226 583.329 569.094C586.035 567.962 588.463 567.949 588.463 567.723C588.463 567.496 585.946 567.169 583.015 568.415C580.083 569.66 578.623 571.862 578.8 571.862Z" fill="#515152"/>
<path d="M577.893 563.734C577.994 563.935 579.894 563.067 582.41 562.891C584.927 562.715 586.928 563.205 587.003 562.991C585.593 562.187 583.952 561.885 582.348 562.136C579.642 562.35 577.768 563.583 577.893 563.734Z" fill="#515152"/>
<path d="M583.832 562.765C583.857 562.332 583.774 561.9 583.593 561.507C583.212 560.373 582.604 559.328 581.807 558.437C581.282 557.723 580.533 557.205 579.68 556.965C579.391 556.905 579.091 556.935 578.819 557.049C578.548 557.164 578.317 557.358 578.158 557.606C577.891 558.104 577.824 558.684 577.969 559.229C578.316 560.346 579.04 561.307 580.018 561.948C580.996 562.588 582.167 562.868 583.329 562.74C584.475 562.612 585.558 562.148 586.442 561.407C587.326 560.666 587.972 559.681 588.299 558.575C588.374 558.301 588.388 558.013 588.34 557.733C588.293 557.453 588.184 557.186 588.022 556.952C587.829 556.726 587.57 556.566 587.281 556.494C586.993 556.422 586.689 556.441 586.412 556.549C585.619 556.913 584.933 557.477 584.424 558.185C583.663 559.106 583.071 560.154 582.675 561.28C582.494 561.674 582.407 562.105 582.423 562.539C583.028 561.09 583.841 559.737 584.839 558.525C585.308 557.925 585.917 557.45 586.613 557.141C586.762 557.079 586.926 557.067 587.082 557.105C587.238 557.144 587.378 557.231 587.481 557.355C587.575 557.517 587.634 557.697 587.653 557.884C587.673 558.07 587.653 558.259 587.595 558.437C587.287 559.383 586.714 560.221 585.945 560.852C585.176 561.483 584.242 561.881 583.254 561.998C582.271 562.098 581.284 561.865 580.451 561.335C579.617 560.806 578.987 560.01 578.661 559.078C578.547 558.703 578.578 558.299 578.749 557.946C578.832 557.805 578.956 557.693 579.105 557.626C579.253 557.558 579.419 557.538 579.58 557.569C580.303 557.789 580.941 558.228 581.404 558.827C582.445 559.982 583.267 561.316 583.832 562.765Z" fill="#515152"/>
<path d="M507.306 311.405L507.142 315.847L497.429 335.79C497.429 335.79 493.893 365.195 497.831 384.371C502.009 404.654 507.897 449.473 508.652 459.35C509.407 469.227 525.5 548.61 525.5 548.61L554.075 546.697C554.075 546.697 545.267 457.362 544.236 445.761C543.204 434.16 541.493 383.742 541.493 383.742L538.976 316.866L505.393 310.361" fill="#515152"/>
<path d="M563.618 544.372L546.38 379L538 316.755L574.64 304.877L576.389 312.515C576.389 312.515 591.815 345.229 591.903 355.119C592.142 382.725 592.671 452.13 592.671 452.13L591.501 543.743L563.618 544.372Z" fill="#515152"/>
<path d="M517.221 216.961C517.221 216.961 489.451 222.334 489.451 230.965C489.451 239.597 499.517 276.388 502.587 283.082C505.658 289.776 504.978 303.214 504.764 309.077C504.55 314.941 510.15 315.885 515.107 317.394C520.064 318.904 542.096 323.233 554.389 319.345C566.683 315.457 573.062 313.494 574.32 310.399C577.051 303.667 574.257 304.019 573.817 298.408C573.376 292.796 572.835 242.629 572.835 242.629C572.835 242.629 569.488 218.282 561.071 215.69C552.653 213.098 517.221 216.961 517.221 216.961Z" fill="#538BFA"/>
<path d="M443.11 217.842C443.11 217.842 441.852 214.407 447.841 217.25C453.83 220.094 462.412 226.951 462.412 226.951L467.029 225.693C467.029 225.693 473.069 229.959 474.013 232.324C474.956 234.69 477.209 244.403 476.743 246.417C476.278 248.43 477.888 252.708 477.888 252.708L465.972 258.999L464.538 255.501C464.538 255.501 452.937 244.013 452.585 242.705C452.41 242.318 452.314 241.9 452.302 241.475C452.29 241.051 452.363 240.628 452.517 240.232C452.67 239.837 452.901 239.475 453.196 239.169C453.49 238.864 453.843 238.62 454.233 238.452C454.233 238.452 452.975 233.117 454.824 231.456C454.824 231.456 453.289 228.122 453.881 226.951L443.11 217.842Z" fill="#FFD2C1"/>
<path d="M466.186 244.139C466.186 244.139 466.061 243.875 465.947 243.359C465.81 242.616 465.738 241.862 465.733 241.107C465.722 238.486 466.399 235.909 467.696 233.633L467.784 234.048C466.802 233.309 466.094 232.264 465.771 231.078V230.927L466.212 231.154C464.416 231.859 462.417 231.836 460.638 231.091C459.87 230.771 459.166 230.315 458.561 229.745C458.381 229.596 458.246 229.4 458.171 229.178C458.139 229.039 458.151 228.893 458.208 228.761C458.265 228.63 458.362 228.52 458.486 228.449C458.806 228.3 459.138 228.182 459.48 228.096C460.773 227.64 462.098 227.279 463.443 227.014C462.229 227.624 460.966 228.133 459.669 228.537C459.372 228.631 459.082 228.745 458.801 228.876C458.7 228.952 458.7 228.977 458.712 229.04C458.773 229.161 458.859 229.268 458.964 229.355C459.542 229.851 460.196 230.25 460.902 230.537C462.539 231.185 464.361 231.185 465.998 230.537L466.35 230.399L466.438 230.764V230.902C466.725 231.95 467.343 232.877 468.2 233.544L468.426 233.708L468.288 233.947C467.023 236.131 466.298 238.586 466.174 241.107C466.061 242.994 466.287 244.126 466.186 244.139Z" fill="#FF9F7B"/>
<path d="M455.642 242.68C455.642 242.68 455.843 242.604 456.158 242.441C456.383 242.321 456.582 242.158 456.744 241.962C456.906 241.766 457.027 241.539 457.102 241.296L457.177 241.019L457.404 241.22C458.532 242.245 459.749 243.167 461.04 243.976C461.795 244.416 462.751 245.146 463.418 244.705C463.588 244.573 463.724 244.403 463.816 244.209C463.908 244.014 463.952 243.801 463.947 243.586C463.904 243.082 463.744 242.595 463.481 242.164C462.764 240.669 461.764 239.327 460.537 238.213C460.033 237.795 459.437 237.504 458.797 237.364C458.158 237.224 457.495 237.239 456.863 237.408C455.976 237.68 455.13 238.07 454.346 238.565C453.78 238.905 453.465 239.094 453.428 239.056C453.39 239.018 453.667 238.766 454.195 238.351C454.951 237.753 455.802 237.285 456.712 236.967C457.364 236.752 458.058 236.692 458.737 236.791C459.516 236.929 460.25 237.253 460.876 237.735C462.197 238.883 463.271 240.287 464.035 241.862C464.354 242.382 464.535 242.976 464.563 243.586C464.572 243.909 464.502 244.231 464.357 244.52C464.212 244.81 463.997 245.06 463.733 245.246C463.463 245.396 463.16 245.475 462.852 245.475C462.544 245.475 462.24 245.396 461.971 245.246C461.539 245.016 461.119 244.764 460.713 244.492C459.415 243.632 458.217 242.632 457.139 241.509L457.441 241.434C457.344 241.727 457.179 241.993 456.961 242.212C456.742 242.43 456.476 242.595 456.183 242.692C455.856 242.743 455.642 242.705 455.642 242.68Z" fill="#FF9F7B"/>
<path d="M463.77 241.799C463.77 241.736 464.06 241.799 464.437 241.61C464.704 241.472 464.926 241.262 465.079 241.004C465.233 240.746 465.311 240.45 465.305 240.15C465.242 239.217 464.929 238.317 464.4 237.546C463.787 236.54 463.042 235.622 462.185 234.815C461.328 233.996 460.425 233.227 459.48 232.513C458.747 231.909 457.886 231.479 456.963 231.255C456.093 231.086 455.19 231.262 454.447 231.745C454.447 231.745 454.547 231.468 454.963 231.192C455.578 230.835 456.297 230.697 457.001 230.802C458.015 230.98 458.968 231.413 459.769 232.06C460.762 232.769 461.703 233.547 462.588 234.388C463.481 235.239 464.248 236.213 464.865 237.282C465.419 238.163 465.712 239.184 465.708 240.226C465.688 240.597 465.557 240.953 465.333 241.249C465.109 241.545 464.801 241.767 464.45 241.887C464.035 242 463.758 241.824 463.77 241.799Z" fill="#FF9F7B"/>
<path d="M459.945 227.279C459.87 227.279 459.581 227.027 459.04 226.675C458.348 226.232 457.546 225.992 456.724 225.983C455.903 226.014 455.108 226.28 454.434 226.75C453.906 227.103 453.629 227.43 453.541 227.367C453.453 227.304 453.616 226.889 454.145 226.385C454.836 225.713 455.758 225.331 456.722 225.317C457.686 225.303 458.619 225.658 459.329 226.31C459.857 226.801 460.021 227.228 459.945 227.279Z" fill="#FF9F7B"/>
<path d="M498.662 168.405C497.437 167.765 496.405 166.809 495.672 165.637C494.939 164.465 494.531 163.119 494.491 161.737C494.452 160.356 494.781 158.988 495.446 157.776C496.11 156.564 497.086 155.551 498.272 154.841L507.47 152.325C508.032 164.068 508.686 175.77 509.432 187.43C506.993 187.291 504.641 186.476 502.638 185.077C501.652 184.361 500.913 183.357 500.523 182.203C500.133 181.048 500.111 179.802 500.461 178.635C499.496 178.24 498.647 177.607 497.994 176.795C497.34 175.983 496.903 175.018 496.723 173.992C496.543 172.965 496.627 171.909 496.966 170.923C497.305 169.938 497.888 169.054 498.662 168.355V168.405Z" fill="#515152"/>
<path d="M543.254 164.341L543.166 160.176L518.001 156.401C510.275 155.898 502.248 163.951 502.072 171.676C501.87 180.283 501.958 190.802 503.229 197.156C505.746 209.952 515.711 211.211 515.711 211.211L515.812 223.944C516.026 231.38 522.342 232.752 529.778 232.576C533.276 232.484 536.6 231.036 539.05 228.538C541.499 226.039 542.88 222.686 542.902 219.188L543.254 164.341Z" fill="#FFD2C1"/>
<path d="M507.759 180.044C507.772 180.476 507.953 180.885 508.263 181.186C508.573 181.487 508.988 181.655 509.42 181.655C509.631 181.663 509.842 181.629 510.04 181.555C510.238 181.48 510.419 181.367 510.573 181.222C510.726 181.076 510.849 180.902 510.934 180.708C511.019 180.514 511.065 180.306 511.068 180.094C511.055 179.663 510.874 179.253 510.564 178.952C510.254 178.652 509.839 178.484 509.407 178.484C509.196 178.477 508.986 178.512 508.789 178.587C508.592 178.662 508.411 178.775 508.258 178.92C508.105 179.065 507.982 179.239 507.896 179.432C507.81 179.625 507.764 179.833 507.759 180.044Z" fill="#515152"/>
<path d="M524 180.044C524.013 180.476 524.194 180.885 524.504 181.186C524.814 181.487 525.229 181.655 525.661 181.655C525.872 181.663 526.083 181.629 526.281 181.555C526.479 181.48 526.66 181.367 526.814 181.222C526.967 181.076 527.09 180.902 527.175 180.708C527.261 180.514 527.306 180.306 527.309 180.094C527.296 179.663 527.115 179.253 526.805 178.952C526.495 178.652 526.08 178.484 525.648 178.484C525.437 178.477 525.227 178.512 525.03 178.587C524.833 178.662 524.652 178.775 524.499 178.92C524.346 179.065 524.223 179.239 524.137 179.432C524.051 179.625 524.005 179.833 524 180.044Z" fill="#515152"/>
<path d="M505.016 177.049C505.23 177.263 506.45 176.282 508.224 176.219C509.999 176.156 511.345 176.999 511.521 176.772C511.697 176.546 511.395 176.294 510.804 175.892C510.016 175.392 509.094 175.146 508.161 175.187C507.244 175.228 506.363 175.558 505.645 176.131C505.091 176.571 504.915 176.961 505.016 177.049Z" fill="#515152"/>
<path d="M522.946 177.744C523.16 177.946 524.38 176.977 526.154 176.901C527.929 176.826 529.275 177.681 529.451 177.455C529.627 177.228 529.325 176.977 528.734 176.587C527.943 176.084 527.015 175.837 526.079 175.882C525.163 175.918 524.281 176.244 523.562 176.813C523.021 177.254 522.845 177.644 522.946 177.744Z" fill="#515152"/>
<path d="M516.567 190.135C515.619 189.875 514.642 189.736 513.66 189.72C513.207 189.72 512.779 189.619 512.691 189.317C512.631 188.849 512.719 188.374 512.943 187.958C513.32 186.838 513.723 185.681 514.138 184.448C515.812 179.415 517.007 175.363 516.806 175.288C516.604 175.212 515.082 179.226 513.408 184.221C513.018 185.479 512.628 186.624 512.263 187.744C511.998 188.301 511.94 188.935 512.1 189.531C512.172 189.688 512.279 189.827 512.412 189.938C512.544 190.049 512.7 190.129 512.867 190.173C513.124 190.226 513.386 190.251 513.647 190.248C514.621 190.334 515.602 190.296 516.567 190.135Z" fill="#515152"/>
<path d="M515.736 211.249C521.946 211.102 527.998 209.261 533.238 205.926C533.238 205.926 529.237 215.124 515.875 214.47L515.736 211.249Z" fill="#FF9F7B"/>
<path d="M522.355 193.507C522.041 193.139 521.657 192.838 521.224 192.622C520.792 192.406 520.321 192.279 519.838 192.249C518.467 192.161 517.083 192.249 516.403 193.507C516.294 193.772 516.247 194.059 516.267 194.345C516.287 194.63 516.372 194.908 516.516 195.155C516.667 195.407 516.516 195.294 516.806 195.47C517.704 196.142 518.726 196.629 519.813 196.904C520.314 197.061 520.85 197.066 521.354 196.919C521.858 196.771 522.307 196.477 522.644 196.074C522.861 195.667 522.95 195.204 522.898 194.746C522.847 194.287 522.657 193.855 522.355 193.507Z" fill="#FF9F7B"/>
<path d="M521.851 191.155C521.562 191.155 521.637 193.08 520.039 194.514C518.441 195.948 516.378 195.772 516.378 196.087C516.378 196.401 516.843 196.439 517.711 196.427C518.852 196.388 519.942 195.942 520.782 195.168C521.593 194.444 522.094 193.434 522.178 192.35C522.254 191.608 521.977 191.142 521.851 191.155Z" fill="#515152"/>
<path d="M521.902 171.74C522.103 172.205 523.864 171.916 525.966 172.079C528.067 172.243 529.74 172.746 530.03 172.306C530.143 172.092 529.828 171.651 529.136 171.211C528.205 170.674 527.164 170.356 526.092 170.28C525.019 170.203 523.944 170.371 522.946 170.771C522.254 171.073 521.826 171.475 521.902 171.74Z" fill="#515152"/>
<path d="M504.84 170.959C505.167 171.35 506.375 170.884 507.847 170.808C509.319 170.733 510.577 170.972 510.842 170.532C510.955 170.33 510.753 169.928 510.187 169.563C509.437 169.133 508.576 168.937 507.714 168.997C506.851 169.058 506.026 169.373 505.343 169.903C504.84 170.343 504.638 170.771 504.84 170.959Z" fill="#515152"/>
<path d="M497.089 160.34C495.778 159.472 494.752 158.237 494.139 156.789C493.526 155.341 493.353 153.745 493.641 152.199C493.976 150.665 494.7 149.243 495.742 148.069C496.784 146.895 498.11 146.008 499.593 145.492C500.195 145.298 500.814 145.159 501.442 145.077C502.637 144.332 504 143.899 505.406 143.819C505.536 142.991 505.903 142.218 506.464 141.595C507.025 140.972 507.754 140.525 508.564 140.309C510.193 139.912 511.893 139.912 513.522 140.309C514.302 139.245 515.323 138.38 516.5 137.784C517.677 137.188 518.978 136.877 520.297 136.877C521.617 136.877 522.918 137.188 524.095 137.784C525.272 138.38 526.292 139.245 527.073 140.309C527.968 139.726 528.987 139.359 530.048 139.238C531.109 139.117 532.184 139.245 533.188 139.611C534.191 139.977 535.096 140.572 535.829 141.348C536.563 142.124 537.106 143.061 537.416 144.083C538.355 144.077 539.286 144.262 540.151 144.628C541.017 144.993 541.798 145.532 542.449 146.21C543.445 147.515 544.289 148.929 544.965 150.425C546.543 150.541 548.047 151.136 549.276 152.132C550.505 153.127 551.4 154.475 551.841 155.994C552.282 157.512 552.248 159.13 551.743 160.629C551.238 162.128 550.287 163.436 549.017 164.379C549.837 165.121 550.471 166.045 550.87 167.077C551.269 168.108 551.42 169.219 551.313 170.32C551.205 171.42 550.841 172.48 550.25 173.415C549.659 174.35 548.858 175.134 547.909 175.703C548.326 176.854 548.504 178.078 548.433 179.3C548.362 180.522 548.042 181.717 547.494 182.812C547.062 183.787 546.288 184.571 545.317 185.014C545.287 185.188 545.223 185.355 545.129 185.505C544.412 186.763 542.499 186.297 541.354 185.442C538.65 183.208 536.779 180.127 536.044 176.697C535.138 173.338 534.786 169.84 533.943 166.48C533.943 166.405 533.943 166.316 533.943 166.241C533.575 164.846 532.89 163.554 531.942 162.466C530.991 163.237 529.986 163.939 528.935 164.568C526.991 165.573 524.777 165.931 522.615 165.589C520.454 165.247 518.458 164.224 516.919 162.668C514.322 165.021 510.984 166.392 507.482 166.543C504.065 166.874 500.64 165.982 497.819 164.026C497.104 163.486 496.551 162.759 496.221 161.925C496.169 161.602 496.226 161.271 496.383 160.984C496.54 160.696 496.788 160.47 497.089 160.34Z" fill="#515152"/>
<path d="M541.845 181.453C542.008 181.353 548.652 178.534 549.256 185.58C549.86 192.627 542.663 191.784 542.638 191.582C542.612 191.381 541.845 181.453 541.845 181.453Z" fill="#FFD2C1"/>
<path d="M544.563 188.726C544.563 188.726 544.688 188.802 544.902 188.877C545.205 188.973 545.534 188.95 545.821 188.814C546.252 188.488 546.587 188.052 546.793 187.552C546.999 187.052 547.067 186.506 546.991 185.97C546.962 185.366 546.794 184.776 546.5 184.247C546.416 184.031 546.28 183.839 546.105 183.688C545.929 183.536 545.72 183.43 545.494 183.378C545.349 183.352 545.2 183.378 545.073 183.452C544.947 183.526 544.85 183.643 544.802 183.781C544.726 183.982 544.802 184.121 544.739 184.133C544.676 184.146 544.588 184.033 544.613 183.731C544.643 183.555 544.726 183.392 544.852 183.265C545.037 183.105 545.275 183.02 545.519 183.026C545.812 183.061 546.091 183.169 546.331 183.341C546.571 183.512 546.763 183.742 546.89 184.008C547.242 184.597 547.449 185.261 547.494 185.945C547.581 186.57 547.481 187.206 547.208 187.775C546.935 188.343 546.501 188.818 545.959 189.141C545.773 189.208 545.575 189.234 545.377 189.219C545.18 189.204 544.988 189.147 544.814 189.053C544.588 188.89 544.537 188.739 544.563 188.726Z" fill="#FF9F7B"/>
<path d="M493.981 151.029C493.973 151.083 493.973 151.138 493.981 151.192C493.937 151.362 493.903 151.534 493.88 151.708C493.787 152.57 493.901 153.442 494.211 154.252C494.522 155.061 495.021 155.785 495.667 156.364C496.734 157.285 498.109 157.77 499.517 157.723L499.391 157.622C499.886 159.884 501.016 161.958 502.65 163.599C503.565 164.539 504.666 165.276 505.884 165.763C507.188 166.254 508.601 166.385 509.973 166.14C511.315 165.911 512.617 165.488 513.836 164.882C515.009 164.36 516.079 163.631 516.994 162.731H516.78C518.505 164.252 520.61 165.278 522.87 165.7C524.667 165.932 526.492 165.676 528.155 164.958C529.242 164.503 530.242 163.865 531.112 163.07C531.343 162.865 531.561 162.647 531.766 162.416C531.842 162.336 531.913 162.252 531.98 162.164C531.98 162.164 531.666 162.479 531.049 162.995C530.159 163.743 529.157 164.346 528.08 164.781C526.445 165.458 524.661 165.688 522.908 165.448C520.707 165.007 518.663 163.992 516.982 162.504L516.869 162.416L516.768 162.517C515.872 163.378 514.833 164.076 513.698 164.58C512.502 165.15 511.231 165.544 509.923 165.75C508.578 166.017 507.186 165.913 505.897 165.448C504.719 164.976 503.652 164.265 502.764 163.36C501.166 161.762 500.05 159.748 499.542 157.547V157.433H499.429C498.081 157.497 496.76 157.047 495.73 156.175C494.948 155.516 494.379 154.641 494.094 153.659C493.911 153.03 493.839 152.374 493.88 151.721C493.943 151.268 494.006 151.029 493.981 151.029Z" fill="#515152"/>
<path d="M543.933 150.161C544.258 150.93 544.514 151.725 544.701 152.539C545.149 154.68 544.894 156.909 543.971 158.893V158.994L544.059 159.069C544.982 159.78 545.695 160.728 546.123 161.812C546.605 163.011 546.706 164.329 546.412 165.587C546.021 167.203 545.032 168.61 543.644 169.525L543.518 169.613L543.594 169.739C544.361 171.058 544.74 172.567 544.688 174.093C544.663 175.296 544.393 176.482 543.896 177.578C543.426 178.549 542.802 179.437 542.046 180.208L542.222 180.069C542.393 179.935 542.552 179.787 542.7 179.629C543.258 179.049 543.717 178.381 544.059 177.653C544.604 176.542 544.908 175.329 544.953 174.093C545.02 172.514 544.64 170.948 543.858 169.575V169.789C545.323 168.84 546.364 167.361 546.765 165.662C547.08 164.35 546.974 162.972 546.463 161.724C546.011 160.591 545.258 159.604 544.286 158.868V159.044C545.22 157.004 545.446 154.71 544.927 152.526C544.785 151.919 544.578 151.328 544.311 150.765C544.223 150.563 544.135 150.425 544.084 150.324C544.045 150.26 543.994 150.205 543.933 150.161Z" fill="#515152"/>
<path d="M548.061 190.211C548.061 190.135 548.614 190.299 549.419 190.852C550.56 191.665 551.495 192.734 552.15 193.973C552.65 194.919 552.952 195.957 553.036 197.024C553.12 198.09 552.986 199.163 552.641 200.176C552.22 201.409 551.451 202.492 550.426 203.296C549.303 204.157 547.928 204.626 546.513 204.63C545.076 204.643 543.687 204.113 542.625 203.146C541.689 202.272 540.966 201.196 540.511 200C539.794 197.955 539.843 195.72 540.649 193.709C541.228 192.412 542.19 191.323 543.405 190.588C544.235 190.072 544.751 189.934 544.789 190.009C544.827 190.085 544.412 190.399 543.72 191.016C542.747 191.827 542.001 192.876 541.555 194.061C541 195.83 541.049 197.733 541.694 199.471C542.474 201.359 544.21 203.246 546.513 203.246C547.63 203.237 548.714 202.871 549.608 202.202C550.448 201.555 551.085 200.682 551.445 199.685C552.091 197.949 552.027 196.028 551.269 194.338C550.738 193.171 549.996 192.113 549.08 191.217C548.425 190.613 547.998 190.299 548.061 190.211Z" fill="#E0E0E0"/>
<path d="M496.624 223.504C496.624 223.504 486.985 226.511 484.393 242.378C482.544 253.702 485.966 283.019 485.966 283.019C485.966 283.019 475.246 288.744 475.9 288.958C476.554 289.172 482.758 318.2 495.202 315.306C507.646 312.412 508.766 293.84 508.766 293.84L496.624 223.504Z" fill="#538BFA"/>
<path d="M508.652 311.405C508.506 311.213 508.388 311.001 508.3 310.776C507.989 310.16 507.728 309.521 507.52 308.863C506.763 306.444 506.294 303.944 506.123 301.415C505.946 297.69 505.576 293.978 505.016 290.292C504.627 288.15 503.906 286.082 502.877 284.164C501.744 282.226 500.058 280.503 498.762 278.376C497.574 276.283 496.672 274.04 496.082 271.707C495.567 269.539 495.252 267.328 495.139 265.102C495.042 261.354 495.142 257.603 495.441 253.865C495.654 250.682 495.755 248.103 495.717 246.316C495.68 244.529 495.604 243.548 495.717 243.548C495.79 243.776 495.832 244.013 495.843 244.252C495.843 244.718 495.994 245.41 496.019 246.303C496.133 248.819 496.112 251.339 495.956 253.853C495.831 257.049 495.566 260.849 495.793 265.039C495.921 267.223 496.245 269.392 496.762 271.519C497.341 273.784 498.217 275.963 499.366 277.999C500.625 280.05 502.298 281.773 503.481 283.812C504.54 285.779 505.279 287.903 505.67 290.103C506.196 293.815 506.515 297.554 506.626 301.301C506.755 303.808 507.156 306.293 507.822 308.712C507.998 309.372 508.217 310.019 508.476 310.65C508.556 310.896 508.615 311.149 508.652 311.405Z" fill="#515152"/>
<path d="M455.969 291.172C455.567 291.273 452.962 290.468 452.66 292.682C452.358 294.897 453.855 294.897 456.573 295.299C459.291 295.702 470.666 299.426 470.666 299.426C470.666 299.426 466.337 301.138 466.74 303.44C467.143 305.743 467.998 305.554 469.961 305.554H472.88C472.88 305.554 472.88 310.587 475.095 310.776C475.095 311.261 475.202 311.741 475.41 312.18C475.618 312.619 475.92 313.007 476.296 313.315C476.671 313.623 477.11 313.844 477.581 313.962C478.053 314.08 478.544 314.092 479.02 313.997C482.946 313.695 495.126 310.222 495.126 310.222L495.931 295.123C495.931 295.123 484.959 291.348 482.946 291.701C481.673 291.993 480.516 292.659 479.624 293.613L455.969 291.172Z" fill="#FFD2C1"/>
<path d="M495.931 295.199L529.577 295.664L528.293 314.525L495.126 310.285L495.931 295.199Z" fill="#FFD2C1"/>
<path d="M500.688 292.708C500.135 292.008 499.642 291.263 499.216 290.481C498.335 289.096 497.064 287.209 495.63 285.133C493.824 282.704 492.144 280.184 490.597 277.583C491.28 278.166 491.881 278.839 492.383 279.584C493.402 280.842 494.787 282.717 496.158 284.793C497.529 286.869 498.813 288.82 499.606 290.279C500.099 291.023 500.464 291.844 500.688 292.708Z" fill="#515152"/>
<path d="M546.651 284.982C546.325 285.109 545.981 285.186 545.632 285.208C544.692 285.362 543.741 285.438 542.788 285.435C536.41 285.492 530.233 283.199 525.437 278.992C524.715 278.374 524.046 277.696 523.437 276.967C523.187 276.718 522.975 276.434 522.807 276.124C522.896 276.035 523.89 277.155 525.739 278.64C528.152 280.574 530.858 282.111 533.754 283.195C536.654 284.258 539.702 284.86 542.788 284.982C545.167 285.044 546.639 284.843 546.651 284.982Z" fill="#515152"/>
<path d="M475.902 289.165L466 259.168L477.916 252.877L491.253 279.074C491.253 279.074 485.503 293.191 475.902 289.165Z" fill="#FFD2C1"/>
<path d="M529.577 295.664C529.841 295.451 548.916 291.676 548.916 291.676L552.452 284.353C552.452 284.353 556.856 240.478 557.648 235.583C558.567 229.997 559.989 215.451 559.989 215.451C559.989 215.451 573.918 217.552 576.346 229.757C578.007 238.074 576.346 280.981 575.088 289.7C573.83 298.42 571.766 306.787 563.336 312.99C557.648 317.18 528.294 314.551 528.294 314.551L529.577 295.664Z" fill="#538BFA"/>
<path d="M575.578 285.385C575.59 285.493 575.59 285.603 575.578 285.712C575.578 285.976 575.503 286.291 575.465 286.706C575.352 287.561 575.188 288.845 574.937 290.48C574.685 292.116 574.345 294.142 573.842 296.457C573.345 299.125 572.551 301.729 571.477 304.221C570.145 307.28 568.074 309.961 565.45 312.022C562.261 314.209 558.528 315.468 554.666 315.658C552.653 315.859 550.577 315.91 548.463 315.96L541.983 316.086C537.394 316.212 532.802 315.955 528.256 315.318H527.954V315.029C528.155 312.009 528.356 308.838 528.57 305.617C528.784 302.396 529.023 298.936 529.237 295.702V295.451H529.489L549.118 291.122L548.904 291.286C550.167 288.298 550.952 285.131 551.231 281.899C551.571 278.791 551.873 275.835 552.175 273.092C552.766 267.517 553.282 262.61 553.71 258.534C554.138 254.457 554.503 251.311 554.754 249.059C554.88 248.002 554.981 247.159 555.056 246.543C555.056 246.278 555.119 246.064 555.145 245.888C555.17 245.712 555.145 245.674 555.145 245.674C555.145 245.674 555.145 245.75 555.145 245.901V246.543C555.145 247.159 555.019 248.002 554.931 249.059C554.729 251.311 554.44 254.52 554.062 258.546C553.685 262.573 553.194 267.543 552.666 273.117C552.389 275.918 552.091 278.879 551.772 282C551.499 285.293 550.714 288.524 549.445 291.575L549.382 291.714H549.231L529.602 296.092L529.854 295.79C529.636 299.037 529.418 302.342 529.199 305.705C528.986 308.926 528.772 312.11 528.583 315.117L528.306 314.777C532.819 315.413 537.377 315.674 541.933 315.557L548.4 315.457C550.514 315.457 552.578 315.369 554.566 315.192C558.331 315.025 561.976 313.818 565.097 311.707C567.665 309.714 569.704 307.122 571.036 304.158C572.117 301.706 572.932 299.146 573.465 296.52C573.98 294.205 574.358 292.204 574.647 290.569C574.937 288.933 575.138 287.712 575.289 286.794C575.365 286.391 575.415 286.077 575.465 285.825C575.471 285.672 575.51 285.522 575.578 285.385Z" fill="#515152"/>
<path d="M563.248 220.346C561.848 222.355 560.587 224.457 559.473 226.637C558.554 228.903 557.785 231.228 557.17 233.595C557.249 231.096 557.826 228.638 558.867 226.365C559.909 224.092 561.394 222.05 563.235 220.358L563.248 220.346Z" fill="#515152"/>
<path d="M561.259 293.525C559.435 292.336 557.384 291.538 555.235 291.183C553.086 290.828 550.888 290.923 548.778 291.462C549.314 291.063 549.941 290.804 550.602 290.707C552.155 290.325 553.769 290.265 555.346 290.53C556.924 290.796 558.434 291.373 559.787 292.229C560.844 292.896 561.347 293.475 561.259 293.525Z" fill="#515152"/>
<path d="M536.699 322.062C536.76 322.263 536.802 322.47 536.824 322.679C536.9 323.145 536.975 323.723 537.076 324.428C537.277 325.963 537.542 328.203 537.806 330.908C538.347 336.394 538.926 343.981 539.517 352.361C540.108 360.741 540.65 368.24 541.04 373.814C541.253 376.482 541.43 378.684 541.555 380.319C541.555 381.024 541.656 381.578 541.694 382.081C541.727 382.289 541.727 382.502 541.694 382.71C541.624 382.515 541.578 382.312 541.555 382.106C541.555 381.628 541.404 381.049 541.304 380.345C541.103 378.822 540.851 376.57 540.587 373.865C540.033 368.379 539.454 360.791 538.863 352.411C538.271 344.031 537.743 336.545 537.34 331.021C537.126 328.354 536.963 326.152 536.824 324.516C536.824 323.811 536.736 323.258 536.699 322.755C536.659 322.526 536.659 322.291 536.699 322.062Z" fill="#515152"/>
<path d="M582.411 334.771C582.114 334.959 581.792 335.103 581.454 335.198C581.07 335.352 580.674 335.478 580.272 335.576C579.746 335.724 579.212 335.846 578.674 335.941C577.266 336.188 575.837 336.289 574.408 336.243C572.656 336.179 570.917 335.917 569.224 335.463C567.537 334.986 565.908 334.323 564.368 333.487C563.112 332.803 561.935 331.984 560.857 331.046C560.439 330.695 560.04 330.321 559.662 329.926C559.366 329.637 559.092 329.326 558.844 328.995C558.416 328.467 558.202 328.165 558.24 328.14C558.278 328.114 559.284 329.209 561.146 330.656C562.247 331.513 563.422 332.271 564.657 332.921C566.172 333.703 567.761 334.331 569.401 334.796C571.047 335.234 572.733 335.504 574.433 335.601C575.824 335.675 577.218 335.62 578.598 335.437C580.964 335.161 582.373 334.645 582.411 334.771Z" fill="#515152"/>
<path d="M511.395 326.089C511.189 326.962 510.832 327.793 510.338 328.542C509.265 330.443 507.873 332.146 506.224 333.575C504.592 335.002 502.734 336.146 500.725 336.96C499.911 337.35 499.033 337.588 498.133 337.665C500.89 336.506 503.47 334.964 505.796 333.085C507.98 331.025 509.864 328.671 511.395 326.089Z" fill="#515152"/>
<path d="M536.095 468.937C534.946 468.637 533.832 468.215 532.773 467.679C530.15 466.518 527.589 465.225 525.098 463.804C522.178 462.143 519.624 460.482 517.837 459.211C516.829 458.575 515.889 457.837 515.032 457.009C516.097 457.531 517.12 458.137 518.089 458.821C519.939 459.991 522.518 461.589 525.425 463.238C528.331 464.886 531.011 466.27 532.974 467.264C534.057 467.738 535.101 468.297 536.095 468.937Z" fill="#515152"/>
<path d="M176.637 201.861H200.013V207.861H183.453V213.525H191.757C195.053 213.525 197.645 214.501 199.533 216.453C201.421 218.405 202.365 220.821 202.365 223.701C202.365 226.581 201.421 228.997 199.533 230.949C197.645 232.901 195.053 233.877 191.757 233.877H176.637V201.861ZM190.845 219.525H183.453V227.877H190.845C192.189 227.877 193.277 227.493 194.109 226.725C194.973 225.957 195.405 224.949 195.405 223.701C195.405 222.421 194.973 221.413 194.109 220.677C193.277 219.909 192.189 219.525 190.845 219.525ZM205.63 242.949L206.542 237.477C207.118 237.733 207.758 237.861 208.462 237.861C210.094 237.861 211.166 237.301 211.678 236.181L212.542 234.213L203.134 210.693H209.662L215.71 226.821L221.758 210.693H228.334L217.438 237.669C216.638 239.717 215.518 241.141 214.078 241.941C212.638 242.773 210.83 243.221 208.654 243.285C207.534 243.285 206.526 243.173 205.63 242.949ZM228.895 239.781V228.789C229.599 228.661 230.143 228.437 230.527 228.117C230.943 227.765 231.327 227.109 231.679 226.149C232.063 225.157 232.367 223.749 232.591 221.925L234.079 210.693H252.847V228.549H255.391V239.781H249.295V233.877H235.039V239.781H228.895ZM239.407 216.021L238.687 222.309C238.367 225.093 237.471 227.173 235.999 228.549H246.751V216.021H239.407ZM258.411 242.949L259.323 237.477C259.899 237.733 260.539 237.861 261.243 237.861C262.875 237.861 263.947 237.301 264.459 236.181L265.323 234.213L255.915 210.693H262.443L268.491 226.821L274.539 210.693H281.115L270.219 237.669C269.419 239.717 268.299 241.141 266.859 241.941C265.419 242.773 263.611 243.221 261.435 243.285C260.315 243.285 259.307 243.173 258.411 242.949ZM311.149 210.693H317.293V228.549H320.173V239.781H314.029V233.877H283.837V210.693H289.933V228.549H297.517V210.693H303.613V228.549H311.149V210.693ZM334.858 234.453C331.274 234.453 328.314 233.333 325.978 231.093C323.642 228.853 322.474 225.909 322.474 222.261C322.474 218.837 323.594 215.957 325.834 213.621C328.106 211.285 330.986 210.117 334.474 210.117C337.93 210.117 340.73 211.301 342.874 213.669C345.018 216.005 346.09 219.077 346.09 222.885V224.229H328.858C329.05 225.765 329.738 227.045 330.922 228.069C332.106 229.093 333.642 229.605 335.53 229.605C336.554 229.605 337.658 229.397 338.842 228.981C340.058 228.565 341.018 228.005 341.722 227.301L344.41 231.237C342.074 233.381 338.89 234.453 334.858 234.453ZM340.186 220.101C340.09 218.789 339.562 217.605 338.602 216.549C337.674 215.493 336.298 214.965 334.474 214.965C332.746 214.965 331.402 215.493 330.442 216.549C329.482 217.573 328.922 218.757 328.762 220.101H340.186ZM361.389 234.453C357.805 234.453 354.845 233.333 352.509 231.093C350.173 228.853 349.005 225.909 349.005 222.261C349.005 218.837 350.125 215.957 352.365 213.621C354.637 211.285 357.517 210.117 361.005 210.117C364.461 210.117 367.261 211.301 369.405 213.669C371.549 216.005 372.621 219.077 372.621 222.885V224.229H355.389C355.581 225.765 356.269 227.045 357.453 228.069C358.637 229.093 360.173 229.605 362.061 229.605C363.085 229.605 364.189 229.397 365.373 228.981C366.589 228.565 367.549 228.005 368.253 227.301L370.941 231.237C368.605 233.381 365.421 234.453 361.389 234.453ZM366.717 220.101C366.621 218.789 366.093 217.605 365.133 216.549C364.205 215.493 362.829 214.965 361.005 214.965C359.277 214.965 357.933 215.493 356.973 216.549C356.013 217.573 355.453 218.757 355.293 220.101H366.717ZM397.753 234.453C393.081 234.453 389.481 233.221 386.953 230.757L389.737 226.965C391.817 228.725 394.489 229.605 397.753 229.605C399.289 229.605 400.473 229.381 401.305 228.933C402.137 228.485 402.553 227.877 402.553 227.109C402.553 225.381 400.825 224.517 397.369 224.517H392.617V219.813H397.369C400.537 219.813 402.121 218.981 402.121 217.317C402.121 216.613 401.689 216.053 400.825 215.637C399.961 215.189 398.841 214.965 397.465 214.965C394.457 214.965 392.057 215.845 390.265 217.605L387.289 214.005C389.849 211.445 393.129 210.165 397.129 210.165C400.713 210.133 403.497 210.693 405.481 211.845C407.465 212.965 408.457 214.517 408.457 216.501C408.457 217.909 407.865 219.109 406.681 220.101C405.497 221.093 404.073 221.717 402.409 221.973C404.041 222.069 405.529 222.613 406.873 223.605C408.249 224.597 408.937 225.893 408.937 227.493C408.937 229.573 407.929 231.253 405.913 232.533C403.897 233.813 401.177 234.453 397.753 234.453ZM433.509 233.877H427.413V231.477C425.749 233.461 423.301 234.453 420.069 234.453C417.989 234.453 416.117 233.781 414.453 232.437C412.821 231.061 412.005 229.173 412.005 226.773C412.005 224.277 412.805 222.405 414.405 221.157C416.037 219.909 417.925 219.285 420.069 219.285C423.365 219.285 425.813 220.229 427.413 222.117V218.997C427.413 217.813 426.949 216.869 426.021 216.165C425.093 215.461 423.861 215.109 422.325 215.109C419.797 215.109 417.541 216.021 415.557 217.845L413.253 213.765C416.005 211.333 419.381 210.117 423.381 210.117C426.357 210.117 428.789 210.805 430.677 212.181C432.565 213.557 433.509 215.797 433.509 218.901V233.877ZM422.517 230.325C424.789 230.325 426.421 229.653 427.413 228.309V225.429C426.421 224.085 424.789 223.413 422.517 223.413C421.269 223.413 420.229 223.733 419.397 224.373C418.565 224.981 418.149 225.829 418.149 226.917C418.149 227.973 418.565 228.805 419.397 229.413C420.229 230.021 421.269 230.325 422.517 230.325ZM206.511 287.877H200.415V270.021H190.815V287.877H184.719V264.693H206.511V287.877ZM232.243 284.949C230.003 287.285 227.027 288.453 223.315 288.453C219.603 288.453 216.627 287.285 214.387 284.949C212.179 282.581 211.075 279.685 211.075 276.261C211.075 272.837 212.179 269.957 214.387 267.621C216.627 265.285 219.603 264.117 223.315 264.117C227.027 264.117 230.003 265.285 232.243 267.621C234.483 269.957 235.603 272.837 235.603 276.261C235.603 279.685 234.483 282.581 232.243 284.949ZM218.995 281.109C220.051 282.389 221.491 283.029 223.315 283.029C225.139 283.029 226.579 282.389 227.635 281.109C228.723 279.797 229.267 278.181 229.267 276.261C229.267 274.373 228.723 272.789 227.635 271.509C226.579 270.197 225.139 269.541 223.315 269.541C221.491 269.541 220.051 270.197 218.995 271.509C217.939 272.789 217.411 274.373 217.411 276.261C217.411 278.181 217.939 279.797 218.995 281.109ZM262.782 287.877H255.15L249.006 278.949L246.222 281.925V287.877H240.126V264.693H246.222V275.013L255.006 264.693H262.494L253.326 275.205L262.782 287.877ZM264.997 296.949L265.909 291.477C266.485 291.733 267.125 291.861 267.829 291.861C269.461 291.861 270.533 291.301 271.045 290.181L271.909 288.213L262.501 264.693H269.029L275.077 280.821L281.125 264.693H287.701L276.805 291.669C276.005 293.717 274.885 295.141 273.445 295.941C272.005 296.773 270.197 297.221 268.021 297.285C266.901 297.285 265.893 297.173 264.997 296.949ZM312.214 287.877H306.118V270.021H296.518V287.877H290.422V264.693H312.214V287.877ZM340.922 287.877H333.29L327.146 278.949L324.362 281.925V287.877H318.266V264.693H324.362V275.013L333.146 264.693H340.634L331.466 275.205L340.922 287.877ZM363.97 287.877H357.874V285.477C356.21 287.461 353.762 288.453 350.53 288.453C348.45 288.453 346.578 287.781 344.914 286.437C343.282 285.061 342.466 283.173 342.466 280.773C342.466 278.277 343.266 276.405 344.866 275.157C346.498 273.909 348.386 273.285 350.53 273.285C353.826 273.285 356.274 274.229 357.874 276.117V272.997C357.874 271.813 357.41 270.869 356.482 270.165C355.554 269.461 354.322 269.109 352.786 269.109C350.258 269.109 348.002 270.021 346.018 271.845L343.714 267.765C346.466 265.333 349.842 264.117 353.842 264.117C356.818 264.117 359.25 264.805 361.138 266.181C363.026 267.557 363.97 269.797 363.97 272.901V287.877ZM352.978 284.325C355.25 284.325 356.882 283.653 357.874 282.309V279.429C356.882 278.085 355.25 277.413 352.978 277.413C351.73 277.413 350.69 277.733 349.858 278.373C349.026 278.981 348.61 279.829 348.61 280.917C348.61 281.973 349.026 282.805 349.858 283.413C350.69 284.021 351.73 284.325 352.978 284.325ZM397.424 287.877H391.328V272.805L385.136 287.877H382.352L376.112 272.805V287.877H370.016V264.693H378.032L383.744 278.517L389.36 264.693H397.424V287.877ZM409.341 287.877H403.485V264.693H409.581V278.709L419.133 264.693H425.277V287.877H419.181V273.333L409.341 287.877ZM180.527 341.877H165.407V318.693H180.095C182.335 318.693 184.079 319.269 185.327 320.421C186.575 321.573 187.199 322.981 187.199 324.645C187.199 325.989 186.831 327.125 186.095 328.053C185.359 328.981 184.415 329.605 183.263 329.925C184.543 330.213 185.599 330.885 186.431 331.941C187.263 332.997 187.679 334.213 187.679 335.589C187.679 337.413 187.039 338.917 185.759 340.101C184.511 341.285 182.767 341.877 180.527 341.877ZM179.039 336.885C179.775 336.885 180.351 336.693 180.767 336.309C181.215 335.925 181.439 335.397 181.439 334.725C181.439 334.117 181.215 333.605 180.767 333.189C180.351 332.773 179.775 332.565 179.039 332.565H171.503V336.885H179.039ZM178.847 327.573C179.487 327.573 179.999 327.397 180.383 327.045C180.799 326.661 181.007 326.197 181.007 325.653C181.007 325.077 180.815 324.613 180.431 324.261C180.047 323.877 179.519 323.685 178.847 323.685H171.503V327.573H178.847ZM211.669 341.877H205.813V318.693H211.909V332.709L221.461 318.693H227.605V341.877H221.509V327.333L211.669 341.877ZM239.753 341.877H233.657V318.693H239.753V327.285H249.353V318.693H255.449V341.877H249.353V332.613H239.753V341.877ZM271.917 341.877H265.773V324.021H259.293V318.693H278.397V324.021H271.917V341.877ZM293.115 342.453C289.531 342.453 286.571 341.333 284.235 339.093C281.899 336.853 280.731 333.909 280.731 330.261C280.731 326.837 281.851 323.957 284.091 321.621C286.363 319.285 289.243 318.117 292.731 318.117C296.187 318.117 298.987 319.301 301.131 321.669C303.275 324.005 304.347 327.077 304.347 330.885V332.229H287.115C287.307 333.765 287.995 335.045 289.179 336.069C290.363 337.093 291.899 337.605 293.787 337.605C294.811 337.605 295.915 337.397 297.099 336.981C298.315 336.565 299.275 336.005 299.979 335.301L302.667 339.237C300.331 341.381 297.147 342.453 293.115 342.453ZM298.443 328.101C298.347 326.789 297.819 325.605 296.859 324.549C295.931 323.493 294.555 322.965 292.731 322.965C291.003 322.965 289.659 323.493 288.699 324.549C287.739 325.573 287.179 326.757 287.019 328.101H298.443ZM321.999 342.453C319.087 342.453 316.703 341.269 314.847 338.901V350.709H308.751V318.693H314.847V321.621C316.671 319.285 319.055 318.117 321.999 318.117C325.039 318.117 327.503 319.205 329.391 321.381C331.311 323.525 332.271 326.485 332.271 330.261C332.271 334.037 331.311 337.013 329.391 339.189C327.503 341.365 325.039 342.453 321.999 342.453ZM320.079 337.029C321.839 337.029 323.247 336.405 324.303 335.157C325.391 333.909 325.935 332.277 325.935 330.261C325.935 328.277 325.391 326.661 324.303 325.413C323.247 324.165 321.839 323.541 320.079 323.541C319.087 323.541 318.095 323.797 317.103 324.309C316.111 324.821 315.359 325.445 314.847 326.181V334.389C315.359 335.125 316.111 335.749 317.103 336.261C318.127 336.773 319.119 337.029 320.079 337.029ZM342.831 341.877H336.735V318.693H342.831V327.285H352.431V318.693H358.527V341.877H352.431V332.613H342.831V341.877ZM375.475 342.453C371.891 342.453 368.931 341.333 366.595 339.093C364.259 336.853 363.091 333.909 363.091 330.261C363.091 326.837 364.211 323.957 366.451 321.621C368.723 319.285 371.603 318.117 375.091 318.117C378.547 318.117 381.347 319.301 383.491 321.669C385.635 324.005 386.707 327.077 386.707 330.885V332.229H369.475C369.667 333.765 370.355 335.045 371.539 336.069C372.723 337.093 374.259 337.605 376.147 337.605C377.171 337.605 378.275 337.397 379.459 336.981C380.675 336.565 381.635 336.005 382.339 335.301L385.027 339.237C382.691 341.381 379.507 342.453 375.475 342.453ZM380.803 328.101C380.707 326.789 380.179 325.605 379.219 324.549C378.291 323.493 376.915 322.965 375.091 322.965C373.363 322.965 372.019 323.493 371.059 324.549C370.099 325.573 369.539 326.757 369.379 328.101H380.803ZM401.526 341.877H395.382V324.021H388.902V318.693H408.006V324.021H401.526V341.877ZM422.725 342.453C419.141 342.453 416.181 341.333 413.845 339.093C411.509 336.853 410.341 333.909 410.341 330.261C410.341 326.837 411.461 323.957 413.701 321.621C415.973 319.285 418.853 318.117 422.341 318.117C425.797 318.117 428.597 319.301 430.741 321.669C432.885 324.005 433.957 327.077 433.957 330.885V332.229H416.725C416.917 333.765 417.605 335.045 418.789 336.069C419.973 337.093 421.509 337.605 423.397 337.605C424.421 337.605 425.525 337.397 426.709 336.981C427.925 336.565 428.885 336.005 429.589 335.301L432.277 339.237C429.941 341.381 426.757 342.453 422.725 342.453ZM428.053 328.101C427.957 326.789 427.429 325.605 426.469 324.549C425.541 323.493 424.165 322.965 422.341 322.965C420.613 322.965 419.269 323.493 418.309 324.549C417.349 325.573 416.789 326.757 416.629 328.101H428.053ZM444.168 331.461H438.792L437.784 309.861H445.128L444.168 331.461ZM444.216 341.205C443.448 341.973 442.536 342.357 441.48 342.357C440.424 342.357 439.512 341.973 438.744 341.205C438.008 340.437 437.64 339.541 437.64 338.517C437.64 337.461 438.008 336.549 438.744 335.781C439.512 335.013 440.424 334.629 441.48 334.629C442.536 334.629 443.448 335.013 444.216 335.781C444.984 336.549 445.368 337.461 445.368 338.517C445.368 339.541 444.984 340.437 444.216 341.205Z" fill="#830D97"/>
<g filter="url(#filter0_d)">
<rect x="183" y="428.877" width="248" height="57" rx="7" fill="#933FA1"/>
<path d="M218.887 464.093C217.819 464.093 216.841 463.913 215.953 463.553C215.065 463.193 214.393 462.731 213.937 462.167L215.269 460.457C215.665 460.877 216.193 461.213 216.853 461.465C217.525 461.705 218.167 461.825 218.779 461.825C219.559 461.825 220.171 461.687 220.615 461.411C221.059 461.123 221.281 460.751 221.281 460.295C221.281 459.371 220.399 458.909 218.635 458.909H216.205V456.659H218.635C219.379 456.659 219.973 456.551 220.417 456.335C220.861 456.119 221.083 455.801 221.083 455.381C221.083 454.925 220.855 454.577 220.399 454.337C219.943 454.085 219.355 453.959 218.635 453.959C217.327 453.959 216.241 454.373 215.377 455.201L214.099 453.599C214.603 453.023 215.269 452.561 216.097 452.213C216.937 451.865 217.867 451.691 218.887 451.691C220.303 451.691 221.449 451.985 222.325 452.573C223.201 453.161 223.639 453.953 223.639 454.949C223.639 455.669 223.381 456.275 222.865 456.767C222.349 457.247 221.737 457.553 221.029 457.685C221.725 457.757 222.361 458.051 222.937 458.567C223.525 459.071 223.819 459.737 223.819 460.565C223.819 461.597 223.357 462.443 222.433 463.103C221.509 463.763 220.327 464.093 218.887 464.093ZM233.203 463.877H230.917V462.977C230.293 463.721 229.375 464.093 228.163 464.093C227.383 464.093 226.681 463.841 226.057 463.337C225.445 462.821 225.139 462.113 225.139 461.213C225.139 460.277 225.439 459.575 226.039 459.107C226.651 458.639 227.359 458.405 228.163 458.405C229.399 458.405 230.317 458.759 230.917 459.467V458.297C230.917 457.853 230.743 457.499 230.395 457.235C230.047 456.971 229.585 456.839 229.009 456.839C228.061 456.839 227.215 457.181 226.471 457.865L225.607 456.335C226.639 455.423 227.905 454.967 229.405 454.967C230.521 454.967 231.433 455.225 232.141 455.741C232.849 456.257 233.203 457.097 233.203 458.261V463.877ZM229.081 462.545C229.933 462.545 230.545 462.293 230.917 461.789V460.709C230.545 460.205 229.933 459.953 229.081 459.953C228.613 459.953 228.223 460.073 227.911 460.313C227.599 460.541 227.443 460.859 227.443 461.267C227.443 461.663 227.599 461.975 227.911 462.203C228.223 462.431 228.613 462.545 229.081 462.545ZM237.883 461.321C238.279 461.813 238.819 462.059 239.503 462.059C240.187 462.059 240.727 461.813 241.123 461.321C241.531 460.829 241.735 460.217 241.735 459.485C241.735 458.801 241.531 458.219 241.123 457.739C240.727 457.247 240.187 457.001 239.503 457.001C238.819 457.001 238.279 457.241 237.883 457.721C237.487 458.201 237.289 458.789 237.289 459.485C237.289 460.217 237.487 460.829 237.883 461.321ZM239.503 464.093C238.087 464.093 236.965 463.631 236.137 462.707C235.321 461.771 234.913 460.577 234.913 459.125C234.913 457.049 235.285 455.495 236.029 454.463C236.773 453.431 237.907 452.813 239.431 452.609C240.739 452.417 241.393 452.171 241.393 451.871H243.769C243.769 453.131 242.563 453.911 240.151 454.211C238.339 454.451 237.295 455.177 237.019 456.389C237.739 455.441 238.729 454.967 239.989 454.967C241.201 454.967 242.185 455.411 242.941 456.299C243.709 457.187 244.093 458.255 244.093 459.503C244.093 460.787 243.673 461.873 242.833 462.761C242.005 463.649 240.895 464.093 239.503 464.093ZM250.827 464.093C249.735 464.093 248.841 463.649 248.145 462.761V467.189H245.859V455.183H248.145V456.281C248.829 455.405 249.723 454.967 250.827 454.967C251.967 454.967 252.891 455.375 253.599 456.191C254.319 456.995 254.679 458.105 254.679 459.521C254.679 460.937 254.319 462.053 253.599 462.869C252.891 463.685 251.967 464.093 250.827 464.093ZM250.107 462.059C250.767 462.059 251.295 461.825 251.691 461.357C252.099 460.889 252.303 460.277 252.303 459.521C252.303 458.777 252.099 458.171 251.691 457.703C251.295 457.235 250.767 457.001 250.107 457.001C249.735 457.001 249.363 457.097 248.991 457.289C248.619 457.481 248.337 457.715 248.145 457.991V461.069C248.337 461.345 248.619 461.579 248.991 461.771C249.375 461.963 249.747 462.059 250.107 462.059ZM263.733 462.779C262.893 463.655 261.777 464.093 260.385 464.093C258.993 464.093 257.877 463.655 257.037 462.779C256.209 461.891 255.795 460.805 255.795 459.521C255.795 458.237 256.209 457.157 257.037 456.281C257.877 455.405 258.993 454.967 260.385 454.967C261.777 454.967 262.893 455.405 263.733 456.281C264.573 457.157 264.993 458.237 264.993 459.521C264.993 460.805 264.573 461.891 263.733 462.779ZM258.765 461.339C259.161 461.819 259.701 462.059 260.385 462.059C261.069 462.059 261.609 461.819 262.005 461.339C262.413 460.847 262.617 460.241 262.617 459.521C262.617 458.813 262.413 458.219 262.005 457.739C261.609 457.247 261.069 457.001 260.385 457.001C259.701 457.001 259.161 457.247 258.765 457.739C258.369 458.219 258.171 458.813 258.171 459.521C258.171 460.241 258.369 460.847 258.765 461.339ZM268.975 463.877H266.689V455.183H268.975V458.405H272.575V455.183H274.861V463.877H272.575V460.403H268.975V463.877ZM279.327 463.877H277.131V455.183H279.417V460.439L282.999 455.183H285.303V463.877H283.017V458.423L279.327 463.877ZM292.54 464.093C291.448 464.093 290.554 463.649 289.858 462.761V467.189H287.572V455.183H289.858V456.281C290.542 455.405 291.436 454.967 292.54 454.967C293.68 454.967 294.604 455.375 295.312 456.191C296.032 456.995 296.392 458.105 296.392 459.521C296.392 460.937 296.032 462.053 295.312 462.869C294.604 463.685 293.68 464.093 292.54 464.093ZM291.82 462.059C292.48 462.059 293.008 461.825 293.404 461.357C293.812 460.889 294.016 460.277 294.016 459.521C294.016 458.777 293.812 458.171 293.404 457.703C293.008 457.235 292.48 457.001 291.82 457.001C291.448 457.001 291.076 457.097 290.704 457.289C290.332 457.481 290.05 457.715 289.858 457.991V461.069C290.05 461.345 290.332 461.579 290.704 461.771C291.088 461.963 291.46 462.059 291.82 462.059ZM305.446 462.779C304.606 463.655 303.49 464.093 302.098 464.093C300.706 464.093 299.59 463.655 298.75 462.779C297.922 461.891 297.508 460.805 297.508 459.521C297.508 458.237 297.922 457.157 298.75 456.281C299.59 455.405 300.706 454.967 302.098 454.967C303.49 454.967 304.606 455.405 305.446 456.281C306.286 457.157 306.706 458.237 306.706 459.521C306.706 460.805 306.286 461.891 305.446 462.779ZM300.478 461.339C300.874 461.819 301.414 462.059 302.098 462.059C302.782 462.059 303.322 461.819 303.718 461.339C304.126 460.847 304.33 460.241 304.33 459.521C304.33 458.813 304.126 458.219 303.718 457.739C303.322 457.247 302.782 457.001 302.098 457.001C301.414 457.001 300.874 457.247 300.478 457.739C300.082 458.219 299.884 458.813 299.884 459.521C299.884 460.241 300.082 460.847 300.478 461.339ZM314.072 463.877H308.402V455.183H313.91C314.75 455.183 315.404 455.399 315.872 455.831C316.34 456.263 316.574 456.791 316.574 457.415C316.574 457.919 316.436 458.345 316.16 458.693C315.884 459.041 315.53 459.275 315.098 459.395C315.578 459.503 315.974 459.755 316.286 460.151C316.598 460.547 316.754 461.003 316.754 461.519C316.754 462.203 316.514 462.767 316.034 463.211C315.566 463.655 314.912 463.877 314.072 463.877ZM313.514 462.005C313.79 462.005 314.006 461.933 314.162 461.789C314.33 461.645 314.414 461.447 314.414 461.195C314.414 460.967 314.33 460.775 314.162 460.619C314.006 460.463 313.79 460.385 313.514 460.385H310.688V462.005H313.514ZM313.442 458.513C313.682 458.513 313.874 458.447 314.018 458.315C314.174 458.171 314.252 457.997 314.252 457.793C314.252 457.577 314.18 457.403 314.036 457.271C313.892 457.127 313.694 457.055 313.442 457.055H310.688V458.513H313.442ZM326.455 463.877H324.169V462.977C323.545 463.721 322.627 464.093 321.415 464.093C320.635 464.093 319.933 463.841 319.309 463.337C318.697 462.821 318.391 462.113 318.391 461.213C318.391 460.277 318.691 459.575 319.291 459.107C319.903 458.639 320.611 458.405 321.415 458.405C322.651 458.405 323.569 458.759 324.169 459.467V458.297C324.169 457.853 323.995 457.499 323.647 457.235C323.299 456.971 322.837 456.839 322.261 456.839C321.313 456.839 320.467 457.181 319.723 457.865L318.859 456.335C319.891 455.423 321.157 454.967 322.657 454.967C323.773 454.967 324.685 455.225 325.393 455.741C326.101 456.257 326.455 457.097 326.455 458.261V463.877ZM322.333 462.545C323.185 462.545 323.797 462.293 324.169 461.789V460.709C323.797 460.205 323.185 459.953 322.333 459.953C321.865 459.953 321.475 460.073 321.163 460.313C320.851 460.541 320.695 460.859 320.695 461.267C320.695 461.663 320.851 461.975 321.163 462.203C321.475 462.431 321.865 462.545 322.333 462.545ZM332.629 463.877H330.325V457.181H327.895V455.183H335.059V457.181H332.629V463.877ZM336.492 455.183H338.778V458.171H341.748C342.708 458.171 343.452 458.441 343.98 458.981C344.508 459.521 344.772 460.199 344.772 461.015C344.772 461.819 344.502 462.497 343.962 463.049C343.422 463.601 342.684 463.877 341.748 463.877H336.492V455.183ZM341.406 460.079H338.778V461.951H341.406C341.718 461.951 341.964 461.867 342.144 461.699C342.336 461.519 342.432 461.291 342.432 461.015C342.432 460.739 342.336 460.517 342.144 460.349C341.964 460.169 341.718 460.079 341.406 460.079ZM361.325 463.877H359.039V458.225L356.717 463.877H355.673L353.333 458.225V463.877H351.047V455.183H354.053L356.195 460.367L358.301 455.183H361.325V463.877ZM367.684 464.093C366.34 464.093 365.23 463.673 364.354 462.833C363.478 461.993 363.04 460.889 363.04 459.521C363.04 458.237 363.46 457.157 364.3 456.281C365.152 455.405 366.232 454.967 367.54 454.967C368.836 454.967 369.886 455.411 370.69 456.299C371.494 457.175 371.896 458.327 371.896 459.755V460.259H365.434C365.506 460.835 365.764 461.315 366.208 461.699C366.652 462.083 367.228 462.275 367.936 462.275C368.32 462.275 368.734 462.197 369.178 462.041C369.634 461.885 369.994 461.675 370.258 461.411L371.266 462.887C370.39 463.691 369.196 464.093 367.684 464.093ZM369.682 458.711C369.646 458.219 369.448 457.775 369.088 457.379C368.74 456.983 368.224 456.785 367.54 456.785C366.892 456.785 366.388 456.983 366.028 457.379C365.668 457.763 365.458 458.207 365.398 458.711H369.682ZM377.597 464.093C376.253 464.093 375.149 463.667 374.285 462.815C373.421 461.963 372.989 460.865 372.989 459.521C372.989 458.189 373.421 457.097 374.285 456.245C375.149 455.393 376.253 454.967 377.597 454.967C379.133 454.967 380.279 455.489 381.035 456.533L379.541 457.937C379.121 457.313 378.509 457.001 377.705 457.001C377.009 457.001 376.439 457.235 375.995 457.703C375.563 458.159 375.347 458.765 375.347 459.521C375.347 460.277 375.563 460.889 375.995 461.357C376.439 461.825 377.009 462.059 377.705 462.059C378.485 462.059 379.097 461.747 379.541 461.123L381.035 462.509C380.279 463.565 379.133 464.093 377.597 464.093ZM386.435 463.877H384.131V457.181H381.701V455.183H388.865V457.181H386.435V463.877ZM397.679 462.779C396.839 463.655 395.723 464.093 394.331 464.093C392.939 464.093 391.823 463.655 390.983 462.779C390.155 461.891 389.741 460.805 389.741 459.521C389.741 458.237 390.155 457.157 390.983 456.281C391.823 455.405 392.939 454.967 394.331 454.967C395.723 454.967 396.839 455.405 397.679 456.281C398.519 457.157 398.939 458.237 398.939 459.521C398.939 460.805 398.519 461.891 397.679 462.779ZM392.711 461.339C393.107 461.819 393.647 462.059 394.331 462.059C395.015 462.059 395.555 461.819 395.951 461.339C396.359 460.847 396.563 460.241 396.563 459.521C396.563 458.813 396.359 458.219 395.951 457.739C395.555 457.247 395.015 457.001 394.331 457.001C393.647 457.001 393.107 457.247 392.711 457.739C392.315 458.219 392.117 458.813 392.117 459.521C392.117 460.241 392.315 460.847 392.711 461.339Z" fill="white"/>
</g>
<path d="M415 483.877L422.794 517.493L448.242 492.987L415 483.877Z" fill="#515152"/>
<path d="M454.409 515.899L433.608 494.71L424.648 503.506L445.449 524.695L454.409 515.899Z" fill="#515152"/>
<defs>
<filter id="filter0_d" x="167" y="416.877" width="288" height="97" filterUnits="userSpaceOnUse" color-interpolation-filters="sRGB">
<feFlood flood-opacity="0" result="BackgroundImageFix"/>
<feColorMatrix in="SourceAlpha" type="matrix" values="0 0 0 0 0 0 0 0 0 0 0 0 0 0 0 0 0 0 127 0"/>
<feOffset dx="4" dy="8"/>
<feGaussianBlur stdDeviation="10"/>
<feColorMatrix type="matrix" values="0 0 0 0 0 0 0 0 0 0 0 0 0 0 0 0 0 0 0.1 0"/>
<feBlend mode="normal" in2="BackgroundImageFix" result="effect1_dropShadow"/>
<feBlend mode="normal" in="SourceGraphic" in2="effect1_dropShadow" result="shape"/>
</filter>
</defs>
</svg>
