<svg width="508" height="338" viewBox="0 0 508 338" fill="none" xmlns="http://www.w3.org/2000/svg">
<path d="M472.196 102.164C472.083 102.556 471.905 102.926 471.668 103.259C471.128 104.047 470.372 104.663 469.49 105.032C468.608 105.401 467.638 105.509 466.696 105.341C465.806 105.184 464.975 104.789 464.292 104.198C463.922 103.883 463.602 103.514 463.344 103.103C463.066 102.689 462.858 102.232 462.727 101.751C462.44 100.715 462.494 99.614 462.882 98.6109C463.27 97.6078 463.971 96.7558 464.881 96.181C465.297 95.9061 465.755 95.6985 466.236 95.5659C466.905 95.3832 467.606 95.3412 468.292 95.4424C468.979 95.5437 469.637 95.786 470.225 96.154C471.037 96.6598 471.685 97.389 472.091 98.2537C472.497 99.1183 472.644 100.082 472.515 101.028C472.466 101.432 472.349 101.825 472.169 102.191C472.169 102.191 472.318 101.778 472.406 101.014C472.518 99.9263 472.263 98.8322 471.682 97.9048C471.255 97.2247 470.665 96.6622 469.964 96.2689C469.264 95.8756 468.476 95.6641 467.672 95.6538C467.214 95.6433 466.757 95.7025 466.317 95.8295C465.854 95.9541 465.413 96.1503 465.01 96.4109C464.154 96.959 463.496 97.7651 463.13 98.712C462.765 99.659 462.712 100.698 462.978 101.677C463.102 102.142 463.299 102.584 463.56 102.988C463.8 103.379 464.099 103.731 464.448 104.029C465.052 104.558 465.78 104.928 466.564 105.105C467.348 105.282 468.164 105.261 468.938 105.043C469.991 104.747 470.914 104.107 471.56 103.225C472.027 102.569 472.162 102.15 472.196 102.164Z" fill="#E0E0E0"/>
<path d="M476.843 106.808H477.012L477.534 106.875L479.566 107.146L479.518 107.179C479.931 106.078 480.48 104.638 481.137 102.894V102.981L478.834 101.447H478.793V101.4C478.9 100.414 478.873 99.4175 478.712 98.4388V98.3847L478.753 98.3509L480.974 96.6879V96.8096L479.105 92.6319L479.227 92.6928L476.518 93.2336H476.45L476.402 93.1795C475.779 92.4122 475.057 91.7304 474.255 91.1515L474.194 91.1109V91.0366C474.316 90.1916 474.452 89.2519 474.587 88.3326L474.668 88.4678L470.388 86.8251L470.544 86.7778L468.999 89.0762L468.959 89.1438H468.877C467.894 89.0377 466.901 89.0627 465.924 89.2181H465.843L465.789 89.1505L464.136 86.9333L464.299 86.9806L460.106 88.8396L460.187 88.6841L460.722 91.3881V91.476L460.654 91.53C459.884 92.1448 459.2 92.8612 458.622 93.6595L458.487 93.7203H458.399H458.311H458.142L457.796 93.673L457.119 93.5716L455.764 93.3688L455.913 93.2809C455.358 94.7275 454.802 96.1539 454.26 97.5532L454.213 97.391L456.509 98.9323L456.584 98.9796V99.0607C456.476 100.042 456.501 101.033 456.658 102.008V102.089L456.59 102.136L454.369 103.793L454.409 103.63C455.046 105.057 455.663 106.456 456.265 107.815L456.123 107.741L458.832 107.206H458.914L458.961 107.267C459.58 108.034 460.298 108.715 461.095 109.295L461.156 109.336V109.41C461.013 110.35 460.878 111.256 460.749 112.114L460.675 111.993L464.949 113.649L464.82 113.689L466.371 111.391L466.405 111.344H466.466C467.454 111.451 468.451 111.428 469.433 111.276H469.487L469.521 111.317L471.167 113.541H471.072L475.271 111.702L475.231 111.769C475.027 110.681 474.858 109.796 474.716 109.065C475.305 108.602 475.848 108.081 476.335 107.511L476.687 107.085C476.723 106.984 476.775 106.891 476.843 106.808L476.741 106.963C476.673 107.065 476.558 107.213 476.402 107.403C475.93 107.991 475.397 108.528 474.811 109.005V108.957C474.96 109.701 475.143 110.586 475.366 111.661V111.715H475.319L471.14 113.588H471.079L471.038 113.534L469.392 111.404H469.48C468.484 111.567 467.47 111.597 466.466 111.492L466.561 111.445L465.023 113.75L464.976 113.818H464.895L460.587 112.216H460.505V112.121C460.634 111.235 460.763 110.323 460.898 109.417L460.946 109.532C460.127 108.938 459.391 108.238 458.758 107.45L458.88 107.497L456.171 108.038H456.069L456.028 107.943L454.166 103.759L454.118 103.657L454.206 103.597L456.428 101.94L456.374 102.069C456.213 101.072 456.188 100.058 456.299 99.0539L456.36 99.1824L454.057 97.6411L453.962 97.5803L454.003 97.4721C454.545 96.0705 455.094 94.6464 455.649 93.1998L455.69 93.0984H455.805L457.159 93.3012L457.837 93.4026L458.182 93.4499H458.352H458.44H458.555L458.419 93.5107C459.013 92.6907 459.715 91.954 460.505 91.3205L460.458 91.4557L459.923 88.7517V88.6368L460.025 88.5962L464.224 86.7372L464.326 86.6967L464.387 86.7845L466.046 89.0018L465.911 88.9477C466.912 88.7912 467.931 88.7684 468.938 88.8801L468.81 88.9342L470.361 86.6426L470.415 86.5547L470.516 86.5885L474.79 88.2447L474.885 88.2785V88.3799C474.743 89.3331 474.608 90.2659 474.479 91.0839L474.431 90.969C475.251 91.5645 475.987 92.2671 476.619 93.0578L476.504 93.0105L479.213 92.4832H479.301V92.5643L481.151 96.7555V96.8299L481.09 96.8772L478.875 98.5131L478.909 98.4253C479.062 99.4185 479.085 100.428 478.976 101.427L478.936 101.352L481.232 102.9L481.279 102.934V102.988C480.602 104.726 480.033 106.159 479.606 107.247H479.552L477.52 106.923L476.998 106.835L476.843 106.808Z" fill="#E0E0E0"/>
<path fill-rule="evenodd" clip-rule="evenodd" d="M449.56 79.666C448.63 80.9304 447.537 82.0669 446.309 83.046L447.155 87.3251L440.538 90.2589L437.93 86.7572C436.362 87.0072 434.767 87.0458 433.189 86.8722L430.784 90.5293L424.011 87.9267L424.641 83.6138C423.372 82.6848 422.233 81.5913 421.254 80.3623L416.96 81.2073L414.027 74.6095L417.536 72.0002C417.286 70.4351 417.245 68.844 417.414 67.2682L413.77 64.8954L416.37 58.1354L420.699 58.7641C421.629 57.4998 422.722 56.3634 423.95 55.3841L423.103 51.0982L429.721 48.1712L432.335 51.6728C433.903 51.4223 435.498 51.3837 437.077 51.5579L439.515 47.9346L446.288 50.5304L445.652 54.8433C446.918 55.7744 448.057 56.8676 449.038 58.0948L453.326 57.2498L456.259 63.8476L452.757 66.457C453.008 68.022 453.047 69.6136 452.872 71.189L456.502 73.6226L453.902 80.3826L449.573 79.7539L449.56 79.666ZM442.258 72.3314C442.809 70.9016 442.923 69.3409 442.585 67.8465C442.247 66.3522 441.473 64.9914 440.36 63.9361C439.248 62.8807 437.847 62.1783 436.334 61.9175C434.822 61.6567 433.266 61.8493 431.863 62.4709C430.46 63.0925 429.274 64.1153 428.453 65.4099C427.632 66.7045 427.215 68.2128 427.253 69.7442C427.291 71.2756 427.784 72.7613 428.668 74.0135C429.552 75.2658 430.788 76.2283 432.22 76.7795C433.172 77.1458 434.187 77.3213 435.206 77.2959C436.226 77.2706 437.231 77.0449 438.163 76.6318C439.095 76.2187 439.937 75.6263 440.639 74.8884C441.342 74.1505 441.892 73.2816 442.258 72.3314Z" fill="#EBEBEB"/>
<path fill-rule="evenodd" clip-rule="evenodd" d="M441.391 145.732C439.904 147.781 438.147 149.62 436.169 151.201L437.524 158.076L426.91 162.808L422.71 157.184C420.209 157.587 417.664 157.653 415.144 157.38L411.236 163.193L400.399 159.022L401.415 152.1C399.364 150.614 397.521 148.861 395.935 146.888L389.047 148.24L384.305 137.647L389.934 133.456C389.532 130.959 389.468 128.419 389.744 125.905L383.913 122.005L388.092 111.189L395.034 112.203C396.521 110.152 398.278 108.31 400.257 106.727L398.902 99.852L409.523 95.1538L413.715 100.771C416.22 100.373 418.766 100.309 421.288 100.582L425.196 94.7617L436.033 98.9326L435.017 105.862C437.068 107.348 438.911 109.1 440.497 111.074L447.386 109.722L452.127 120.315L446.491 124.499C446.893 126.998 446.959 129.54 446.688 132.057L452.513 135.957L448.334 146.773L441.391 145.759V145.732ZM429.666 133.916C430.553 131.62 430.739 129.114 430.198 126.713C429.658 124.313 428.416 122.126 426.63 120.43C424.844 118.734 422.595 117.604 420.166 117.184C417.737 116.764 415.238 117.073 412.984 118.07C410.731 119.068 408.825 120.71 407.506 122.789C406.188 124.869 405.518 127.291 405.579 129.751C405.641 132.21 406.432 134.596 407.852 136.607C409.273 138.618 411.259 140.163 413.559 141.047C416.643 142.233 420.072 142.147 423.092 140.81C426.113 139.472 428.477 136.993 429.666 133.916Z" fill="#EBEBEB"/>
<path d="M147.049 50.2738C147.772 55.1633 147.026 60.1571 144.904 64.623C142.782 69.0889 139.381 72.8262 135.13 75.3619C130.879 77.8975 125.97 79.1175 121.024 78.8674C116.078 78.6173 111.317 76.9085 107.345 73.957C103.372 71.0056 100.367 66.9444 98.708 62.2873C97.0493 57.6303 96.8123 52.5868 98.0268 47.7952C99.2414 43.0036 101.853 38.6793 105.531 35.3697C109.209 32.0601 113.788 29.914 118.689 29.2029C121.938 28.727 125.248 28.8947 128.432 29.6962C131.616 30.4977 134.61 31.9174 137.243 33.8742C139.877 35.8309 142.099 38.2864 143.781 41.1003C145.464 43.9142 146.574 47.0314 147.049 50.2738Z" fill="#F5F5F5"/>
<path d="M141.156 51.1261C141.708 54.8525 141.14 58.6585 139.523 62.0623C137.907 65.4662 135.315 68.3149 132.075 70.2479C128.836 72.1808 125.094 73.1111 121.325 72.921C117.555 72.7309 113.927 71.4289 110.899 69.1798C107.872 66.9308 105.581 63.8358 104.316 60.2866C103.052 56.7374 102.871 52.8936 103.796 49.2417C104.721 45.5898 106.712 42.294 109.515 39.7715C112.318 37.249 115.808 35.6132 119.543 35.0711C124.542 34.34 129.627 35.6208 133.681 38.6316C137.734 41.6424 140.423 46.1367 141.156 51.1261Z" fill="#EBEBEB"/>
<path d="M141.062 50.5376C140.946 50.5376 140.75 49.7467 140.235 48.3474C139.517 46.382 138.498 44.5396 137.214 42.8853C135.318 40.4561 132.859 38.5236 130.048 37.2542C129.243 36.8896 128.412 36.5846 127.562 36.3416C126.676 36.0785 125.77 35.8863 124.853 35.767C123.908 35.6388 122.955 35.5823 122.001 35.598C121.021 35.6259 120.043 35.7208 119.075 35.8819C118.108 36.0611 117.155 36.3096 116.224 36.6255C115.322 36.9363 114.446 37.316 113.602 37.7612C112.79 38.1804 112.013 38.6642 111.279 39.2078C110.56 39.7266 109.881 40.2983 109.247 40.9181C108.078 42.0663 107.06 43.3589 106.22 44.7646C105.5 46.0005 104.916 47.3105 104.479 48.6718C103.845 50.6632 103.525 52.7408 103.531 54.8302C103.531 56.3174 103.625 57.1489 103.531 57.1692C103.436 57.1894 103.158 56.385 102.982 54.8572C102.752 52.6849 102.929 50.4889 103.503 48.3812C104.363 45.212 106.023 42.3163 108.326 39.9717C109.681 38.5924 111.236 37.4235 112.939 36.5038C113.845 36.0163 114.787 35.5983 115.756 35.2532C117.762 34.5506 119.869 34.1784 121.995 34.1514C123.023 34.1367 124.052 34.2046 125.07 34.3542C126.053 34.5003 127.022 34.7263 127.969 35.0302C128.878 35.3063 129.766 35.6497 130.624 36.0577C132.205 36.8166 133.678 37.7803 135.006 38.9239C136.15 39.9266 137.171 41.0612 138.047 42.3039C139.31 44.0861 140.229 46.0874 140.757 48.2054C141.136 49.6723 141.15 50.5241 141.062 50.5376Z" fill="#E0E0E0"/>
<path d="M126.052 64.7877L126.58 68.0663L123.647 68.5328L123.139 65.3488C120.213 65.6327 117.28 65.173 115.472 64.1726L116.501 60.3464C118.372 61.2538 120.448 61.657 122.523 61.5159L121.737 56.6352C118.351 56.3648 114.558 55.8645 113.887 51.6868C113.392 48.584 115.242 45.6028 119.759 44.2982L119.238 41.0534L122.171 40.5869L122.679 43.7709C124.793 43.5509 126.93 43.8383 128.91 44.6091L128.016 48.4353C126.505 47.8556 124.893 47.5821 123.275 47.6308L124.067 52.5994C127.454 52.8428 131.186 53.3498 131.85 57.4734C132.365 60.5154 130.563 63.5033 126.052 64.7877ZM121.053 52.3358L120.376 48.1852C118.879 48.7868 118.405 49.7332 118.561 50.6999C118.716 51.6666 119.698 52.133 121.053 52.3358ZM127.217 58.5753C127.054 57.5545 126.12 57.1354 124.785 56.8988L125.463 60.9548C126.844 60.3734 127.339 59.4879 127.217 58.5753Z" fill="#E0E0E0"/>
<path d="M139.307 138.424C140.565 146.912 139.271 155.581 135.59 163.335C131.908 171.089 126.004 177.578 118.625 181.981C111.246 186.385 102.724 188.504 94.1382 188.071C85.5519 187.638 77.2874 184.672 70.3909 179.549C63.4944 174.426 58.276 167.376 55.3962 159.291C52.5165 151.206 52.1049 142.451 54.2136 134.133C56.3222 125.814 60.8564 118.308 67.242 112.563C73.6276 106.818 81.5776 103.093 90.0855 101.859C101.471 100.194 113.053 103.111 122.284 109.968C131.514 116.825 137.638 127.061 139.307 138.424Z" fill="#F5F5F5"/>
<path d="M129.08 139.932C130.037 146.401 129.05 153.007 126.243 158.915C123.437 164.824 118.937 169.768 113.313 173.123C107.689 176.478 101.195 178.092 94.6518 177.761C88.1086 177.43 81.8108 175.169 76.5557 171.265C71.3006 167.36 67.3244 161.987 65.1304 155.826C62.9364 149.665 62.6233 142.992 64.2307 136.653C65.8381 130.315 69.2938 124.594 74.1602 120.216C79.0267 115.839 85.0852 113 91.5688 112.061C100.246 110.794 109.072 113.018 116.106 118.245C123.14 123.472 127.807 131.272 129.08 139.932Z" fill="#EBEBEB"/>
<path d="M128.924 138.891C128.727 138.891 128.375 137.539 127.481 135.078C126.236 131.672 124.47 128.48 122.245 125.614C120.709 123.669 118.964 121.896 117.043 120.328C114.832 118.54 112.401 117.041 109.809 115.866C108.414 115.228 106.971 114.697 105.495 114.278C103.961 113.825 102.393 113.493 100.807 113.284C99.1673 113.057 97.5117 112.96 95.8562 112.993C94.1509 113.035 92.4508 113.2 90.7694 113.487C89.0919 113.793 87.4393 114.223 85.8249 114.771C84.2587 115.308 82.7368 115.965 81.2732 116.738C79.8549 117.482 78.4962 118.334 77.2092 119.287C75.9689 120.189 74.7983 121.183 73.7074 122.261C71.6783 124.251 69.914 126.494 68.458 128.933C67.1959 131.069 66.1715 133.335 65.4033 135.693C64.307 139.15 63.7518 142.755 63.7573 146.381C63.7573 148.97 63.9199 150.437 63.7573 150.437C63.5948 150.437 63.08 149.085 62.8091 146.421C62.3973 142.66 62.689 138.855 63.6693 135.2C65.1548 129.699 68.0385 124.674 72.0411 120.612C73.1885 119.428 74.4273 118.336 75.7461 117.347C77.1131 116.3 78.5628 115.367 80.0811 114.555C81.6543 113.705 83.2917 112.98 84.9782 112.385C88.4635 111.168 92.1233 110.521 95.8155 110.472C97.6034 110.448 99.3904 110.566 101.16 110.823C104.501 111.314 107.75 112.3 110.798 113.75C115.949 116.191 120.381 119.916 123.667 124.566C125.873 127.658 127.481 131.134 128.409 134.814C129.052 137.383 129.066 138.864 128.924 138.891Z" fill="#E0E0E0"/>
<path d="M102.86 163.625L103.774 169.311L98.6942 170.122L97.8069 164.592C92.7201 165.092 87.6469 164.295 84.4973 162.564L86.299 155.926C89.5428 157.495 93.1401 158.194 96.7367 157.954L95.382 149.477C89.5231 149.01 82.9191 148.125 81.7541 140.885C80.8871 135.477 84.0638 130.265 91.948 128.041L91.0471 122.41L96.1339 121.592L97.0144 127.128C100.882 126.824 104.75 127.243 107.852 128.568L106.314 135.22C103.69 134.221 100.892 133.755 98.0846 133.848L99.4393 142.473C105.298 142.893 111.801 143.778 112.945 150.93C113.792 156.203 110.69 161.388 102.86 163.625ZM94.1832 141.993L93.0249 134.787C90.4307 135.828 89.5976 137.491 89.8685 139.148C90.1395 140.804 91.8328 141.662 94.1832 142.014V141.993ZM104.892 152.809C104.601 151.032 102.975 150.308 100.665 149.896L101.79 156.893C104.242 155.966 105.149 154.466 104.892 152.843V152.809Z" fill="#E0E0E0"/>
<path d="M44.5347 95.0314C41.3853 92.4784 39.0657 89.0502 37.8695 85.1808C36.6733 81.3113 36.6544 77.1747 37.815 73.2945C38.9757 69.4143 41.2638 65.9651 44.3897 63.3834C47.5156 60.8018 51.3386 59.2038 55.375 58.7918C59.4113 58.3797 63.4794 59.1722 67.0642 61.0688C70.649 62.9655 73.5894 65.881 75.5131 69.4463C77.4368 73.0117 78.2573 77.0665 77.8708 81.0975C77.4842 85.1284 75.9081 88.9543 73.3417 92.0908C71.6442 94.1724 69.5524 95.8998 67.1857 97.1743C64.8191 98.4487 62.224 99.2452 59.5487 99.5183C56.8735 99.7914 54.1706 99.5357 51.5944 98.7658C49.0182 97.9959 46.6193 96.727 44.5347 95.0314Z" fill="#F5F5F5"/>
<path d="M47.6165 91.2597C45.2171 89.3132 43.4502 86.7001 42.5395 83.751C41.6288 80.8019 41.6153 77.6494 42.5006 74.6926C43.3859 71.7358 45.1303 69.1076 47.5129 67.1407C49.8955 65.1738 52.8093 63.9566 55.8854 63.6432C58.9615 63.3297 62.0616 63.9341 64.7933 65.3799C67.525 66.8257 69.7656 69.0478 71.2314 71.765C72.6971 74.4823 73.3222 77.5724 73.0275 80.6444C72.7327 83.7163 71.5314 86.6319 69.5757 89.0221C68.2833 90.6114 66.6893 91.9303 64.8851 92.9033C63.0808 93.8763 61.1018 94.4841 59.0617 94.692C57.0215 94.8999 54.9602 94.7037 52.9962 94.1147C51.0321 93.5257 49.204 92.5555 47.6165 91.2597Z" fill="#EBEBEB"/>
<path d="M47.996 91.5703C48.057 91.4892 48.6327 91.8745 49.7165 92.4356C51.2398 93.2234 52.8755 93.7729 54.5662 94.0648C57.0582 94.4824 59.6144 94.2922 62.0168 93.5104C63.4208 93.0421 64.7523 92.3799 65.9725 91.5433C66.6153 91.1003 67.2223 90.6076 67.7877 90.0696C68.3685 89.5129 68.9073 88.9141 69.3998 88.2782C69.8864 87.6349 70.3256 86.9571 70.7138 86.2502C71.0854 85.564 71.4024 84.8498 71.6621 84.114C71.921 83.4057 72.1226 82.6778 72.2649 81.9373C72.4087 81.2287 72.497 80.51 72.529 79.7876C72.5999 78.4506 72.4975 77.1101 72.2242 75.7992C71.9814 74.6509 71.6111 73.5331 71.1202 72.4666C70.3972 70.915 69.44 69.4833 68.2822 68.2213C67.4558 67.3222 66.9275 66.8693 66.9952 66.7949C67.6044 67.0415 68.154 67.4148 68.6073 67.89C69.9502 69.0765 71.0596 70.5024 71.8788 72.0948C72.4537 73.1991 72.8948 74.3678 73.1928 75.5762C73.715 77.729 73.7819 79.9668 73.3892 82.1469C73.2452 82.9458 73.0391 83.7323 72.7729 84.4994C72.4978 85.2963 72.158 86.0695 71.7569 86.8113C71.3449 87.5746 70.8739 88.3046 70.348 88.9948C69.8181 89.6805 69.2361 90.3246 68.6073 90.9214C67.9916 91.498 67.3327 92.0269 66.6362 92.5032C65.9648 92.9594 65.2581 93.3618 64.523 93.7065C63.8215 94.0446 63.0946 94.3272 62.3487 94.5515C59.7734 95.3434 57.0371 95.4598 54.4036 94.8895C52.6507 94.5232 50.981 93.8356 49.4794 92.8615C48.4363 92.1314 47.9554 91.6244 47.996 91.5703Z" fill="#E0E0E0"/>
<path d="M49.1609 74.6645L47.0273 73.0083L48.5378 71.1087L50.6172 72.7514C52.0098 71.1047 53.8381 69.8819 55.8936 69.2227L57.3905 72.1024C55.7606 72.593 54.2858 73.4967 53.1098 74.7253L56.2865 77.24C58.481 75.5365 61.0278 73.7383 63.7778 75.888C65.8098 77.4901 66.3652 80.3226 64.3264 83.5944L66.4397 85.2709L64.9293 87.1705L62.8566 85.5278C61.6993 86.8264 60.2512 87.8339 58.6301 88.4684L57.0383 85.663C58.269 85.1788 59.3922 84.4575 60.3437 83.5403L57.1061 80.9783C54.9318 82.6953 52.3647 84.4529 49.7028 82.3303C47.7182 80.7349 47.156 77.9363 49.1609 74.6645ZM59.0906 79.3965L61.8 81.5394C62.3689 80.3496 62.1319 79.5114 61.5087 79.0179C60.8856 78.5244 60.0186 78.8016 59.0906 79.4235V79.3965ZM51.9041 79.0923C52.5815 79.6195 53.3672 79.3559 54.3019 78.761L51.6738 76.6857C51.132 77.7741 51.2945 78.5853 51.9041 79.0923Z" fill="#E0E0E0"/>
<path d="M464.969 306.458C464.969 306.553 368.991 306.634 250.627 306.634C132.263 306.634 36.2576 306.553 36.2576 306.458C36.2576 306.363 132.215 306.282 250.627 306.282C369.038 306.282 464.969 306.363 464.969 306.458Z" fill="#263238"/>
<path d="M58.6638 288.246C58.6965 288.138 58.7396 288.034 58.7925 287.935C58.8941 287.712 59.0364 287.421 59.2125 287.043C59.7208 285.889 60.1331 284.695 60.4452 283.473C61.258 280.296 61.5425 275.449 60.3369 269.683C59.6861 266.544 58.8308 263.45 57.7765 260.422C56.6928 257.136 55.433 253.662 54.3899 249.876C53.2272 245.943 52.6654 241.856 52.7236 237.756C52.8794 233.463 54.1528 229.184 55.5481 224.912C56.9434 220.639 58.3929 216.468 58.8196 212.27C59.3017 208.235 58.4908 204.15 56.5031 200.603C54.6473 197.223 52.3172 194.289 50.5765 191.267C48.9486 188.47 47.7477 185.447 47.0137 182.296C45.9632 177.731 45.8871 172.995 46.7902 168.398C47.1097 166.716 47.5952 165.07 48.2397 163.483C48.2267 163.597 48.1994 163.708 48.1584 163.815C48.0839 164.044 47.9891 164.355 47.8604 164.754C47.4928 165.963 47.1921 167.19 46.9595 168.432C46.1271 173.006 46.2493 177.703 47.3185 182.229C48.0653 185.341 49.2705 188.325 50.8948 191.084C52.6356 194.066 54.9588 196.966 56.8621 200.413C58.9088 204.031 59.7508 208.205 59.2667 212.331C58.8332 216.597 57.3769 220.795 55.9884 225.06C54.5998 229.326 53.3265 233.551 53.1707 237.769C53.1091 241.827 53.657 245.872 54.7963 249.768C55.8055 253.52 57.0518 257.008 58.122 260.307C59.1673 263.354 60.0113 266.465 60.6484 269.622C61.8202 275.429 61.4815 280.33 60.6078 283.514C60.2779 284.741 59.8382 285.935 59.2938 287.083C59.0973 287.448 58.9483 287.759 58.8332 287.955C58.7851 288.057 58.7285 288.154 58.6638 288.246Z" fill="#263238"/>
<path d="M52.9608 194.262C52.9608 194.262 49.4454 182.959 55.7717 176.341C55.8212 176.287 55.8849 176.248 55.9555 176.228C56.0262 176.208 56.1011 176.208 56.1716 176.228C56.2421 176.249 56.3055 176.289 56.3545 176.343C56.4036 176.398 56.4363 176.465 56.4491 176.537C56.781 178.403 57.2077 184.088 52.9608 194.262Z" fill="#933FA1"/>
<path d="M55.0808 180.106C55.0731 180.809 54.9937 181.509 54.8437 182.195C54.6066 183.628 54.3357 185.318 54.0309 187.177C53.7261 189.036 53.4687 190.726 53.2384 192.16C53.1822 192.857 53.0574 193.548 52.8659 194.221C52.8024 193.523 52.8228 192.819 52.9269 192.126C53.0488 190.835 53.2723 189.057 53.6042 187.103C53.9361 185.149 54.2815 183.399 54.5389 182.134C54.6441 181.441 54.8258 180.76 55.0808 180.106Z" fill="#263238"/>
<path d="M57.1196 220.909C57.1196 220.909 59.2803 209.268 67.9976 206.382C68.0661 206.359 68.1397 206.355 68.2102 206.371C68.2807 206.387 68.3455 206.422 68.3973 206.472C68.4491 206.523 68.486 206.586 68.5039 206.656C68.5219 206.726 68.5201 206.8 68.4988 206.869C67.9231 208.68 65.6337 213.899 57.1196 220.909Z" fill="#933FA1"/>
<path d="M65.62 209.391C65.2859 210.007 64.8886 210.587 64.4347 211.121L61.3867 215.177L58.3522 219.233C57.9704 219.822 57.535 220.374 57.0518 220.883C57.3235 220.234 57.6738 219.621 58.0948 219.057C58.7722 217.969 59.8356 216.502 61.0345 214.934C62.2334 213.366 63.351 211.966 64.1908 210.979C64.6035 210.396 65.0832 209.863 65.62 209.391Z" fill="#263238"/>
<path d="M54.7623 250.12C54.7623 250.12 53.4483 238.344 60.9599 233.058C61.0191 233.015 61.0889 232.99 61.1617 232.984C61.2345 232.979 61.3073 232.994 61.372 233.028C61.4367 233.062 61.4907 233.113 61.528 233.175C61.5653 233.238 61.5844 233.31 61.5831 233.382C61.5424 235.248 60.8719 240.933 54.7623 250.12Z" fill="#933FA1"/>
<path d="M59.5512 236.6C59.4067 237.295 59.1935 237.974 58.9145 238.628L57.1737 243.36L55.4398 248.092C55.2453 248.764 54.9914 249.418 54.6812 250.045C54.7491 249.353 54.9039 248.671 55.1417 248.017C55.5007 246.773 56.0697 245.07 56.7538 243.218C57.4379 241.365 58.1085 239.709 58.6232 238.519C58.8549 237.845 59.1665 237.2 59.5512 236.6Z" fill="#263238"/>
<path d="M61.3257 279.485C61.3257 279.485 60.4316 267.675 68.099 262.666C68.159 262.626 68.2287 262.604 68.3006 262.601C68.3725 262.598 68.4438 262.615 68.5067 262.65C68.5696 262.685 68.6217 262.736 68.6573 262.799C68.6929 262.861 68.7106 262.932 68.7086 263.004C68.6409 264.897 67.7671 270.528 61.3257 279.485Z" fill="#933FA1"/>
<path d="M66.5953 266.175C66.4355 266.856 66.2086 267.519 65.918 268.155C65.3626 269.507 64.7191 271.083 64.0011 272.827L62.1046 277.505C61.8852 278.168 61.6063 278.811 61.2715 279.424C61.3704 278.73 61.55 278.049 61.8066 277.396C62.213 276.166 62.8361 274.483 63.5947 272.664C64.3533 270.846 65.0713 269.203 65.6267 268.034C65.8807 267.381 66.2055 266.757 66.5953 266.175Z" fill="#263238"/>
<path d="M47.8672 184.331C47.8672 184.331 37.355 178.849 37.1518 169.676C37.1497 169.604 37.1675 169.533 37.2031 169.471C37.2387 169.408 37.2908 169.357 37.3537 169.322C37.4166 169.287 37.4879 169.27 37.5597 169.273C37.6316 169.276 37.7014 169.298 37.7614 169.338C39.326 170.433 43.6542 174.144 47.8672 184.331Z" fill="#933FA1"/>
<path d="M39.3328 172.839C39.823 173.341 40.261 173.891 40.64 174.482L43.6067 178.571L46.5802 182.627C47.032 183.164 47.4333 183.741 47.7791 184.351C47.2379 183.902 46.7535 183.389 46.3364 182.823C45.5033 181.83 44.406 180.41 43.2477 178.808C42.0895 177.206 41.0871 175.725 40.3826 174.637C39.967 174.078 39.6149 173.475 39.3328 172.839Z" fill="#263238"/>
<path d="M59.1584 208.599C59.1584 208.599 48.3211 203.766 47.5693 194.633C47.5632 194.562 47.5769 194.49 47.6089 194.426C47.6409 194.361 47.69 194.307 47.7508 194.269C47.8116 194.23 47.8817 194.209 47.9536 194.208C48.0255 194.207 48.0964 194.225 48.1585 194.261C49.7841 195.242 54.3358 198.689 59.1584 208.599Z" fill="#933FA1"/>
<path d="M49.9399 197.642C50.458 198.116 50.9297 198.639 51.3488 199.203L54.5526 203.104C55.7582 204.557 56.8487 205.875 57.7699 206.997C58.2569 207.503 58.6925 208.056 59.0704 208.647C58.5195 208.224 58.0175 207.741 57.5735 207.207C56.6794 206.261 55.4941 204.915 54.2478 203.388C53.0015 201.86 51.8974 200.44 51.132 199.392C50.6689 198.856 50.2689 198.269 49.9399 197.642Z" fill="#263238"/>
<path d="M52.9268 235.667C52.9268 235.667 45.4761 226.44 48.9847 217.969C49.013 217.907 49.0575 217.852 49.1135 217.812C49.1695 217.772 49.2351 217.747 49.3038 217.74C49.3725 217.733 49.4417 217.745 49.5046 217.773C49.5675 217.801 49.6218 217.846 49.662 217.902C50.678 219.517 53.1571 224.648 52.9268 235.667Z" fill="#933FA1"/>
<path d="M49.7231 221.728C49.968 222.385 50.1495 223.064 50.265 223.756C50.5698 225.175 50.9423 226.845 51.3352 228.69C51.7281 230.536 52.1074 232.199 52.4257 233.618C52.6207 234.281 52.7567 234.96 52.8321 235.646C52.5275 235.016 52.3001 234.351 52.1548 233.666C51.789 232.422 51.3487 230.685 50.9356 228.758C50.5224 226.831 50.1905 225.067 49.9873 223.789C49.8233 223.114 49.7347 222.422 49.7231 221.728Z" fill="#263238"/>
<path d="M60.2828 267.52C60.2828 267.52 49.5335 262.504 48.9239 253.364C48.9174 253.291 48.9315 253.218 48.9647 253.153C48.9978 253.087 49.0487 253.032 49.1114 252.994C49.1742 252.956 49.2464 252.937 49.3198 252.938C49.3932 252.938 49.4649 252.96 49.5267 252.999C51.1456 254.006 55.6363 257.555 60.2828 267.52Z" fill="#933FA1"/>
<path d="M51.2607 256.413C51.7648 256.893 52.2187 257.423 52.6154 257.995L55.7582 261.95L58.9282 265.897C59.4018 266.412 59.828 266.969 60.2015 267.56C59.6383 267.139 59.1308 266.649 58.6911 266.1C57.8106 265.14 56.6591 263.775 55.4263 262.227C54.1936 260.679 53.1302 259.239 52.3851 258.171C51.9477 257.627 51.5708 257.038 51.2607 256.413Z" fill="#263238"/>
<path d="M81.7 220.971C81.71 221.058 81.71 221.147 81.7 221.234C81.7 221.437 81.7 221.687 81.7 221.991C81.7 222.701 81.6255 223.661 81.5713 224.864C81.4359 227.386 81.2394 230.901 81.0091 235.113C80.2437 239.392 78.056 244.144 75.1163 248.754C72.9624 252.134 70.7069 255.237 68.7562 258.11C66.9943 260.617 65.41 263.244 64.0149 265.972C63.0902 267.822 62.3419 269.755 61.7797 271.745C61.59 272.455 61.4478 273.002 61.3665 273.381C61.334 273.575 61.2818 273.765 61.2107 273.949C61.2135 273.751 61.2362 273.554 61.2784 273.361C61.3326 272.982 61.4478 272.421 61.6171 271.704C62.1168 269.681 62.825 267.715 63.7304 265.837C65.1117 263.071 66.6965 260.412 68.4717 257.88C70.4089 254.987 72.6508 251.898 74.798 248.518C77.7173 243.928 79.8915 239.256 80.6908 235.038C80.9888 230.834 81.2327 227.318 81.4155 224.797C81.5104 223.607 81.5849 222.647 81.6458 221.937C81.6458 221.633 81.7 221.39 81.7203 221.18C81.7407 220.971 81.6865 220.971 81.7 220.971Z" fill="#263238"/>
<path d="M75.2991 247.896C75.2991 247.896 79.8508 236.965 74.1273 229.799C74.0821 229.745 74.0229 229.704 73.9562 229.681C73.8895 229.657 73.8177 229.652 73.7483 229.666C73.6789 229.68 73.6146 229.712 73.5621 229.759C73.5096 229.807 73.4708 229.867 73.45 229.935C72.9352 231.76 71.9937 237.384 75.2991 247.896Z" fill="#933FA1"/>
<path d="M74.5068 233.611C74.7015 234.286 74.8219 234.979 74.8658 235.68C75.0284 236.964 75.2112 238.749 75.3467 240.716C75.4822 242.683 75.5567 244.475 75.5567 245.773C75.6029 246.474 75.5597 247.178 75.428 247.868C75.3045 247.179 75.2433 246.48 75.2451 245.779C75.1435 244.333 75.0351 242.629 74.9064 240.75C74.7777 238.871 74.6558 237.16 74.5542 235.714C74.4668 235.016 74.4509 234.312 74.5068 233.611Z" fill="#263238"/>
<g opacity="0.3">
<path opacity="0.3" d="M75.2991 247.896C75.2991 247.896 79.8508 236.965 74.1273 229.799C74.0821 229.745 74.0229 229.704 73.9562 229.681C73.8895 229.657 73.8177 229.652 73.7483 229.666C73.6789 229.68 73.6146 229.712 73.5621 229.759C73.5096 229.807 73.4708 229.867 73.45 229.935C72.9352 231.76 71.9937 237.384 75.2991 247.896Z" fill="black"/>
</g>
<path d="M61.204 274.246C61.204 274.246 64.8548 262.977 58.5624 256.305C58.5147 256.248 58.4516 256.206 58.3807 256.184C58.3097 256.162 58.234 256.161 58.1626 256.181C58.0911 256.201 58.0269 256.241 57.9777 256.297C57.9285 256.352 57.8963 256.421 57.885 256.494C57.5328 258.353 57.0519 264.031 61.204 274.246Z" fill="#933FA1"/>
<path d="M59.2192 260.077C59.4718 260.731 59.6491 261.411 59.7476 262.105C60.0117 263.376 60.3368 265.134 60.6349 267.087C60.9329 269.041 61.1496 270.819 61.2512 272.11C61.3513 272.806 61.3672 273.512 61.2987 274.212C61.1139 273.536 60.9937 272.843 60.9397 272.144C60.7297 270.704 60.4723 269.021 60.1946 267.155C59.9169 265.289 59.6527 263.599 59.436 262.159C59.2938 261.474 59.2212 260.777 59.2192 260.077Z" fill="#263238"/>
<g opacity="0.3">
<path opacity="0.3" d="M61.204 274.246C61.204 274.246 64.8548 262.977 58.5624 256.305C58.5147 256.248 58.4516 256.206 58.3807 256.184C58.3097 256.162 58.234 256.161 58.1626 256.181C58.0911 256.201 58.0269 256.241 57.9777 256.297C57.9285 256.352 57.8963 256.421 57.885 256.494C57.5328 258.353 57.0519 264.031 61.204 274.246Z" fill="black"/>
</g>
<path d="M81.0972 234.571C81.0972 234.571 90.8169 227.777 89.8348 218.672C89.8322 218.595 89.8067 218.52 89.7617 218.457C89.7167 218.394 89.6541 218.346 89.5817 218.319C89.5093 218.291 89.4305 218.286 89.355 218.303C89.2795 218.32 89.2108 218.359 89.1574 218.415C87.7689 219.652 83.9894 223.89 81.0972 234.571Z" fill="#933FA1"/>
<g opacity="0.3">
<path opacity="0.3" d="M81.0972 234.571C81.0972 234.571 90.8169 227.777 89.8348 218.672C89.8322 218.595 89.8067 218.52 89.7617 218.457C89.7167 218.394 89.6541 218.346 89.5817 218.319C89.5093 218.291 89.4305 218.286 89.355 218.303C89.2795 218.32 89.2108 218.359 89.1574 218.415C87.7689 219.652 83.9894 223.89 81.0972 234.571Z" fill="black"/>
</g>
<path d="M88.0533 222.038C87.8585 222.713 87.5881 223.364 87.2473 223.978C86.6919 225.148 85.8926 226.743 84.9512 228.48C84.0097 230.218 83.102 231.766 82.4044 232.861C82.0646 233.477 81.6506 234.049 81.1716 234.564C81.4362 233.917 81.7581 233.295 82.1334 232.705L84.5583 228.271L86.9696 223.836C87.2685 223.202 87.6316 222.599 88.0533 222.038Z" fill="#263238"/>
<path d="M65.1255 263.079C65.1255 263.079 76.8434 261.254 79.9862 252.642C80.0113 252.574 80.0172 252.5 80.0032 252.429C79.9892 252.359 79.9558 252.293 79.9067 252.24C79.8577 252.187 79.7949 252.148 79.7252 252.128C79.6556 252.108 79.5818 252.108 79.5121 252.128C77.6833 252.648 72.3865 254.778 65.1255 263.079Z" fill="#933FA1"/>
<g opacity="0.3">
<path opacity="0.3" d="M65.1255 263.079C65.1255 263.079 76.8434 261.254 79.9862 252.642C80.0113 252.574 80.0172 252.5 80.0032 252.429C79.9892 252.359 79.9558 252.293 79.9067 252.24C79.8577 252.187 79.7949 252.148 79.7252 252.128C79.6556 252.108 79.5818 252.108 79.5121 252.128C77.6833 252.648 72.3865 254.778 65.1255 263.079Z" fill="black"/>
</g>
<path d="M76.9044 254.926C76.4278 255.441 75.8989 255.905 75.3262 256.312C74.3102 257.116 72.881 258.198 71.2622 259.347C69.6434 260.496 68.16 261.483 67.0492 262.159C66.4707 262.562 65.8452 262.894 65.1865 263.146C65.7106 262.677 66.2776 262.259 66.8799 261.895L71.0048 258.982L75.1298 256.061C75.6788 255.62 76.2738 255.24 76.9044 254.926Z" fill="#263238"/>
<path d="M51.2539 284.603L54.6203 306.613L68.045 306.593L72.5696 284.603H51.2539Z" fill="#455A64"/>
<path d="M70.5986 293.093C70.5986 293.093 70.5986 293.127 70.4834 293.174C70.3715 293.25 70.2537 293.318 70.1312 293.377C69.659 293.603 69.1538 293.754 68.6343 293.823C67.8034 293.935 66.958 293.856 66.1621 293.593C65.0916 293.254 64.1601 292.578 63.5069 291.666C63.1403 291.119 62.9253 290.485 62.8838 289.828C62.8484 289.459 62.915 289.088 63.0762 288.754C63.2374 288.42 63.4871 288.137 63.7982 287.935C64.1539 287.757 64.5516 287.68 64.9481 287.712C65.3446 287.744 65.7247 287.885 66.0469 288.117C66.7149 288.609 67.174 289.333 67.3338 290.145C67.5094 290.962 67.5664 291.8 67.5032 292.633C67.453 293.504 67.2679 294.361 66.9545 295.175C66.6267 296.031 66.0914 296.793 65.3967 297.392C64.6804 298.027 63.7722 298.406 62.816 298.467C61.8545 298.491 60.9089 298.219 60.1067 297.69C59.3326 297.206 58.6456 296.596 58.0747 295.885C57.4995 295.198 57.1454 294.355 57.0587 293.465C57.0241 293.028 57.0925 292.59 57.2584 292.185C57.4243 291.78 57.683 291.42 58.0137 291.132C58.3525 290.879 58.7584 290.73 59.1811 290.705C59.6038 290.68 60.0246 290.779 60.3912 290.99C60.7396 291.165 61.0431 291.418 61.278 291.728C61.5129 292.039 61.673 292.399 61.7458 292.782C61.8463 293.465 61.7378 294.163 61.4344 294.785C61.1311 295.406 60.6472 295.921 60.0457 296.263C59.0577 296.802 57.9084 296.967 56.8081 296.73C55.9917 296.566 55.2102 296.262 54.4984 295.831C54.0492 295.567 53.6171 295.276 53.2047 294.959C53.055 294.856 52.9165 294.738 52.7915 294.607C52.9507 294.691 53.1025 294.788 53.2453 294.898C53.5433 295.094 53.9768 295.384 54.6 295.709C55.3166 296.102 56.0918 296.379 56.8961 296.527C57.9474 296.727 59.0357 296.552 59.9712 296.033C60.5151 295.712 60.951 295.236 61.2235 294.667C61.4961 294.098 61.593 293.46 61.502 292.836C61.4334 292.498 61.2877 292.181 61.0762 291.909C60.8647 291.637 60.5932 291.418 60.2828 291.268C59.9693 291.087 59.6097 291.003 59.2485 291.024C58.8873 291.046 58.5404 291.173 58.2508 291.389C57.9689 291.643 57.749 291.957 57.608 292.309C57.4671 292.66 57.409 293.04 57.438 293.417C57.5216 294.235 57.8523 295.008 58.3863 295.635C58.9251 296.309 59.573 296.89 60.3031 297.352C61.0365 297.854 61.9062 298.12 62.7957 298.115C63.6707 298.054 64.5013 297.707 65.1596 297.128C65.8103 296.567 66.3127 295.854 66.6226 295.053C66.9247 294.277 67.103 293.458 67.151 292.626C67.2151 291.828 67.1649 291.024 67.0019 290.24C66.8667 289.508 66.4605 288.854 65.864 288.408C65.5918 288.206 65.2696 288.081 64.9319 288.048C64.5942 288.015 64.2538 288.074 63.9472 288.219C63.6819 288.391 63.469 288.633 63.3317 288.918C63.1944 289.203 63.1379 289.52 63.1682 289.834C63.2005 290.443 63.392 291.033 63.7237 291.545C64.3373 292.42 65.2155 293.076 66.2298 293.417C66.9933 293.689 67.808 293.786 68.614 293.701C69.305 293.611 69.9759 293.405 70.5986 293.093Z" fill="#263238"/>
<path d="M433.493 237.898C437.925 233.473 443.433 230.274 449.477 228.614C455.521 226.955 461.894 226.893 467.97 228.434C457.687 235.425 445.555 239.208 433.114 239.304" fill="#933FA1"/>
<path d="M445.211 196.574C443.775 186.434 447.724 175.03 455.331 167.661C455.581 177.706 451.328 189.016 445.211 196.574Z" fill="#933FA1"/>
<path d="M439.129 215.724C444.629 205.321 453.374 196.987 464.041 191.983C462.376 197.822 459.18 203.111 454.785 207.307C450.389 211.503 444.952 214.453 439.034 215.853" fill="#933FA1"/>
<path d="M437.869 219.423C444.006 219.592 450.217 219.382 456.157 217.814C462.097 216.246 467.773 213.231 471.736 208.546C459.716 208.583 447.975 212.16 437.984 218.828" fill="#933FA1"/>
<path d="M440.985 207.247C437.869 195.6 432.735 187.542 423.557 181.012C422.853 186.74 424.221 192.531 427.417 197.341C430.612 202.152 435.424 205.665 440.985 207.247Z" fill="#933FA1"/>
<path d="M417.827 227.338C417.804 223.941 418.788 220.613 420.655 217.772C422.522 214.932 425.188 212.705 428.318 211.371C427.81 217.387 423.076 224.344 417.827 227.338Z" fill="#933FA1"/>
<path d="M414.894 217.516C414.467 212.639 412.653 207.985 409.665 204.102C406.677 200.22 402.64 197.27 398.028 195.601C400.148 205.335 405.784 213.44 414.894 217.516Z" fill="#933FA1"/>
<path d="M419.31 234.95C417.149 231.86 413.614 229.941 409.963 228.987C406.312 228.034 402.512 227.946 398.712 227.865C401.287 230.654 404.437 232.853 407.945 234.311C411.452 235.769 415.235 236.45 419.032 236.308" fill="#933FA1"/>
<path d="M423.692 259.779C416.806 257.661 409.374 258.194 402.862 261.273C396.35 264.353 391.23 269.755 388.512 276.416C401.293 273.996 413.905 268.304 423.692 259.779Z" fill="#933FA1"/>
<path d="M437.72 251.153C435.6 257.413 436.006 264.984 440.727 270.386C441.666 267.156 441.884 263.759 441.364 260.436C440.845 257.113 439.601 253.944 437.72 251.153Z" fill="#933FA1"/>
<path d="M446.01 247.673C446.354 251.709 447.734 255.589 450.018 258.938C452.302 262.287 455.412 264.991 459.049 266.79C459.217 266.9 459.407 266.974 459.605 267.006C459.803 267.039 460.006 267.03 460.201 266.979C460.776 266.75 460.831 265.965 460.763 265.35C459.835 257.326 453.881 249.566 446.01 247.673Z" fill="#933FA1"/>
<path d="M451.429 246.862C453.23 248.804 455.411 250.357 457.838 251.423C460.265 252.49 462.886 253.047 465.538 253.06C468.189 253.073 470.815 252.543 473.253 251.501C475.691 250.459 477.888 248.928 479.708 247.003C470.72 246.023 460.343 245.368 451.429 246.862Z" fill="#933FA1"/>
<path d="M452.77 175.131C452.754 175.222 452.726 175.31 452.689 175.394L452.418 176.152C452.161 176.828 451.795 177.815 451.334 179.058C450.874 180.302 450.291 181.864 449.641 183.669C449.316 184.568 448.964 185.528 448.598 186.548L447.48 189.793C445.889 194.336 444.094 199.791 442.211 205.862C440.328 211.932 438.363 218.659 436.426 225.743C434.489 232.827 432.823 239.628 431.38 245.827C429.937 252.026 428.772 257.637 427.905 262.375C427.682 263.558 427.465 264.681 427.269 265.755C427.072 266.83 426.916 267.831 426.754 268.77C426.429 270.656 426.151 272.279 425.961 273.611C425.772 274.942 425.602 275.956 425.487 276.68C425.433 277.011 425.392 277.274 425.359 277.471C425.325 277.667 425.304 277.741 425.304 277.741C425.295 277.651 425.295 277.56 425.304 277.471C425.304 277.274 425.359 277.004 425.399 276.666C425.494 275.95 425.636 274.915 425.806 273.59C425.975 272.265 426.232 270.629 426.544 268.743C426.693 267.797 426.856 266.79 427.032 265.715C427.208 264.64 427.431 263.518 427.648 262.335C428.488 257.603 429.68 251.979 431.035 245.766C432.389 239.554 434.15 232.76 436.06 225.662C437.971 218.564 439.982 211.851 441.872 205.774C443.762 199.697 445.591 194.282 447.216 189.719L448.361 186.481C448.74 185.467 449.092 184.507 449.431 183.608C450.108 181.81 450.671 180.268 451.172 179.018C451.673 177.767 452.046 176.814 452.316 176.138L452.621 175.388C452.73 175.219 452.764 175.131 452.77 175.131Z" fill="#263238"/>
<path d="M403.393 200.771C403.393 200.771 403.447 200.819 403.548 200.913L403.975 201.366C404.354 201.765 404.896 202.367 405.574 203.151C407.503 205.386 409.273 207.753 410.87 210.235C413.252 213.901 415.114 217.878 416.404 222.052C417.888 226.784 418.809 232.104 419.723 237.695C421.552 248.882 423.787 258.901 425.42 266.147C426.232 269.757 426.896 272.678 427.363 274.726C427.587 275.726 427.756 276.51 427.885 277.065C427.932 277.315 427.98 277.518 428.007 277.673C428.026 277.742 428.037 277.812 428.041 277.883C428.012 277.818 427.989 277.75 427.973 277.68C427.932 277.524 427.878 277.328 427.817 277.078C427.675 276.524 427.479 275.726 427.235 274.76C426.74 272.732 426.043 269.798 425.203 266.202C423.516 258.968 421.234 248.95 419.405 237.749C418.49 232.158 417.576 226.831 416.12 222.147C414.86 217.991 413.037 214.027 410.701 210.364C409.129 207.892 407.395 205.525 405.513 203.279C404.835 202.475 404.327 201.867 403.968 201.454L403.562 200.981C403.497 200.918 403.44 200.848 403.393 200.771Z" fill="#263238"/>
<path d="M454.111 246.476C454.007 246.514 453.897 246.534 453.786 246.537L452.858 246.638L452.181 246.706L451.382 246.828C450.813 246.909 450.163 246.997 449.451 247.152L448.341 247.375L447.142 247.673C446.309 247.862 445.448 248.166 444.534 248.443C442.572 249.121 440.669 249.957 438.844 250.945C437.031 251.957 435.32 253.143 433.737 254.487C433.05 255.073 432.396 255.699 431.78 256.359C431.231 256.926 430.713 257.521 430.229 258.144C429.82 258.649 429.438 259.175 429.084 259.719C428.795 260.118 428.532 260.536 428.298 260.97L427.817 261.774C427.769 261.872 427.707 261.963 427.635 262.045C427.66 261.938 427.701 261.835 427.756 261.74L428.183 260.902C428.395 260.455 428.642 260.026 428.921 259.618C429.262 259.056 429.635 258.514 430.039 257.995C430.511 257.354 431.022 256.742 431.57 256.163C432.187 255.488 432.84 254.847 433.527 254.243C435.118 252.876 436.843 251.671 438.675 250.647C440.519 249.649 442.445 248.81 444.432 248.139C445.36 247.869 446.227 247.578 447.074 247.396L448.28 247.112L449.411 246.909C450.129 246.767 450.765 246.699 451.362 246.638L452.161 246.544H452.838L453.78 246.503C453.889 246.482 454 246.473 454.111 246.476Z" fill="#263238"/>
<path d="M456.672 201.015C456.465 201.242 456.238 201.45 455.994 201.637L454.145 203.239C452.574 204.591 450.386 206.409 447.961 208.424C445.536 210.438 443.315 212.236 441.703 213.534L439.786 215.048C439.559 215.245 439.314 215.419 439.054 215.569C439.257 215.338 439.484 215.129 439.732 214.947L441.587 213.345C443.159 211.993 445.347 210.168 447.772 208.16C450.196 206.152 452.411 204.347 454.023 203.049L455.947 201.535C456.17 201.337 456.413 201.163 456.672 201.015Z" fill="#263238"/>
<path d="M458.88 212.879C458.88 212.974 454.186 214.447 448.34 216.171C442.495 217.895 437.727 219.22 437.7 219.125C437.672 219.031 442.394 217.564 448.246 215.84C454.098 214.116 458.853 212.791 458.88 212.879Z" fill="#263238"/>
<path d="M441.452 208.154C441.266 207.946 441.103 207.719 440.964 207.478L439.718 205.585C438.668 203.997 437.164 201.82 435.396 199.501C433.629 197.183 431.915 195.168 430.655 193.728C430.059 193.052 429.558 192.484 429.165 192.025C428.963 191.821 428.786 191.594 428.637 191.349C428.864 191.513 429.073 191.701 429.26 191.91C429.646 192.282 430.181 192.843 430.838 193.539C432.145 194.945 433.886 196.919 435.667 199.265C437.449 201.61 438.919 203.794 439.928 205.423C440.429 206.241 440.822 206.91 441.079 207.377C441.23 207.622 441.355 207.883 441.452 208.154Z" fill="#263238"/>
<path d="M425.06 214.744C424.73 215.373 424.359 215.981 423.95 216.563C423.272 217.664 422.29 219.206 421.301 220.943C420.312 222.68 419.472 224.323 418.883 225.459C418.603 226.106 418.279 226.734 417.915 227.338C418.112 226.653 418.373 225.988 418.694 225.351C419.235 224.154 420.048 222.518 421.037 220.774C422.026 219.03 423.022 217.502 423.787 216.427C424.159 215.829 424.585 215.265 425.06 214.744Z" fill="#263238"/>
<path d="M419.452 235.247C418.636 234.936 417.836 234.584 417.055 234.193C415.578 233.517 413.519 232.665 411.196 231.854C408.872 231.043 406.718 230.434 405.154 230.035C404.298 229.853 403.453 229.627 402.621 229.359C402.848 229.36 403.076 229.385 403.298 229.434C403.752 229.501 404.395 229.623 405.188 229.792C409.324 230.701 413.336 232.103 417.136 233.97C417.861 234.328 418.443 234.646 418.836 234.862C419.056 234.965 419.263 235.094 419.452 235.247Z" fill="#263238"/>
<path d="M423.869 259.82C423.777 259.868 423.679 259.9 423.577 259.915L422.724 260.131L419.588 260.855C416.126 261.582 412.703 262.484 409.333 263.559C405.98 264.677 402.77 266.183 399.769 268.047C398.624 268.771 397.737 269.399 397.127 269.872C396.826 270.117 396.509 270.343 396.179 270.548C396.241 270.467 396.312 270.392 396.389 270.325C396.538 270.19 396.748 269.987 397.067 269.744C397.893 269.053 398.757 268.407 399.654 267.811C402.64 265.877 405.861 264.33 409.238 263.207C412.619 262.123 416.064 261.249 419.554 260.591L422.717 259.976C423.097 259.896 423.481 259.844 423.869 259.82Z" fill="#263238"/>
<path d="M439.833 265.871C439.738 265.871 439.156 262.579 438.58 258.489C438.004 254.399 437.571 251.053 437.666 251.053C437.76 251.053 438.343 254.345 438.919 258.435C439.495 262.524 439.928 265.857 439.833 265.871Z" fill="#263238"/>
<path d="M456.455 259.847C455.919 259.287 455.419 258.693 454.958 258.069C454.057 256.954 452.818 255.413 451.409 253.743C450 252.073 448.7 250.586 447.751 249.511C447.212 248.951 446.712 248.355 446.254 247.727C446.431 247.841 446.591 247.98 446.728 248.139C447.02 248.416 447.406 248.815 447.927 249.342C448.923 250.376 450.257 251.85 451.673 253.527C453.089 255.203 454.301 256.765 455.154 257.921C455.574 258.502 455.913 258.975 456.137 259.273C456.272 259.446 456.38 259.64 456.455 259.847Z" fill="#263238"/>
<path d="M412.462 275.233V283.433H414.521L421.816 306.431H438.011L445.083 283.656L447.819 283.433V275.233H412.462Z" fill="#263238"/>
<path d="M446.451 283.656C446.451 283.751 439.305 283.832 430.486 283.832C421.667 283.832 414.521 283.751 414.521 283.656C414.521 283.562 421.667 283.487 430.486 283.487C439.305 283.487 446.451 283.562 446.451 283.656Z" fill="#455A64"/>
<path d="M458.101 230.928C457.761 231.047 457.412 231.14 457.058 231.205L454.22 231.881C451.822 232.476 448.537 233.375 444.967 234.585C441.398 235.795 438.235 237.052 435.966 238.026L433.29 239.195C432.97 239.355 432.637 239.488 432.294 239.594C432.591 239.394 432.903 239.22 433.229 239.074C433.846 238.756 434.746 238.316 435.871 237.803C441.739 235.134 447.868 233.074 454.159 231.658C455.364 231.394 456.347 231.198 457.024 231.083C457.377 230.996 457.738 230.944 458.101 230.928Z" fill="#263238"/>
<path d="M441.08 296.433C441.08 296.527 436.06 296.602 429.876 296.602C423.692 296.602 418.673 296.527 418.673 296.433C418.673 296.338 423.686 296.257 429.876 296.257C436.067 296.257 441.08 296.338 441.08 296.433Z" fill="#FAFAFA"/>
<path d="M441.709 294.526C441.709 294.621 436.392 294.702 429.836 294.702C423.279 294.702 417.962 294.621 417.962 294.526C417.962 294.432 423.279 294.357 429.836 294.357C436.392 294.357 441.709 294.432 441.709 294.526Z" fill="#FAFAFA"/>
<path d="M397.595 63.0508H121.751C120.617 63.0473 119.493 63.2673 118.445 63.6984C117.396 64.1294 116.443 64.7629 115.641 65.5625C114.839 66.3622 114.202 67.3121 113.769 68.3579C113.335 69.4036 113.113 70.5246 113.115 71.6563V266.114C113.115 268.393 114.022 270.579 115.636 272.19C117.251 273.801 119.44 274.706 121.724 274.706H227.625C227.625 274.706 234.357 295.493 213.482 306.228H312.481C312.481 306.228 288.91 298.164 294.972 274.693H397.595C398.725 274.693 399.845 274.471 400.889 274.039C401.934 273.607 402.883 272.974 403.682 272.176C404.482 271.379 405.116 270.431 405.548 269.389C405.981 268.347 406.204 267.229 406.204 266.101V71.6563C406.205 70.5269 405.984 69.4081 405.552 68.3642C405.12 67.3202 404.487 66.3714 403.687 65.5721C402.887 64.7729 401.938 64.1388 400.892 63.7061C399.847 63.2735 398.726 63.0508 397.595 63.0508Z" fill="#455A64"/>
<path d="M263.367 254.25C267.12 259.604 261.241 265.465 255.876 261.72C255.698 261.593 255.543 261.438 255.416 261.261C251.677 255.913 257.542 250.059 262.9 253.791C263.08 253.918 263.238 254.073 263.367 254.25Z" fill="#263238"/>
<path d="M124.237 66.6406H394.689C396.432 66.6406 398.103 67.3315 399.335 68.5612C400.567 69.7909 401.259 71.4587 401.259 73.1978V239.156H117.667V73.1978C117.667 71.4587 118.359 69.7909 119.591 68.5612C120.823 67.3315 122.494 66.6406 124.237 66.6406Z" fill="white"/>
<path d="M124.088 66.6134H396.166C397.517 66.6134 398.812 67.149 399.767 68.1023C400.723 69.0556 401.259 70.3487 401.259 71.6969V80.9513H117.856V72.8055C117.855 71.9898 118.016 71.182 118.329 70.4286C118.642 69.6751 119.102 68.991 119.681 68.4154C120.26 67.8399 120.948 67.3844 121.704 67.0751C122.46 66.7658 123.27 66.6089 124.088 66.6134Z" fill="#EBEBEB"/>
<path d="M128.91 74.0831C128.91 74.4762 128.793 74.8605 128.575 75.1873C128.356 75.5141 128.045 75.7689 127.681 75.9193C127.317 76.0697 126.917 76.1091 126.53 76.0324C126.144 75.9557 125.789 75.7664 125.511 75.4885C125.232 75.2105 125.043 74.8564 124.966 74.4709C124.889 74.0853 124.928 73.6857 125.079 73.3226C125.23 72.9594 125.485 72.649 125.813 72.4306C126.14 72.2123 126.525 72.0957 126.919 72.0957C127.447 72.0957 127.954 72.3051 128.327 72.6778C128.7 73.0505 128.91 73.556 128.91 74.0831Z" fill="#263238"/>
<path d="M134.85 74.0831C134.85 74.4762 134.734 74.8605 134.515 75.1873C134.296 75.5141 133.985 75.7689 133.621 75.9193C133.257 76.0697 132.857 76.1091 132.471 76.0324C132.084 75.9557 131.729 75.7664 131.451 75.4885C131.172 75.2105 130.983 74.8564 130.906 74.4709C130.829 74.0853 130.869 73.6857 131.019 73.3226C131.17 72.9594 131.425 72.649 131.753 72.4306C132.08 72.2123 132.465 72.0957 132.859 72.0957C133.387 72.0957 133.894 72.3051 134.267 72.6778C134.641 73.0505 134.85 73.556 134.85 74.0831Z" fill="#263238"/>
<path d="M140.499 74.0831C140.499 74.4762 140.383 74.8605 140.164 75.1873C139.945 75.5141 139.634 75.7689 139.27 75.9193C138.906 76.0697 138.506 76.1091 138.119 76.0324C137.733 75.9557 137.378 75.7664 137.1 75.4885C136.821 75.2105 136.632 74.8564 136.555 74.4709C136.478 74.0853 136.517 73.6857 136.668 73.3226C136.819 72.9594 137.074 72.649 137.402 72.4306C137.729 72.2123 138.114 72.0957 138.508 72.0957C139.036 72.0957 139.543 72.3051 139.916 72.6778C140.29 73.0505 140.499 73.556 140.499 74.0831Z" fill="#263238"/>
<path d="M348.292 274.733C348.292 274.821 309.006 274.896 260.624 274.896C212.243 274.896 172.95 274.821 172.95 274.733C172.95 274.646 212.195 274.564 260.624 274.564C309.054 274.564 348.292 274.639 348.292 274.733Z" fill="#263238"/>
<path d="M367.88 177.788C371.158 176.098 375.019 175.882 378.656 176.477C380.607 176.801 382.646 177.383 383.98 178.85C385.315 180.317 385.558 182.906 384.034 184.156C383.039 184.823 381.841 185.122 380.648 185.001C377.803 184.968 374.64 184.467 372.364 186.178C371.07 187.158 370.203 188.78 368.652 189.253C367.872 189.441 367.051 189.368 366.316 189.044C365.582 188.72 364.975 188.164 364.588 187.462C363.847 186.039 363.685 184.385 364.134 182.845C364.323 181.77 364.76 180.753 365.41 179.876C366.06 178.998 366.906 178.284 367.88 177.788Z" fill="#EBEBEB"/>
<path d="M360.375 163.295C362.407 166.155 366.275 165.208 368.077 163.464C369.878 161.72 370.651 159.192 371.341 156.785C372.933 151.283 374.532 145.503 373.373 139.885C373.089 138.187 372.341 136.599 371.213 135.295C370.64 134.655 369.909 134.175 369.093 133.903C368.276 133.631 367.403 133.578 366.559 133.747C364.595 134.268 363.369 136.188 362.495 138.013C359.901 143.404 358.54 149.304 358.513 155.285C358.513 158.07 358.831 160.983 360.402 163.282" fill="#EBEBEB"/>
<path d="M354.875 167.391C357.05 164.816 357.463 161.057 356.494 157.833C355.526 154.608 353.338 151.857 350.818 149.613C347.852 146.981 344.401 144.949 340.658 143.63C339.207 143.048 337.648 142.783 336.086 142.853C335.306 142.898 334.549 143.133 333.881 143.537C333.213 143.941 332.654 144.502 332.253 145.171C331.182 147.199 332.205 149.673 333.316 151.688C335.267 155.239 337.498 158.63 339.988 161.828C342.02 164.403 344.282 166.945 347.33 168.108C350.378 169.271 353.548 169.135 355.167 167.02" fill="#EBEBEB"/>
<path d="M360.24 206.376C360.351 205.952 360.412 205.516 360.423 205.078C360.517 204.138 360.633 202.949 360.768 201.536C360.942 199.792 361.208 198.059 361.567 196.344C362.031 194.253 362.663 192.202 363.457 190.213C364.236 188.225 365.292 186.357 366.593 184.663C367.655 183.285 369.011 182.161 370.562 181.371C371.614 180.852 372.741 180.503 373.902 180.336C374.338 180.32 374.772 180.256 375.195 180.147C374.756 180.103 374.314 180.103 373.874 180.147C372.67 180.242 371.491 180.549 370.393 181.053C368.761 181.822 367.331 182.958 366.214 184.372C364.855 186.087 363.759 187.994 362.963 190.03C362.157 192.05 361.527 194.135 361.08 196.263C360.747 198.001 360.521 199.757 360.402 201.522C360.287 203.03 360.247 204.226 360.226 205.085C360.186 205.514 360.19 205.947 360.24 206.376Z" fill="#E0E0E0"/>
<path d="M360.484 203.652C360.511 203.452 360.511 203.25 360.484 203.05V201.327C360.484 199.833 360.484 197.669 360.558 194.999C360.694 189.659 361.154 183.913 362.042 175.808C362.882 168.189 364.013 159.32 365.212 153.554C365.462 152.242 365.726 151.066 365.963 150.032C366.2 148.997 366.397 148.098 366.587 147.382C366.776 146.665 366.885 146.145 366.986 145.705C367.047 145.512 367.084 145.312 367.095 145.11C367.001 145.29 366.931 145.481 366.885 145.678C366.756 146.111 366.587 146.652 366.383 147.328C366.18 148.004 365.936 148.93 365.672 149.957C365.408 150.985 365.117 152.168 364.839 153.472C363.362 160.293 362.249 167.186 361.507 174.124C360.619 182.236 360.213 189.638 360.152 194.992C360.152 197.696 360.152 199.839 360.247 201.333C360.287 202.009 360.321 202.604 360.348 203.057C360.374 203.259 360.42 203.458 360.484 203.652Z" fill="#E0E0E0"/>
<path d="M360.524 189.395C360.567 188.794 360.567 188.191 360.524 187.59C360.457 186.434 360.294 184.765 359.969 182.716C359.575 180.322 359.046 177.953 358.384 175.618C357.606 172.746 356.61 169.937 355.404 167.216C353.342 162.2 350.383 157.601 346.673 153.642C346.036 152.964 345.357 152.328 344.641 151.735C344.329 151.465 344.045 151.201 343.767 150.992L342.968 150.444C342.486 150.084 341.979 149.758 341.451 149.471C341.362 149.592 343.598 150.904 346.422 153.899C350.009 157.891 352.89 162.463 354.943 167.418C356.111 170.13 357.095 172.917 357.889 175.76C358.573 178.074 359.138 180.42 359.583 182.791C359.955 184.819 360.172 186.468 360.301 187.617C360.327 188.215 360.402 188.81 360.524 189.395Z" fill="#E0E0E0"/>
<path d="M346.707 214.549L348.142 234.126H373.339L374.775 214.549H346.707Z" fill="#E0E0E0"/>
<path d="M377.783 206.829H344.275V214.549H377.783V206.829Z" fill="#E0E0E0"/>
<path d="M344.275 233.376V235.519H345.853H377.227V233.376H344.275Z" fill="#EBEBEB"/>
<path d="M347.391 239.284L345.853 235.519H376.028L374.227 239.284H347.391Z" fill="#E0E0E0"/>
<path d="M374.308 220.944C374.308 220.944 374.308 221.012 374.186 221.126C374.064 221.241 373.963 221.424 373.814 221.627L372.344 223.499L372.276 223.58L372.215 223.499L368.612 218.517H368.815L365.266 223.533L365.157 223.695L365.029 223.547L360.816 218.544H361.059L360.829 218.835L357.063 223.567L356.941 223.722L356.819 223.56L353.27 218.537H353.473L349.098 223.513L349.023 223.601L348.962 223.499L347.608 221.201L347.255 220.592C347.214 220.523 347.178 220.451 347.147 220.376C347.147 220.376 347.208 220.437 347.296 220.565L347.682 221.153C348.034 221.708 348.515 222.465 349.125 223.411H348.983L353.29 218.382L353.399 218.253L353.5 218.389C354.584 219.91 355.79 221.586 357.083 223.384H356.84L360.599 218.652L360.829 218.362L360.951 218.213L361.073 218.355L365.272 223.371H365.035L368.625 218.375L368.727 218.233L368.828 218.375L372.357 223.411H372.235L373.759 221.586L374.166 221.113C374.206 221.051 374.254 220.994 374.308 220.944Z" fill="#F5F5F5"/>
<path d="M375.128 214.42C375.128 214.508 368.808 214.576 361.026 214.576C353.243 214.576 346.917 214.508 346.917 214.42C346.917 214.333 353.229 214.292 361.019 214.292C368.808 214.292 375.128 214.333 375.128 214.42Z" fill="#F5F5F5"/>
<path d="M376.401 235.729C376.401 235.817 369.533 235.884 361.073 235.884C352.613 235.884 345.745 235.817 345.745 235.729C345.745 235.641 352.606 235.573 361.073 235.573C369.54 235.573 376.401 235.641 376.401 235.729Z" fill="#F5F5F5"/>
<path d="M296.428 125.973C295.71 113.976 294.534 102.015 292.899 90.0904C291.917 82.9181 290.752 75.7119 288.273 68.9046C285.794 62.0973 281.899 55.6685 276.244 51.1731C270.588 46.6777 263.036 44.3185 256.032 45.88L284.622 133.949C286.756 134.233 288.93 134.51 291.037 134.091C293.143 133.672 295.209 132.422 296.042 130.427C296.507 128.991 296.639 127.467 296.428 125.973Z" fill="#263238"/>
<path d="M246.705 48.9085C241.225 48.4826 234.581 50.5782 231.465 55.1277C229.047 58.6632 229.623 64.8283 228.756 69.0398C227.401 75.7998 226.087 82.5598 225.918 89.4482C225.735 97.0059 226.954 104.516 228.18 111.973C229.535 120.22 230.889 128.465 232.244 136.707C232.847 140.371 233.47 144.143 235.197 147.402C236.924 150.66 239.986 153.486 243.664 153.918C247.05 154.31 250.397 152.614 252.659 150.079C254.921 147.544 256.188 144.265 256.973 140.953L246.705 48.9085Z" fill="#263238"/>
<path d="M251.534 125.892C249.895 125.81 238.97 128.427 238.97 128.427L251.684 178.113L272.037 179.755L290.102 123.194L251.534 125.892Z" fill="#FFC4B2"/>
<path d="M274.408 167.892C271.486 171.487 267.462 174.026 262.955 175.118C260.473 175.812 257.839 175.737 255.402 174.902C253.018 173.976 251 171.839 250.702 169.284L247.227 179.816L253.397 210.527L263.415 239.169L283.024 239.054L274.408 167.892Z" fill="#263238"/>
<path d="M196.101 173.983L204.859 163.417C204.859 163.417 213.319 135.856 215.859 133.794C218.399 131.733 241.598 125.919 241.598 125.919L249.868 161.524L254.074 205.342L261.789 222.742L269.362 239.108L242.776 239.183C242.776 239.183 231.939 214.759 226.195 200.556C224.331 195.942 223.169 191.075 222.748 186.117L222.463 182.737C222.463 182.737 205.171 222.668 201.093 225.237C197.016 227.806 191.929 231.672 186.321 231.436C180.712 231.199 169.184 214.57 169.184 214.57L169.123 192.356L185.42 185.556L188.244 191.7L196.101 173.983Z" fill="#933FA1"/>
<path d="M266.246 221.539L268.021 217.179L305.653 199.522L304.488 147.233L314.513 125.912C314.513 125.912 320.203 128.393 323.494 135.721C325.818 140.872 332.516 213.806 328.723 216.084C323.765 219.024 290.468 232.233 279.332 236.6C278.325 236.995 277.209 237.014 276.189 236.654C275.169 236.294 274.313 235.579 273.778 234.64L266.246 221.539Z" fill="#933FA1"/>
<path d="M310.117 215.84L314.377 125.736L293.163 121.835L287.067 117.448H282.245C282.245 117.448 284.019 122.032 283.782 125.81C283.545 129.589 266.07 197.088 266.07 197.088L275.993 239.094L320.853 238.959L310.117 215.84Z" fill="#933FA1"/>
<path d="M293.163 121.815V121.944C293.163 122.045 293.163 122.167 293.163 122.322C293.163 122.681 293.224 123.174 293.265 123.803C293.346 125.101 293.434 127.007 293.489 129.42C293.604 134.261 293.407 141.169 293.008 149.41V149.545H292.865L284.88 149.991L285.008 149.734C286.855 152.661 289.387 155.097 292.385 156.832L292.52 156.913L292.459 157.055L289.269 164.099C286.221 170.859 283.39 177.329 281.1 183.325C279.032 188.621 277.248 194.023 275.756 199.508C274.496 204.193 273.771 208.06 273.297 210.73C273.094 212.082 272.931 213.096 272.816 213.819C272.762 214.157 272.722 214.427 272.688 214.623C272.68 214.715 272.662 214.806 272.633 214.894C272.624 214.802 272.624 214.709 272.633 214.617C272.633 214.421 272.688 214.15 272.728 213.812C272.823 213.136 272.938 212.055 273.141 210.709C273.575 208.005 274.266 204.152 275.492 199.441C276.957 193.941 278.721 188.525 280.775 183.217C283.051 177.2 285.882 170.724 288.903 163.957L292.1 156.913L292.168 157.136C289.136 155.372 286.579 152.899 284.717 149.93L284.568 149.694H284.846L292.838 149.275L292.689 149.417C293.123 141.183 293.367 134.288 293.299 129.454C293.299 127.034 293.211 125.135 293.163 123.837C293.163 123.201 293.123 122.708 293.102 122.356V121.971C293.111 121.915 293.132 121.862 293.163 121.815Z" fill="#263238"/>
<path d="M268.224 233.802L267.933 233.667L267.086 233.247C266.341 232.896 265.284 232.287 263.93 231.483C263.252 231.05 262.534 230.584 261.756 230.036C260.977 229.489 260.13 228.874 259.283 228.15C257.314 226.56 255.47 224.819 253.77 222.945C249.341 218.059 245.715 212.503 243.027 206.485C239.786 199.103 237.525 191.331 236.301 183.365C235.407 177.998 234.886 172.739 234.52 167.736C234.337 165.249 234.229 162.741 234.886 160.415C235.543 158.09 236.999 156.028 239.119 155.129L239.078 155.386C238.276 154.703 237.314 154.234 236.282 154.021C235.249 153.809 234.18 153.859 233.172 154.169L232.982 154.237V154.034C233.233 146.266 233.436 139.838 233.578 135.403C233.66 133.193 233.727 131.455 233.768 130.252C233.768 129.677 233.816 129.225 233.829 128.9C233.843 128.576 233.863 128.434 233.863 128.434C233.863 128.434 233.863 128.596 233.863 128.9C233.863 129.204 233.863 129.671 233.863 130.252C233.863 131.449 233.795 133.186 233.748 135.403C233.633 139.872 233.47 146.266 233.274 154.034L233.084 153.892C234.139 153.562 235.26 153.504 236.344 153.722C237.427 153.941 238.438 154.429 239.282 155.142L239.465 155.305L239.241 155.406C237.209 156.258 235.82 158.272 235.177 160.496C234.534 162.72 234.655 165.228 234.838 167.709C235.211 172.705 235.732 177.951 236.633 183.305C237.847 191.242 240.09 198.989 243.305 206.349C245.968 212.344 249.554 217.887 253.932 222.776C255.617 224.647 257.439 226.389 259.385 227.988C260.225 228.718 261.078 229.34 261.83 229.888C262.582 230.435 263.34 230.915 263.984 231.361C265.339 232.179 266.361 232.808 267.1 233.18L267.926 233.626L268.224 233.802Z" fill="#263238"/>
<path d="M304.204 155.358C304.212 155.428 304.212 155.498 304.204 155.568C304.204 155.717 304.204 155.919 304.204 156.183C304.238 156.744 304.278 157.535 304.339 158.596C304.441 160.712 304.59 163.802 304.78 167.716C305.145 175.571 305.653 186.752 306.27 200.069V200.177L306.175 200.218L271.313 215.644L267.96 217.125L268.055 217.03C267.811 217.638 267.567 218.226 267.323 218.821V218.686C269.795 224.669 272.173 230.448 274.408 235.863L274.34 235.782C275.229 236.309 276.219 236.643 277.246 236.762C277.493 236.78 277.741 236.766 277.984 236.722C278.217 236.663 278.444 236.584 278.662 236.485L280.111 235.938L285.753 233.781L296.259 229.725C302.89 227.143 308.735 224.817 313.565 222.843C318.394 220.87 322.214 219.24 324.795 218.037C326.082 217.435 327.064 216.949 327.701 216.57C327.942 216.433 328.169 216.272 328.378 216.09C328.451 216.032 328.507 215.955 328.541 215.867C328.527 215.966 328.476 216.055 328.398 216.117C328.19 216.307 327.963 216.474 327.721 216.618C326.784 217.176 325.819 217.686 324.829 218.145C322.262 219.376 318.455 221.039 313.632 223.04C308.81 225.04 302.978 227.386 296.354 229.996L285.855 234.052L280.213 236.222L278.77 236.776C278.522 236.88 278.266 236.964 278.005 237.026C277.732 237.075 277.455 237.091 277.178 237.073C276.097 236.953 275.054 236.605 274.117 236.053H274.069V235.998C271.827 230.59 269.443 224.811 266.971 218.828V218.76V218.693C267.215 218.105 267.452 217.51 267.702 216.901V216.841L267.763 216.807L271.15 215.326L306.087 199.92L305.992 200.069C305.437 186.745 304.969 175.571 304.637 167.709C304.482 163.795 304.36 160.706 304.278 158.583C304.242 157.533 304.215 156.728 304.197 156.17C304.197 155.906 304.197 155.703 304.197 155.554L304.204 155.358Z" fill="#263238"/>
<path d="M313.666 128.474C313.714 128.514 312.914 129.42 311.797 131.002C310.342 133.067 309.111 135.281 308.126 137.606C307.15 139.935 306.431 142.363 305.979 144.846C305.626 146.753 305.538 147.956 305.477 147.949C305.449 147.666 305.449 147.381 305.477 147.097C305.52 146.328 305.601 145.561 305.721 144.799C306.495 139.741 308.505 134.952 311.573 130.853C312.032 130.235 312.523 129.642 313.043 129.075C313.23 128.854 313.439 128.653 313.666 128.474Z" fill="#263238"/>
<path d="M223.357 156.514C223.269 156.212 223.213 155.902 223.188 155.588C223.114 154.993 222.978 154.128 222.782 153.074C221.779 147.542 219.795 142.233 216.923 137.397C216.374 136.471 215.907 135.727 215.568 135.227C215.383 134.972 215.222 134.701 215.087 134.416C215.308 134.641 215.507 134.885 215.683 135.146C216.049 135.626 216.55 136.349 217.126 137.269C220.143 142.069 222.148 147.433 223.019 153.033C223.181 154.101 223.283 154.973 223.317 155.575C223.365 155.886 223.378 156.201 223.357 156.514Z" fill="#263238"/>
<path d="M259.886 175.571C259.708 174.7 259.647 173.809 259.703 172.921C259.639 172.037 259.696 171.148 259.873 170.278C260.107 172.035 260.107 173.815 259.873 175.571H259.886Z" fill="#FFA793"/>
<g opacity="0.3">
<path opacity="0.3" d="M289.628 151.066L295.588 151.863C294.308 148.592 294.491 130.907 293.455 127.453L292.906 149.396L284.92 149.822C284.92 149.822 288.354 154.426 289.96 155.392C290.775 155.861 291.556 156.387 292.296 156.967C292.296 156.967 280.998 183.331 279.237 187.874C275.492 197.548 272.769 213.819 272.769 213.819C282.136 197.595 287.575 178.822 292.486 160.699C292.964 159.314 293.149 157.845 293.028 156.386C292.696 154.277 291.125 152.6 289.628 151.066Z" fill="black"/>
</g>
<g opacity="0.3">
<path opacity="0.3" d="M233.179 154.053C233.071 154.378 233.267 146.617 233.314 146.455C233.362 146.293 232.298 155.764 232.109 156.325L235.38 155.608C234.568 156.012 233.849 156.581 233.271 157.28C232.694 157.979 232.27 158.791 232.027 159.664C231.556 161.426 231.37 163.252 231.479 165.072C231.696 178.653 234.649 192.599 241.964 204.023C237.182 192.66 235.712 180.208 234.554 167.918C234.33 165.505 234.141 163.098 234.818 160.766C235.495 158.434 237.046 155.953 239.173 155.162C237.534 153.81 235.231 153.134 233.179 154.053Z" fill="black"/>
</g>
<g opacity="0.3">
<path opacity="0.3" d="M275.268 236.438C276.129 238.256 279.265 238.128 281.452 237.885C283.626 237.546 285.748 236.93 287.765 236.053C296.869 232.551 305.674 229.401 314.777 225.913L313.511 223.175L278.384 236.81C277.869 236.979 277.323 237.033 276.785 236.969C276.247 236.904 275.729 236.723 275.268 236.438Z" fill="black"/>
</g>
<path d="M182.243 148.585C180.509 148.437 175.368 149.937 174.02 152.324L171.189 161.788C171.189 161.788 177.556 155.244 180.489 154.189C185.081 152.54 187.208 152.506 185.23 150.039C184.87 149.592 184.416 149.23 183.9 148.979C183.383 148.728 182.818 148.593 182.243 148.585Z" fill="#FFC4B2"/>
<path d="M155.455 155.744L158.543 162.849L158.665 175.76L174.061 173.496L171.846 161.125L173.364 155.69L167.017 150.343L155.455 155.744Z" fill="#FFC4B2"/>
<path d="M222.431 167.009L141.747 167.248L141.912 222.538L222.595 222.299L222.431 167.009Z" fill="#FAFAFA"/>
<path d="M222.579 222.31C222.579 222.31 222.579 221.965 222.579 221.302C222.579 220.64 222.579 219.653 222.579 218.375C222.579 215.813 222.545 212.055 222.511 207.248C222.47 197.636 222.402 183.832 222.321 167.026L222.463 167.168L141.786 167.432L141.962 167.256C142.01 186.995 142.064 205.748 142.105 222.546L141.942 222.384L200.084 222.296H222.633H222.253H221.136L216.753 222.33L200.193 222.418L141.942 222.668H141.786V222.506C141.732 205.707 141.671 186.955 141.61 167.216V167.04H141.793L222.47 166.844H222.612V166.986C222.612 183.825 222.646 197.656 222.653 207.296V218.396C222.653 219.66 222.653 220.626 222.653 221.289C222.653 221.951 222.579 222.31 222.579 222.31Z" fill="#263238"/>
<path d="M147.936 216.617C147.842 216.617 147.733 207.234 147.699 195.661C147.666 184.088 147.699 174.705 147.821 174.705C147.943 174.705 148.025 184.081 148.058 195.661C148.092 207.241 148.038 216.617 147.936 216.617Z" fill="#263238"/>
<path d="M217.946 210.641C217.946 210.743 202.211 210.864 182.799 210.918C163.386 210.972 147.652 210.918 147.652 210.844C147.652 210.77 163.386 210.621 182.799 210.567C202.211 210.513 217.946 210.547 217.946 210.641Z" fill="#EBEBEB"/>
<path d="M217.925 204.497C217.925 204.591 202.191 204.72 182.785 204.774C163.38 204.828 147.659 204.828 147.659 204.699C147.659 204.571 163.386 204.476 182.806 204.422C202.225 204.368 217.925 204.402 217.925 204.497Z" fill="#EBEBEB"/>
<path d="M217.905 198.352C217.905 198.446 202.171 198.575 182.765 198.629C163.359 198.683 147.618 198.629 147.618 198.554C147.618 198.48 163.353 198.331 182.765 198.277C202.177 198.223 217.905 198.25 217.905 198.352Z" fill="#EBEBEB"/>
<path d="M217.891 192.207C217.891 192.302 202.157 192.423 182.744 192.484C163.332 192.545 147.598 192.484 147.598 192.403C147.598 192.322 163.332 192.187 182.744 192.133C202.157 192.079 217.891 192.106 217.891 192.207Z" fill="#EBEBEB"/>
<path d="M217.871 186.055C217.871 186.157 202.137 186.278 182.731 186.332C163.325 186.387 147.584 186.332 147.584 186.258C147.584 186.184 163.312 186.042 182.731 185.981C202.15 185.92 217.871 185.961 217.871 186.055Z" fill="#EBEBEB"/>
<path d="M217.857 179.911C217.857 180.012 202.116 180.134 182.711 180.188C163.305 180.242 147.564 180.188 147.564 180.113C147.564 180.039 163.298 179.89 182.711 179.836C202.123 179.782 217.857 179.816 217.857 179.911Z" fill="#EBEBEB"/>
<path d="M217.837 173.766C217.837 173.861 202.103 173.989 182.697 174.043C163.292 174.097 147.55 174.043 147.55 173.969C147.55 173.895 163.278 173.746 182.69 173.692C202.103 173.638 217.837 173.672 217.837 173.766Z" fill="#EBEBEB"/>
<path d="M157.458 206.997L152.419 207.012L152.447 216.591L157.487 216.576L157.458 206.997Z" fill="#933FA1"/>
<path d="M194.025 206.917L188.985 206.931L189.012 216.51L194.051 216.496L194.025 206.917Z" fill="#933FA1"/>
<path d="M167.319 199.918L162.28 199.933L162.329 216.555L167.369 216.54L167.319 199.918Z" fill="#933FA1"/>
<path d="M185.743 195.576L180.704 195.59L180.762 216.539L185.802 216.525L185.743 195.576Z" fill="#933FA1"/>
<path d="M176.591 182.872L171.551 182.886L171.645 216.557L176.685 216.543L176.591 182.872Z" fill="#933FA1"/>
<path d="M203.742 189.029L198.702 189.043L198.779 216.488L203.819 216.474L203.742 189.029Z" fill="#933FA1"/>
<path d="M209.845 216.435C209.845 216.536 196.014 216.651 178.958 216.699C161.903 216.746 148.065 216.699 148.065 216.617C148.065 216.536 161.89 216.401 178.958 216.347C196.027 216.293 209.845 216.32 209.845 216.435Z" fill="#263238"/>
<path d="M177.543 171.414L175.978 174.719L174.102 171.421L173.959 138.628L177.4 138.621L177.543 171.414Z" fill="#263238"/>
<path d="M176.107 138.688C176.107 138.688 174.623 135.721 172.984 135.728C171.345 135.734 168.886 138.709 168.886 138.709C168.886 138.709 165.107 136.742 163.793 137.235C162.479 137.729 160.521 141.041 160.521 141.041C159.48 141.373 158.502 141.878 157.629 142.535C156.755 143.36 156.599 146.003 156.599 146.003C156.599 146.003 154.303 146.334 154.303 147.659C154.303 148.984 154.303 154.419 155.475 155.737C156.647 157.055 163.048 161.983 165.262 161.821C167.477 161.659 167.464 158.516 166.969 157.86C166.969 157.86 169.604 159.834 170.911 158.015C172.219 156.197 171.555 153.56 171.555 153.56C171.555 153.56 172.564 156.697 174.603 155.305C176.967 153.696 174.942 150.336 174.942 150.336C174.942 150.336 176.642 153.04 177.651 151.728C178.66 150.417 178.328 148.261 177.651 146.78C176.974 145.3 176.107 138.688 176.107 138.688Z" fill="#FFC4B2"/>
<path d="M164.992 156.332C164.607 156.049 164.263 155.715 163.969 155.339C162.448 153.621 161.144 151.723 160.088 149.687C159.841 149.278 159.652 148.837 159.526 148.376C159.62 148.329 160.636 150.242 162.147 152.432C163.657 154.622 165.066 156.258 164.992 156.332Z" fill="#FFA793"/>
<path d="M171.562 153.289C170.276 151.84 169.079 150.314 167.979 148.72C166.777 147.188 165.669 145.585 164.66 143.92C165.952 145.377 167.155 146.909 168.263 148.51C169.456 150.037 170.558 151.632 171.562 153.289Z" fill="#FFA793"/>
<path d="M175.165 150.478C174.821 150.04 174.526 149.567 174.285 149.065L172.307 145.57L170.309 142.082C170.004 141.616 169.747 141.12 169.543 140.602C169.922 141.013 170.252 141.466 170.526 141.954C171.088 142.812 171.833 144.029 172.612 145.394C173.391 146.76 174.048 148.024 174.502 148.943C174.777 149.43 175 149.944 175.165 150.478Z" fill="#FFA793"/>
<path d="M171.21 153.229C171.21 153.229 171.27 153.277 171.352 153.392C171.476 153.557 171.576 153.739 171.65 153.933C171.888 154.553 171.951 155.226 171.831 155.879C171.712 156.533 171.415 157.141 170.972 157.637C170.54 158.124 169.951 158.444 169.306 158.543C168.587 158.607 167.865 158.461 167.227 158.124C166.536 157.783 165.921 157.307 165.418 156.724L165.662 156.488C166.42 157.114 166.965 157.959 167.22 158.908C167.321 159.395 167.286 159.9 167.118 160.368C166.95 160.836 166.615 161.226 166.177 161.463C165.343 161.81 164.412 161.843 163.556 161.558C162.137 161.192 160.794 160.581 159.586 159.753C158.775 159.2 158.034 158.55 157.378 157.82C157.155 157.556 156.986 157.346 156.877 157.198C156.769 157.049 156.721 156.968 156.735 156.961C157.627 157.937 158.629 158.806 159.722 159.55C160.921 160.329 162.242 160.902 163.63 161.247C164.41 161.499 165.255 161.468 166.014 161.159C166.372 160.934 166.649 160.601 166.803 160.208C166.958 159.815 166.983 159.383 166.875 158.975C166.631 158.101 166.128 157.321 165.432 156.738L165.676 156.501C166.651 157.61 168.026 158.367 169.266 158.239C169.846 158.165 170.382 157.887 170.776 157.454C171.127 157.081 171.389 156.632 171.541 156.143C171.767 155.437 171.767 154.679 171.541 153.973C171.365 153.453 171.182 153.25 171.21 153.229Z" fill="#FFA793"/>
<path d="M174.474 149.153C174.823 149.549 175.092 150.008 175.267 150.505C175.493 151.043 175.652 151.606 175.741 152.182C175.804 152.906 175.698 153.635 175.429 154.311C175.319 154.675 175.116 155.003 174.841 155.265C174.566 155.527 174.227 155.713 173.858 155.805C173.551 155.836 173.241 155.791 172.956 155.673C172.671 155.555 172.42 155.368 172.226 155.129C171.979 154.821 171.78 154.476 171.636 154.108C171.535 153.858 171.494 153.71 171.514 153.703C171.535 153.696 171.616 153.818 171.758 154.048C171.949 154.376 172.177 154.682 172.436 154.96C172.607 155.157 172.823 155.311 173.066 155.408C173.308 155.506 173.57 155.545 173.831 155.521C174.139 155.428 174.419 155.26 174.646 155.033C174.873 154.805 175.04 154.524 175.131 154.217C175.376 153.589 175.482 152.915 175.443 152.243C175.375 151.692 175.248 151.15 175.064 150.627C174.752 149.708 174.42 149.18 174.474 149.153Z" fill="#FFA793"/>
<path d="M170.058 161.152C169.173 161.872 168.215 162.497 167.2 163.018C166.246 163.642 165.229 164.164 164.165 164.573C165.054 163.861 166.012 163.238 167.024 162.714C167.98 162.092 168.996 161.569 170.058 161.152Z" fill="#FFA793"/>
<path d="M268.143 218.49L244.755 225.284L236.207 219.457C236.207 219.457 228.424 217.078 225.891 216.753C223.358 216.429 219.185 216.611 216.408 216.618C214.942 216.697 213.488 216.316 212.249 215.53C212.249 215.53 209.845 215.442 210.488 218.517C211.287 222.33 220.377 222.303 220.377 222.303L208.328 222.344H201.317L207.413 226.629C208.959 227.708 210.797 228.293 212.683 228.306H215.135C214.505 231.686 215.731 233.525 217.973 234.498C216.205 236.161 217.092 239.271 220.56 239.142C222.24 239.081 251.582 239.142 251.582 239.142L276.833 235.559L268.143 218.49Z" fill="#FFC4B2"/>
<path d="M220.601 228.117C219.304 228.362 217.984 228.457 216.665 228.4C215.351 228.457 214.035 228.435 212.723 228.333C214.02 228.088 215.34 227.992 216.659 228.049C217.973 227.988 219.29 228.011 220.601 228.117Z" fill="#FFA793"/>
<path d="M227.652 220.869C226.095 221.274 224.51 221.563 222.911 221.734C221.345 222.027 219.761 222.201 218.169 222.255C219.727 221.853 221.311 221.564 222.911 221.39C224.476 221.101 226.061 220.927 227.652 220.869Z" fill="#FFA793"/>
<path d="M231.892 127.507C232.075 127.419 231.804 126.453 231.215 124.803C230.625 123.154 229.636 120.747 228.566 117.773C227.286 114.345 226.292 110.818 225.593 107.227C224.758 102.899 224.744 98.4528 225.552 94.1195C226.399 89.4889 227.902 85.1354 229.128 81.0862C230.293 77.4672 231.136 73.7529 231.648 69.9863C232 67.4185 231.975 64.8133 231.574 62.2528C231.248 60.4547 230.828 59.5488 230.652 59.5488C230.205 59.6299 230.937 63.544 229.65 69.6888C228.861 73.2788 227.836 76.813 226.582 80.2682C225.227 84.2363 223.615 88.6506 222.7 93.6057C222.472 94.8313 222.307 96.0678 222.206 97.3102C222.165 97.9253 222.118 98.5337 222.118 99.1489C222.118 99.7641 222.077 100.359 222.118 100.954C222.19 103.229 222.476 105.492 222.971 107.714C223.813 111.439 225.048 115.065 226.656 118.53C227.704 120.845 228.877 123.102 230.171 125.29C231.113 126.797 231.723 127.595 231.892 127.507Z" fill="#263238"/>
<path d="M278.215 71.3252C278.016 68.2267 277.193 65.2001 275.794 62.4266C274.396 59.6532 272.451 57.1898 270.077 55.184C267.702 53.1782 264.946 51.6713 261.974 50.7533C259.002 49.8354 255.876 49.5254 252.781 49.8419C240.311 51.0114 231.106 62.0842 231.533 74.4415C231.905 85.2575 232.515 96.1682 233.294 100.021C235.631 111.635 243.386 114.853 246.441 115.684C247.513 115.855 248.601 115.914 249.685 115.86C249.696 115.859 249.706 115.86 249.716 115.864C249.726 115.867 249.735 115.872 249.742 115.879C249.75 115.886 249.756 115.895 249.76 115.904C249.765 115.914 249.767 115.924 249.767 115.934L249.658 129.792C250.119 138.776 256.54 145.645 265.637 145.239C274.733 144.833 280.416 136.789 280.152 127.764L278.215 71.3252Z" fill="#FFC4B2"/>
<path d="M237.453 80.4851C237.467 80.9782 237.675 81.4458 238.033 81.7863C238.391 82.1268 238.869 82.3127 239.363 82.3036C239.606 82.3135 239.848 82.275 240.076 82.1903C240.304 82.1055 240.513 81.9763 240.69 81.8101C240.867 81.6439 241.009 81.4442 241.108 81.2224C241.207 81.0007 241.261 80.7616 241.266 80.5189C241.248 80.027 241.039 79.5615 240.682 79.2217C240.325 78.8819 239.849 78.6949 239.356 78.7005C239.113 78.6915 238.871 78.7306 238.644 78.8157C238.416 78.9007 238.208 79.03 238.031 79.196C237.854 79.362 237.711 79.5615 237.612 79.7827C237.513 80.004 237.459 80.2428 237.453 80.4851Z" fill="#263238"/>
<path d="M234.852 77.0645C235.096 77.3011 236.498 76.1789 238.55 76.091C240.602 76.0032 242.14 76.9563 242.357 76.6927C242.458 76.5778 242.201 76.1451 241.53 75.7057C240.614 75.1378 239.546 74.8641 238.469 74.9216C237.401 74.964 236.375 75.3426 235.536 76.0032C234.926 76.5237 234.73 76.9834 234.852 77.0645Z" fill="#263238"/>
<path d="M257.062 80.295C257.079 80.7869 257.289 81.2524 257.646 81.5922C258.003 81.932 258.478 82.119 258.972 82.1134C259.214 82.1215 259.456 82.0817 259.683 81.9963C259.91 81.9109 260.118 81.7816 260.295 81.6158C260.472 81.45 260.614 81.2509 260.714 81.03C260.813 80.8092 260.868 80.5708 260.875 80.3288C260.859 79.8362 260.65 79.3697 260.293 79.0296C259.935 78.6894 259.459 78.503 258.965 78.5103C258.722 78.5004 258.479 78.5389 258.251 78.6236C258.024 78.7084 257.815 78.8376 257.638 79.0038C257.46 79.1699 257.318 79.3697 257.219 79.5914C257.12 79.8131 257.067 80.0523 257.062 80.295Z" fill="#263238"/>
<path d="M255.023 76.5641C255.267 76.7939 256.676 75.6786 258.721 75.5907C260.767 75.5028 262.318 76.4492 262.528 76.1923C262.636 76.0774 262.379 75.6448 261.701 75.2054C260.789 74.6352 259.722 74.3612 258.647 74.4212C257.58 74.4622 256.553 74.8384 255.714 75.496C255.097 76.003 254.901 76.4559 255.023 76.5641Z" fill="#263238"/>
<path d="M248.168 91.9358C248.168 91.8209 246.888 91.6587 244.815 91.4897C244.287 91.4897 243.786 91.3815 243.684 91.03C243.622 90.4964 243.723 89.9566 243.975 89.4819C244.422 88.2111 244.883 86.8726 245.371 85.4733C247.301 79.7746 248.676 75.0899 248.446 75.0155C248.216 74.9412 246.461 79.4907 244.517 85.1758C244.05 86.5819 243.61 87.9271 243.163 89.2318C242.866 89.8654 242.799 90.5823 242.973 91.2598C243.056 91.4408 243.18 91.6001 243.335 91.7256C243.491 91.851 243.672 91.9391 243.867 91.9831C244.161 92.0438 244.461 92.071 244.761 92.0643C246.874 92.0778 248.168 92.0305 248.168 91.9358Z" fill="#263238"/>
<path d="M249.767 115.853C249.767 115.853 257.712 116.144 267.377 109.816C267.377 109.816 264.668 120.294 249.733 119.591L249.767 115.853Z" fill="#FFA793"/>
<path d="M249.259 96.7626C249.632 96.2591 250.126 95.8572 250.695 95.5938C251.264 95.3304 251.891 95.214 252.517 95.2552C252.969 95.2745 253.414 95.3844 253.823 95.5783C254.233 95.7722 254.599 96.0462 254.901 96.3841C255.187 96.7109 255.366 97.1181 255.412 97.5501C255.458 97.982 255.37 98.4176 255.158 98.7974C254.84 99.1756 254.417 99.4522 253.943 99.5928C253.468 99.7334 252.963 99.7319 252.49 99.5883C251.498 99.2993 250.576 98.8117 249.78 98.1552C249.542 98.0078 249.334 97.8148 249.171 97.5874C249.095 97.4756 249.054 97.3437 249.054 97.2088C249.054 97.0739 249.095 96.942 249.171 96.8302" fill="#FFA793"/>
<path d="M254.257 93.0513C253.926 93.0513 254.007 95.2416 252.164 96.891C250.322 98.5405 247.938 98.3985 247.931 98.7095C247.931 98.8447 248.48 99.1083 249.482 99.0948C250.787 99.0532 252.036 98.561 253.018 97.7022C253.953 96.8788 254.531 95.7251 254.63 94.4845C254.677 93.5651 254.413 93.0311 254.257 93.0513Z" fill="#263238"/>
<path d="M253.959 73.0552C254.183 73.596 256.222 73.2445 258.64 73.427C261.058 73.6096 263.029 74.1639 263.327 73.6569C263.462 73.4135 263.103 72.9133 262.297 72.413C261.219 71.8071 260.018 71.4512 258.784 71.3716C257.549 71.292 256.312 71.4909 255.165 71.9534C254.291 72.3319 253.864 72.7984 253.959 73.0552Z" fill="#263238"/>
<path d="M235.441 72.9132C235.82 73.3594 237.216 72.8186 238.916 72.7172C240.616 72.6158 242.065 72.8862 242.377 72.3927C242.512 72.1493 242.269 71.7167 241.618 71.2908C240.749 70.8066 239.757 70.5882 238.765 70.6627C237.772 70.7372 236.824 71.1014 236.037 71.7099C235.455 72.2102 235.272 72.6969 235.441 72.9132Z" fill="#263238"/>
<path d="M229.467 102.982C227.482 111.831 231.106 120.971 235.644 128.819C237.358 131.78 239.227 134.7 240.25 137.972C241.273 141.244 241.32 145.003 239.512 147.909C240.145 148.123 240.834 148.104 241.455 147.856C242.075 147.608 242.587 147.148 242.898 146.557C243.068 148.369 243.23 150.174 243.393 151.965C245.601 152.912 248.229 151.33 249.293 149.167C250.356 147.004 250.268 144.482 250.16 142.075C249.834 135.011 250.092 126.656 249.767 119.592L237.148 117.036L229.467 102.982Z" fill="#263238"/>
<path d="M263.483 64.5649C268.265 73.7585 268.84 84.5542 268.495 94.9308C268.15 105.307 266.998 115.772 268.712 126.027C269.389 130.049 270.507 134.139 269.89 138.154C269.525 140.527 268.57 142.771 268.089 145.124C267.608 147.476 267.682 150.119 269.152 152.012C270.622 153.905 273.304 154.635 275.668 154.182C278.031 153.623 280.161 152.345 281.764 150.525C285.395 146.706 287.291 141.487 287.995 136.255C288.7 131.022 288.307 125.709 287.914 120.443C286.894 106.743 285.869 93.0448 284.839 79.349C284.399 73.4273 283.925 67.3635 281.52 61.9353C278.902 56.282 274.593 51.5775 269.186 48.4693C262.833 44.6905 254.603 43.0613 248.073 46.5292C245.892 47.6852 243.799 49.9092 244.321 52.3158C244.734 54.2289 246.597 55.4119 248.297 56.3718L265.074 65.9034" fill="#263238"/>
<path d="M272.132 138.54C272.315 138.445 271.963 137.384 271.245 135.518C270.527 133.652 269.45 130.995 268.339 127.649C267.024 123.779 266.158 119.771 265.759 115.704C265.325 111.162 265.908 106.112 266.842 100.832C267.777 95.5527 268.874 90.3677 269.166 85.5141C269.51 81.1966 269.109 76.8522 267.98 72.6701C267.212 69.8305 265.858 67.1825 264.004 64.8961C263.652 64.5107 263.327 64.1795 263.07 63.8956C262.828 63.6553 262.572 63.4296 262.304 63.2196C261.877 62.8951 261.627 62.7599 261.552 62.8275C261.478 62.8951 261.607 63.1723 261.884 63.6117L262.419 64.4161C262.609 64.7406 262.839 65.0921 263.097 65.518C264.48 67.8722 265.469 70.4366 266.023 73.1095C266.806 77.0982 266.982 81.1822 266.544 85.2234C266.118 89.8067 264.98 94.8429 264.025 100.258C263.07 105.672 262.528 111.074 263.137 115.927C263.673 120.186 264.785 124.352 266.443 128.312C267.529 130.965 268.804 133.538 270.256 136.011C271.279 137.735 271.963 138.627 272.132 138.54Z" fill="#263238"/>
<path d="M288.794 69.9456C288.654 69.875 288.507 69.8206 288.354 69.7833L287.081 69.371C286.525 69.202 285.841 68.9857 285.049 68.695C284.256 68.4043 283.369 68.1407 282.394 67.7689C280.429 67.0929 278.12 66.1667 275.62 65.0649C273.121 63.963 270.351 62.6853 267.54 61.2117C264.729 59.738 262.121 58.1899 259.778 56.7298C257.434 55.2696 255.395 53.8635 253.682 52.6332C252.828 52.0383 252.083 51.457 251.419 50.9635C250.755 50.47 250.187 50.0374 249.733 49.6723L248.669 48.8544C248.548 48.7543 248.419 48.6638 248.283 48.584C248.391 48.6976 248.506 48.8038 248.629 48.9017L249.665 49.7602C250.112 50.1388 250.661 50.5917 251.324 51.1122C251.988 51.6327 252.713 52.2141 253.566 52.8225C255.239 54.0663 257.285 55.4792 259.608 56.9731C261.931 58.4671 264.56 59.9949 267.377 61.4821C270.195 62.9693 272.952 64.2401 275.505 65.3285C278.059 66.4169 280.375 67.2889 282.346 67.9649C283.328 68.3164 284.229 68.5868 285.056 68.8437C285.882 69.1006 286.525 69.3034 287.088 69.4589L288.381 69.8171C288.516 69.8689 288.654 69.9118 288.794 69.9456Z" fill="#455A64"/>
<path d="M288.916 72.0009C288.764 71.9568 288.607 71.9274 288.449 71.913L287.094 71.7102L286.112 71.575L284.961 71.3654C284.128 71.2099 283.179 71.068 282.15 70.8111L280.524 70.4461C279.962 70.3176 279.38 70.1419 278.777 69.9864C277.564 69.6822 276.304 69.2631 274.963 68.8372C272.082 67.8553 269.264 66.6995 266.524 65.3761C263.798 64.0246 261.156 62.5098 258.613 60.8401C257.461 60.0424 256.35 59.2988 255.368 58.5282C254.874 58.1496 254.379 57.7981 253.932 57.4263L252.645 56.3447C251.812 55.6687 251.114 54.9927 250.485 54.4654L249.604 53.6745L248.927 52.9985L247.904 52.0521C247.79 51.9395 247.671 51.8334 247.545 51.7344C247.654 51.8515 247.774 51.9579 247.904 52.0521C248.134 52.3022 248.453 52.6267 248.852 53.0458L249.53 53.7218C249.787 53.9719 250.078 54.2356 250.39 54.5263C251.013 55.1009 251.704 55.7769 252.53 56.4461L253.81 57.5277C254.257 57.8995 254.745 58.2578 255.239 58.6431C256.222 59.4273 257.326 60.1776 258.484 60.9888C261.026 62.6877 263.675 64.2209 266.415 65.5789C269.165 66.9104 271.998 68.0642 274.896 69.0332C276.25 69.4523 277.51 69.8647 278.729 70.1621C279.339 70.3176 279.921 70.4866 280.484 70.6083L282.123 70.9598C283.159 71.1964 284.114 71.3316 284.947 71.4736C285.36 71.5344 285.747 71.6088 286.105 71.6561L287.094 71.771L288.449 71.913C288.602 71.9541 288.759 71.9835 288.916 72.0009Z" fill="white"/>
<path d="M281.053 144.299C281.075 144.24 281.088 144.179 281.093 144.116C281.093 143.974 281.148 143.792 281.181 143.555C281.249 143.068 281.364 142.352 281.452 141.412C281.734 138.776 281.867 136.127 281.852 133.476C281.852 130.096 281.635 126.121 281.208 121.707C280.782 117.293 280.186 112.452 279.596 107.369C278.384 97.2289 277.293 88.015 276.494 81.3429C276.088 78.0237 275.756 75.34 275.519 73.4607C275.404 72.5414 275.309 71.8248 275.241 71.3178L275.16 70.7635C275.155 70.6995 275.143 70.6361 275.126 70.5742C275.131 70.6383 275.142 70.7016 275.16 70.7635C275.16 70.9055 275.16 71.088 275.214 71.3246C275.268 71.8316 275.343 72.5549 275.438 73.4743C275.648 75.3535 275.952 78.044 276.318 81.3632C277.097 88.0421 278.16 97.2424 279.339 107.403C279.935 112.486 280.545 117.32 280.978 121.734C281.412 126.148 281.655 130.13 281.655 133.476C281.69 136.123 281.588 138.769 281.351 141.405C281.276 142.338 281.181 143.062 281.127 143.548C281.127 143.785 281.087 143.968 281.073 144.109C281.059 144.251 281.053 144.299 281.053 144.299Z" fill="#455A64"/>
<path d="M273.792 113.696C273.823 113.543 273.839 113.387 273.839 113.23L273.92 111.878C273.988 110.722 274.063 109.052 274.13 106.984C274.266 102.853 274.354 97.1345 274.252 90.8274C274.151 84.5203 273.866 78.8081 273.575 74.6845C273.433 72.616 273.304 70.953 273.202 69.797C273.148 69.2427 273.108 68.8033 273.08 68.445C273.074 68.2899 273.051 68.1359 273.013 67.9854C273.002 68.1407 273.002 68.2965 273.013 68.4518C273.013 68.783 273.053 69.2224 273.087 69.8038C273.155 70.98 273.25 72.643 273.365 74.6845C273.588 78.8149 273.832 84.5203 273.941 90.8274C274.049 97.1345 273.988 102.84 273.9 106.97C273.853 108.998 273.812 110.681 273.785 111.864C273.785 112.426 273.785 112.865 273.785 113.216C273.775 113.376 273.777 113.537 273.792 113.696Z" fill="#455A64"/>
<path d="M306.358 101.9L312.02 91.8005C308.925 86.7547 307.594 80.8274 308.234 74.9458C308.874 69.0643 311.45 63.5605 315.558 59.2956C319.666 55.0308 325.075 52.2455 330.939 51.3757C336.802 50.5059 342.789 51.6005 347.962 54.4884C353.136 57.3763 357.204 61.8945 359.531 67.3359C361.857 72.7773 362.311 78.835 360.82 84.561C359.329 90.287 355.979 95.3582 351.293 98.9812C346.606 102.604 340.849 104.574 334.921 104.584C328.967 104.604 323.179 102.631 318.482 98.9796L306.358 101.9Z" fill="#FAFAFA"/>
<path d="M306.358 101.9L318.469 98.9052L318.421 99.0471C318.412 99.0395 318.406 99.0302 318.401 99.0197C318.396 99.0092 318.394 98.9978 318.394 98.9863C318.394 98.9748 318.396 98.9634 318.401 98.9529C318.406 98.9424 318.412 98.9331 318.421 98.9255C318.437 98.9144 318.456 98.9085 318.475 98.9085C318.495 98.9085 318.514 98.9144 318.53 98.9255C320.234 100.228 322.084 101.328 324.043 102.204C326.381 103.226 328.853 103.909 331.385 104.232C332.786 104.42 334.2 104.481 335.612 104.415C336.337 104.367 337.075 104.354 337.82 104.273L340.075 103.921C346.771 102.531 352.685 98.6495 356.616 93.0645C358.802 89.9777 360.303 86.4608 361.019 82.7488C361.754 78.827 361.625 74.7923 360.639 70.9255C359.626 66.8862 357.667 63.1445 354.923 60.0081L353.832 58.8116C353.473 58.4128 353.046 58.0815 352.66 57.7165C352.278 57.3457 351.875 56.9959 351.455 56.6687L350.181 55.7155C349.754 55.3895 349.301 55.0979 348.827 54.8435L347.472 54.0255L346.063 53.3495C345.601 53.1082 345.124 52.8981 344.634 52.7209C340.848 51.228 336.772 50.6131 332.713 50.9227C328.871 51.2024 325.139 52.3315 321.787 54.2283C315.764 57.6433 311.28 63.2313 309.257 69.8439C308.437 72.658 308.051 75.5802 308.112 78.5103C308.251 83.1966 309.612 87.7657 312.061 91.7666C312.068 91.7791 312.071 91.7931 312.071 91.8072C312.071 91.8213 312.068 91.8352 312.061 91.8477L306.324 101.907C306.615 101.386 308.356 98.2359 311.912 91.7666V91.8545C309.411 87.8404 308.009 83.2412 307.848 78.517C307.773 75.561 308.152 72.6109 308.972 69.7696C311.01 63.0618 315.555 57.3932 321.666 53.9377C325.052 52.0042 328.829 50.8494 332.72 50.5577C336.831 50.2397 340.961 50.8592 344.796 52.3693C345.293 52.5489 345.777 52.7611 346.246 53.0048L347.675 53.6808L349.03 54.5123C349.5 54.7754 349.953 55.0689 350.384 55.3911L351.671 56.3577C352.118 56.6687 352.484 57.0337 352.897 57.4191C353.311 57.8044 353.717 58.1289 354.083 58.5345L355.18 59.7445C357.965 62.9195 359.952 66.7105 360.978 70.8039C361.975 74.7197 362.102 78.8058 361.351 82.7758C360.627 86.5333 359.105 90.0924 356.887 93.2133C352.908 98.862 346.915 102.778 340.136 104.158L337.861 104.509C337.109 104.584 336.357 104.597 335.625 104.644C334.2 104.708 332.771 104.64 331.358 104.442C328.807 104.104 326.318 103.401 323.968 102.353C321.997 101.462 320.138 100.344 318.428 99.0201L318.55 98.8917C318.566 98.908 318.574 98.9298 318.574 98.9525C318.574 98.9752 318.566 98.997 318.55 99.0133H318.516L306.358 101.9Z" fill="#263238"/>
<path d="M346.117 70.3037C345.867 70.6149 345.59 70.9044 345.291 71.169L342.934 73.4403C340.902 75.3399 338.145 77.9493 335.056 80.8155L334.589 81.2549L334.474 81.3631L334.345 81.2549L330.566 78.0169H330.796L325.641 82.6745L324.151 83.9859C323.979 84.1507 323.791 84.2979 323.589 84.4253C323.732 84.2341 323.893 84.0575 324.07 83.8981C324.449 83.5398 324.923 83.0801 325.499 82.5461L330.559 77.8141L330.674 77.7127L330.789 77.8073L334.582 81.0318H334.338L334.806 80.5992C337.894 77.7329 340.705 75.1912 342.758 73.2984L345.189 71.1217C345.475 70.8232 345.785 70.5496 346.117 70.3037Z" fill="#263238"/>
<path d="M346.497 76.5224C346.371 75.9265 346.303 75.3198 346.294 74.7108C346.212 73.5818 346.124 72.0068 346.043 70.2762L346.239 70.4587H345.921C344.119 70.5331 342.48 70.5872 341.295 70.6007C340.656 70.6505 340.014 70.6346 339.378 70.5534C340.006 70.4185 340.646 70.346 341.288 70.337C342.467 70.2559 344.099 70.1613 345.907 70.0869H346.219H346.402V70.2694C346.47 72.0135 346.517 73.5751 346.531 74.704C346.576 75.3099 346.565 75.9187 346.497 76.5224Z" fill="#263238"/>
</svg>
